<?xml version="1.0" standalone="no"?>
<!DOCTYPE svg PUBLIC "-//W3C//DTD SVG 1.1//EN" "http://www.w3.org/Graphics/SVG/1.1/DTD/svg11.dtd" >
<svg xmlns="http://www.w3.org/2000/svg" xmlns:xlink="http://www.w3.org/1999/xlink" version="1.1">
<metadata>
Created by FontForge 20201107 at Wed Aug 28 17:19:27 2024
 By 
Copyright (c) 2016 Indian Type Foundry.
</metadata>
<defs>
<font id="Eileen-Regular" horiz-adv-x="1468" >
  <font-face 
    font-family="Eileen"
    font-weight="400"
    font-stretch="normal"
    units-per-em="2048"
    panose-1="0 0 0 0 0 0 0 0 0 0"
    ascent="1536"
    descent="-512"
    x-height="1157"
    cap-height="1536"
    bbox="-344 -543 2363 2101"
    underline-thickness="0"
    underline-position="0"
    unicode-range="U+0020-FB02"
  />
<missing-glyph horiz-adv-x="1452" 
d="M338 1391v-1246h776v1246h-776zM176 0v1536h1100v-1536h-1100z" />
    <glyph glyph-name="fi" unicode="fi" horiz-adv-x="1241" 
d="M909 1378v158h185v-158h-185zM918 0v1018h-543v-1018h-166v1018h-189v139h189v27q0 175 91.5 263.5t260.5 88.5h160v-135h-156q-90 0 -140 -45t-50 -164v-35h710v-1157h-167z" />
    <glyph glyph-name="fl" unicode="fl" horiz-adv-x="1241" 
d="M715 1018h-340v-1018h-166v1018h-189v139h189v27q0 175 91.5 263.5t260.5 88.5h524v-1536h-167v1401h-353q-90 0 -140 -45t-50 -164v-35h340v-139z" />
    <glyph glyph-name=".notdef" horiz-adv-x="1452" 
d="M338 1391v-1246h776v1246h-776zM176 0v1536h1100v-1536h-1100z" />
    <glyph glyph-name=".null" horiz-adv-x="0" 
 />
    <glyph glyph-name="nonmarkingreturn" horiz-adv-x="682" 
 />
    <glyph glyph-name="space" unicode=" " horiz-adv-x="737" 
 />
    <glyph glyph-name="exclam" unicode="!" horiz-adv-x="493" 
d="M336 1536v-612l-25 -512h-131l-24 512v612h180zM356 205v-205h-221v205h221z" />
    <glyph glyph-name="quotedbl" unicode="&#x22;" horiz-adv-x="718" 
d="M610 1536v-225l-39 -312h-84l-41 312v225h164zM272 1536v-225l-41 -312h-84l-41 312v225h166z" />
    <glyph glyph-name="numbersign" unicode="#" horiz-adv-x="1431" 
d="M893 590v393h-346v-393h346zM893 0v438h-346v-438h-164v438h-336v152h336v393h-336v152h336v401h164v-401h346v401h162v-401h329v-152h-329v-393h329v-152h-329v-438h-162z" />
    <glyph glyph-name="dollar" unicode="$" horiz-adv-x="952" 
d="M565 -197h-149v160h-23q-150 0 -297 43v158q133 -45 285 -45q134 0 211.5 59.5t77.5 177.5q0 58 -31 116t-80 108t-109 102t-119.5 107.5t-108.5 113.5t-80 130.5t-31 148.5q0 144 84.5 241.5t220.5 132.5v179h149v-162q155 -3 277 -45v-158q-125 47 -277 47
q-121 0 -198.5 -58.5t-77.5 -170.5q0 -56 31 -113.5t80.5 -108.5t109.5 -104t119.5 -109.5t109 -115t80.5 -130.5t31 -147q0 -141 -76.5 -237t-208.5 -135v-185z" />
    <glyph glyph-name="percent" unicode="%" horiz-adv-x="1593" 
d="M422 856q-148 0 -253.5 106.5t-105.5 254.5t105.5 254t253.5 106q149 0 254.5 -106t105.5 -254t-105.5 -254.5t-254.5 -106.5zM1389 1536l-1029 -1536h-155l1028 1536h156zM422 975q95 0 162 71t67 171t-67 169.5t-162 69.5t-162 -69.5t-67 -169.5t67 -171t162 -71z
M1171 -41q-149 0 -254.5 105t-105.5 253t105.5 254.5t254.5 106.5q148 0 253.5 -106.5t105.5 -254.5t-105.5 -253t-253.5 -105zM1171 78q95 0 162.5 70.5t67.5 168.5q0 100 -67.5 171t-162.5 71t-162 -71t-67 -171q0 -99 67 -169t162 -70z" />
    <glyph glyph-name="ampersand" unicode="&#x26;" horiz-adv-x="1298" 
d="M688 965q101 0 171.5 71t70.5 174q0 101 -70.5 172.5t-171.5 71.5t-172.5 -71.5t-71.5 -172.5q0 -102 71 -173.5t173 -71.5zM1194 518q0 -165 -73 -293.5t-197.5 -197t-276.5 -68.5q-153 0 -277 63t-195 178t-71 261q0 166 98 286t263 168q-77 46 -122.5 125t-45.5 170
q0 152 115 260.5t276 108.5t276 -108.5t115 -260.5q0 -153 -114.5 -261.5t-276.5 -108.5h-8h-18q-168 0 -280 -102.5t-112 -268.5q0 -159 109 -261t268 -102q171 0 278.5 104.5t114.5 283.5h-217v141h371v-117z" />
    <glyph glyph-name="quotesingle" unicode="'" horiz-adv-x="378" 
d="M272 1536v-225l-41 -312h-84l-41 312v225h166z" />
    <glyph glyph-name="parenleft" unicode="(" horiz-adv-x="700" 
d="M168 70v1204q0 403 403 403h54v-141h-47q-131 0 -186.5 -62t-55.5 -204v-1196q0 -140 55.5 -201t186.5 -61h47v-144h-54q-403 0 -403 402z" />
    <glyph glyph-name="parenright" unicode=")" horiz-adv-x="700" 
d="M530 1274v-1204q0 -402 -403 -402h-53v144h49q131 0 185 60.5t54 201.5v1196q0 143 -54 204.5t-185 61.5h-49v141h53q403 0 403 -403z" />
    <glyph glyph-name="asterisk" unicode="*" horiz-adv-x="800" 
d="M553 903l-154 211l-153 -211l-105 82l170 191l-241 67l39 123l237 -88l-12 258h131l-10 -258l237 90l39 -125l-244 -67l170 -191z" />
    <glyph glyph-name="plus" unicode="+" horiz-adv-x="1218" 
d="M1079 692h-389v-409h-164v409h-389v148h389v403h164v-403h389v-148z" />
    <glyph glyph-name="comma" unicode="," horiz-adv-x="458" 
d="M344 0l-145 -391h-117l115 391h-82v213h229v-213z" />
    <glyph glyph-name="hyphen" unicode="-" horiz-adv-x="806" 
d="M88 610v152h631v-152h-631z" />
    <glyph glyph-name="period" unicode="." horiz-adv-x="458" 
d="M344 213v-213h-229v213h229z" />
    <glyph glyph-name="slash" unicode="/" horiz-adv-x="860" 
d="M25 -205l637 1946h172l-635 -1946h-174z" />
    <glyph glyph-name="zero" unicode="0" horiz-adv-x="1832" 
d="M915 -41q-164 0 -314 64.5t-258.5 173.5t-172.5 259t-64 314q0 218 108.5 404t295 294.5t405.5 108.5q218 0 404.5 -108.5t295.5 -294.5t109 -404q0 -219 -109 -406t-295.5 -296t-404.5 -109zM283 770q0 -223 131 -397l901 899q-172 145 -400 145q-172 0 -317.5 -86
t-230 -235t-84.5 -326zM915 117q129 0 246 51.5t202 139t135 208.5t50 254q0 216 -129 395l-903 -903q176 -145 399 -145z" />
    <glyph glyph-name="one" unicode="1" horiz-adv-x="522" 
d="M346 1577v-1577h-170v1407z" />
    <glyph glyph-name="two" unicode="2" horiz-adv-x="1087" 
d="M971 0h-932l360 449q219 264 300 412.5t81 277.5q0 134 -88.5 211t-238.5 77q-139 0 -308 -65v154q170 61 322 61q228 0 361 -117.5t133 -306.5q0 -153 -79 -305t-309 -432l-217 -271h615v-145z" />
    <glyph glyph-name="three" unicode="3" horiz-adv-x="1179" 
d="M483 -41q-208 0 -381 68v159q104 -44 186.5 -62t182.5 -18q186 0 307 101t121 268q0 149 -105 238.5t-292 89.5q-138 0 -279 -41l522 620h-616v154h911l-493 -596h4q243 0 381.5 -127t138.5 -330q0 -230 -164.5 -377t-423.5 -147z" />
    <glyph glyph-name="four" unicode="4" horiz-adv-x="1212" 
d="M920 815h167v-815h-167v307h-887l733 1229h178l-641 -1085h617v364z" />
    <glyph glyph-name="five" unicode="5" horiz-adv-x="1167" 
d="M483 -41q-195 0 -364 68v161q104 -44 184 -63t170 -19q181 0 298.5 101t117.5 270q0 149 -104.5 240.5t-288.5 91.5q-145 0 -326 -64l37 791h803v-154h-656l-20 -454q111 30 205 30q237 0 380.5 -128t143.5 -347q0 -231 -162 -377.5t-418 -146.5z" />
    <glyph glyph-name="six" unicode="6" horiz-adv-x="1294" 
d="M651 -41q-239 0 -390.5 153.5t-151.5 387.5q0 140 56.5 273.5t182.5 309.5l318 453h200l-368 -498l-58 -77q101 65 230 65q226 0 376 -153t150 -381q0 -108 -40.5 -206t-111 -170t-173 -114.5t-220.5 -42.5zM651 106q169 0 271 110t102 276q0 103 -44 190t-130.5 141
t-198.5 54q-168 0 -269 -109.5t-101 -273.5q0 -162 101.5 -275t268.5 -113z" />
    <glyph glyph-name="seven" unicode="7" horiz-adv-x="1099" 
d="M453 0h-183l531 1382h-719v154h948z" />
    <glyph glyph-name="eight" unicode="8" horiz-adv-x="1300" 
d="M649 -41q-239 0 -394 129.5t-155 317.5q0 137 81 245t225 160q-109 53 -171.5 146.5t-62.5 203.5q0 175 134 295.5t343 120.5t344 -120.5t135 -295.5q0 -109 -62.5 -202.5t-170.5 -147.5q144 -52 224.5 -160t80.5 -245q0 -187 -156 -317t-395 -130zM649 883
q136 0 221.5 76.5t85.5 193.5q0 118 -89.5 197.5t-217.5 79.5t-217.5 -79.5t-89.5 -197.5q0 -117 84.5 -193.5t222.5 -76.5zM649 106q169 0 272 89t103 223q0 132 -99.5 222.5t-275.5 90.5q-179 0 -276 -90t-97 -223q0 -135 100.5 -223.5t272.5 -88.5z" />
    <glyph glyph-name="nine" unicode="9" horiz-adv-x="1294" 
d="M627 0h-199l369 496q47 64 59 82q-101 -68 -231 -68q-149 0 -270 69.5t-189 191t-68 271.5q0 145 68.5 267t193.5 195t281 73q159 0 284 -71t193 -194.5t68 -277.5q0 -138 -57 -271t-183 -312zM641 1427q-168 0 -269.5 -109.5t-101.5 -273.5q0 -104 44 -191.5t130 -141.5
t197 -54q169 0 271 110t102 275q0 161 -102.5 273t-270.5 112z" />
    <glyph glyph-name="colon" unicode=":" horiz-adv-x="458" 
d="M344 1157v-213h-229v213h229zM344 213v-213h-229v213h229z" />
    <glyph glyph-name="semicolon" unicode=";" horiz-adv-x="458" 
d="M344 1157v-213h-229v213h229zM344 0l-145 -391h-117l115 391h-82v213h229v-213z" />
    <glyph glyph-name="less" unicode="&#x3c;" horiz-adv-x="995" 
d="M903 205l-883 526l883 522v-186l-610 -338l610 -338v-186z" />
    <glyph glyph-name="equal" unicode="=" horiz-adv-x="1218" 
d="M1079 1053v-150h-942v150h942zM1079 623v-148h-942v148h942z" />
    <glyph glyph-name="greater" unicode="&#x3e;" horiz-adv-x="995" 
d="M92 205v184l608 338l-608 338v188l883 -526z" />
    <glyph glyph-name="question" unicode="?" horiz-adv-x="761" 
d="M51 1395v141q328 0 488.5 -105.5t160.5 -287.5q0 -107 -55 -203.5t-182 -214.5l-57 -51l-21 -262h-129l-14 305l63 55q133 115 182.5 194t49.5 171q0 258 -486 258zM436 205v-205h-221v205h221z" />
    <glyph glyph-name="at" unicode="@" horiz-adv-x="1886" 
d="M961 -289q-178 0 -336.5 56t-278.5 157.5t-190 255.5t-70 340q0 174 67 330.5t182.5 271t278.5 181.5t347 67q183 0 341 -59t266 -160.5t169 -238t61 -289.5q0 -121 -30 -217t-80 -152.5t-109 -85.5t-121 -29q-89 0 -148 43t-79 121q-47 -84 -129 -129t-187 -45
q-161 0 -280 116t-119 296q0 87 34.5 163t90.5 127t127.5 80t146.5 29q98 0 177 -40.5t129 -113.5v144h127v-531q0 -139 114 -139q79 0 139 85.5t60 256.5q0 134 -49 252t-138 205t-222 137.5t-291 50.5q-160 0 -298.5 -59t-233 -158.5t-148.5 -232t-54 -277.5
q0 -159 60 -290t161.5 -216t233.5 -131.5t279 -46.5q220 0 403 68v-125q-183 -68 -403 -68zM932 244q121 0 201.5 85.5t80.5 211.5q0 118 -81 200t-201 82q-123 0 -204 -81t-81 -201q0 -127 80.5 -212t204.5 -85z" />
    <glyph glyph-name="A" unicode="A" horiz-adv-x="1564" 
d="M1139 440l-361 783l-360 -783h721zM1341 0l-133 289h-860l-133 -289h-184l751 1577l752 -1577h-193z" />
    <glyph glyph-name="B" unicode="B" horiz-adv-x="1081" 
d="M393 0h-217v1419l-70 117h248q277 0 433.5 -119.5t156.5 -312.5q0 -138 -79.5 -247t-209.5 -150q159 -29 238.5 -118.5t79.5 -199.5q0 -178 -148 -283.5t-432 -105.5zM774 1085q0 134 -106 215.5t-281 81.5h-45v-628h72q91 0 171.5 36t134.5 113.5t54 181.5zM442 616
h-100v-473h78q192 0 285.5 67t93.5 181q0 105 -90 165t-267 60z" />
    <glyph glyph-name="C" unicode="C" horiz-adv-x="1462" 
d="M928 -41q-179 0 -333 60t-261.5 166.5t-168.5 256.5t-61 324q0 165 64 314.5t173 258.5t261.5 173.5t321.5 64.5q231 0 430 -113v-180q-196 129 -432 129q-179 0 -325.5 -87t-229 -235.5t-82.5 -326.5q0 -139 47.5 -258.5t131.5 -204t204 -132.5t260 -48q216 0 426 119
v-174q-192 -107 -426 -107z" />
    <glyph glyph-name="D" unicode="D" horiz-adv-x="1386" 
d="M176 0v1419l-70 117h367q183 0 336.5 -59.5t256 -163t159.5 -243.5t57 -300q0 -157 -57 -297t-159.5 -245t-256 -166.5t-336.5 -61.5h-297zM346 152h127q146 0 267 50t199.5 135t121.5 196.5t43 236.5q0 128 -43 239t-121.5 194.5t-199 131t-267.5 47.5h-127v-1230z" />
    <glyph glyph-name="E" unicode="E" horiz-adv-x="876" 
d="M176 0v1419l-70 117h627v-152h-391v-698h391v-149h-391v-387h391v-150h-557z" />
    <glyph glyph-name="F" unicode="F" horiz-adv-x="856" 
d="M342 0h-166v1419l-70 117h627v-152h-391v-698h391v-149h-391v-537z" />
    <glyph glyph-name="G" unicode="G" horiz-adv-x="1505" 
d="M1360 70q-193 -111 -438 -111q-179 0 -331.5 60t-259 166.5t-167 256t-60.5 324.5q0 165 64 314.5t173 258.5t261.5 173.5t321.5 64.5q231 0 430 -113v-180q-196 129 -432 129q-179 0 -325.5 -87t-229 -235.5t-82.5 -326.5q0 -282 178 -462.5t457 -180.5q141 0 274 45
v534h166v-630z" />
    <glyph glyph-name="H" unicode="H" horiz-adv-x="1452" 
d="M1106 639v897h170v-1536h-170v481h-760v-481h-170v1536h170v-897h760z" />
    <glyph glyph-name="I" unicode="I" horiz-adv-x="522" 
d="M346 1536v-1536h-170v1536h170z" />
    <glyph glyph-name="J" unicode="J" horiz-adv-x="821" 
d="M274 0h-180v150h164q51 0 89 10.5t71 37.5t50 79.5t17 130.5v970h-383v158h553v-1128q0 -205 -99 -306.5t-282 -101.5z" />
    <glyph glyph-name="K" unicode="K" horiz-adv-x="1200" 
d="M938 0l-594 565v-565h-168v1536h168v-940l625 940h182l-621 -934l627 -602h-219z" />
    <glyph glyph-name="L" unicode="L" horiz-adv-x="839" 
d="M346 1536v-1386h387v-150h-557v1536h170z" />
    <glyph glyph-name="M" unicode="M" horiz-adv-x="1906" 
d="M952 352l-606 774v-1126h-170v1577l778 -983l777 983v-1577h-170v1130z" />
    <glyph glyph-name="N" unicode="N" horiz-adv-x="1409" 
d="M344 1126v-1126h-168v1577l887 -1188v1147h170v-1577z" />
    <glyph glyph-name="O" unicode="O" horiz-adv-x="1828" 
d="M913 -41q-164 0 -314 64.5t-258.5 173.5t-172.5 259t-64 314q0 218 108.5 404t295 294.5t405.5 108.5q218 0 404.5 -108.5t295.5 -294.5t109 -404q0 -219 -109 -406t-295.5 -296t-404.5 -109zM913 119q128 0 245 51.5t201.5 138.5t134.5 207.5t50 253.5
q0 176 -84.5 324.5t-230 234.5t-316.5 86q-172 0 -317 -86t-229 -234.5t-84 -324.5q0 -177 84 -327t229 -237t317 -87z" />
    <glyph glyph-name="P" unicode="P" horiz-adv-x="1077" 
d="M346 0h-170v1419l-70 117h240q271 0 445 -154.5t174 -408.5q0 -171 -84.5 -305t-225 -204.5t-309.5 -70.5v-393zM379 1382h-33v-833h33q111 0 204 49.5t150.5 146t57.5 222.5q0 124 -59 220t-152 145.5t-201 49.5z" />
    <glyph glyph-name="Q" unicode="Q" horiz-adv-x="1828" 
d="M995 -393h-164v356q-201 20 -368 132.5t-263 290.5t-96 384q0 218 108.5 404t295 294.5t405.5 108.5q218 0 404.5 -108.5t295.5 -294.5t109 -404q0 -154 -57 -296.5t-154 -249t-231.5 -176.5t-284.5 -85v-356zM831 575h164v-450q233 31 391 214.5t158 430.5
q0 176 -84.5 324.5t-230 234.5t-316.5 86q-172 0 -317 -86t-229 -234.5t-84 -324.5q0 -248 157 -431t391 -214v450z" />
    <glyph glyph-name="R" unicode="R" horiz-adv-x="1099" 
d="M379 1382h-33v-833h33q111 0 204 49.5t150.5 146t57.5 222.5q0 124 -59 220t-152 145.5t-201 49.5zM809 0l-229 432q-115 -39 -234 -39v-393h-170v1419l-70 117h240q271 0 445 -154.5t174 -408.5q0 -148 -63.5 -268t-174.5 -197l272 -508h-190z" />
    <glyph glyph-name="S" unicode="S" horiz-adv-x="751" 
d="M653 1384h-96q-119 0 -188.5 -51t-69.5 -157q0 -63 34.5 -141.5t84 -155.5t99 -157t84 -172t34.5 -175q0 -177 -117 -276t-307 -99h-111v150h111q116 0 184 54.5t68 166.5q0 70 -34.5 152.5t-84 160t-99 156.5t-84 166.5t-34.5 164.5q0 170 118.5 267.5t305.5 97.5h102
v-152z" />
    <glyph glyph-name="T" unicode="T" horiz-adv-x="882" 
d="M68 1536h747v-147h-289v-1389h-170v1389h-288v147z" />
    <glyph glyph-name="U" unicode="U" horiz-adv-x="1400" 
d="M1235 1536v-1022q0 -255 -150.5 -405t-384.5 -150q-153 0 -273.5 65.5t-190.5 192.5t-70 297v1022h170v-1004q0 -184 96 -300.5t268 -116.5t268.5 116.5t96.5 300.5v1004h170z" />
    <glyph glyph-name="V" unicode="V" horiz-adv-x="1564" 
d="M782 -41l-751 1577h194l561 -1223l564 1223h184z" />
    <glyph glyph-name="W" unicode="W" horiz-adv-x="2177" 
d="M1579 -41l-489 1243l-490 -1243l-573 1577h184l412 -1159l469 1200l467 -1192l409 1151h182z" />
    <glyph glyph-name="X" unicode="X" horiz-adv-x="1165" 
d="M866 0l-295 555l-292 -555h-179l387 711l-438 825h187l354 -668l346 668h178l-440 -823l379 -713h-187z" />
    <glyph glyph-name="Y" unicode="Y" horiz-adv-x="1386" 
d="M776 0h-170v463l-579 1073h186l485 -889l482 889h180l-584 -1077v-459z" />
    <glyph glyph-name="Z" unicode="Z" horiz-adv-x="1007" 
d="M84 0l604 1378h-551v158h787l-602 -1380h577v-156h-815z" />
    <glyph glyph-name="bracketleft" unicode="[" horiz-adv-x="706" 
d="M176 -332v2009h457v-141h-289v-1724h289v-144h-457z" />
    <glyph glyph-name="backslash" unicode="\" horiz-adv-x="860" 
d="M834 -205h-172l-637 1946h174z" />
    <glyph glyph-name="bracketright" unicode="]" horiz-adv-x="706" 
d="M74 -332v144h288v1724h-288v141h456v-2009h-456z" />
    <glyph glyph-name="asciicircum" unicode="^" horiz-adv-x="1179" 
d="M954 246l-366 862l-367 -862h-176l547 1210l543 -1210h-181z" />
    <glyph glyph-name="underscore" unicode="_" horiz-adv-x="1146" 
d="M68 -246v152h1011v-152h-1011z" />
    <glyph glyph-name="grave" unicode="`" horiz-adv-x="1024" 
d="M225 1618h197l178 -328h-149z" />
    <glyph glyph-name="a" unicode="a" 
d="M705 121q120 0 222 61t161 167t59 233q0 190 -129 322t-313 132q-186 0 -314.5 -131.5t-128.5 -322.5q0 -194 128.5 -327.5t314.5 -133.5zM1153 0v240q-72 -129 -194.5 -200t-270.5 -71q-122 0 -232.5 47.5t-190.5 129t-127.5 195.5t-47.5 241q0 125 47.5 237.5
t127.5 193t190.5 128t232.5 47.5q148 0 270.5 -70.5t194.5 -197.5v237h160v-1157h-160z" />
    <glyph glyph-name="b" unicode="b" 
d="M780 -31q-148 0 -270.5 71t-194.5 198v-238h-159v1536h166v-606q73 123 193 190.5t265 67.5q122 0 232.5 -47.5t190.5 -128.5t127.5 -194t47.5 -240q0 -126 -47.5 -239t-127.5 -194t-190.5 -128.5t-232.5 -47.5zM764 1036q-184 0 -313 -133.5t-129 -324.5t129 -324
t313 -133q185 0 313.5 132.5t128.5 324.5t-128.5 325t-313.5 133z" />
    <glyph glyph-name="c" unicode="c" horiz-adv-x="1146" 
d="M711 -31q-174 0 -316 78.5t-223.5 218.5t-81.5 314q0 168 84.5 308t228 220t312.5 80q190 0 332 -80v-168q-146 96 -320 96q-198 0 -331.5 -132t-133.5 -324q0 -202 132 -330.5t335 -128.5q151 0 313 86v-164q-145 -74 -331 -74z" />
    <glyph glyph-name="d" unicode="d" 
d="M705 121q120 0 222 61t161 167t59 233q0 190 -129 322t-313 132q-186 0 -314.5 -131.5t-128.5 -322.5q0 -194 128.5 -327.5t314.5 -133.5zM1153 0v240q-72 -129 -194.5 -200t-270.5 -71q-122 0 -232.5 47.5t-190.5 129t-127.5 195.5t-47.5 241q0 125 47.5 237.5
t127.5 193t190.5 128t232.5 47.5q145 0 265.5 -67.5t193.5 -190.5v606h166v-1536h-160z" />
    <glyph glyph-name="e" unicode="e" horiz-adv-x="1273" 
d="M670 1038q-155 0 -264.5 -100.5t-135.5 -263.5h762q-9 161 -111.5 262.5t-250.5 101.5zM1116 70q-176 -101 -391 -101q-292 0 -463.5 164t-171.5 445q0 166 76 306t210.5 222t297.5 82q115 0 214.5 -44.5t169 -122t104.5 -189t24 -238.5l-4 -49h-920
q10 -199 133.5 -312.5t327.5 -113.5q216 0 393 98v-147z" />
    <glyph glyph-name="f" unicode="f" horiz-adv-x="751" 
d="M715 1157v-139h-340v-1018h-166v1018h-189v139h189v27q0 175 90 263.5t262 88.5h160v-135h-156q-95 0 -142.5 -47.5t-47.5 -161.5v-35h340z" />
    <glyph glyph-name="g" unicode="g" 
d="M705 121q120 0 222 61t161 167t59 233q0 190 -129 322t-313 132q-186 0 -314.5 -131.5t-128.5 -322.5q0 -194 128.5 -327.5t314.5 -133.5zM674 -543q-191 0 -365 56v149q160 -57 353 -57q89 0 159 12.5t134 45t106 86.5t67 141t25 204v146q-72 -129 -194.5 -200
t-270.5 -71q-122 0 -232.5 47.5t-190.5 129t-127.5 195.5t-47.5 241q0 125 47.5 237.5t127.5 193t190.5 128t232.5 47.5q148 0 270.5 -70.5t194.5 -197.5v237h160v-1048q0 -325 -164.5 -488.5t-474.5 -163.5z" />
    <glyph glyph-name="h" unicode="h" horiz-adv-x="1329" 
d="M322 625v-625h-166v1536h166v-563q64 105 167.5 160t233.5 55q209 0 335 -137.5t126 -397.5v-653h-168v639q0 193 -95.5 295t-240.5 102q-155 0 -256.5 -106.5t-101.5 -304.5z" />
    <glyph glyph-name="i" unicode="i" horiz-adv-x="477" 
d="M145 1378v158h185v-158h-185zM322 1157v-1157h-166v1157h166z" />
    <glyph glyph-name="j" unicode="j" horiz-adv-x="477" 
d="M145 1378v158h185v-158h-185zM-137 -512v143h94q96 0 147.5 47t51.5 170v1309h166v-1309q0 -178 -90.5 -269t-256.5 -91h-112z" />
    <glyph glyph-name="k" unicode="k" horiz-adv-x="1120" 
d="M322 1536v-1536h-166v1536h166zM1096 0h-203l-477 530l475 627h180l-465 -610z" />
    <glyph glyph-name="l" unicode="l" horiz-adv-x="477" 
d="M322 0h-166v1536h166v-1536z" />
    <glyph glyph-name="m" unicode="m" horiz-adv-x="2123" 
d="M322 631v-631h-166v1157h159v-186q61 106 161 161.5t226 55.5q139 0 242.5 -64.5t155.5 -189.5q61 123 171.5 188.5t252.5 65.5q207 0 330.5 -135.5t123.5 -393.5v-659h-166v645q0 190 -91 290.5t-230 100.5q-148 0 -245 -104.5t-97 -300.5v-631h-166v645
q0 190 -90.5 290.5t-228.5 100.5q-148 0 -245 -104.5t-97 -300.5z" />
    <glyph glyph-name="n" unicode="n" horiz-adv-x="1329" 
d="M322 625v-625h-166v1157h159v-192q62 109 167.5 166t238.5 57q209 0 336 -137.5t127 -397.5v-653h-168v639q0 193 -95.5 295t-240.5 102q-155 0 -256.5 -106.5t-101.5 -304.5z" />
    <glyph glyph-name="o" unicode="o" horiz-adv-x="1411" 
d="M705 -31q-125 0 -238.5 48.5t-196 130.5t-131.5 196t-49 238q0 123 49 235t131.5 193.5t196 129.5t238.5 48q165 0 306.5 -81t224.5 -221t83 -304q0 -166 -83 -307.5t-224.5 -223.5t-306.5 -82zM705 121q120 0 222 61t161 167t59 233q0 190 -129 322t-313 132
q-185 0 -314 -132t-129 -322q0 -193 129 -327t314 -134z" />
    <glyph glyph-name="p" unicode="p" 
d="M764 1036q-184 0 -313 -133.5t-129 -324.5t129 -324t313 -133q185 0 313.5 132.5t128.5 324.5q0 191 -129 324.5t-313 133.5zM780 -31q-145 0 -265 67.5t-193 190.5v-739h-166v1669h159v-237q72 127 194.5 197.5t270.5 70.5q122 0 232.5 -47.5t190.5 -128.5t127.5 -194
t47.5 -240q0 -126 -47.5 -239t-127.5 -194t-190.5 -128.5t-232.5 -47.5z" />
    <glyph glyph-name="q" unicode="q" 
d="M1313 -512h-166v739q-73 -123 -193.5 -190.5t-265.5 -67.5q-122 0 -232.5 47.5t-190.5 129t-127.5 195.5t-47.5 241q0 125 47.5 237.5t127.5 193t190.5 128t232.5 47.5q148 0 270.5 -70.5t194.5 -197.5v237h160v-1669zM705 121q120 0 222 61t161 167t59 233
q0 190 -129 322t-313 132q-186 0 -314.5 -131.5t-128.5 -322.5q0 -194 128.5 -327.5t314.5 -133.5z" />
    <glyph glyph-name="r" unicode="r" horiz-adv-x="804" 
d="M322 639v-639h-166v1157h159v-194q65 109 177 167t251 58v-164q-24 6 -65 6q-68 0 -131 -24.5t-113.5 -71t-81 -123t-30.5 -172.5z" />
    <glyph glyph-name="s" unicode="s" horiz-adv-x="907" 
d="M391 -31q-160 0 -303 58v147q137 -61 293 -61q132 0 201 45t69 131q0 49 -30.5 90.5t-78.5 72.5t-106.5 61.5t-117.5 64.5t-107 73.5t-78.5 97.5t-30.5 128q0 138 112.5 224.5t285.5 86.5q164 0 293 -60v-145q-131 61 -281 61q-114 0 -178 -43t-64 -118q0 -46 30.5 -85.5
t78.5 -71t106.5 -62.5t117.5 -66.5t107 -76.5t78.5 -99.5t30.5 -128.5q0 -148 -116.5 -236t-311.5 -88z" />
    <glyph glyph-name="t" unicode="t" horiz-adv-x="790" 
d="M750 1018h-322v-1018h-168v1018h-256v139h256v221h168v-221h322v-139z" />
    <glyph glyph-name="u" unicode="u" horiz-adv-x="1318" 
d="M1001 0v190q-62 -108 -165 -164.5t-232 -56.5q-209 0 -334 137t-125 398v653h166v-639q0 -193 94 -295t238 -102q153 0 253.5 106.5t100.5 304.5v625h166v-1157h-162z" />
    <glyph glyph-name="v" unicode="v" horiz-adv-x="1230" 
d="M614 -47l-587 1204h186l405 -870l408 870h176z" />
    <glyph glyph-name="w" unicode="w" horiz-adv-x="1705" 
d="M1237 -47l-385 911l-379 -911l-442 1204h170l297 -831l358 864l356 -854l293 821h170z" />
    <glyph glyph-name="x" unicode="x" horiz-adv-x="1052" 
d="M795 0l-279 418l-276 -418h-177l369 545l-407 612h182l325 -487l320 487h174l-412 -612l365 -545h-184z" />
    <glyph glyph-name="y" unicode="y" horiz-adv-x="1236" 
d="M696 -512h-166v494l-510 1175h181l417 -964l429 964h170l-521 -1173v-496z" />
    <glyph glyph-name="z" unicode="z" horiz-adv-x="989" 
d="M61 0l615 1008h-572v149h828l-615 -1010h592v-147h-848z" />
    <glyph glyph-name="braceleft" unicode="{" horiz-adv-x="774" 
d="M698 -332h-53q-403 0 -403 402v415q0 74 -25 101.5t-92 27.5h-78v158h86q61 0 85 28.5t24 100.5v373q0 203 99.5 303t303.5 100h53v-141h-47q-132 0 -186.5 -61.5t-54.5 -204.5v-340q0 -43 -3 -72.5t-12 -64t-30 -58.5t-54 -37q63 -21 81 -78t18 -169v-377
q0 -140 54.5 -201t186.5 -61h47v-144z" />
    <glyph glyph-name="bar" unicode="|" horiz-adv-x="522" 
d="M176 -205v1946h170v-1946h-170z" />
    <glyph glyph-name="braceright" unicode="}" horiz-adv-x="774" 
d="M127 -332h-53v144h49q131 0 185 60.5t54 201.5v377q0 109 17.5 166.5t79.5 80.5q-32 13 -53 36.5t-29.5 58t-11.5 64t-3 73.5v340q0 141 -54.5 203.5t-184.5 62.5h-49v141h53q403 0 403 -403v-373q0 -72 24.5 -100.5t88.5 -28.5h82v-158h-84q-63 0 -87 -28.5t-24 -100.5
v-415q0 -402 -403 -402z" />
    <glyph glyph-name="asciitilde" unicode="~" horiz-adv-x="1218" 
d="M864 641q-74 0 -172.5 36.5t-190 72.5t-147.5 36q-61 0 -110 -16t-107 -53v147q112 72 217 72q59 0 132 -22.5t131 -50t126.5 -50t118.5 -22.5q61 0 110 16t107 53v-147q-112 -72 -215 -72z" />
    <glyph glyph-name="uni00A0" unicode="&#xa0;" horiz-adv-x="737" 
 />
    <glyph glyph-name="exclamdown" unicode="&#xa1;" horiz-adv-x="493" 
d="M135 952v205h221v-205h-221zM156 -377v610l24 512h131l25 -512v-610h-180z" />
    <glyph glyph-name="cent" unicode="&#xa2;" horiz-adv-x="1120" 
d="M995 272q-128 -67 -307 -67v-205h-147v219q-202 40 -323.5 186.5t-121.5 356.5q0 197 126.5 347.5t330.5 188.5v236h149v-223q161 -6 293 -78v-166q-142 90 -321 90q-192 0 -303 -113t-111 -282q0 -178 119.5 -290t304.5 -112q87 0 156.5 14.5t154.5 55.5v-158z" />
    <glyph glyph-name="sterling" unicode="&#xa3;" horiz-adv-x="1064" 
d="M965 152v-152h-871v152h185v378h-185v152h185v344q0 241 136 375.5t361 134.5h148v-158h-131q-185 0 -263.5 -96t-78.5 -285v-315h411v-152h-411v-378h514z" />
    <glyph glyph-name="currency" unicode="&#xa4;" horiz-adv-x="983" 
d="M489 500q96 0 162 68t66 167q0 97 -66 165.5t-162 68.5t-160.5 -68t-64.5 -166q0 -99 64.5 -167t160.5 -68zM489 379q-90 0 -170 39l-102 -131h-151l155 202q-98 101 -98 246q0 142 98 248l-155 203h151l107 -129q79 37 165 37q96 0 173 -41l102 133h154l-160 -205
q98 -106 98 -246q0 -145 -98 -246l160 -202h-154l-107 131q-76 -39 -168 -39z" />
    <glyph glyph-name="yen" unicode="&#xa5;" horiz-adv-x="1400" 
d="M1276 422h-492v-422h-170v422h-491v137h438l-121 225h-317v138h242l-332 614h188l486 -887l481 887h178l-332 -614h242v-138h-315l-121 -225h436v-137z" />
    <glyph glyph-name="brokenbar" unicode="&#xa6;" horiz-adv-x="522" 
d="M176 922v819h170v-819h-170zM176 -205v819h170v-819h-170z" />
    <glyph glyph-name="section" unicode="&#xa7;" horiz-adv-x="968" 
d="M72 0v133h55q252 0 252 217q0 66 -25 146t-61 157t-72 156t-61 167t-25 167q0 184 128.5 288.5t344.5 104.5h289v-135h-43q-106 0 -171 -49.5t-65 -141.5q0 -59 25 -136t61 -154t72 -157.5t61 -172t25 -172.5q0 -203 -131.5 -310.5t-378.5 -107.5h-280zM383 121h14
q147 0 227.5 79t80.5 216q0 67 -25 149t-61 159.5t-72 155.5t-61 161t-25 151q0 71 35 134.5t110 88.5h-28q-140 0 -213.5 -68t-73.5 -186q0 -69 25 -152t61 -161t72 -156.5t61 -164t25 -158.5q0 -78 -37.5 -150t-114.5 -98z" />
    <glyph glyph-name="dieresis" unicode="&#xa8;" horiz-adv-x="1024" 
d="M795 1540v-184h-193v184h193zM420 1540v-184h-191v184h191z" />
    <glyph glyph-name="copyright" unicode="&#xa9;" horiz-adv-x="1792" 
d="M895 -41q-218 0 -404.5 108.5t-295.5 295t-109 405.5q0 218 109 404.5t295.5 295.5t404.5 109q219 0 405.5 -109t295 -295.5t108.5 -404.5q0 -164 -64 -314t-172.5 -258.5t-258.5 -172.5t-314 -64zM895 78q184 0 340 92.5t247 251.5t91 346q0 186 -91 344.5t-247.5 251
t-339.5 92.5t-339 -92.5t-246.5 -251t-90.5 -344.5q0 -187 90.5 -346t246.5 -251.5t339 -92.5zM952 348q-195 0 -317.5 119.5t-122.5 308.5q0 182 126 307t310 125q125 0 230 -59v-133q-103 71 -230 71q-134 0 -219.5 -88.5t-85.5 -222.5q0 -138 84.5 -221.5t222.5 -83.5
q118 0 228 64v-125q-108 -62 -226 -62z" />
    <glyph glyph-name="ordfeminine" unicode="&#xaa;" horiz-adv-x="1048" 
d="M512 831q126 0 214.5 88.5t88.5 217.5t-88.5 216t-214.5 87t-213.5 -87t-87.5 -216q0 -130 88 -218t213 -88zM825 737v133q-55 -78 -140 -120.5t-183 -42.5q-178 0 -303 126t-125 304t125 304t303 126q98 0 183 -43.5t140 -122.5v135h129v-799h-129z" />
    <glyph glyph-name="guillemotleft" unicode="&#xab;" horiz-adv-x="1030" 
d="M958 162h-190l-293 424l297 422h184l-294 -420zM535 162h-191l-293 424l295 422h184l-294 -420z" />
    <glyph glyph-name="logicalnot" unicode="&#xac;" horiz-adv-x="1218" 
d="M1079 283h-164v409h-778v148h942v-557z" />
    <glyph glyph-name="uni00AD" unicode="&#xad;" horiz-adv-x="0" 
 />
    <glyph glyph-name="registered" unicode="&#xae;" horiz-adv-x="1792" 
d="M895 -41q-218 0 -404.5 108.5t-295.5 295t-109 405.5q0 218 109 404.5t295.5 295.5t404.5 109q219 0 405.5 -109t295 -295.5t108.5 -404.5q0 -164 -64 -314t-172.5 -258.5t-258.5 -172.5t-314 -64zM895 78q184 0 340 92.5t247 251.5t91 346q0 186 -91 344.5t-247.5 251
t-339.5 92.5t-339 -92.5t-246.5 -251t-90.5 -344.5q0 -187 90.5 -346t246.5 -251.5t339 -92.5zM799 702q122 0 197 48t75 143q0 172 -272 172v-363zM799 590v-213h-121v745l-43 58h147q191 0 302.5 -73.5t111.5 -211.5q0 -157 -143 -240l166 -278h-140l-137 235
q-72 -19 -143 -22z" />
    <glyph glyph-name="macron" unicode="&#xaf;" horiz-adv-x="1024" 
d="M803 1491v-133h-584v133h584z" />
    <glyph glyph-name="degree" unicode="&#xb0;" horiz-adv-x="729" 
d="M365 1008q-117 0 -201 83.5t-84 200.5t84 201t201 84q118 0 201 -84t83 -201t-83 -200.5t-201 -83.5zM365 1118q66 0 113.5 50.5t47.5 123.5q0 72 -47.5 123t-113.5 51q-69 0 -116.5 -51t-47.5 -123q0 -73 47.5 -123.5t116.5 -50.5z" />
    <glyph glyph-name="plusminus" unicode="&#xb1;" horiz-adv-x="1218" 
d="M1079 850h-389v-408h-164v408h-389v149h389v402h164v-402h389v-149zM1079 279v-148h-942v148h942z" />
    <glyph glyph-name="twosuperior" unicode="&#xb2;" horiz-adv-x="647" 
d="M559 848h-516l215 233q92 98 122 151t30 103q0 53 -36 85t-104 32q-90 0 -182 -41v111q105 41 201 41q117 0 186.5 -58.5t69.5 -152.5q0 -69 -42.5 -141t-152.5 -185l-76 -74h285v-104z" />
    <glyph glyph-name="threesuperior" unicode="&#xb3;" horiz-adv-x="628" 
d="M281 819q-94 0 -203 37v111q107 -41 188 -41q82 0 127 35t45 98q0 61 -46 96t-126 35q-58 0 -116 -12l208 254h-264v104h459l-211 -264q103 -10 162 -68t59 -145q0 -103 -79 -171.5t-203 -68.5z" />
    <glyph glyph-name="acute" unicode="&#xb4;" horiz-adv-x="1024" 
d="M823 1618l-225 -328h-147l178 328h194z" />
    <glyph glyph-name="mu" unicode="&#xb5;" horiz-adv-x="1329" 
d="M614 -31q-181 0 -297 101v-582h-161v1669h166v-639q0 -193 94.5 -295t236.5 -102q153 0 254 106.5t101 304.5v625h166v-1157h-162v193q-63 -108 -166.5 -166t-231.5 -58z" />
    <glyph glyph-name="paragraph" unicode="&#xb6;" horiz-adv-x="1241" 
d="M539 0v682h-15q-180 0 -300 121t-120 301q0 129 61.5 228t167.5 151.5t238 52.5h572l-70 -94v-1442h-151v1407h-232v-1407h-151z" />
    <glyph glyph-name="periodcentered" unicode="&#xb7;" horiz-adv-x="458" 
d="M344 778v-211h-229v211h229z" />
    <glyph glyph-name="cedilla" unicode="&#xb8;" horiz-adv-x="1024" 
d="M516 -369l19 426h141v-426h-160z" />
    <glyph glyph-name="onesuperior" unicode="&#xb9;" horiz-adv-x="419" 
d="M279 1577v-729h-138v614z" />
    <glyph glyph-name="ordmasculine" unicode="&#xba;" horiz-adv-x="1028" 
d="M512 707q-181 0 -309.5 126.5t-128.5 303.5t128.5 303.5t309.5 126.5q183 0 312.5 -126.5t129.5 -303.5t-129.5 -303.5t-312.5 -126.5zM512 831q126 0 214.5 88.5t88.5 217.5t-88.5 216t-214.5 87t-213.5 -87t-87.5 -216q0 -130 88 -218t213 -88z" />
    <glyph glyph-name="guillemotright" unicode="&#xbb;" horiz-adv-x="1030" 
d="M262 162h-188l295 424l-297 422h186l297 -422zM686 162h-188l295 422l-297 424h186l297 -422z" />
    <glyph glyph-name="onequarter" unicode="&#xbc;" horiz-adv-x="1495" 
d="M332 1577v-729h-137v614zM1284 1536l-999 -1536h-154l999 1536h154zM1280 379h113v-379h-113v125h-424l262 563h127l-215 -461h250v152z" />
    <glyph glyph-name="onehalf" unicode="&#xbd;" horiz-adv-x="1533" 
d="M332 1577v-729h-137v614zM1284 1536l-999 -1536h-154l999 1536h154zM1446 0h-516l215 233q92 98 121.5 151t29.5 103q0 53 -35.5 85t-103.5 32q-90 0 -182 -41v111q105 41 201 41q117 0 186.5 -58.5t69.5 -152.5q0 -69 -42.5 -141t-152.5 -185l-76 -74h285v-104z" />
    <glyph glyph-name="threequarters" unicode="&#xbe;" horiz-adv-x="1648" 
d="M1438 1536l-1000 -1536h-153l999 1536h154zM281 819q-94 0 -203 37v111q107 -41 188 -41q82 0 127 35t45 98q0 61 -46 96t-126 35q-58 0 -116 -12l208 254h-264v104h459l-211 -264q103 -10 162 -68t59 -145q0 -103 -79 -171.5t-203 -68.5zM1434 379h112v-379h-112v125
h-424l262 563h127l-215 -461h250v152z" />
    <glyph glyph-name="questiondown" unicode="&#xbf;" horiz-adv-x="761" 
d="M326 952v205h221v-205h-221zM711 -236v-141q-329 0 -489.5 105t-160.5 286q0 107 55 204t183 214l57 51l21 262h129l12 -305l-63 -55q-133 -116 -182.5 -195t-49.5 -170q0 -256 488 -256z" />
    <glyph glyph-name="Agrave" unicode="&#xc0;" horiz-adv-x="1564" 
d="M481 2013h197l178 -327h-149zM1139 440l-361 783l-360 -783h721zM1341 0l-133 289h-860l-133 -289h-184l751 1577l752 -1577h-193z" />
    <glyph glyph-name="Aacute" unicode="&#xc1;" horiz-adv-x="1564" 
d="M1079 2013l-225 -327h-147l178 327h194zM1139 440l-361 783l-360 -783h721zM1341 0l-133 289h-860l-133 -289h-184l751 1577l752 -1577h-193z" />
    <glyph glyph-name="Acircumflex" unicode="&#xc2;" horiz-adv-x="1564" 
d="M944 1686l-162 180l-164 -180h-159l323 352l322 -352h-160zM1139 440l-361 783l-360 -783h721zM1341 0l-133 289h-860l-133 -289h-184l751 1577l752 -1577h-193z" />
    <glyph glyph-name="Atilde" unicode="&#xc3;" horiz-adv-x="1564" 
d="M907 1806q49 0 49 56v102h115v-117q0 -76 -39.5 -124t-107.5 -48q-42 0 -86 25t-74 55t-65 55t-62 25q-47 0 -47 -66v-94h-115v113q0 80 41.5 128t110.5 48q34 0 68.5 -16.5t62 -39.5t53 -46t50.5 -39.5t46 -16.5zM1139 440l-361 783l-360 -783h721zM1341 0l-133 289
h-860l-133 -289h-184l751 1577l752 -1577h-193z" />
    <glyph glyph-name="Adieresis" unicode="&#xc4;" horiz-adv-x="1564" 
d="M1065 1935v-184h-193v184h193zM690 1935v-184h-190v184h190zM1139 440l-361 783l-360 -783h721zM1341 0l-133 289h-860l-133 -289h-184l751 1577l752 -1577h-193z" />
    <glyph glyph-name="Aring" unicode="&#xc5;" horiz-adv-x="1564" 
d="M553 1835q0 91 64.5 153t160.5 62q99 0 165.5 -62t66.5 -153q0 -90 -66.5 -150.5t-165.5 -60.5q-96 0 -160.5 60.5t-64.5 150.5zM672 1835q0 -46 28.5 -76t79.5 -30q47 0 79 31t32 75q0 45 -32 78t-79 33q-50 0 -79 -32t-29 -79zM1139 440l-361 783l-360 -783h721z
M1341 0l-133 289h-860l-133 -289h-184l751 1577l752 -1577h-193z" />
    <glyph glyph-name="AE" unicode="&#xc6;" horiz-adv-x="1513" 
d="M813 440v889l-407 -889h407zM813 0v289h-475l-133 -289h-182l729 1536h620v-152h-393v-698h393v-149h-393v-387h393v-150h-559z" />
    <glyph glyph-name="Ccedilla" unicode="&#xc7;" horiz-adv-x="1462" 
d="M928 -41h-33v-328h-160l15 344q-292 54 -469 269t-177 522q0 165 64 314.5t173 258.5t261.5 173.5t321.5 64.5q231 0 430 -113v-180q-196 129 -432 129q-179 0 -325.5 -87t-229 -235.5t-82.5 -326.5q0 -139 47.5 -258.5t131.5 -204t204 -132.5t260 -48q216 0 426 119
v-174q-192 -107 -426 -107z" />
    <glyph glyph-name="Egrave" unicode="&#xc8;" horiz-adv-x="876" 
d="M131 2013h197l178 -327h-150zM176 0v1419l-70 117h627v-152h-391v-698h391v-149h-391v-387h391v-150h-557z" />
    <glyph glyph-name="Eacute" unicode="&#xc9;" horiz-adv-x="876" 
d="M725 2013l-225 -327h-148l178 327h195zM176 0v1419l-70 117h627v-152h-391v-698h391v-149h-391v-387h391v-150h-557z" />
    <glyph glyph-name="Ecircumflex" unicode="&#xca;" horiz-adv-x="876" 
d="M580 1686l-162 180l-164 -180h-160l324 352l321 -352h-159zM176 0v1419l-70 117h627v-152h-391v-698h391v-149h-391v-387h391v-150h-557z" />
    <glyph glyph-name="Edieresis" unicode="&#xcb;" horiz-adv-x="876" 
d="M700 1935v-184h-192v184h192zM326 1935v-184h-191v184h191zM176 0v1419l-70 117h627v-152h-391v-698h391v-149h-391v-387h391v-150h-557z" />
    <glyph glyph-name="Igrave" unicode="&#xcc;" horiz-adv-x="522" 
d="M-39 2013h197l178 -327h-150zM346 1536v-1536h-170v1536h170z" />
    <glyph glyph-name="Iacute" unicode="&#xcd;" horiz-adv-x="522" 
d="M559 2013l-225 -327h-148l179 327h194zM346 1536v-1536h-170v1536h170z" />
    <glyph glyph-name="Icircumflex" unicode="&#xce;" horiz-adv-x="522" 
d="M424 1686l-162 180l-164 -180h-159l323 352l322 -352h-160zM346 1536v-1536h-170v1536h170z" />
    <glyph glyph-name="Idieresis" unicode="&#xcf;" horiz-adv-x="522" 
d="M545 1935v-184h-193v184h193zM170 1935v-184h-190v184h190zM346 1536v-1536h-170v1536h170z" />
    <glyph glyph-name="Eth" unicode="&#xd0;" horiz-adv-x="1406" 
d="M494 0h-297v702h-177v146h177v571l-70 117h367q183 0 336.5 -59.5t256 -163t159.5 -243.5t57 -300q0 -157 -57 -297t-159.5 -245t-256 -166.5t-336.5 -61.5zM367 152h127q146 0 267 50t199.5 135t121 196.5t42.5 236.5q0 128 -42.5 239t-121.5 194.5t-199 131t-267 47.5
h-127v-534h305v-146h-305v-550z" />
    <glyph glyph-name="Ntilde" unicode="&#xd1;" horiz-adv-x="1409" 
d="M809 1806q49 0 49 56v102h115v-117q0 -76 -40 -124t-108 -48q-42 0 -85.5 25t-73.5 55t-65 55t-62 25q-47 0 -47 -66v-94h-115v113q0 80 41 128t110 48q34 0 68.5 -16.5t62 -39.5t53.5 -46t51 -39.5t46 -16.5zM344 1126v-1126h-168v1577l887 -1188v1147h170v-1577z" />
    <glyph glyph-name="Ograve" unicode="&#xd2;" horiz-adv-x="1828" 
d="M608 2013h197l178 -327h-149zM913 -41q-164 0 -314 64.5t-258.5 173.5t-172.5 259t-64 314q0 218 108.5 404t295 294.5t405.5 108.5q218 0 404.5 -108.5t295.5 -294.5t109 -404q0 -219 -109 -406t-295.5 -296t-404.5 -109zM913 119q128 0 245 51.5t201.5 138.5
t134.5 207.5t50 253.5q0 176 -84.5 324.5t-230 234.5t-316.5 86q-172 0 -317 -86t-229 -234.5t-84 -324.5q0 -177 84 -327t229 -237t317 -87z" />
    <glyph glyph-name="Oacute" unicode="&#xd3;" horiz-adv-x="1828" 
d="M1206 2013l-225 -327h-147l178 327h194zM913 -41q-164 0 -314 64.5t-258.5 173.5t-172.5 259t-64 314q0 218 108.5 404t295 294.5t405.5 108.5q218 0 404.5 -108.5t295.5 -294.5t109 -404q0 -219 -109 -406t-295.5 -296t-404.5 -109zM913 119q128 0 245 51.5t201.5 138.5
t134.5 207.5t50 253.5q0 176 -84.5 324.5t-230 234.5t-316.5 86q-172 0 -317 -86t-229 -234.5t-84 -324.5q0 -177 84 -327t229 -237t317 -87z" />
    <glyph glyph-name="Ocircumflex" unicode="&#xd4;" horiz-adv-x="1828" 
d="M1057 1686l-162 180l-164 -180h-160l324 352l322 -352h-160zM913 -41q-164 0 -314 64.5t-258.5 173.5t-172.5 259t-64 314q0 218 108.5 404t295 294.5t405.5 108.5q218 0 404.5 -108.5t295.5 -294.5t109 -404q0 -219 -109 -406t-295.5 -296t-404.5 -109zM913 119
q128 0 245 51.5t201.5 138.5t134.5 207.5t50 253.5q0 176 -84.5 324.5t-230 234.5t-316.5 86q-172 0 -317 -86t-229 -234.5t-84 -324.5q0 -177 84 -327t229 -237t317 -87z" />
    <glyph glyph-name="Otilde" unicode="&#xd5;" horiz-adv-x="1828" 
d="M1028 1806q49 0 49 56v102h115v-117q0 -76 -40 -124t-108 -48q-42 0 -85.5 25t-73.5 55t-65 55t-62 25q-47 0 -47 -66v-94h-115v113q0 80 41.5 128t110.5 48q34 0 68.5 -16.5t62 -39.5t53 -46t50.5 -39.5t46 -16.5zM913 -41q-164 0 -314 64.5t-258.5 173.5t-172.5 259
t-64 314q0 218 108.5 404t295 294.5t405.5 108.5q218 0 404.5 -108.5t295.5 -294.5t109 -404q0 -219 -109 -406t-295.5 -296t-404.5 -109zM913 119q128 0 245 51.5t201.5 138.5t134.5 207.5t50 253.5q0 176 -84.5 324.5t-230 234.5t-316.5 86q-172 0 -317 -86t-229 -234.5
t-84 -324.5q0 -177 84 -327t229 -237t317 -87z" />
    <glyph glyph-name="Odieresis" unicode="&#xd6;" horiz-adv-x="1828" 
d="M1178 1935v-184h-193v184h193zM803 1935v-184h-191v184h191zM913 -41q-164 0 -314 64.5t-258.5 173.5t-172.5 259t-64 314q0 218 108.5 404t295 294.5t405.5 108.5q218 0 404.5 -108.5t295.5 -294.5t109 -404q0 -219 -109 -406t-295.5 -296t-404.5 -109zM913 119
q128 0 245 51.5t201.5 138.5t134.5 207.5t50 253.5q0 176 -84.5 324.5t-230 234.5t-316.5 86q-172 0 -317 -86t-229 -234.5t-84 -324.5q0 -177 84 -327t229 -237t317 -87z" />
    <glyph glyph-name="multiply" unicode="&#xd7;" horiz-adv-x="1218" 
d="M918 344l-310 311l-323 -323l-107 106l324 324l-312 309l115 115l311 -309l316 315l106 -107l-315 -315l309 -311z" />
    <glyph glyph-name="Oslash" unicode="&#xd8;" horiz-adv-x="1843" 
d="M922 -41q-295 0 -521 191l-145 -150h-211l250 258q-182 220 -182 512q0 218 108.5 404t295 294.5t405.5 108.5q272 0 493 -168l123 127h213l-225 -231q97 -108 151 -246t54 -289q0 -219 -109 -406t-295.5 -296t-404.5 -109zM291 770q0 -214 125 -389l880 907
q-165 127 -374 127q-129 0 -246 -51t-201 -137t-134 -205.5t-50 -251.5zM922 119q171 0 315.5 87t228.5 237t84 327q0 236 -143 412l-889 -914q173 -149 404 -149z" />
    <glyph glyph-name="Ugrave" unicode="&#xd9;" horiz-adv-x="1400" 
d="M385 2013h197l178 -327h-150zM1235 1536v-1022q0 -255 -150.5 -405t-384.5 -150q-153 0 -273.5 65.5t-190.5 192.5t-70 297v1022h170v-1004q0 -184 96 -300.5t268 -116.5t268.5 116.5t96.5 300.5v1004h170z" />
    <glyph glyph-name="Uacute" unicode="&#xda;" horiz-adv-x="1400" 
d="M983 2013l-225 -327h-148l178 327h195zM1235 1536v-1022q0 -255 -150.5 -405t-384.5 -150q-153 0 -273.5 65.5t-190.5 192.5t-70 297v1022h170v-1004q0 -184 96 -300.5t268 -116.5t268.5 116.5t96.5 300.5v1004h170z" />
    <glyph glyph-name="Ucircumflex" unicode="&#xdb;" horiz-adv-x="1400" 
d="M862 1686l-162 180l-163 -180h-160l323 352l322 -352h-160zM1235 1536v-1022q0 -255 -150.5 -405t-384.5 -150q-153 0 -273.5 65.5t-190.5 192.5t-70 297v1022h170v-1004q0 -184 96 -300.5t268 -116.5t268.5 116.5t96.5 300.5v1004h170z" />
    <glyph glyph-name="Udieresis" unicode="&#xdc;" horiz-adv-x="1400" 
d="M983 1935v-184h-192v184h192zM608 1935v-184h-190v184h190zM1235 1536v-1022q0 -255 -150.5 -405t-384.5 -150q-153 0 -273.5 65.5t-190.5 192.5t-70 297v1022h170v-1004q0 -184 96 -300.5t268 -116.5t268.5 116.5t96.5 300.5v1004h170z" />
    <glyph glyph-name="Yacute" unicode="&#xdd;" horiz-adv-x="1386" 
d="M983 2013l-225 -327h-148l178 327h195zM776 0h-170v463l-579 1073h186l485 -889l482 889h180l-584 -1077v-459z" />
    <glyph glyph-name="Thorn" unicode="&#xde;" horiz-adv-x="1077" 
d="M346 0h-170v1536h170v-188q175 -2 315 -70t222 -197t82 -297q0 -129 -49.5 -238.5t-133.5 -183.5t-197 -115.5t-239 -41.5v-205zM377 1194h-31v-832h31q172 0 291.5 114t119.5 304q0 93 -34 171.5t-91 131t-131 82t-155 29.5z" />
    <glyph glyph-name="germandbls" unicode="&#xdf;" horiz-adv-x="1329" 
d="M825 -31q-98 0 -196 31v152q102 -31 192 -31q121 0 188.5 64t67.5 177q0 101 -72 165.5t-206 64.5h-170v147l90 17q134 20 216.5 112.5t82.5 223.5q0 147 -92.5 237t-241.5 90q-160 0 -261 -105t-101 -292v-1022h-166v1022q0 158 64.5 283t186 196.5t279.5 71.5
q115 0 211 -39t159 -105t97.5 -151t34.5 -178q0 -132 -72.5 -240.5t-195.5 -157.5q156 -21 240.5 -118.5t84.5 -229.5q0 -78 -26.5 -146.5t-77 -122t-132 -85t-184.5 -31.5z" />
    <glyph glyph-name="agrave" unicode="&#xe0;" 
d="M442 1618h197l178 -328h-149zM705 121q120 0 222 61t161 167t59 233q0 190 -129 322t-313 132q-186 0 -314.5 -131.5t-128.5 -322.5q0 -194 128.5 -327.5t314.5 -133.5zM1153 0v240q-72 -129 -194.5 -200t-270.5 -71q-122 0 -232.5 47.5t-190.5 129t-127.5 195.5
t-47.5 241q0 125 47.5 237.5t127.5 193t190.5 128t232.5 47.5q148 0 270.5 -70.5t194.5 -197.5v237h160v-1157h-160z" />
    <glyph glyph-name="aacute" unicode="&#xe1;" 
d="M1016 1618l-225 -328h-148l178 328h195zM705 121q120 0 222 61t161 167t59 233q0 190 -129 322t-313 132q-186 0 -314.5 -131.5t-128.5 -322.5q0 -194 128.5 -327.5t314.5 -133.5zM1153 0v240q-72 -129 -194.5 -200t-270.5 -71q-122 0 -232.5 47.5t-190.5 129
t-127.5 195.5t-47.5 241q0 125 47.5 237.5t127.5 193t190.5 128t232.5 47.5q148 0 270.5 -70.5t194.5 -197.5v237h160v-1157h-160z" />
    <glyph glyph-name="acircumflex" unicode="&#xe2;" 
d="M866 1290l-161 180l-164 -180h-160l324 352l321 -352h-160zM705 121q120 0 222 61t161 167t59 233q0 190 -129 322t-313 132q-186 0 -314.5 -131.5t-128.5 -322.5q0 -194 128.5 -327.5t314.5 -133.5zM1153 0v240q-72 -129 -194.5 -200t-270.5 -71q-122 0 -232.5 47.5
t-190.5 129t-127.5 195.5t-47.5 241q0 125 47.5 237.5t127.5 193t190.5 128t232.5 47.5q148 0 270.5 -70.5t194.5 -197.5v237h160v-1157h-160z" />
    <glyph glyph-name="atilde" unicode="&#xe3;" 
d="M838 1411q49 0 49 55v103h114v-117q0 -76 -39.5 -124t-107.5 -48q-42 0 -86 25t-74 55t-65 55t-62 25q-47 0 -47 -66v-94h-114v113q0 80 41 128t110 48q34 0 68.5 -16.5t62 -39.5t53.5 -46t51 -39.5t46 -16.5zM705 121q120 0 222 61t161 167t59 233q0 190 -129 322
t-313 132q-186 0 -314.5 -131.5t-128.5 -322.5q0 -194 128.5 -327.5t314.5 -133.5zM1153 0v240q-72 -129 -194.5 -200t-270.5 -71q-122 0 -232.5 47.5t-190.5 129t-127.5 195.5t-47.5 241q0 125 47.5 237.5t127.5 193t190.5 128t232.5 47.5q148 0 270.5 -70.5t194.5 -197.5
v237h160v-1157h-160z" />
    <glyph glyph-name="adieresis" unicode="&#xe4;" 
d="M987 1540v-184h-192v184h192zM612 1540v-184h-190v184h190zM705 121q120 0 222 61t161 167t59 233q0 190 -129 322t-313 132q-186 0 -314.5 -131.5t-128.5 -322.5q0 -194 128.5 -327.5t314.5 -133.5zM1153 0v240q-72 -129 -194.5 -200t-270.5 -71q-122 0 -232.5 47.5
t-190.5 129t-127.5 195.5t-47.5 241q0 125 47.5 237.5t127.5 193t190.5 128t232.5 47.5q148 0 270.5 -70.5t194.5 -197.5v237h160v-1157h-160z" />
    <glyph glyph-name="aring" unicode="&#xe5;" 
d="M475 1491q0 91 64.5 153t160.5 62q99 0 165.5 -62t66.5 -153q0 -90 -66.5 -150.5t-165.5 -60.5q-96 0 -160.5 60.5t-64.5 150.5zM594 1491q0 -46 28.5 -76.5t79.5 -30.5q47 0 79 31t32 76t-32 78t-79 33q-50 0 -79 -32t-29 -79zM705 121q120 0 222 61t161 167t59 233
q0 190 -129 322t-313 132q-186 0 -314.5 -131.5t-128.5 -322.5q0 -194 128.5 -327.5t314.5 -133.5zM1153 0v240q-72 -129 -194.5 -200t-270.5 -71q-122 0 -232.5 47.5t-190.5 129t-127.5 195.5t-47.5 241q0 125 47.5 237.5t127.5 193t190.5 128t232.5 47.5
q148 0 270.5 -70.5t194.5 -197.5v237h160v-1157h-160z" />
    <glyph glyph-name="ae" unicode="&#xe6;" horiz-adv-x="2140" 
d="M1534 1038q-155 0 -263.5 -100.5t-135.5 -263.5h761q-9 161 -111.5 262.5t-250.5 101.5zM551 113q121 0 238.5 53.5t214.5 150.5q-37 87 -46 203q-188 49 -366 49q-167 0 -253.5 -56.5t-86.5 -168.5q0 -105 78 -168t221 -63zM1980 70q-173 -101 -389 -101
q-174 0 -308 60.5t-216 173.5q-241 -234 -547 -234q-194 0 -313 102.5t-119 264.5q0 116 65.5 200t170 124t233.5 40q220 0 399 -53v35q0 170 -108 262t-295 92q-186 0 -373 -78v156q84 34 197 54t213 20q163 0 287.5 -64t189.5 -186q80 116 203.5 183t269.5 67
q114 0 213.5 -44.5t169.5 -122t105 -189t24 -238.5l-6 -49h-920q10 -199 134 -312.5t329 -113.5q214 0 391 98v-147z" />
    <glyph glyph-name="ccedilla" unicode="&#xe7;" horiz-adv-x="1146" 
d="M1042 43q-133 -68 -309 -74v-338h-160l15 349q-219 39 -358.5 204t-139.5 396q0 168 84.5 308t228 220t312.5 80q190 0 332 -80v-168q-146 96 -320 96q-198 0 -331.5 -132t-133.5 -324q0 -202 132 -330.5t335 -128.5q151 0 313 86v-164z" />
    <glyph glyph-name="egrave" unicode="&#xe8;" horiz-adv-x="1273" 
d="M373 1618h196l179 -328h-150zM670 1038q-155 0 -264.5 -100.5t-135.5 -263.5h762q-9 161 -111.5 262.5t-250.5 101.5zM1116 70q-176 -101 -391 -101q-292 0 -463.5 164t-171.5 445q0 166 76 306t210.5 222t297.5 82q115 0 214.5 -44.5t169 -122t104.5 -189t24 -238.5
l-4 -49h-920q10 -199 133.5 -312.5t327.5 -113.5q216 0 393 98v-147z" />
    <glyph glyph-name="eacute" unicode="&#xe9;" horiz-adv-x="1273" 
d="M942 1618l-225 -328h-148l179 328h194zM670 1038q-155 0 -264.5 -100.5t-135.5 -263.5h762q-9 161 -111.5 262.5t-250.5 101.5zM1116 70q-176 -101 -391 -101q-292 0 -463.5 164t-171.5 445q0 166 76 306t210.5 222t297.5 82q115 0 214.5 -44.5t169 -122t104.5 -189
t24 -238.5l-4 -49h-920q10 -199 133.5 -312.5t327.5 -113.5q216 0 393 98v-147z" />
    <glyph glyph-name="ecircumflex" unicode="&#xea;" horiz-adv-x="1273" 
d="M821 1290l-162 180l-163 -180h-160l323 352l322 -352h-160zM670 1038q-155 0 -264.5 -100.5t-135.5 -263.5h762q-9 161 -111.5 262.5t-250.5 101.5zM1116 70q-176 -101 -391 -101q-292 0 -463.5 164t-171.5 445q0 166 76 306t210.5 222t297.5 82q115 0 214.5 -44.5
t169 -122t104.5 -189t24 -238.5l-4 -49h-920q10 -199 133.5 -312.5t327.5 -113.5q216 0 393 98v-147z" />
    <glyph glyph-name="edieresis" unicode="&#xeb;" horiz-adv-x="1273" 
d="M942 1540v-184h-192v184h192zM567 1540v-184h-190v184h190zM670 1038q-155 0 -264.5 -100.5t-135.5 -263.5h762q-9 161 -111.5 262.5t-250.5 101.5zM1116 70q-176 -101 -391 -101q-292 0 -463.5 164t-171.5 445q0 166 76 306t210.5 222t297.5 82q115 0 214.5 -44.5
t169 -122t104.5 -189t24 -238.5l-4 -49h-920q10 -199 133.5 -312.5t327.5 -113.5q216 0 393 98v-147z" />
    <glyph glyph-name="igrave" unicode="&#xec;" horiz-adv-x="477" 
d="M-63 1618h196l178 -328h-149zM322 0h-166v1157h166v-1157z" />
    <glyph glyph-name="iacute" unicode="&#xed;" horiz-adv-x="477" 
d="M537 1618l-226 -328h-147l178 328h195zM322 0h-166v1157h166v-1157z" />
    <glyph glyph-name="icircumflex" unicode="&#xee;" horiz-adv-x="477" 
d="M401 1290l-161 180l-164 -180h-160l324 352l321 -352h-160zM322 0h-166v1157h166v-1157z" />
    <glyph glyph-name="idieresis" unicode="&#xef;" horiz-adv-x="477" 
d="M522 1540v-184h-192v184h192zM147 1540v-184h-190v184h190zM322 0h-166v1157h166v-1157z" />
    <glyph glyph-name="eth" unicode="&#xf0;" horiz-adv-x="1277" 
d="M639 -41q-158 0 -284.5 73t-195.5 195.5t-69 268.5q0 150 70 272.5t193.5 193t275.5 70.5q129 0 221 -57l-49 67l-160 220l-207 -115l-55 100l194 107l-133 182h189l78 -109l215 117l55 -96l-205 -115l172 -241q128 -179 186 -313.5t58 -274.5q0 -235 -153.5 -390
t-395.5 -155zM639 106q169 0 273 113.5t104 276.5q0 168 -103 278.5t-274 110.5q-113 0 -200 -54t-132 -142.5t-45 -194.5q0 -167 103 -277.5t274 -110.5z" />
    <glyph glyph-name="ntilde" unicode="&#xf1;" horiz-adv-x="1329" 
d="M795 1411q49 0 49 55v103h114v-117q0 -76 -39.5 -124t-107.5 -48q-42 0 -86 25t-74 55t-65 55t-62 25q-47 0 -47 -66v-94h-115v113q0 80 41.5 128t110.5 48q34 0 68.5 -16.5t62 -39.5t53.5 -46t51 -39.5t46 -16.5zM322 625v-625h-166v1157h159v-192q62 109 167.5 166
t238.5 57q209 0 336 -137.5t127 -397.5v-653h-168v639q0 193 -95.5 295t-240.5 102q-155 0 -256.5 -106.5t-101.5 -304.5z" />
    <glyph glyph-name="ograve" unicode="&#xf2;" horiz-adv-x="1411" 
d="M414 1618h196l178 -328h-149zM705 -31q-125 0 -238.5 48.5t-196 130.5t-131.5 196t-49 238q0 123 49 235t131.5 193.5t196 129.5t238.5 48q165 0 306.5 -81t224.5 -221t83 -304q0 -166 -83 -307.5t-224.5 -223.5t-306.5 -82zM705 121q120 0 222 61t161 167t59 233
q0 190 -129 322t-313 132q-185 0 -314 -132t-129 -322q0 -193 129 -327t314 -134z" />
    <glyph glyph-name="oacute" unicode="&#xf3;" horiz-adv-x="1411" 
d="M1012 1618l-226 -328h-147l178 328h195zM705 -31q-125 0 -238.5 48.5t-196 130.5t-131.5 196t-49 238q0 123 49 235t131.5 193.5t196 129.5t238.5 48q165 0 306.5 -81t224.5 -221t83 -304q0 -166 -83 -307.5t-224.5 -223.5t-306.5 -82zM705 121q120 0 222 61t161 167
t59 233q0 190 -129 322t-313 132q-185 0 -314 -132t-129 -322q0 -193 129 -327t314 -134z" />
    <glyph glyph-name="ocircumflex" unicode="&#xf4;" horiz-adv-x="1411" 
d="M862 1290l-162 180l-163 -180h-160l323 352l322 -352h-160zM705 -31q-125 0 -238.5 48.5t-196 130.5t-131.5 196t-49 238q0 123 49 235t131.5 193.5t196 129.5t238.5 48q165 0 306.5 -81t224.5 -221t83 -304q0 -166 -83 -307.5t-224.5 -223.5t-306.5 -82zM705 121
q120 0 222 61t161 167t59 233q0 190 -129 322t-313 132q-185 0 -314 -132t-129 -322q0 -193 129 -327t314 -134z" />
    <glyph glyph-name="otilde" unicode="&#xf5;" horiz-adv-x="1411" 
d="M834 1411q49 0 49 55v103h114v-117q0 -76 -39.5 -124t-107.5 -48q-42 0 -86 25t-74 55t-65 55t-62 25q-47 0 -47 -66v-94h-115v113q0 80 41.5 128t110.5 48q34 0 68.5 -16.5t62 -39.5t53.5 -46t51 -39.5t46 -16.5zM705 -31q-125 0 -238.5 48.5t-196 130.5t-131.5 196
t-49 238q0 123 49 235t131.5 193.5t196 129.5t238.5 48q165 0 306.5 -81t224.5 -221t83 -304q0 -166 -83 -307.5t-224.5 -223.5t-306.5 -82zM705 121q120 0 222 61t161 167t59 233q0 190 -129 322t-313 132q-185 0 -314 -132t-129 -322q0 -193 129 -327t314 -134z" />
    <glyph glyph-name="odieresis" unicode="&#xf6;" horiz-adv-x="1411" 
d="M983 1540v-184h-192v184h192zM608 1540v-184h-190v184h190zM705 -31q-125 0 -238.5 48.5t-196 130.5t-131.5 196t-49 238q0 123 49 235t131.5 193.5t196 129.5t238.5 48q165 0 306.5 -81t224.5 -221t83 -304q0 -166 -83 -307.5t-224.5 -223.5t-306.5 -82zM705 121
q120 0 222 61t161 167t59 233q0 190 -129 322t-313 132q-185 0 -314 -132t-129 -322q0 -193 129 -327t314 -134z" />
    <glyph glyph-name="divide" unicode="&#xf7;" horiz-adv-x="1218" 
d="M723 1294v-213h-229v213h229zM137 692v148h942v-148h-942zM723 451v-211h-229v211h229z" />
    <glyph glyph-name="oslash" unicode="&#xf8;" horiz-adv-x="1411" 
d="M705 -31q-219 0 -388 137l-104 -106h-188l198 201q-133 165 -133 381q0 123 49 235t131.5 193.5t196 129.5t238.5 48q205 0 372 -125l94 94h189l-184 -186q143 -172 143 -389q0 -166 -83 -307.5t-224.5 -223.5t-306.5 -82zM262 582q0 -144 78 -265l627 633
q-120 86 -262 86q-185 0 -314 -131.5t-129 -322.5zM705 121q120 0 222 61t161 167t59 233q0 150 -88 272l-629 -635q122 -98 275 -98z" />
    <glyph glyph-name="ugrave" unicode="&#xf9;" horiz-adv-x="1318" 
d="M371 1618h196l178 -328h-149zM1001 0v190q-62 -108 -165 -164.5t-232 -56.5q-209 0 -334 137t-125 398v653h166v-639q0 -193 94 -295t238 -102q153 0 253.5 106.5t100.5 304.5v625h166v-1157h-162z" />
    <glyph glyph-name="uacute" unicode="&#xfa;" horiz-adv-x="1318" 
d="M969 1618l-226 -328h-147l178 328h195zM1001 0v190q-62 -108 -165 -164.5t-232 -56.5q-209 0 -334 137t-125 398v653h166v-639q0 -193 94 -295t238 -102q153 0 253.5 106.5t100.5 304.5v625h166v-1157h-162z" />
    <glyph glyph-name="ucircumflex" unicode="&#xfb;" horiz-adv-x="1318" 
d="M819 1290l-162 180l-163 -180h-160l323 352l322 -352h-160zM1001 0v190q-62 -108 -165 -164.5t-232 -56.5q-209 0 -334 137t-125 398v653h166v-639q0 -193 94 -295t238 -102q153 0 253.5 106.5t100.5 304.5v625h166v-1157h-162z" />
    <glyph glyph-name="udieresis" unicode="&#xfc;" horiz-adv-x="1318" 
d="M940 1540v-184h-192v184h192zM565 1540v-184h-190v184h190zM1001 0v190q-62 -108 -165 -164.5t-232 -56.5q-209 0 -334 137t-125 398v653h166v-639q0 -193 94 -295t238 -102q153 0 253.5 106.5t100.5 304.5v625h166v-1157h-162z" />
    <glyph glyph-name="yacute" unicode="&#xfd;" horiz-adv-x="1236" 
d="M922 1618l-226 -328h-147l178 328h195zM696 -512h-166v494l-510 1175h181l417 -964l429 964h170l-521 -1173v-496z" />
    <glyph glyph-name="thorn" unicode="&#xfe;" 
d="M764 1036q-184 0 -313 -133.5t-129 -324.5t129 -324t313 -133q185 0 313.5 132.5t128.5 324.5q0 191 -129 324.5t-313 133.5zM780 -31q-145 0 -265 67.5t-193 190.5v-739h-166v2048h166v-606q73 123 193 190.5t265 67.5q122 0 232.5 -47.5t190.5 -128.5t127.5 -194
t47.5 -240q0 -126 -47.5 -239t-127.5 -194t-190.5 -128.5t-232.5 -47.5z" />
    <glyph glyph-name="ydieresis" unicode="&#xff;" horiz-adv-x="1236" 
d="M903 1540v-184h-192v184h192zM528 1540v-184h-190v184h190zM696 -512h-166v494l-510 1175h181l417 -964l429 964h170l-521 -1173v-496z" />
    <glyph glyph-name="Amacron" unicode="&#x100;" horiz-adv-x="1564" 
d="M1073 1886v-133h-584v133h584zM1139 440l-361 783l-360 -783h721zM1341 0l-133 289h-860l-133 -289h-184l751 1577l752 -1577h-193z" />
    <glyph glyph-name="amacron" unicode="&#x101;" 
d="M995 1491v-133h-583v133h583zM705 121q120 0 222 61t161 167t59 233q0 190 -129 322t-313 132q-186 0 -314.5 -131.5t-128.5 -322.5q0 -194 128.5 -327.5t314.5 -133.5zM1153 0v240q-72 -129 -194.5 -200t-270.5 -71q-122 0 -232.5 47.5t-190.5 129t-127.5 195.5
t-47.5 241q0 125 47.5 237.5t127.5 193t190.5 128t232.5 47.5q148 0 270.5 -70.5t194.5 -197.5v237h160v-1157h-160z" />
    <glyph glyph-name="Abreve" unicode="&#x102;" horiz-adv-x="1564" 
d="M782 1688q-120 0 -192 66t-72 183v62h123v-62q0 -60 37.5 -94.5t103.5 -34.5q65 0 102.5 34.5t37.5 94.5v62h122v-62q0 -117 -71.5 -183t-190.5 -66zM1139 440l-361 783l-360 -783h721zM1341 0l-133 289h-860l-133 -289h-184l751 1577l752 -1577h-193z" />
    <glyph glyph-name="abreve" unicode="&#x103;" 
d="M705 1292q-120 0 -192.5 66.5t-72.5 183.5v62h123v-62q0 -60 38 -94.5t104 -34.5q65 0 102 34.5t37 94.5v62h123v-62q0 -117 -71.5 -183.5t-190.5 -66.5zM705 121q120 0 222 61t161 167t59 233q0 190 -129 322t-313 132q-186 0 -314.5 -131.5t-128.5 -322.5
q0 -194 128.5 -327.5t314.5 -133.5zM1153 0v240q-72 -129 -194.5 -200t-270.5 -71q-122 0 -232.5 47.5t-190.5 129t-127.5 195.5t-47.5 241q0 125 47.5 237.5t127.5 193t190.5 128t232.5 47.5q148 0 270.5 -70.5t194.5 -197.5v237h160v-1157h-160z" />
    <glyph glyph-name="Aogonek" unicode="&#x104;" horiz-adv-x="1564" 
d="M1139 440l-361 783l-360 -783h721zM1462 -289v-127h-37q-124 0 -199 66t-75 166q0 77 46.5 135.5t129.5 81.5l-119 256h-860l-133 -289h-184l751 1577l752 -1577h-92q-70 0 -111 -42t-41 -108q0 -62 38 -100.5t97 -38.5h37z" />
    <glyph glyph-name="aogonek" unicode="&#x105;" 
d="M705 121q120 0 222 61t161 167t59 233q0 190 -129 322t-313 132q-186 0 -314.5 -131.5t-128.5 -322.5q0 -194 128.5 -327.5t314.5 -133.5zM1280 -289v-127h-37q-124 0 -199 66t-75 166q0 80 48.5 139.5t135.5 79.5v205q-72 -129 -194.5 -200t-270.5 -71
q-122 0 -232.5 47.5t-190.5 129t-127.5 195.5t-47.5 241q0 125 47.5 237.5t127.5 193t190.5 128t232.5 47.5q148 0 270.5 -70.5t194.5 -197.5v237h160v-1157h-53q-70 0 -111 -42t-41 -108q0 -62 38 -100.5t97 -38.5h37z" />
    <glyph glyph-name="Cacute" unicode="&#x106;" horiz-adv-x="1462" 
d="M1092 2013l-226 -327h-147l178 327h195zM928 -41q-179 0 -333 60t-261.5 166.5t-168.5 256.5t-61 324q0 165 64 314.5t173 258.5t261.5 173.5t321.5 64.5q231 0 430 -113v-180q-196 129 -432 129q-179 0 -325.5 -87t-229 -235.5t-82.5 -326.5q0 -139 47.5 -258.5
t131.5 -204t204 -132.5t260 -48q216 0 426 119v-174q-192 -107 -426 -107z" />
    <glyph glyph-name="cacute" unicode="&#x107;" horiz-adv-x="1146" 
d="M909 1618l-225 -328h-147l178 328h194zM711 -31q-174 0 -316 78.5t-223.5 218.5t-81.5 314q0 168 84.5 308t228 220t312.5 80q190 0 332 -80v-168q-146 96 -320 96q-198 0 -331.5 -132t-133.5 -324q0 -202 132 -330.5t335 -128.5q151 0 313 86v-164q-145 -74 -331 -74z
" />
    <glyph glyph-name="Ccircumflex" unicode="&#x108;" horiz-adv-x="1462" 
d="M995 1686l-161 180l-164 -180h-160l324 352l321 -352h-160zM928 -41q-179 0 -333 60t-261.5 166.5t-168.5 256.5t-61 324q0 165 64 314.5t173 258.5t261.5 173.5t321.5 64.5q231 0 430 -113v-180q-196 129 -432 129q-179 0 -325.5 -87t-229 -235.5t-82.5 -326.5
q0 -139 47.5 -258.5t131.5 -204t204 -132.5t260 -48q216 0 426 119v-174q-192 -107 -426 -107z" />
    <glyph glyph-name="ccircumflex" unicode="&#x109;" horiz-adv-x="1146" 
d="M825 1290l-161 180l-164 -180h-160l324 352l321 -352h-160zM711 -31q-174 0 -316 78.5t-223.5 218.5t-81.5 314q0 168 84.5 308t228 220t312.5 80q190 0 332 -80v-168q-146 96 -320 96q-198 0 -331.5 -132t-133.5 -324q0 -202 132 -330.5t335 -128.5q151 0 313 86v-164
q-145 -74 -331 -74z" />
    <glyph glyph-name="Cdotaccent" unicode="&#x10a;" horiz-adv-x="1462" 
d="M944 1751h-223v221h223v-221zM928 -41q-179 0 -333 60t-261.5 166.5t-168.5 256.5t-61 324q0 165 64 314.5t173 258.5t261.5 173.5t321.5 64.5q231 0 430 -113v-180q-196 129 -432 129q-179 0 -325.5 -87t-229 -235.5t-82.5 -326.5q0 -139 47.5 -258.5t131.5 -204
t204 -132.5t260 -48q216 0 426 119v-174q-192 -107 -426 -107z" />
    <glyph glyph-name="cdotaccent" unicode="&#x10b;" horiz-adv-x="1146" 
d="M774 1356h-223v221h223v-221zM711 -31q-174 0 -316 78.5t-223.5 218.5t-81.5 314q0 168 84.5 308t228 220t312.5 80q190 0 332 -80v-168q-146 96 -320 96q-198 0 -331.5 -132t-133.5 -324q0 -202 132 -330.5t335 -128.5q151 0 313 86v-164q-145 -74 -331 -74z" />
    <glyph glyph-name="Ccaron" unicode="&#x10c;" horiz-adv-x="1462" 
d="M834 1659l-324 354h160l164 -182l161 182h160zM928 -41q-179 0 -333 60t-261.5 166.5t-168.5 256.5t-61 324q0 165 64 314.5t173 258.5t261.5 173.5t321.5 64.5q231 0 430 -113v-180q-196 129 -432 129q-179 0 -325.5 -87t-229 -235.5t-82.5 -326.5q0 -139 47.5 -258.5
t131.5 -204t204 -132.5t260 -48q216 0 426 119v-174q-192 -107 -426 -107z" />
    <glyph glyph-name="ccaron" unicode="&#x10d;" horiz-adv-x="1146" 
d="M664 1264l-324 354h160l164 -182l161 182h160zM711 -31q-174 0 -316 78.5t-223.5 218.5t-81.5 314q0 168 84.5 308t228 220t312.5 80q190 0 332 -80v-168q-146 96 -320 96q-198 0 -331.5 -132t-133.5 -324q0 -202 132 -330.5t335 -128.5q151 0 313 86v-164
q-145 -74 -331 -74z" />
    <glyph glyph-name="Dcaron" unicode="&#x10e;" horiz-adv-x="1386" 
d="M674 1659l-324 354h160l164 -182l162 182h159zM176 0v1419l-70 117h367q183 0 336.5 -59.5t256 -163t159.5 -243.5t57 -300q0 -157 -57 -297t-159.5 -245t-256 -166.5t-336.5 -61.5h-297zM346 152h127q146 0 267 50t199.5 135t121.5 196.5t43 236.5q0 128 -43 239
t-121.5 194.5t-199 131t-267.5 47.5h-127v-1230z" />
    <glyph glyph-name="dcaron" unicode="&#x10f;" horiz-adv-x="1626" 
d="M1626 1536l-35 -410h-131v410h166zM705 121q120 0 222 61t161 167t59 233q0 190 -129 322t-313 132q-186 0 -314.5 -131.5t-128.5 -322.5q0 -194 128.5 -327.5t314.5 -133.5zM1153 0v240q-72 -129 -194.5 -200t-270.5 -71q-122 0 -232.5 47.5t-190.5 129t-127.5 195.5
t-47.5 241q0 125 47.5 237.5t127.5 193t190.5 128t232.5 47.5q145 0 265.5 -67.5t193.5 -190.5v606h166v-1536h-160z" />
    <glyph glyph-name="Dcroat" unicode="&#x110;" horiz-adv-x="1406" 
d="M494 0h-297v702h-177v146h177v571l-70 117h367q183 0 336.5 -59.5t256 -163t159.5 -243.5t57 -300q0 -157 -57 -297t-159.5 -245t-256 -166.5t-336.5 -61.5zM367 152h127q146 0 267 50t199.5 135t121 196.5t42.5 236.5q0 128 -42.5 239t-121.5 194.5t-199 131t-267 47.5
h-127v-534h305v-146h-305v-550z" />
    <glyph glyph-name="dcroat" unicode="&#x111;" 
d="M705 121q120 0 222 61t161 167t59 233q0 190 -129 322t-313 132q-186 0 -314.5 -131.5t-128.5 -322.5q0 -194 128.5 -327.5t314.5 -133.5zM1153 0v240q-72 -129 -194.5 -200t-270.5 -71q-122 0 -232.5 47.5t-190.5 129t-127.5 195.5t-47.5 241q0 125 47.5 237.5
t127.5 193t190.5 128t232.5 47.5q145 0 265.5 -67.5t193.5 -190.5v368h-273v103h273v135h166v-135h147v-103h-147v-1298h-160z" />
    <glyph glyph-name="Emacron" unicode="&#x112;" horiz-adv-x="876" 
d="M709 1886v-133h-584v133h584zM176 0v1419l-70 117h627v-152h-391v-698h391v-149h-391v-387h391v-150h-557z" />
    <glyph glyph-name="emacron" unicode="&#x113;" horiz-adv-x="1273" 
d="M950 1491v-133h-583v133h583zM670 1038q-155 0 -264.5 -100.5t-135.5 -263.5h762q-9 161 -111.5 262.5t-250.5 101.5zM1116 70q-176 -101 -391 -101q-292 0 -463.5 164t-171.5 445q0 166 76 306t210.5 222t297.5 82q115 0 214.5 -44.5t169 -122t104.5 -189t24 -238.5
l-4 -49h-920q10 -199 133.5 -312.5t327.5 -113.5q216 0 393 98v-147z" />
    <glyph glyph-name="Ebreve" unicode="&#x114;" horiz-adv-x="876" 
d="M418 1688q-120 0 -192 66t-72 183v62h122v-62q0 -60 38 -94.5t104 -34.5q65 0 102 34.5t37 94.5v62h123v-62q0 -117 -71.5 -183t-190.5 -66zM176 0v1419l-70 117h627v-152h-391v-698h391v-149h-391v-387h391v-150h-557z" />
    <glyph glyph-name="ebreve" unicode="&#x115;" horiz-adv-x="1273" 
d="M659 1292q-120 0 -192 66.5t-72 183.5v62h123v-62q0 -60 37.5 -94.5t103.5 -34.5q65 0 102.5 34.5t37.5 94.5v62h123v-62q0 -117 -72 -183.5t-191 -66.5zM670 1038q-155 0 -264.5 -100.5t-135.5 -263.5h762q-9 161 -111.5 262.5t-250.5 101.5zM1116 70
q-176 -101 -391 -101q-292 0 -463.5 164t-171.5 445q0 166 76 306t210.5 222t297.5 82q115 0 214.5 -44.5t169 -122t104.5 -189t24 -238.5l-4 -49h-920q10 -199 133.5 -312.5t327.5 -113.5q216 0 393 98v-147z" />
    <glyph glyph-name="Edotaccent" unicode="&#x116;" horiz-adv-x="876" 
d="M528 1751h-223v221h223v-221zM176 0v1419l-70 117h627v-152h-391v-698h391v-149h-391v-387h391v-150h-557z" />
    <glyph glyph-name="edotaccent" unicode="&#x117;" horiz-adv-x="1273" 
d="M770 1356h-223v221h223v-221zM670 1038q-155 0 -264.5 -100.5t-135.5 -263.5h762q-9 161 -111.5 262.5t-250.5 101.5zM1116 70q-176 -101 -391 -101q-292 0 -463.5 164t-171.5 445q0 166 76 306t210.5 222t297.5 82q115 0 214.5 -44.5t169 -122t104.5 -189t24 -238.5
l-4 -49h-920q10 -199 133.5 -312.5t327.5 -113.5q216 0 393 98v-147z" />
    <glyph glyph-name="Eogonek" unicode="&#x118;" horiz-adv-x="876" 
d="M707 -289v-127h-37q-124 0 -199.5 66t-75.5 166q0 121 101 184h-320v1419l-70 117h627v-152h-391v-698h391v-149h-391v-387h391v-150h-47q-70 0 -110.5 -42t-40.5 -108q0 -62 38 -100.5t97 -38.5h37z" />
    <glyph glyph-name="eogonek" unicode="&#x119;" horiz-adv-x="1273" 
d="M670 1036q-156 0 -265 -100t-135 -262h762q-9 160 -111.5 261t-250.5 101zM944 -289v-127h-35q-126 0 -201 59t-75 156q0 106 98 170h-6q-292 0 -463.5 164t-171.5 445q0 166 76 306t210.5 222t297.5 82q115 0 214.5 -44.5t169 -122t104.5 -189t24 -238.5l-4 -49h-920
q10 -199 133.5 -312.5t327.5 -113.5q216 0 393 98v-147q-102 -59 -213 -82q-131 -47 -131 -156q0 -58 37 -89.5t98 -31.5h37z" />
    <glyph glyph-name="Ecaron" unicode="&#x11a;" horiz-adv-x="876" 
d="M418 1659l-324 354h160l164 -182l162 182h159zM176 0v1419l-70 117h627v-152h-391v-698h391v-149h-391v-387h391v-150h-557z" />
    <glyph glyph-name="ecaron" unicode="&#x11b;" horiz-adv-x="1273" 
d="M659 1264l-323 354h160l163 -182l162 182h160zM670 1038q-155 0 -264.5 -100.5t-135.5 -263.5h762q-9 161 -111.5 262.5t-250.5 101.5zM1116 70q-176 -101 -391 -101q-292 0 -463.5 164t-171.5 445q0 166 76 306t210.5 222t297.5 82q115 0 214.5 -44.5t169 -122
t104.5 -189t24 -238.5l-4 -49h-920q10 -199 133.5 -312.5t327.5 -113.5q216 0 393 98v-147z" />
    <glyph glyph-name="Gcircumflex" unicode="&#x11c;" horiz-adv-x="1505" 
d="M985 1686l-162 180l-164 -180h-159l323 352l322 -352h-160zM1360 70q-193 -111 -438 -111q-179 0 -331.5 60t-259 166.5t-167 256t-60.5 324.5q0 165 64 314.5t173 258.5t261.5 173.5t321.5 64.5q231 0 430 -113v-180q-196 129 -432 129q-179 0 -325.5 -87t-229 -235.5
t-82.5 -326.5q0 -282 178 -462.5t457 -180.5q141 0 274 45v534h166v-630z" />
    <glyph glyph-name="gcircumflex" unicode="&#x11d;" 
d="M866 1290l-161 180l-164 -180h-160l324 352l321 -352h-160zM705 121q120 0 222 61t161 167t59 233q0 190 -129 322t-313 132q-186 0 -314.5 -131.5t-128.5 -322.5q0 -194 128.5 -327.5t314.5 -133.5zM674 -543q-191 0 -365 56v149q160 -57 353 -57q89 0 159 12.5t134 45
t106 86.5t67 141t25 204v146q-72 -129 -194.5 -200t-270.5 -71q-122 0 -232.5 47.5t-190.5 129t-127.5 195.5t-47.5 241q0 125 47.5 237.5t127.5 193t190.5 128t232.5 47.5q148 0 270.5 -70.5t194.5 -197.5v237h160v-1048q0 -325 -164.5 -488.5t-474.5 -163.5z" />
    <glyph glyph-name="Gbreve" unicode="&#x11e;" horiz-adv-x="1505" 
d="M811 1688q-120 0 -192 66t-72 183v62h123v-62q0 -60 37.5 -94.5t103.5 -34.5q65 0 102 34.5t37 94.5v62h123v-62q0 -117 -71.5 -183t-190.5 -66zM1360 70q-193 -111 -438 -111q-179 0 -331.5 60t-259 166.5t-167 256t-60.5 324.5q0 165 64 314.5t173 258.5t261.5 173.5
t321.5 64.5q231 0 430 -113v-180q-196 129 -432 129q-179 0 -325.5 -87t-229 -235.5t-82.5 -326.5q0 -282 178 -462.5t457 -180.5q141 0 274 45v534h166v-630z" />
    <glyph glyph-name="gbreve" unicode="&#x11f;" 
d="M705 1292q-120 0 -192.5 66.5t-72.5 183.5v62h123v-62q0 -60 38 -94.5t104 -34.5q65 0 102 34.5t37 94.5v62h123v-62q0 -117 -71.5 -183.5t-190.5 -66.5zM705 121q120 0 222 61t161 167t59 233q0 190 -129 322t-313 132q-186 0 -314.5 -131.5t-128.5 -322.5
q0 -194 128.5 -327.5t314.5 -133.5zM674 -543q-191 0 -365 56v149q160 -57 353 -57q89 0 159 12.5t134 45t106 86.5t67 141t25 204v146q-72 -129 -194.5 -200t-270.5 -71q-122 0 -232.5 47.5t-190.5 129t-127.5 195.5t-47.5 241q0 125 47.5 237.5t127.5 193t190.5 128
t232.5 47.5q148 0 270.5 -70.5t194.5 -197.5v237h160v-1048q0 -325 -164.5 -488.5t-474.5 -163.5z" />
    <glyph glyph-name="Gdotaccent" unicode="&#x120;" horiz-adv-x="1505" 
d="M934 1751h-223v221h223v-221zM1360 70q-193 -111 -438 -111q-179 0 -331.5 60t-259 166.5t-167 256t-60.5 324.5q0 165 64 314.5t173 258.5t261.5 173.5t321.5 64.5q231 0 430 -113v-180q-196 129 -432 129q-179 0 -325.5 -87t-229 -235.5t-82.5 -326.5
q0 -282 178 -462.5t457 -180.5q141 0 274 45v534h166v-630z" />
    <glyph glyph-name="gdotaccent" unicode="&#x121;" 
d="M815 1356h-223v221h223v-221zM705 121q120 0 222 61t161 167t59 233q0 190 -129 322t-313 132q-186 0 -314.5 -131.5t-128.5 -322.5q0 -194 128.5 -327.5t314.5 -133.5zM674 -543q-191 0 -365 56v149q160 -57 353 -57q89 0 159 12.5t134 45t106 86.5t67 141t25 204v146
q-72 -129 -194.5 -200t-270.5 -71q-122 0 -232.5 47.5t-190.5 129t-127.5 195.5t-47.5 241q0 125 47.5 237.5t127.5 193t190.5 128t232.5 47.5q148 0 270.5 -70.5t194.5 -197.5v237h160v-1048q0 -325 -164.5 -488.5t-474.5 -163.5z" />
    <glyph glyph-name="Gcommaaccent" unicode="&#x122;" horiz-adv-x="1505" 
d="M1360 70q-193 -111 -438 -111q-179 0 -331.5 60t-259 166.5t-167 256t-60.5 324.5q0 165 64 314.5t173 258.5t261.5 173.5t321.5 64.5q231 0 430 -113v-180q-196 129 -432 129q-179 0 -325.5 -87t-229 -235.5t-82.5 -326.5q0 -282 178 -462.5t457 -180.5q141 0 274 45
v534h166v-630zM893 -143l-62 -389h-129l21 389h170z" />
    <glyph glyph-name="gcommaaccent" unicode="&#x123;" 
d="M600 1288l62 391h129l-21 -391h-170zM705 121q120 0 222 61t161 167t59 233q0 190 -129 322t-313 132q-186 0 -314.5 -131.5t-128.5 -322.5q0 -194 128.5 -327.5t314.5 -133.5zM674 -543q-191 0 -365 56v149q160 -57 353 -57q89 0 159 12.5t134 45t106 86.5t67 141
t25 204v146q-72 -129 -194.5 -200t-270.5 -71q-122 0 -232.5 47.5t-190.5 129t-127.5 195.5t-47.5 241q0 125 47.5 237.5t127.5 193t190.5 128t232.5 47.5q148 0 270.5 -70.5t194.5 -197.5v237h160v-1048q0 -325 -164.5 -488.5t-474.5 -163.5z" />
    <glyph glyph-name="Hcircumflex" unicode="&#x124;" horiz-adv-x="1452" 
d="M874 1686l-161 180l-164 -180h-160l324 352l321 -352h-160zM1106 639v897h170v-1536h-170v481h-760v-481h-170v1536h170v-897h760z" />
    <glyph glyph-name="hcircumflex" unicode="&#x125;" horiz-adv-x="1329" 
d="M838 1686l-162 180l-164 -180h-160l324 352l321 -352h-159zM322 625v-625h-166v1536h166v-563q64 105 167.5 160t233.5 55q209 0 335 -137.5t126 -397.5v-653h-168v639q0 193 -95.5 295t-240.5 102q-155 0 -256.5 -106.5t-101.5 -304.5z" />
    <glyph glyph-name="Hbar" unicode="&#x126;" horiz-adv-x="1492" 
d="M367 639h759v387h-759v-387zM367 481v-481h-170v1026h-177v131h177v379h170v-379h759v379h170v-379h177v-131h-177v-1026h-170v481h-759z" />
    <glyph glyph-name="hbar" unicode="&#x127;" horiz-adv-x="1329" 
d="M322 625v-625h-166v1298h-156v103h156v135h166v-135h262v-103h-262v-325q64 105 167.5 160t233.5 55q209 0 335 -137.5t126 -397.5v-653h-168v639q0 193 -96 295t-240 102q-155 0 -256.5 -106.5t-101.5 -304.5z" />
    <glyph glyph-name="Itilde" unicode="&#x128;" horiz-adv-x="522" 
d="M395 1806q49 0 49 56v102h115v-117q0 -76 -39.5 -124t-107.5 -48q-42 0 -86 25t-74 55t-65 55t-62 25q-47 0 -47 -66v-94h-115v113q0 80 41.5 128t110.5 48q34 0 68.5 -16.5t62 -39.5t53 -46t50.5 -39.5t46 -16.5zM346 1536v-1536h-170v1536h170z" />
    <glyph glyph-name="itilde" unicode="&#x129;" horiz-adv-x="477" 
d="M373 1411q49 0 49 55v103h115v-117q0 -76 -40 -124t-108 -48q-42 0 -86 25t-74 55t-65 55t-62 25q-47 0 -47 -66v-94h-114v113q0 80 41 128t110 48q34 0 68.5 -16.5t62 -39.5t53.5 -46t51 -39.5t46 -16.5zM322 0h-166v1157h166v-1157z" />
    <glyph glyph-name="Imacron" unicode="&#x12a;" horiz-adv-x="522" 
d="M553 1886v-133h-584v133h584zM346 1536v-1536h-170v1536h170z" />
    <glyph glyph-name="imacron" unicode="&#x12b;" horiz-adv-x="477" 
d="M530 1491v-133h-583v133h583zM322 0h-166v1157h166v-1157z" />
    <glyph glyph-name="Ibreve" unicode="&#x12c;" horiz-adv-x="522" 
d="M262 1688q-120 0 -192 66t-72 183v62h123v-62q0 -60 37.5 -94.5t103.5 -34.5q65 0 102 34.5t37 94.5v62h123v-62q0 -117 -71.5 -183t-190.5 -66zM346 1536v-1536h-170v1536h170z" />
    <glyph glyph-name="ibreve" unicode="&#x12d;" horiz-adv-x="477" 
d="M240 1292q-120 0 -192.5 66.5t-72.5 183.5v62h123v-62q0 -60 38 -94.5t104 -34.5q65 0 102 34.5t37 94.5v62h123v-62q0 -117 -71.5 -183.5t-190.5 -66.5zM322 0h-166v1157h166v-1157z" />
    <glyph glyph-name="Iogonek" unicode="&#x12e;" horiz-adv-x="522" 
d="M285 -289v-127h-37q-124 0 -199.5 66t-75.5 166q0 84 54 145t149 78v1497h170v-1536h-82q-70 0 -110.5 -42t-40.5 -108q0 -62 38 -100.5t97 -38.5h37z" />
    <glyph glyph-name="iogonek" unicode="&#x12f;" horiz-adv-x="477" 
d="M145 1378v158h185v-158h-185zM322 -289v-127h-37q-124 0 -199.5 66t-75.5 166q0 70 38.5 125.5t107.5 81.5v1134h166v-1157h-21q-70 0 -110.5 -42t-40.5 -108q0 -62 38 -100.5t97 -38.5h37z" />
    <glyph glyph-name="Idotaccent" unicode="&#x130;" horiz-adv-x="522" 
d="M373 1751h-223v221h223v-221zM346 1536v-1536h-170v1536h170z" />
    <glyph glyph-name="dotlessi" unicode="&#x131;" horiz-adv-x="477" 
d="M322 0h-166v1157h166v-1157z" />
    <glyph glyph-name="IJ" unicode="&#x132;" horiz-adv-x="1288" 
d="M739 0h-180v150h164q51 0 89 10.5t71 37.5t50 79.5t17 130.5v970h-383v158h553v-1128q0 -205 -99 -306.5t-282 -101.5zM346 1536v-1536h-170v1536h170z" />
    <glyph glyph-name="ij" unicode="&#x133;" horiz-adv-x="952" 
d="M621 1378v158h184v-158h-184zM145 1378v158h185v-158h-185zM338 -512v143h94q96 0 147.5 47t51.5 170v1309h166v-1309q0 -179 -90 -269.5t-256 -90.5h-113zM322 1157v-1157h-166v1157h166z" />
    <glyph glyph-name="Jcircumflex" unicode="&#x134;" horiz-adv-x="821" 
d="M731 1686l-162 180l-163 -180h-160l323 352l322 -352h-160zM274 0h-180v150h164q51 0 89 10.5t71 37.5t50 79.5t17 130.5v970h-383v158h553v-1128q0 -205 -99 -306.5t-282 -101.5z" />
    <glyph glyph-name="jcircumflex" unicode="&#x135;" horiz-adv-x="477" 
d="M399 1290l-161 180l-164 -180h-160l324 352l321 -352h-160zM-137 -512v143h94q96 0 147.5 47t51.5 170v1309h166v-1309q0 -178 -90.5 -269t-256.5 -91h-112z" />
    <glyph glyph-name="Kcommaaccent" unicode="&#x136;" horiz-adv-x="1200" 
d="M938 0l-594 565v-565h-168v1536h168v-940l625 940h182l-621 -934l627 -602h-219zM698 -143l-61 -389h-129l20 389h170z" />
    <glyph glyph-name="kcommaaccent" unicode="&#x137;" horiz-adv-x="1120" 
d="M322 1536v-1536h-166v1536h166zM1096 0h-203l-477 530l475 627h180l-465 -610zM621 -143l-62 -389h-129l21 389h170z" />
    <glyph glyph-name="Lacute" unicode="&#x139;" horiz-adv-x="839" 
d="M559 2013l-225 -327h-148l179 327h194zM346 1536v-1386h387v-150h-557v1536h170z" />
    <glyph glyph-name="lacute" unicode="&#x13a;" horiz-adv-x="477" 
d="M539 2005l-226 -328h-147l178 328h195zM322 0h-166v1536h166v-1536z" />
    <glyph glyph-name="Lcommaaccent" unicode="&#x13b;" horiz-adv-x="839" 
d="M346 1536v-1386h387v-150h-557v1536h170zM535 -143l-62 -389h-129l21 389h170z" />
    <glyph glyph-name="lcommaaccent" unicode="&#x13c;" horiz-adv-x="477" 
d="M322 0h-166v1536h166v-1536zM315 -143l-61 -389h-129l20 389h170z" />
    <glyph glyph-name="Lcaron" unicode="&#x13d;" horiz-adv-x="856" 
d="M721 1536l-35 -410h-131v410h166zM346 1536v-1386h387v-150h-557v1536h170z" />
    <glyph glyph-name="lcaron" unicode="&#x13e;" horiz-adv-x="641" 
d="M639 1536l-35 -410h-131v410h166zM322 0h-166v1536h166v-1536z" />
    <glyph glyph-name="Ldot" unicode="&#x13f;" horiz-adv-x="886" 
d="M346 1536v-1386h387v-150h-557v1536h170zM729 778v-211h-229v211h229z" />
    <glyph glyph-name="ldot" unicode="&#x140;" horiz-adv-x="618" 
d="M322 0h-166v1536h166v-1536zM659 778v-211h-229v211h229z" />
    <glyph glyph-name="Lslash" unicode="&#x141;" horiz-adv-x="860" 
d="M754 0h-557v694l-177 -65v157l177 66v684h170v-621l247 93v-158l-247 -92v-608h387v-150z" />
    <glyph glyph-name="lslash" unicode="&#x142;" horiz-adv-x="518" 
d="M342 0h-166v520l-149 -55v149l149 54v868h166v-809l158 57v-147l-158 -57v-580z" />
    <glyph glyph-name="Nacute" unicode="&#x143;" horiz-adv-x="1409" 
d="M987 2013l-225 -327h-148l179 327h194zM344 1126v-1126h-168v1577l887 -1188v1147h170v-1577z" />
    <glyph glyph-name="nacute" unicode="&#x144;" horiz-adv-x="1329" 
d="M973 1618l-225 -328h-148l178 328h195zM322 625v-625h-166v1157h159v-192q62 109 167.5 166t238.5 57q209 0 336 -137.5t127 -397.5v-653h-168v639q0 193 -95.5 295t-240.5 102q-155 0 -256.5 -106.5t-101.5 -304.5z" />
    <glyph glyph-name="Ncommaaccent" unicode="&#x145;" horiz-adv-x="1409" 
d="M344 1126v-1126h-168v1577l887 -1188v1147h170v-1577zM745 -143l-61 -389h-129l20 389h170z" />
    <glyph glyph-name="ncommaaccent" unicode="&#x146;" horiz-adv-x="1329" 
d="M322 625v-625h-166v1157h159v-192q62 109 167.5 166t238.5 57q209 0 336 -137.5t127 -397.5v-653h-168v639q0 193 -95.5 295t-240.5 102q-155 0 -256.5 -106.5t-101.5 -304.5zM731 -143l-61 -389h-129l20 389h170z" />
    <glyph glyph-name="Ncaron" unicode="&#x147;" horiz-adv-x="1409" 
d="M676 1659l-324 354h160l164 -182l162 182h159zM344 1126v-1126h-168v1577l887 -1188v1147h170v-1577z" />
    <glyph glyph-name="ncaron" unicode="&#x148;" horiz-adv-x="1329" 
d="M662 1264l-324 354h160l164 -182l161 182h160zM322 625v-625h-166v1157h159v-192q62 109 167.5 166t238.5 57q209 0 336 -137.5t127 -397.5v-653h-168v639q0 193 -95.5 295t-240.5 102q-155 0 -256.5 -106.5t-101.5 -304.5z" />
    <glyph glyph-name="Omacron" unicode="&#x14c;" horiz-adv-x="1828" 
d="M1186 1886v-133h-584v133h584zM913 -41q-164 0 -314 64.5t-258.5 173.5t-172.5 259t-64 314q0 218 108.5 404t295 294.5t405.5 108.5q218 0 404.5 -108.5t295.5 -294.5t109 -404q0 -219 -109 -406t-295.5 -296t-404.5 -109zM913 119q128 0 245 51.5t201.5 138.5
t134.5 207.5t50 253.5q0 176 -84.5 324.5t-230 234.5t-316.5 86q-172 0 -317 -86t-229 -234.5t-84 -324.5q0 -177 84 -327t229 -237t317 -87z" />
    <glyph glyph-name="omacron" unicode="&#x14d;" horiz-adv-x="1411" 
d="M991 1491v-133h-583v133h583zM705 -31q-125 0 -238.5 48.5t-196 130.5t-131.5 196t-49 238q0 123 49 235t131.5 193.5t196 129.5t238.5 48q165 0 306.5 -81t224.5 -221t83 -304q0 -166 -83 -307.5t-224.5 -223.5t-306.5 -82zM705 121q120 0 222 61t161 167t59 233
q0 190 -129 322t-313 132q-185 0 -314 -132t-129 -322q0 -193 129 -327t314 -134z" />
    <glyph glyph-name="Obreve" unicode="&#x14e;" horiz-adv-x="1828" 
d="M895 1688q-120 0 -192 66t-72 183v62h123v-62q0 -60 37.5 -94.5t103.5 -34.5q65 0 102 34.5t37 94.5v62h123v-62q0 -117 -71.5 -183t-190.5 -66zM913 -41q-164 0 -314 64.5t-258.5 173.5t-172.5 259t-64 314q0 218 108.5 404t295 294.5t405.5 108.5q218 0 404.5 -108.5
t295.5 -294.5t109 -404q0 -219 -109 -406t-295.5 -296t-404.5 -109zM913 119q128 0 245 51.5t201.5 138.5t134.5 207.5t50 253.5q0 176 -84.5 324.5t-230 234.5t-316.5 86q-172 0 -317 -86t-229 -234.5t-84 -324.5q0 -177 84 -327t229 -237t317 -87z" />
    <glyph glyph-name="obreve" unicode="&#x14f;" horiz-adv-x="1411" 
d="M700 1292q-120 0 -192 66.5t-72 183.5v62h123v-62q0 -60 37.5 -94.5t103.5 -34.5q65 0 102.5 34.5t37.5 94.5v62h123v-62q0 -117 -72 -183.5t-191 -66.5zM705 -31q-125 0 -238.5 48.5t-196 130.5t-131.5 196t-49 238q0 123 49 235t131.5 193.5t196 129.5t238.5 48
q165 0 306.5 -81t224.5 -221t83 -304q0 -166 -83 -307.5t-224.5 -223.5t-306.5 -82zM705 121q120 0 222 61t161 167t59 233q0 190 -129 322t-313 132q-185 0 -314 -132t-129 -322q0 -193 129 -327t314 -134z" />
    <glyph glyph-name="Ohungarumlaut" unicode="&#x150;" horiz-adv-x="1828" 
d="M1253 2013l-188 -327h-141l153 327h176zM961 2013l-191 -327h-139l153 327h177zM913 -41q-164 0 -314 64.5t-258.5 173.5t-172.5 259t-64 314q0 218 108.5 404t295 294.5t405.5 108.5q218 0 404.5 -108.5t295.5 -294.5t109 -404q0 -219 -109 -406t-295.5 -296
t-404.5 -109zM913 119q128 0 245 51.5t201.5 138.5t134.5 207.5t50 253.5q0 176 -84.5 324.5t-230 234.5t-316.5 86q-172 0 -317 -86t-229 -234.5t-84 -324.5q0 -177 84 -327t229 -237t317 -87z" />
    <glyph glyph-name="ohungarumlaut" unicode="&#x151;" horiz-adv-x="1411" 
d="M1085 1618l-188 -328h-141l153 328h176zM793 1618l-191 -328h-139l153 328h177zM705 -31q-125 0 -238.5 48.5t-196 130.5t-131.5 196t-49 238q0 123 49 235t131.5 193.5t196 129.5t238.5 48q165 0 306.5 -81t224.5 -221t83 -304q0 -166 -83 -307.5t-224.5 -223.5
t-306.5 -82zM705 121q120 0 222 61t161 167t59 233q0 190 -129 322t-313 132q-185 0 -314 -132t-129 -322q0 -193 129 -327t314 -134z" />
    <glyph glyph-name="OE" unicode="&#x152;" horiz-adv-x="2246" 
d="M913 121q128 0 245 51t201.5 138t134.5 207t50 253q0 175 -84.5 323t-230 234t-316.5 86t-315.5 -86t-228.5 -234t-84 -323q0 -176 84 -325.5t228.5 -236.5t315.5 -87zM1544 0v293q-104 -155 -268 -244.5t-363 -89.5q-164 0 -314 64.5t-258.5 173.5t-172.5 259t-64 314
q0 218 108.5 404t295 294.5t405.5 108.5q200 0 363.5 -89t267.5 -245v293h559v-152h-393v-698h393v-149h-393v-387h393v-150h-559z" />
    <glyph glyph-name="oe" unicode="&#x153;" horiz-adv-x="2330" 
d="M1726 1038q-155 0 -263.5 -100.5t-135.5 -263.5h762q-9 161 -112 262.5t-251 101.5zM705 121q120 0 222 61t161 167t59 233q0 190 -129 322t-313 132q-185 0 -314 -132t-129 -322q0 -193 129 -327t314 -134zM2173 70q-173 -101 -391 -101q-194 0 -338 75t-219 212
q-85 -132 -222.5 -209.5t-297.5 -77.5q-125 0 -238.5 48.5t-196 130.5t-131.5 196t-49 238q0 123 49 235t131.5 193.5t196 129.5t238.5 48q163 0 303 -80t223 -213q77 135 209 214t293 79q114 0 213.5 -44.5t169 -122t104.5 -189t23 -238.5l-5 -49h-919
q10 -199 133.5 -312.5t329.5 -113.5q214 0 391 98v-147z" />
    <glyph glyph-name="Racute" unicode="&#x154;" horiz-adv-x="1099" 
d="M834 2013l-226 -327h-147l178 327h195zM379 1382h-33v-833h33q111 0 204 49.5t150.5 146t57.5 222.5q0 124 -59 220t-152 145.5t-201 49.5zM809 0l-229 432q-115 -39 -234 -39v-393h-170v1419l-70 117h240q271 0 445 -154.5t174 -408.5q0 -148 -63.5 -268t-174.5 -197
l272 -508h-190z" />
    <glyph glyph-name="racute" unicode="&#x155;" horiz-adv-x="804" 
d="M713 1618l-226 -328h-147l178 328h195zM322 639v-639h-166v1157h159v-194q65 109 177 167t251 58v-164q-24 6 -65 6q-68 0 -131 -24.5t-113.5 -71t-81 -123t-30.5 -172.5z" />
    <glyph glyph-name="Rcommaaccent" unicode="&#x156;" horiz-adv-x="1099" 
d="M379 1382h-33v-833h33q111 0 204 49.5t150.5 146t57.5 222.5q0 124 -59 220t-152 145.5t-201 49.5zM809 0l-229 432q-115 -39 -234 -39v-393h-170v1419l-70 117h240q271 0 445 -154.5t174 -408.5q0 -148 -63.5 -268t-174.5 -197l272 -508h-190zM627 -143l-62 -389h-129
l21 389h170z" />
    <glyph glyph-name="rcommaaccent" unicode="&#x157;" horiz-adv-x="804" 
d="M322 639v-639h-166v1157h159v-194q65 109 177 167t251 58v-164q-24 6 -65 6q-68 0 -131 -24.5t-113.5 -71t-81 -123t-30.5 -172.5zM315 -143l-61 -389h-129l20 389h170z" />
    <glyph glyph-name="Rcaron" unicode="&#x158;" horiz-adv-x="1099" 
d="M522 1659l-323 354h159l164 -182l162 182h160zM379 1382h-33v-833h33q111 0 204 49.5t150.5 146t57.5 222.5q0 124 -59 220t-152 145.5t-201 49.5zM809 0l-229 432q-115 -39 -234 -39v-393h-170v1419l-70 117h240q271 0 445 -154.5t174 -408.5q0 -148 -63.5 -268
t-174.5 -197l272 -508h-190z" />
    <glyph glyph-name="rcaron" unicode="&#x159;" horiz-adv-x="804" 
d="M401 1264l-323 354h160l163 -182l162 182h160zM322 639v-639h-166v1157h159v-194q65 109 177 167t251 58v-164q-24 6 -65 6q-68 0 -131 -24.5t-113.5 -71t-81 -123t-30.5 -172.5z" />
    <glyph glyph-name="Sacute" unicode="&#x15a;" horiz-adv-x="751" 
d="M668 2013l-226 -327h-147l178 327h195zM653 1384h-96q-119 0 -188.5 -51t-69.5 -157q0 -63 34.5 -141.5t84 -155.5t99 -157t84 -172t34.5 -175q0 -177 -117 -276t-307 -99h-111v150h111q116 0 184 54.5t68 166.5q0 70 -34.5 152.5t-84 160t-99 156.5t-84 166.5
t-34.5 164.5q0 170 118.5 267.5t305.5 97.5h102v-152z" />
    <glyph glyph-name="sacute" unicode="&#x15b;" horiz-adv-x="907" 
d="M770 1618l-225 -328h-148l178 328h195zM391 -31q-160 0 -303 58v147q137 -61 293 -61q132 0 201 45t69 131q0 49 -30.5 90.5t-78.5 72.5t-106.5 61.5t-117.5 64.5t-107 73.5t-78.5 97.5t-30.5 128q0 138 112.5 224.5t285.5 86.5q164 0 293 -60v-145q-131 61 -281 61
q-114 0 -178 -43t-64 -118q0 -46 30.5 -85.5t78.5 -71t106.5 -62.5t117.5 -66.5t107 -76.5t78.5 -99.5t30.5 -128.5q0 -148 -116.5 -236t-311.5 -88z" />
    <glyph glyph-name="Scircumflex" unicode="&#x15c;" horiz-adv-x="751" 
d="M518 1686l-162 180l-163 -180h-160l323 352l322 -352h-160zM653 1384h-96q-119 0 -188.5 -51t-69.5 -157q0 -63 34.5 -141.5t84 -155.5t99 -157t84 -172t34.5 -175q0 -177 -117 -276t-307 -99h-111v150h111q116 0 184 54.5t68 166.5q0 70 -34.5 152.5t-84 160t-99 156.5
t-84 166.5t-34.5 164.5q0 170 118.5 267.5t305.5 97.5h102v-152z" />
    <glyph glyph-name="scircumflex" unicode="&#x15d;" horiz-adv-x="907" 
d="M621 1290l-162 180l-164 -180h-160l324 352l321 -352h-159zM391 -31q-160 0 -303 58v147q137 -61 293 -61q132 0 201 45t69 131q0 49 -30.5 90.5t-78.5 72.5t-106.5 61.5t-117.5 64.5t-107 73.5t-78.5 97.5t-30.5 128q0 138 112.5 224.5t285.5 86.5q164 0 293 -60v-145
q-131 61 -281 61q-114 0 -178 -43t-64 -118q0 -46 30.5 -85.5t78.5 -71t106.5 -62.5t117.5 -66.5t107 -76.5t78.5 -99.5t30.5 -128.5q0 -148 -116.5 -236t-311.5 -88z" />
    <glyph glyph-name="Scedilla" unicode="&#x15e;" horiz-adv-x="751" 
d="M426 -369h-160l17 373q-46 -4 -72 -4h-111v150h111q116 0 184 54.5t68 166.5q0 70 -34.5 152.5t-84 160t-99 156.5t-84 166.5t-34.5 164.5q0 170 118.5 267.5t305.5 97.5h102v-152h-96q-119 0 -188.5 -51t-69.5 -157q0 -63 34.5 -141.5t84 -155.5t99 -157t84 -172
t34.5 -175q0 -120 -55.5 -205t-153.5 -129v-410z" />
    <glyph glyph-name="scedilla" unicode="&#x15f;" horiz-adv-x="907" 
d="M514 -369h-160l15 338q-148 3 -281 58v147q137 -61 293 -61q132 0 201 45t69 131q0 49 -30.5 90.5t-78.5 72.5t-106.5 61.5t-117.5 64.5t-107 73.5t-78.5 97.5t-30.5 128q0 138 112.5 224.5t285.5 86.5q164 0 293 -60v-145q-131 61 -281 61q-114 0 -178 -43t-64 -118
q0 -46 30.5 -85.5t78.5 -71t106.5 -62.5t117.5 -66.5t107 -76.5t78.5 -99.5t30.5 -128.5q0 -122 -81.5 -204.5t-223.5 -108.5v-349z" />
    <glyph glyph-name="Scaron" unicode="&#x160;" horiz-adv-x="751" 
d="M356 1659l-323 354h160l163 -182l162 182h160zM653 1384h-96q-119 0 -188.5 -51t-69.5 -157q0 -63 34.5 -141.5t84 -155.5t99 -157t84 -172t34.5 -175q0 -177 -117 -276t-307 -99h-111v150h111q116 0 184 54.5t68 166.5q0 70 -34.5 152.5t-84 160t-99 156.5t-84 166.5
t-34.5 164.5q0 170 118.5 267.5t305.5 97.5h102v-152z" />
    <glyph glyph-name="scaron" unicode="&#x161;" horiz-adv-x="907" 
d="M459 1264l-324 354h160l164 -182l162 182h159zM391 -31q-160 0 -303 58v147q137 -61 293 -61q132 0 201 45t69 131q0 49 -30.5 90.5t-78.5 72.5t-106.5 61.5t-117.5 64.5t-107 73.5t-78.5 97.5t-30.5 128q0 138 112.5 224.5t285.5 86.5q164 0 293 -60v-145
q-131 61 -281 61q-114 0 -178 -43t-64 -118q0 -46 30.5 -85.5t78.5 -71t106.5 -62.5t117.5 -66.5t107 -76.5t78.5 -99.5t30.5 -128.5q0 -148 -116.5 -236t-311.5 -88z" />
    <glyph glyph-name="uni0162" unicode="&#x162;" horiz-adv-x="882" 
d="M68 1536h747v-147h-289v-1389h-170v1389h-288v147zM526 -143l-61 -389h-129l20 389h170z" />
    <glyph glyph-name="uni0163" unicode="&#x163;" horiz-adv-x="790" 
d="M750 1018h-322v-1018h-168v1018h-256v139h256v221h168v-221h322v-139zM424 -143l-62 -389h-129l21 389h170z" />
    <glyph glyph-name="Tcaron" unicode="&#x164;" horiz-adv-x="882" 
d="M442 1659l-323 354h160l163 -182l162 182h160zM68 1536h747v-147h-289v-1389h-170v1389h-288v147z" />
    <glyph glyph-name="tcaron" unicode="&#x165;" horiz-adv-x="790" 
d="M739 1716l-34 -409h-132v409h166zM750 1018h-322v-1018h-168v1018h-256v139h256v221h168v-221h322v-139z" />
    <glyph glyph-name="Tbar" unicode="&#x166;" horiz-adv-x="882" 
d="M733 604h-207v-604h-170v604h-209v131h209v654h-288v147h747v-147h-289v-654h207v-131z" />
    <glyph glyph-name="tbar" unicode="&#x167;" horiz-adv-x="790" 
d="M653 492h-225v-492h-168v492h-192v133h192v393h-256v139h256v221h168v-221h322v-139h-322v-393h225v-133z" />
    <glyph glyph-name="Utilde" unicode="&#x168;" horiz-adv-x="1400" 
d="M805 1806q49 0 49 56v102h115v-117q0 -76 -40 -124t-108 -48q-42 0 -85.5 25t-73.5 55t-65 55t-62 25q-48 0 -48 -66v-94h-114v113q0 80 41 128t110 48q34 0 68.5 -16.5t62 -39.5t53.5 -46t51 -39.5t46 -16.5zM1235 1536v-1022q0 -255 -150.5 -405t-384.5 -150
q-153 0 -273.5 65.5t-190.5 192.5t-70 297v1022h170v-1004q0 -184 96 -300.5t268 -116.5t268.5 116.5t96.5 300.5v1004h170z" />
    <glyph glyph-name="utilde" unicode="&#x169;" horiz-adv-x="1318" 
d="M791 1411q49 0 49 55v103h114v-117q0 -76 -39.5 -124t-107.5 -48q-42 0 -86 25t-74 55t-65 55t-62 25q-47 0 -47 -66v-94h-115v113q0 80 41.5 128t110.5 48q34 0 68.5 -16.5t62 -39.5t53.5 -46t51 -39.5t46 -16.5zM1001 0v190q-62 -108 -165 -164.5t-232 -56.5
q-209 0 -334 137t-125 398v653h166v-639q0 -193 94 -295t238 -102q153 0 253.5 106.5t100.5 304.5v625h166v-1157h-162z" />
    <glyph glyph-name="Umacron" unicode="&#x16a;" horiz-adv-x="1400" 
d="M991 1886v-133h-583v133h583zM1235 1536v-1022q0 -255 -150.5 -405t-384.5 -150q-153 0 -273.5 65.5t-190.5 192.5t-70 297v1022h170v-1004q0 -184 96 -300.5t268 -116.5t268.5 116.5t96.5 300.5v1004h170z" />
    <glyph glyph-name="umacron" unicode="&#x16b;" horiz-adv-x="1318" 
d="M948 1491v-133h-583v133h583zM1001 0v190q-62 -108 -165 -164.5t-232 -56.5q-209 0 -334 137t-125 398v653h166v-639q0 -193 94 -295t238 -102q153 0 253.5 106.5t100.5 304.5v625h166v-1157h-162z" />
    <glyph glyph-name="Ubreve" unicode="&#x16c;" horiz-adv-x="1400" 
d="M700 1688q-120 0 -192 66t-72 183v62h123v-62q0 -60 37.5 -94.5t103.5 -34.5q65 0 102.5 34.5t37.5 94.5v62h123v-62q0 -117 -72 -183t-191 -66zM1235 1536v-1022q0 -255 -150.5 -405t-384.5 -150q-153 0 -273.5 65.5t-190.5 192.5t-70 297v1022h170v-1004
q0 -184 96 -300.5t268 -116.5t268.5 116.5t96.5 300.5v1004h170z" />
    <glyph glyph-name="ubreve" unicode="&#x16d;" horiz-adv-x="1318" 
d="M657 1292q-120 0 -192 66.5t-72 183.5v62h123v-62q0 -60 37.5 -94.5t103.5 -34.5q65 0 102.5 34.5t37.5 94.5v62h123v-62q0 -117 -72 -183.5t-191 -66.5zM1001 0v190q-62 -108 -165 -164.5t-232 -56.5q-209 0 -334 137t-125 398v653h166v-639q0 -193 94 -295t238 -102
q153 0 253.5 106.5t100.5 304.5v625h166v-1157h-162z" />
    <glyph glyph-name="Uring" unicode="&#x16e;" horiz-adv-x="1400" 
d="M442 1886q0 91 65 153t161 62q99 0 165 -62t66 -153q0 -90 -66 -150.5t-165 -60.5q-96 0 -161 60.5t-65 150.5zM561 1886q0 -46 29 -76t80 -30q47 0 78.5 30.5t31.5 75.5t-32 78t-78 33q-50 0 -79.5 -32t-29.5 -79zM1235 1536v-1022q0 -255 -150.5 -405t-384.5 -150
q-153 0 -273.5 65.5t-190.5 192.5t-70 297v1022h170v-1004q0 -184 96 -300.5t268 -116.5t268.5 116.5t96.5 300.5v1004h170z" />
    <glyph glyph-name="uring" unicode="&#x16f;" horiz-adv-x="1318" 
d="M428 1491q0 91 64.5 153t160.5 62q99 0 165.5 -62t66.5 -153q0 -90 -66.5 -150.5t-165.5 -60.5q-96 0 -160.5 60.5t-64.5 150.5zM547 1491q0 -46 28.5 -76.5t79.5 -30.5q47 0 79 31t32 76t-32 78t-79 33q-50 0 -79 -32t-29 -79zM1001 0v190q-62 -108 -165 -164.5
t-232 -56.5q-209 0 -334 137t-125 398v653h166v-639q0 -193 94 -295t238 -102q153 0 253.5 106.5t100.5 304.5v625h166v-1157h-162z" />
    <glyph glyph-name="Uhungarumlaut" unicode="&#x170;" horiz-adv-x="1400" 
d="M1059 2013l-189 -327h-141l154 327h176zM766 2013l-191 -327h-139l154 327h176zM1235 1536v-1022q0 -255 -150.5 -405t-384.5 -150q-153 0 -273.5 65.5t-190.5 192.5t-70 297v1022h170v-1004q0 -184 96 -300.5t268 -116.5t268.5 116.5t96.5 300.5v1004h170z" />
    <glyph glyph-name="uhungarumlaut" unicode="&#x171;" horiz-adv-x="1318" 
d="M1042 1618l-188 -328h-141l153 328h176zM750 1618l-191 -328h-139l153 328h177zM1001 0v190q-62 -108 -165 -164.5t-232 -56.5q-209 0 -334 137t-125 398v653h166v-639q0 -193 94 -295t238 -102q153 0 253.5 106.5t100.5 304.5v625h166v-1157h-162z" />
    <glyph glyph-name="Uogonek" unicode="&#x172;" horiz-adv-x="1400" 
d="M918 -416h-35q-126 0 -201.5 59t-75.5 156q0 100 82 160q-230 5 -376 154t-146 401v1022h170v-1004q0 -184 96 -300.5t268 -116.5t268.5 116.5t96.5 300.5v1004h170v-1022q0 -211 -106 -353t-281 -186q-103 -44 -103 -143q0 -58 37.5 -89.5t98.5 -31.5h37v-127z" />
    <glyph glyph-name="uogonek" unicode="&#x173;" horiz-adv-x="1318" 
d="M1135 -289v-127h-37q-124 0 -199.5 66t-75.5 166q0 78 46.5 137t131.5 82v155q-62 -108 -165 -164.5t-232 -56.5q-209 0 -334 137t-125 398v653h166v-639q0 -193 94 -295t238 -102q153 0 253.5 106.5t100.5 304.5v625h166v-1157h-49q-70 0 -110.5 -42t-40.5 -108
q0 -62 38 -100.5t97 -38.5h37z" />
    <glyph glyph-name="Wcircumflex" unicode="&#x174;" horiz-adv-x="2177" 
d="M1237 1686l-162 180l-164 -180h-159l323 352l322 -352h-160zM1579 -41l-489 1243l-490 -1243l-573 1577h184l412 -1159l469 1200l467 -1192l409 1151h182z" />
    <glyph glyph-name="wcircumflex" unicode="&#x175;" horiz-adv-x="1705" 
d="M1016 1290l-162 180l-164 -180h-160l324 352l322 -352h-160zM1237 -47l-385 911l-379 -911l-442 1204h170l297 -831l358 864l356 -854l293 821h170z" />
    <glyph glyph-name="Ycircumflex" unicode="&#x176;" horiz-adv-x="1386" 
d="M854 1686l-162 180l-164 -180h-159l323 352l322 -352h-160zM776 0h-170v463l-579 1073h186l485 -889l482 889h180l-584 -1077v-459z" />
    <glyph glyph-name="ycircumflex" unicode="&#x177;" horiz-adv-x="1236" 
d="M782 1290l-161 180l-164 -180h-160l324 352l321 -352h-160zM696 -512h-166v494l-510 1175h181l417 -964l429 964h170l-521 -1173v-496z" />
    <glyph glyph-name="Ydieresis" unicode="&#x178;" horiz-adv-x="1386" 
d="M975 1935v-184h-193v184h193zM600 1935v-184h-190v184h190zM776 0h-170v463l-579 1073h186l485 -889l482 889h180l-584 -1077v-459z" />
    <glyph glyph-name="Zacute" unicode="&#x179;" horiz-adv-x="1007" 
d="M801 2013l-226 -327h-147l178 327h195zM84 0l604 1378h-551v158h787l-602 -1380h577v-156h-815z" />
    <glyph glyph-name="zacute" unicode="&#x17a;" horiz-adv-x="989" 
d="M805 1618l-225 -328h-148l178 328h195zM61 0l615 1008h-572v149h828l-615 -1010h592v-147h-848z" />
    <glyph glyph-name="Zdotaccent" unicode="&#x17b;" horiz-adv-x="1007" 
d="M631 1751h-223v221h223v-221zM84 0l604 1378h-551v158h787l-602 -1380h577v-156h-815z" />
    <glyph glyph-name="zdotaccent" unicode="&#x17c;" horiz-adv-x="989" 
d="M616 1356h-223v221h223v-221zM61 0l615 1008h-572v149h828l-615 -1010h592v-147h-848z" />
    <glyph glyph-name="Zcaron" unicode="&#x17d;" horiz-adv-x="1007" 
d="M520 1659l-323 354h159l164 -182l162 182h160zM84 0l604 1378h-551v158h787l-602 -1380h577v-156h-815z" />
    <glyph glyph-name="zcaron" unicode="&#x17e;" horiz-adv-x="989" 
d="M506 1264l-324 354h160l164 -182l162 182h159zM61 0l615 1008h-572v149h828l-615 -1010h592v-147h-848z" />
    <glyph glyph-name="florin" unicode="&#x192;" horiz-adv-x="983" 
d="M922 1391h-117q-167 0 -237.5 -94.5t-88.5 -319.5l-8 -129h379v-141h-389l-43 -701q-17 -249 -135 -383.5t-326 -134.5h-135v145h117q167 0 239 96t84 316l41 662h-242v141h252l11 170q17 250 135 384t327 134h136v-145z" />
    <glyph glyph-name="uni0218" unicode="&#x218;" horiz-adv-x="751" 
d="M653 1384h-96q-119 0 -188.5 -51t-69.5 -157q0 -63 34.5 -141.5t84 -155.5t99 -157t84 -172t34.5 -175q0 -177 -117 -276t-307 -99h-111v150h111q116 0 184 54.5t68 166.5q0 70 -34.5 152.5t-84 160t-99 156.5t-84 166.5t-34.5 164.5q0 170 118.5 267.5t305.5 97.5h102
v-152zM426 -143l-61 -389h-129l20 389h170z" />
    <glyph glyph-name="uni0219" unicode="&#x219;" horiz-adv-x="907" 
d="M391 -31q-160 0 -303 58v147q137 -61 293 -61q132 0 201 45t69 131q0 49 -30.5 90.5t-78.5 72.5t-106.5 61.5t-117.5 64.5t-107 73.5t-78.5 97.5t-30.5 128q0 138 112.5 224.5t285.5 86.5q164 0 293 -60v-145q-131 61 -281 61q-114 0 -178 -43t-64 -118q0 -46 30.5 -85.5
t78.5 -71t106.5 -62.5t117.5 -66.5t107 -76.5t78.5 -99.5t30.5 -128.5q0 -148 -116.5 -236t-311.5 -88zM537 -143l-62 -389h-129l21 389h170z" />
    <glyph glyph-name="uni021A" unicode="&#x21a;" horiz-adv-x="882" 
d="M68 1536h747v-147h-289v-1389h-170v1389h-288v147zM526 -143l-61 -389h-129l20 389h170z" />
    <glyph glyph-name="uni021B" unicode="&#x21b;" horiz-adv-x="790" 
d="M750 1018h-322v-1018h-168v1018h-256v139h256v221h168v-221h322v-139zM424 -143l-62 -389h-129l21 389h170z" />
    <glyph glyph-name="circumflex" unicode="&#x2c6;" horiz-adv-x="1024" 
d="M674 1290l-162 180l-164 -180h-160l324 352l322 -352h-160z" />
    <glyph glyph-name="caron" unicode="&#x2c7;" horiz-adv-x="1024" 
d="M512 1264l-324 354h160l164 -182l162 182h160z" />
    <glyph glyph-name="breve" unicode="&#x2d8;" horiz-adv-x="1024" 
d="M512 1292q-120 0 -192 66.5t-72 183.5v62h123v-62q0 -60 37.5 -94.5t103.5 -34.5q65 0 102 34.5t37 94.5v62h123v-62q0 -117 -71.5 -183.5t-190.5 -66.5z" />
    <glyph glyph-name="dotaccent" unicode="&#x2d9;" horiz-adv-x="1024" 
d="M623 1356h-224v221h224v-221z" />
    <glyph glyph-name="ring" unicode="&#x2da;" horiz-adv-x="1024" 
d="M283 1491q0 91 64.5 153t160.5 62q99 0 165 -62t66 -153q0 -90 -66 -150.5t-165 -60.5q-96 0 -160.5 60.5t-64.5 150.5zM401 1491q0 -46 29 -76.5t80 -30.5q47 0 79 31t32 76t-32 78t-79 33q-50 0 -79.5 -32t-29.5 -79z" />
    <glyph glyph-name="ogonek" unicode="&#x2db;" horiz-adv-x="1024" 
d="M680 -289v-127h-37q-124 0 -199 66t-75 166q0 99 72.5 164t197.5 65h14l27 -45h-21q-70 0 -110.5 -42t-40.5 -108q0 -62 38 -100.5t97 -38.5h37z" />
    <glyph glyph-name="tilde" unicode="&#x2dc;" horiz-adv-x="1024" 
d="M645 1411q49 0 49 55v103h115v-117q0 -76 -39.5 -124t-107.5 -48q-42 0 -86 25t-74 55t-65 55t-62 25q-47 0 -47 -66v-94h-115v113q0 80 41.5 128t110.5 48q34 0 68.5 -16.5t62 -39.5t53 -46t50.5 -39.5t46 -16.5z" />
    <glyph glyph-name="hungarumlaut" unicode="&#x2dd;" horiz-adv-x="1024" 
d="M870 1618l-188 -328h-141l153 328h176zM578 1618l-191 -328h-139l153 328h177z" />
    <glyph glyph-name="uni0394" unicode="&#x394;" horiz-adv-x="1564" 
d="M1274 150l-496 1075l-495 -1075h991zM31 0l751 1577l752 -1577h-1503z" />
    <glyph glyph-name="uni03A9" unicode="&#x3a9;" horiz-adv-x="1714" 
d="M127 0v145h408q-209 109 -332 283t-123 403q0 202 104 373.5t283 272t389 100.5t389 -100.5t283 -272t104 -373.5q0 -230 -122 -404t-332 -282h407v-145h-647v115q253 140 385.5 309.5t132.5 386.5q0 128 -47 241t-127 193t-191 126t-235 46t-235 -46t-191 -126
t-127 -193t-47 -241q0 -217 133 -386t385 -310v-115h-647z" />
    <glyph glyph-name="pi" unicode="&#x3c0;" horiz-adv-x="1359" 
d="M940 995h-565v-995h-170v995h-191v156h1284v-156h-190v-739q0 -68 33 -94.5t92 -26.5h65v-135h-104q-118 0 -186 64.5t-68 191.5v739z" />
    <glyph glyph-name="Wgrave" unicode="&#x1e80;" horiz-adv-x="2177" 
d="M780 2013h197l178 -327h-149zM1579 -41l-489 1243l-490 -1243l-573 1577h184l412 -1159l469 1200l467 -1192l409 1151h182z" />
    <glyph glyph-name="wgrave" unicode="&#x1e81;" horiz-adv-x="1705" 
d="M559 1618h197l178 -328h-150zM1237 -47l-385 911l-379 -911l-442 1204h170l297 -831l358 864l356 -854l293 821h170z" />
    <glyph glyph-name="Wacute" unicode="&#x1e82;" horiz-adv-x="2177" 
d="M1378 2013l-225 -327h-147l178 327h194zM1579 -41l-489 1243l-490 -1243l-573 1577h184l412 -1159l469 1200l467 -1192l409 1151h182z" />
    <glyph glyph-name="wacute" unicode="&#x1e83;" horiz-adv-x="1705" 
d="M1157 1618l-225 -328h-148l179 328h194zM1237 -47l-385 911l-379 -911l-442 1204h170l297 -831l358 864l356 -854l293 821h170z" />
    <glyph glyph-name="Wdieresis" unicode="&#x1e84;" horiz-adv-x="2177" 
d="M1370 1935v-184h-192v184h192zM995 1935v-184h-190v184h190zM1579 -41l-489 1243l-490 -1243l-573 1577h184l412 -1159l469 1200l467 -1192l409 1151h182z" />
    <glyph glyph-name="wdieresis" unicode="&#x1e85;" horiz-adv-x="1705" 
d="M1137 1540v-184h-193v184h193zM762 1540v-184h-191v184h191zM1237 -47l-385 911l-379 -911l-442 1204h170l297 -831l358 864l356 -854l293 821h170z" />
    <glyph glyph-name="Ygrave" unicode="&#x1ef2;" horiz-adv-x="1386" 
d="M393 2013h197l178 -327h-150zM776 0h-170v463l-579 1073h186l485 -889l482 889h180l-584 -1077v-459z" />
    <glyph glyph-name="ygrave" unicode="&#x1ef3;" horiz-adv-x="1236" 
d="M324 1618h196l178 -328h-149zM696 -512h-166v494l-510 1175h181l417 -964l429 964h170l-521 -1173v-496z" />
    <glyph glyph-name="endash" unicode="&#x2013;" horiz-adv-x="1024" 
d="M88 610v152h846v-152h-846z" />
    <glyph glyph-name="emdash" unicode="&#x2014;" horiz-adv-x="2048" 
d="M88 610v152h1870v-152h-1870z" />
    <glyph glyph-name="quoteleft" unicode="&#x2018;" horiz-adv-x="411" 
d="M102 1180l129 356h101l-99 -356h76v-185h-207v185z" />
    <glyph glyph-name="quoteright" unicode="&#x2019;" horiz-adv-x="411" 
d="M309 1350l-131 -355h-100l100 355h-76v186h207v-186z" />
    <glyph glyph-name="quotesinglbase" unicode="&#x201a;" horiz-adv-x="411" 
d="M309 0l-131 -354h-100l100 354h-76v184h207v-184z" />
    <glyph glyph-name="quotedblleft" unicode="&#x201c;" horiz-adv-x="743" 
d="M434 1180l129 356h103l-101 -356h76v-185h-207v185zM102 1180l129 356h101l-99 -356h76v-185h-207v185z" />
    <glyph glyph-name="quotedblright" unicode="&#x201d;" horiz-adv-x="743" 
d="M641 1350l-129 -355h-102l100 355h-76v186h207v-186zM309 1350l-131 -355h-100l100 355h-76v186h207v-186z" />
    <glyph glyph-name="quotedblbase" unicode="&#x201e;" horiz-adv-x="743" 
d="M641 0l-129 -354h-102l100 354h-76v184h207v-184zM309 0l-131 -354h-100l100 354h-76v184h207v-184z" />
    <glyph glyph-name="dagger" unicode="&#x2020;" horiz-adv-x="993" 
d="M932 975h-352v-975h-168v975h-351v149h351v412h168v-412h352v-149z" />
    <glyph glyph-name="daggerdbl" unicode="&#x2021;" horiz-adv-x="1034" 
d="M952 381h-352v-381h-168v381h-350v147h350v478h-350v147h350v383h168v-383h352v-147h-352v-478h352v-147z" />
    <glyph glyph-name="bullet" unicode="&#x2022;" horiz-adv-x="579" 
d="M289 520l-223 223l223 224l225 -224z" />
    <glyph glyph-name="ellipsis" unicode="&#x2026;" horiz-adv-x="1452" 
d="M1337 213v-213h-229v213h229zM840 213v-213h-230v213h230zM344 213v-213h-229v213h229z" />
    <glyph glyph-name="perthousand" unicode="&#x2030;" horiz-adv-x="2410" 
d="M422 856q-148 0 -253.5 106.5t-105.5 254.5t105.5 254t253.5 106q149 0 254.5 -106t105.5 -254t-105.5 -254.5t-254.5 -106.5zM1389 1536l-1029 -1536h-155l1028 1536h156zM422 975q95 0 162 71t67 171t-67 169.5t-162 69.5t-162 -69.5t-67 -169.5t67 -171t162 -71z
M2003 -41q-148 0 -253 105t-105 253t105.5 254.5t252.5 106.5q149 0 254.5 -106.5t105.5 -254.5t-105.5 -253t-254.5 -105zM1171 -41q-149 0 -254.5 105t-105.5 253t105.5 254.5t254.5 106.5q148 0 253.5 -106.5t105.5 -254.5t-105.5 -253t-253.5 -105zM2003 78q95 0 162 70
t67 169q0 100 -67 171t-162 71t-162 -71t-67 -171q0 -99 67 -169t162 -70zM1171 78q95 0 162.5 70.5t67.5 168.5q0 100 -67.5 171t-162.5 71t-162 -71t-67 -171q0 -99 67 -169t162 -70z" />
    <glyph glyph-name="guilsinglleft" unicode="&#x2039;" horiz-adv-x="606" 
d="M535 162h-191l-293 424l295 422h184l-294 -420z" />
    <glyph glyph-name="guilsinglright" unicode="&#x203a;" horiz-adv-x="606" 
d="M262 162h-188l295 424l-297 422h186l297 -422z" />
    <glyph glyph-name="fraction" unicode="&#x2044;" horiz-adv-x="464" 
d="M809 1536l-999 -1536h-154l999 1536h154z" />
    <glyph glyph-name="zerosuperior" unicode="&#x2070;" horiz-adv-x="888" 
d="M442 819q-152 0 -261 110t-109 263q0 151 109.5 261t260.5 110q153 0 264 -110t111 -261q0 -152 -110.5 -262.5t-264.5 -110.5zM195 1192q0 -80 43 -145l354 354q-63 51 -150 51q-103 0 -175 -75t-72 -185zM442 930q103 0 176.5 77.5t73.5 184.5q0 80 -39 141l-354 -354
q62 -49 143 -49z" />
    <glyph glyph-name="foursuperior" unicode="&#x2074;" horiz-adv-x="675" 
d="M463 1227h112v-379h-112v125h-424l262 563h127l-215 -461h250v152z" />
    <glyph glyph-name="Euro" unicode="&#x20ac;" horiz-adv-x="1595" 
d="M1497 70q-199 -111 -426 -111q-289 0 -498.5 148t-285.5 397h-252v137h221q-8 55 -8 125q0 50 6 100h-219v138h248q78 253 292.5 413t491.5 160q231 0 430 -113v-178q-197 129 -432 129q-207 0 -367 -113t-229 -298h651v-138h-686q-8 -44 -8 -102t10 -123h684v-137h-647
q70 -177 228.5 -281t369.5 -104q216 0 426 119v-168z" />
    <glyph glyph-name="uni20B9" unicode="&#x20b9;" horiz-adv-x="1089" 
d="M1047 899h-220q-29 -242 -239 -381l278 -518h-190l-236 442q-88 -34 -188 -49l-111 -20v155l111 21q167 23 272.5 109t126.5 241h-510v143h508q-24 162 -145 255.5t-293 93.5h-70v145h906v-145h-408q164 -135 188 -349h220v-143z" />
    <glyph glyph-name="uni2113" unicode="&#x2113;" horiz-adv-x="985" 
d="M745 0h-94q-205 0 -324 102t-126 316l-174 -78v145l174 78v574q0 192 98.5 316t261.5 124q152 0 244 -100t92 -258q0 -120 -40.5 -230t-114 -200t-166 -162.5t-205.5 -130.5v-64q0 -76 22.5 -131.5t62.5 -86.5t88.5 -45.5t106.5 -14.5h94v-154zM371 1163v-516
q161 99 261.5 244.5t100.5 322.5q0 115 -47 173.5t-129 58.5q-86 0 -136 -76t-50 -207z" />
    <glyph glyph-name="trademark" unicode="&#x2122;" horiz-adv-x="1329" 
d="M37 1536h434v-113h-156v-549h-122v549h-156v113zM905 1110l-198 188v-424h-119v680l317 -292l316 292v-680h-119v422z" />
    <glyph glyph-name="Omega" unicode="&#x2126;" horiz-adv-x="1714" 
d="M127 0v145h408q-209 109 -332 283t-123 403q0 202 104 373.5t283 272t389 100.5t389 -100.5t283 -272t104 -373.5q0 -230 -122 -404t-332 -282h407v-145h-647v115q253 140 385.5 309.5t132.5 386.5q0 128 -47 241t-127 193t-191 126t-235 46t-235 -46t-191 -126
t-127 -193t-47 -241q0 -217 133 -386t385 -310v-115h-647z" />
    <glyph glyph-name="estimated" unicode="&#x212e;" horiz-adv-x="1447" 
d="M1356 526h-1016q-8 0 -8 -6v-307q0 -20 14 -37q74 -77 173 -120.5t212 -43.5q121 0 225 48.5t179 136.5h90q-89 -102 -218 -161t-278 -59q-170 0 -314.5 75.5t-228.5 205.5t-84 283t84 283.5t228.5 207t314.5 76.5t314.5 -76.5t228.5 -207t84 -283.5v-15zM1126 565v309
q0 23 -16 39q-74 75 -171.5 117.5t-207.5 42.5q-111 0 -210.5 -43.5t-172.5 -122.5q-16 -13 -16 -39v-303q0 -8 8 -8h780q6 0 6 8z" />
    <glyph glyph-name="partialdiff" unicode="&#x2202;" horiz-adv-x="1277" 
d="M606 -41q-217 0 -363.5 145t-146.5 357q0 152 73.5 281t202 205.5t281.5 76.5q187 0 326 -123q-46 168 -157.5 342.5t-248.5 292.5h215q394 -422 394 -956q0 -133 -45 -249t-122 -197.5t-183.5 -128t-225.5 -46.5zM612 104q167 0 280.5 122t113.5 294q0 150 -99.5 254.5
t-247.5 104.5q-165 0 -279 -123t-114 -291q0 -152 99.5 -256.5t246.5 -104.5z" />
    <glyph glyph-name="Delta" unicode="&#x2206;" horiz-adv-x="1564" 
d="M1274 150l-496 1075l-495 -1075h991zM31 0l751 1577l752 -1577h-1503z" />
    <glyph glyph-name="product" unicode="&#x220f;" horiz-adv-x="1452" 
d="M176 1536h1100v-1782h-170v1624h-760v-1624h-170v1782z" />
    <glyph glyph-name="summation" unicode="&#x2211;" horiz-adv-x="1208" 
d="M1108 -94v-152h-1088l578 725l-578 1057h1088v-152h-809l496 -911l-451 -567h764z" />
    <glyph glyph-name="minus" unicode="&#x2212;" horiz-adv-x="1218" 
d="M137 692v148h942v-148h-942z" />
    <glyph glyph-name="uni2215" unicode="&#x2215;" horiz-adv-x="464" 
d="M809 1536l-999 -1536h-154l999 1536h154z" />
    <glyph glyph-name="radical" unicode="&#x221a;" horiz-adv-x="1441" 
d="M682 -41l-406 918l-186 -70l-43 123l328 121l307 -740l602 1430h172z" />
    <glyph glyph-name="infinity" unicode="&#x221e;" horiz-adv-x="1845" 
d="M1313 266q-125 0 -228 61t-163 165q-58 -103 -161.5 -164.5t-228.5 -61.5q-187 0 -318.5 133.5t-131.5 321.5q0 186 131.5 318t318.5 132q125 0 228.5 -60.5t161.5 -162.5q60 102 163 162.5t228 60.5q186 0 318 -132t132 -318q0 -123 -60.5 -228t-164 -166t-225.5 -61z
M1305 399q127 0 217 94t90 228q0 132 -90.5 224.5t-216.5 92.5t-217 -93.5t-91 -223.5q0 -133 91 -227.5t217 -94.5zM539 399q127 0 217 94t90 228q0 132 -90.5 224.5t-216.5 92.5t-217 -93.5t-91 -223.5q0 -133 91 -227.5t217 -94.5z" />
    <glyph glyph-name="integral" unicode="&#x222b;" horiz-adv-x="1021" 
d="M14 -512v158h109q162 0 232.5 96t70.5 283v1001q0 241 126 375.5t333 134.5h123v-158h-109q-163 0 -233 -96t-70 -285v-999q0 -241 -126 -375.5t-333 -134.5h-123z" />
    <glyph glyph-name="approxequal" unicode="&#x2248;" horiz-adv-x="1218" 
d="M864 823q-58 0 -133.5 23t-135.5 50t-128 50t-113 23q-60 0 -109.5 -16t-107.5 -54v148q109 73 217 73q59 0 132 -22.5t131 -50t126.5 -50t118.5 -22.5q60 0 108.5 15.5t108.5 53.5v-147q-107 -74 -215 -74zM864 395q-58 0 -133.5 23t-135.5 50t-128 50t-113 23
q-60 0 -109.5 -16t-107.5 -54v147q112 72 217 72q59 0 132 -22.5t131 -50t126.5 -50t118.5 -22.5q60 0 108.5 15.5t108.5 53.5v-147q-109 -72 -215 -72z" />
    <glyph glyph-name="notequal" unicode="&#x2260;" horiz-adv-x="1218" 
d="M1079 475h-485l-90 -260h-146l91 260h-312v148h361l96 280h-457v150h508l88 254h146l-88 -254h288v-150h-340l-96 -280h436v-148z" />
    <glyph glyph-name="lessequal" unicode="&#x2264;" horiz-adv-x="989" 
d="M903 252l-883 500l883 497v-186l-604 -311l604 -312v-188zM31 0v147h872v-147h-872z" />
    <glyph glyph-name="greaterequal" unicode="&#x2265;" horiz-adv-x="989" 
d="M86 252v188l604 312l-604 311v186l883 -497zM956 0h-872v147h872v-147z" />
    <glyph glyph-name="lozenge" unicode="&#x25ca;" horiz-adv-x="1179" 
d="M1085 762l-493 -803l-498 803l498 815zM268 764l320 -547l319 547l-319 551z" />
    <glyph glyph-name="dotlessj" unicode="&#xf6be;" horiz-adv-x="477" 
d="M-137 -512v143h94q96 0 147.5 47t51.5 170v1309h166v-1309q0 -178 -90.5 -269t-256.5 -91h-112z" />
    <glyph glyph-name="commaaccent" unicode="&#xf6c3;" horiz-adv-x="1030" 
d="M586 -143l-62 -389h-129l21 389h170z" />
    <glyph glyph-name="CR" horiz-adv-x="0" 
 />
    <glyph glyph-name="C.alt" horiz-adv-x="1026" 
d="M924 158v-158q-182 0 -336 58.5t-259.5 160.5t-164 242.5t-58.5 302.5q0 158 60.5 300t166.5 246t260 165t331 61v-160q-144 0 -265.5 -47.5t-203 -130t-127 -194.5t-45.5 -240q0 -127 46 -238.5t128 -193t203 -128t264 -46.5z" />
    <glyph glyph-name="G.alt" horiz-adv-x="1062" 
d="M932 0q-158 0 -293 41t-232 113t-165.5 169t-102 209.5t-33.5 233.5q0 158 60.5 299t166.5 245t260 165t331 61v-160q-144 0 -265.5 -47.5t-203 -130t-127 -194.5t-45.5 -240q0 -219 134.5 -385.5t356.5 -202.5v547h158v-723z" />
    <glyph glyph-name="J.alt" horiz-adv-x="522" 
d="M346 1536v-1638q0 -204 -102.5 -307t-284.5 -103h-55v147h47q47 0 83.5 10.5t70.5 37t52.5 81t18.5 134.5v1638h170z" />
    <glyph glyph-name="S.alt" horiz-adv-x="1173" 
d="M1114 1389h-37q-53 0 -89 -7.5t-73.5 -30.5t-65 -63.5t-57.5 -109t-58 -164.5t-60 -232l-19 -84q-38 -173 -80 -294.5t-88.5 -200.5t-106.5 -123.5t-125 -62t-153 -17.5h-43v145h35q61 0 102.5 12t84.5 49.5t78 109t72 187.5t77 288l18 86q30 135 63.5 237t73 175t82 121
t96.5 76t110 39t128 11h35v-147z" />
    <glyph glyph-name="Ccedilla.alt" horiz-adv-x="1026" 
d="M924 0q-70 0 -148 10v-379h-160l19 412q-245 75 -387 269.5t-142 451.5q0 158 60.5 300t166.5 246t260 165t331 61v-160q-144 0 -265.5 -47.5t-203 -130t-127 -194.5t-45.5 -240q0 -127 46 -238.5t128 -193t203 -128t264 -46.5v-158z" />
    <glyph glyph-name="Cacute.alt" horiz-adv-x="1026" 
d="M926 2013l-226 -327h-147l178 327h195zM924 158v-158q-182 0 -336 58.5t-259.5 160.5t-164 242.5t-58.5 302.5q0 158 60.5 300t166.5 246t260 165t331 61v-160q-144 0 -265.5 -47.5t-203 -130t-127 -194.5t-45.5 -240q0 -127 46 -238.5t128 -193t203 -128t264 -46.5z" />
    <glyph glyph-name="Ccaron.alt" horiz-adv-x="1026" 
d="M668 1659l-324 354h160l164 -182l161 182h160zM924 158v-158q-182 0 -336 58.5t-259.5 160.5t-164 242.5t-58.5 302.5q0 158 60.5 300t166.5 246t260 165t331 61v-160q-144 0 -265.5 -47.5t-203 -130t-127 -194.5t-45.5 -240q0 -127 46 -238.5t128 -193t203 -128
t264 -46.5z" />
    <glyph glyph-name="Ccircumflex.alt" horiz-adv-x="1026" 
d="M829 1686l-161 180l-164 -180h-160l324 352l321 -352h-160zM924 158v-158q-182 0 -336 58.5t-259.5 160.5t-164 242.5t-58.5 302.5q0 158 60.5 300t166.5 246t260 165t331 61v-160q-144 0 -265.5 -47.5t-203 -130t-127 -194.5t-45.5 -240q0 -127 46 -238.5t128 -193
t203 -128t264 -46.5z" />
    <glyph glyph-name="Cdotaccent.alt" horiz-adv-x="1026" 
d="M778 1751h-223v221h223v-221zM924 158v-158q-182 0 -336 58.5t-259.5 160.5t-164 242.5t-58.5 302.5q0 158 60.5 300t166.5 246t260 165t331 61v-160q-144 0 -265.5 -47.5t-203 -130t-127 -194.5t-45.5 -240q0 -127 46 -238.5t128 -193t203 -128t264 -46.5z" />
    <glyph glyph-name="Gbreve.alt" horiz-adv-x="1062" 
d="M645 1688q-120 0 -192 66t-72 183v62h123v-62q0 -60 37.5 -94.5t103.5 -34.5q65 0 102 34.5t37 94.5v62h123v-62q0 -117 -71.5 -183t-190.5 -66zM932 0q-158 0 -293 41t-232 113t-165.5 169t-102 209.5t-33.5 233.5q0 158 60.5 299t166.5 245t260 165t331 61v-160
q-144 0 -265.5 -47.5t-203 -130t-127 -194.5t-45.5 -240q0 -219 134.5 -385.5t356.5 -202.5v547h158v-723z" />
    <glyph glyph-name="Gcircumflex.alt" horiz-adv-x="1062" 
d="M819 1686l-162 180l-163 -180h-160l323 352l322 -352h-160zM932 0q-158 0 -293 41t-232 113t-165.5 169t-102 209.5t-33.5 233.5q0 158 60.5 299t166.5 245t260 165t331 61v-160q-144 0 -265.5 -47.5t-203 -130t-127 -194.5t-45.5 -240q0 -219 134.5 -385.5t356.5 -202.5
v547h158v-723z" />
    <glyph glyph-name="Gcommaaccent.alt" horiz-adv-x="1062" 
d="M932 0q-158 0 -293 41t-232 113t-165.5 169t-102 209.5t-33.5 233.5q0 158 60.5 299t166.5 245t260 165t331 61v-160q-144 0 -265.5 -47.5t-203 -130t-127 -194.5t-45.5 -240q0 -219 134.5 -385.5t356.5 -202.5v547h158v-723zM727 -143l-61 -389h-129l20 389h170z" />
    <glyph glyph-name="Gdotaccent.alt" horiz-adv-x="1062" 
d="M768 1751h-223v221h223v-221zM932 0q-158 0 -293 41t-232 113t-165.5 169t-102 209.5t-33.5 233.5q0 158 60.5 299t166.5 245t260 165t331 61v-160q-144 0 -265.5 -47.5t-203 -130t-127 -194.5t-45.5 -240q0 -219 134.5 -385.5t356.5 -202.5v547h158v-723z" />
    <glyph glyph-name="Jcircumflex.alt" horiz-adv-x="522" 
d="M426 1686l-162 180l-164 -180h-159l323 352l322 -352h-160zM346 1536v-1638q0 -204 -102.5 -307t-284.5 -103h-55v147h47q47 0 83.5 10.5t70.5 37t52.5 81t18.5 134.5v1638h170z" />
    <glyph glyph-name="Scaron.alt" horiz-adv-x="1173" 
d="M874 1659l-323 354h160l163 -182l162 182h160zM1114 1389h-37q-53 0 -89 -7.5t-73.5 -30.5t-65 -63.5t-57.5 -109t-58 -164.5t-60 -232l-19 -84q-38 -173 -80 -294.5t-88.5 -200.5t-106.5 -123.5t-125 -62t-153 -17.5h-43v145h35q61 0 102.5 12t84.5 49.5t78 109
t72 187.5t77 288l18 86q30 135 63.5 237t73 175t82 121t96.5 76t110 39t128 11h35v-147z" />
    <glyph glyph-name="Sacute.alt" horiz-adv-x="1173" 
d="M1167 2013l-225 -327h-147l178 327h194zM1114 1389h-37q-53 0 -89 -7.5t-73.5 -30.5t-65 -63.5t-57.5 -109t-58 -164.5t-60 -232l-19 -84q-38 -173 -80 -294.5t-88.5 -200.5t-106.5 -123.5t-125 -62t-153 -17.5h-43v145h35q61 0 102.5 12t84.5 49.5t78 109t72 187.5
t77 288l18 86q30 135 63.5 237t73 175t82 121t96.5 76t110 39t128 11h35v-147z" />
    <glyph glyph-name="Scedilla.alt" horiz-adv-x="1173" 
d="M330 -369h-160l16 373q-54 -4 -84 -4h-43v145h35q61 0 102.5 12t84.5 49.5t78 109t72 187.5t77 288l18 86q30 135 63.5 237t73 175t82 121t96.5 76t110 39t128 11h35v-147h-37q-53 0 -89 -7.5t-73.5 -30.5t-65 -63.5t-57.5 -109t-58 -164.5t-60 -232l-19 -84
q-65 -293 -141.5 -444t-183.5 -207v-416z" />
    <glyph glyph-name="Scircumflex.alt" horiz-adv-x="1173" 
d="M1024 1686l-162 180l-164 -180h-159l323 352l322 -352h-160zM1114 1389h-37q-53 0 -89 -7.5t-73.5 -30.5t-65 -63.5t-57.5 -109t-58 -164.5t-60 -232l-19 -84q-38 -173 -80 -294.5t-88.5 -200.5t-106.5 -123.5t-125 -62t-153 -17.5h-43v145h35q61 0 102.5 12t84.5 49.5
t78 109t72 187.5t77 288l18 86q30 135 63.5 237t73 175t82 121t96.5 76t110 39t128 11h35v-147z" />
    <glyph glyph-name="uni0218.alt" horiz-adv-x="1173" 
d="M1114 1389h-37q-53 0 -89 -7.5t-73.5 -30.5t-65 -63.5t-57.5 -109t-58 -164.5t-60 -232l-19 -84q-38 -173 -80 -294.5t-88.5 -200.5t-106.5 -123.5t-125 -62t-153 -17.5h-43v145h35q61 0 102.5 12t84.5 49.5t78 109t72 187.5t77 288l18 86q30 135 63.5 237t73 175t82 121
t96.5 76t110 39t128 11h35v-147zM420 -143l-62 -389h-129l21 389h170z" />
    <glyph glyph-name="i.dot" horiz-adv-x="477" 
d="M145 1378v158h185v-158h-185zM322 1157v-1157h-166v1157h166z" />
    <glyph glyph-name="caron.alt" horiz-adv-x="1024" 
d="M612 1536l-34 -410h-132v410h166z" />
    <glyph glyph-name="revcommaaccent" horiz-adv-x="1030" 
d="M399 1288l62 391h129l-21 -391h-170z" />
    </font>
</defs>
</svg>
