<?xml version="1.0" standalone="no"?>
<!DOCTYPE svg PUBLIC "-//W3C//DTD SVG 1.1//EN" "http://www.w3.org/Graphics/SVG/1.1/DTD/svg11.dtd" >
<svg xmlns="http://www.w3.org/2000/svg" xmlns:xlink="http://www.w3.org/1999/xlink" version="1.1">
<metadata>
Created by FontForge 20201107 at Wed Aug 28 17:19:27 2024
 By 
Copyright (c) 2016 Indian Type Foundry.
</metadata>
<defs>
<font id="Eileen-Bold" horiz-adv-x="1458" >
  <font-face 
    font-family="Eileen"
    font-weight="700"
    font-stretch="normal"
    units-per-em="2048"
    panose-1="0 0 0 0 0 0 0 0 0 0"
    ascent="1536"
    descent="-512"
    x-height="1174"
    cap-height="1536"
    bbox="-410 -573 2441 2204"
    underline-thickness="0"
    underline-position="0"
    unicode-range="U+0020-FB02"
  />
<missing-glyph horiz-adv-x="1437" 
d="M461 1260v-984h516v984h-516zM143 0v1536h1151v-1536h-1151z" />
    <glyph glyph-name="fi" unicode="fi" horiz-adv-x="1347" 
d="M897 1286v250h328v-250h-328zM897 0v905h-387v-905h-328v905h-162v269h162q6 173 116 267.5t308 94.5h160v-250h-156q-53 0 -76.5 -24.5t-23.5 -85.5v-2h715v-1174h-328z" />
    <glyph glyph-name="fl" unicode="fl" horiz-adv-x="1347" 
d="M745 905h-235v-905h-328v905h-162v269h162q6 173 116 267.5t308 94.5h619v-1536h-328v1286h-287q-53 0 -76.5 -24.5t-23.5 -85.5v-2h235v-269z" />
    <glyph glyph-name=".notdef" horiz-adv-x="1437" 
d="M461 1260v-984h516v984h-516zM143 0v1536h1151v-1536h-1151z" />
    <glyph glyph-name=".null" horiz-adv-x="0" 
 />
    <glyph glyph-name="nonmarkingreturn" horiz-adv-x="682" 
 />
    <glyph glyph-name="space" unicode=" " horiz-adv-x="737" 
 />
    <glyph glyph-name="exclam" unicode="!" horiz-adv-x="624" 
d="M492 1536v-512l-52 -532h-256l-51 532v512h359zM502 348v-348h-379v348h379z" />
    <glyph glyph-name="quotedbl" unicode="&#x22;" horiz-adv-x="919" 
d="M838 1536v-225l-70 -391h-182l-70 391v225h322zM403 1536v-225l-69 -391h-182l-70 391v225h321z" />
    <glyph glyph-name="numbersign" unicode="#" horiz-adv-x="1546" 
d="M909 641v274h-252v-274h252zM909 0v344h-252v-344h-317v344h-279v297h279v274h-279v297h279v324h317v-324h252v324h318v-324h258v-297h-258v-274h258v-297h-258v-344h-318z" />
    <glyph glyph-name="dollar" unicode="$" horiz-adv-x="1003" 
d="M639 -184h-285v155q-135 5 -282 52v307q153 -54 313 -54q180 0 180 130q0 37 -26.5 79.5t-68.5 84.5t-93.5 88.5t-102.5 99.5t-93 109.5t-68.5 126t-26.5 141.5q0 135 71.5 238t196.5 153v198h285v-159q140 -8 274 -52v-307q-174 56 -295 56q-176 0 -176 -119
q0 -34 26.5 -75t69 -83t93.5 -89.5t102 -102.5t93.5 -113t69 -129.5t26.5 -144.5q0 -140 -76.5 -245t-206.5 -153v-192z" />
    <glyph glyph-name="percent" unicode="%" horiz-adv-x="1652" 
d="M395 848q-149 0 -256.5 107.5t-107.5 256.5t107.5 257t256.5 108q151 0 259 -108t108 -257t-108 -256.5t-259 -107.5zM1448 1536l-975 -1536h-268l975 1536h268zM395 1051q60 0 103 47.5t43 113.5q0 68 -42.5 115t-103.5 47q-60 0 -101.5 -46.5t-41.5 -115.5
q0 -66 41.5 -113.5t101.5 -47.5zM1255 -41q-149 0 -256.5 108t-107.5 257t107.5 256.5t256.5 107.5q151 0 259 -107.5t108 -256.5t-108 -257t-259 -108zM1255 162q60 0 103 48t43 114q0 68 -42.5 114.5t-103.5 46.5q-60 0 -101.5 -46t-41.5 -115q0 -66 41.5 -114t101.5 -48z
" />
    <glyph glyph-name="ampersand" unicode="&#x26;" horiz-adv-x="1298" 
d="M690 1024q67 0 112.5 47t45.5 115q0 67 -45.5 113.5t-112.5 46.5t-112.5 -46.5t-45.5 -113.5q0 -68 45.5 -115t112.5 -47zM1227 500q0 -151 -75.5 -275.5t-204.5 -195t-283 -70.5q-259 0 -425.5 146.5t-166.5 377.5q0 152 84.5 265t228.5 170q-63 49 -99 121t-36 147
q0 163 128.5 278t311.5 115t311.5 -115t128.5 -278q0 -108 -58.5 -199.5t-160 -145t-221.5 -53.5h-8h-18q-113 0 -189 -78t-76 -206q0 -109 77.5 -184.5t187.5 -75.5q97 0 166 47t94 127h-176v262h479v-180z" />
    <glyph glyph-name="quotesingle" unicode="'" horiz-adv-x="485" 
d="M403 1536v-225l-69 -391h-182l-70 391v225h321z" />
    <glyph glyph-name="parenleft" unicode="(" horiz-adv-x="727" 
d="M143 -20v1413q0 201 115 310t330 109h78v-276h-62q-73 0 -101 -33.5t-28 -113.5v-1405q0 -80 28 -114t101 -34h62v-276h-78q-214 0 -329.5 110t-115.5 310z" />
    <glyph glyph-name="parenright" unicode=")" horiz-adv-x="727" 
d="M584 1393v-1413q0 -202 -115 -311t-330 -109h-78v276h62q73 0 101 34t28 114v1405q0 80 -28 113.5t-101 33.5h-62v276h78q214 0 329.5 -109.5t115.5 -309.5z" />
    <glyph glyph-name="asterisk" unicode="*" horiz-adv-x="808" 
d="M510 844l-109 176l-104 -174l-182 133l135 158l-199 47l70 213l188 -78l-18 217h225l-16 -217l190 80l68 -215l-203 -49l137 -160z" />
    <glyph glyph-name="plus" unicode="+" horiz-adv-x="1218" 
d="M1137 614h-367v-370h-321v370h-367v285h367v371h321v-371h367v-285z" />
    <glyph glyph-name="comma" unicode="," horiz-adv-x="604" 
d="M502 0l-197 -391h-244l166 391h-125v369h400v-369z" />
    <glyph glyph-name="hyphen" unicode="-" horiz-adv-x="897" 
d="M82 424v297h733v-297h-733z" />
    <glyph glyph-name="period" unicode="." horiz-adv-x="604" 
d="M502 369v-369h-400v369h400z" />
    <glyph glyph-name="slash" unicode="/" horiz-adv-x="1157" 
d="M0 -205l819 1946h338l-819 -1946h-338z" />
    <glyph glyph-name="zero" unicode="0" horiz-adv-x="1781" 
d="M891 -41q-164 0 -314 64.5t-258.5 173.5t-172.5 259t-64 314q0 218 108.5 404t295 294.5t405.5 108.5q218 0 404.5 -108.5t295.5 -294.5t109 -404q0 -219 -109 -406t-295.5 -296t-404.5 -109zM430 770q0 -115 41 -215l649 649q-104 66 -229 66q-194 0 -327.5 -143.5
t-133.5 -356.5zM891 266q126 0 231.5 65.5t167.5 181.5t62 257q0 112 -43 217l-654 -653q111 -68 236 -68z" />
    <glyph glyph-name="one" unicode="1" horiz-adv-x="624" 
d="M481 1577v-1577h-338v1253z" />
    <glyph glyph-name="two" unicode="2" horiz-adv-x="1099" 
d="M993 0h-993l375 518q149 205 210.5 333.5t61.5 233.5q0 96 -59 150.5t-160 54.5q-145 0 -311 -71v294q179 64 348 64q246 0 389 -128.5t143 -334.5q0 -146 -56 -281t-204 -346l-147 -208h403v-279z" />
    <glyph glyph-name="three" unicode="3" horiz-adv-x="1167" 
d="M471 -41q-217 0 -369 55v303q167 -71 328 -71q146 0 232 66.5t86 181.5q0 104 -78 167.5t-219 63.5t-299 -41l395 555h-436v297h970l-389 -557q185 -32 289 -159t104 -306q0 -245 -171.5 -400t-442.5 -155z" />
    <glyph glyph-name="four" unicode="4" horiz-adv-x="1265" 
d="M825 815h328v-815h-328v262h-805l695 1274h346l-531 -1004h295v283z" />
    <glyph glyph-name="five" unicode="5" horiz-adv-x="1187" 
d="M481 -41q-216 0 -368 55v303q167 -71 327 -71q146 0 232 65t86 178q0 97 -83 156.5t-235 59.5q-138 0 -288 -41l41 872h837v-297h-553l-10 -252q50 4 76 4q257 0 405 -133t148 -354q0 -240 -172 -392.5t-443 -152.5z" />
    <glyph glyph-name="six" unicode="6" horiz-adv-x="1325" 
d="M668 -41q-251 0 -408.5 154t-157.5 401q0 143 53.5 275.5t170.5 308.5l290 438h402l-404 -526q50 16 95 16q144 0 263.5 -66t190 -188t70.5 -276q0 -109 -42 -207.5t-115 -171t-179.5 -115.5t-228.5 -43zM668 242q103 0 166 71.5t63 178.5q0 105 -63 178t-166 73
q-104 0 -167 -71t-63 -178q0 -105 63.5 -178.5t166.5 -73.5z" />
    <glyph glyph-name="seven" unicode="7" horiz-adv-x="1114" 
d="M537 0h-359l457 1239h-553v297h1001z" />
    <glyph glyph-name="eight" unicode="8" horiz-adv-x="1323" 
d="M662 -41q-252 0 -416 137t-164 334q0 122 67.5 223.5t186.5 163.5q-87 57 -134.5 140.5t-47.5 179.5q0 186 143 313t365 127t364.5 -127t142.5 -313q0 -96 -47.5 -179.5t-134.5 -140.5q119 -62 186.5 -163.5t67.5 -223.5q0 -197 -163.5 -334t-415.5 -137zM662 956
q83 0 129.5 48t46.5 124q0 71 -51.5 119.5t-124.5 48.5q-74 0 -125.5 -48.5t-51.5 -119.5q0 -76 46.5 -124t130.5 -48zM662 244q107 0 171 58.5t64 148.5q0 88 -64.5 148t-170.5 60q-109 0 -172.5 -60t-63.5 -148q0 -90 63 -148.5t173 -58.5z" />
    <glyph glyph-name="nine" unicode="9" horiz-adv-x="1325" 
d="M709 0h-402l404 526q-50 -16 -95 -16q-144 0 -263.5 66t-190 188t-70.5 276q0 109 42 207.5t115 171t179.5 115.5t228.5 43q251 0 408.5 -154t157.5 -401q0 -143 -53.5 -275.5t-170.5 -308.5zM657 1294q-103 0 -166 -71.5t-63 -178.5q0 -105 63 -178t166 -73
q104 0 167 71t63 178q0 105 -63.5 178.5t-166.5 73.5z" />
    <glyph glyph-name="colon" unicode=":" horiz-adv-x="604" 
d="M502 1174v-369h-400v369h400zM502 369v-369h-400v369h400z" />
    <glyph glyph-name="semicolon" unicode=";" horiz-adv-x="604" 
d="M502 1174v-369h-400v369h400zM502 0l-197 -391h-244l166 391h-125v369h400v-369z" />
    <glyph glyph-name="less" unicode="&#x3c;" horiz-adv-x="995" 
d="M903 139l-883 592l883 588v-371l-375 -219l375 -219v-371z" />
    <glyph glyph-name="equal" unicode="=" horiz-adv-x="1218" 
d="M1137 1087v-284h-1055v284h1055zM1137 659v-284h-1055v284h1055z" />
    <glyph glyph-name="greater" unicode="&#x3e;" horiz-adv-x="995" 
d="M92 139v371l375 219l-375 219v371l883 -592z" />
    <glyph glyph-name="question" unicode="?" horiz-adv-x="808" 
d="M72 1264v272q342 0 509 -108t167 -300q0 -96 -43.5 -180t-145.5 -186l-33 -33l-32 -237h-256l-17 329l64 56q79 70 113 122t34 109q0 50 -32.5 83.5t-114 53t-213.5 19.5zM565 348v-348h-379v348h379z" />
    <glyph glyph-name="at" unicode="@" horiz-adv-x="1839" 
d="M936 -289q-178 0 -336.5 56.5t-278.5 158.5t-190 256t-70 338q0 174 67 330.5t182.5 271t278.5 181.5t347 67q186 0 345 -59t267 -160.5t169 -238t61 -289.5q0 -117 -34.5 -211.5t-90.5 -152.5t-123.5 -89t-138.5 -31q-172 0 -234 127q-88 -137 -283 -137
q-72 0 -141.5 30t-124 82.5t-88 131t-33.5 168.5q0 115 57 208.5t144.5 142t185.5 48.5q164 0 252 -94v84h220v-512q0 -70 49 -70q56 0 97.5 61t41.5 193q0 114 -41 214t-116.5 174.5t-189.5 117.5t-251 43q-188 0 -331.5 -85t-218.5 -227.5t-75 -318.5q0 -139 49 -252
t134.5 -186.5t198.5 -112.5t243 -39q220 0 403 68v-219q-183 -68 -403 -68zM918 330q84 0 140 60.5t56 150.5q0 83 -56 140.5t-140 57.5q-87 0 -144 -57t-57 -141q0 -90 57 -150.5t144 -60.5z" />
    <glyph glyph-name="A" unicode="A" horiz-adv-x="1617" 
d="M981 500l-180 397l-180 -397h360zM1204 0l-90 203h-627l-92 -203h-364l778 1577l778 -1577h-383z" />
    <glyph glyph-name="B" unicode="B" horiz-adv-x="1169" 
d="M449 0h-306v1327l-82 209h377q285 0 451 -126.5t166 -319.5q0 -125 -63.5 -220t-176.5 -141q128 -37 198 -123t70 -186q0 -91 -37 -166t-112 -132.5t-198.5 -89.5t-286.5 -32zM721 1040q0 85 -63.5 142t-174.5 57h-12v-420h12q105 0 171.5 60t66.5 161zM532 565h-61v-293
h61q105 0 159 44t54 112q0 64 -53 100.5t-160 36.5z" />
    <glyph glyph-name="C" unicode="C" horiz-adv-x="1492" 
d="M932 -41q-258 0 -451 100t-296 281.5t-103 419.5q0 167 63.5 317.5t173.5 260.5t266 174.5t333 64.5q265 0 473 -117v-352q-228 154 -476 154q-222 0 -349.5 -141t-127.5 -363q0 -221 133 -352.5t359 -131.5q124 0 226.5 28t234.5 101v-337q-83 -45 -201.5 -76
t-257.5 -31z" />
    <glyph glyph-name="D" unicode="D" horiz-adv-x="1396" 
d="M143 0v1327l-82 209h445q178 0 330.5 -60.5t256.5 -164t163 -244t59 -297.5q0 -158 -59 -299t-163 -245t-256.5 -165t-330.5 -61h-363zM481 307h25q214 0 337.5 130.5t123.5 332.5q0 201 -123.5 330t-337.5 129h-25v-922z" />
    <glyph glyph-name="E" unicode="E" horiz-adv-x="864" 
d="M143 0v1327l-82 209h680v-289h-270v-422h270v-288h-270v-248h270v-289h-598z" />
    <glyph glyph-name="F" unicode="F" horiz-adv-x="843" 
d="M471 0h-328v1327l-82 209h680v-289h-270v-422h270v-288h-270v-537z" />
    <glyph glyph-name="G" unicode="G" horiz-adv-x="1523" 
d="M1411 76q-88 -47 -225 -82t-275 -35q-189 0 -344.5 58t-262 162.5t-164.5 253.5t-58 327q0 167 63.5 317.5t173.5 260.5t266 174.5t333 64.5q265 0 473 -117v-352q-228 154 -476 154q-147 0 -256.5 -66.5t-165 -180t-55.5 -257.5q0 -219 127.5 -351.5t343.5 -132.5
q89 0 174 15v489h328v-702z" />
    <glyph glyph-name="H" unicode="H" horiz-adv-x="1437" 
d="M956 721v815h338v-1536h-338v414h-475v-414h-338v1536h338v-815h475z" />
    <glyph glyph-name="I" unicode="I" horiz-adv-x="624" 
d="M481 1536v-1536h-338v1536h338z" />
    <glyph glyph-name="J" unicode="J" horiz-adv-x="899" 
d="M315 0h-233v289h188q78 0 118 35.5t40 126.5v778h-326v307h664v-1085q0 -218 -118 -334.5t-333 -116.5z" />
    <glyph glyph-name="K" unicode="K" horiz-adv-x="1304" 
d="M852 0l-371 524v-524h-338v1536h338v-973l422 973h361l-424 -954l415 -582h-403z" />
    <glyph glyph-name="L" unicode="L" horiz-adv-x="833" 
d="M481 1536v-1247h260v-289h-598v1536h338z" />
    <glyph glyph-name="M" unicode="M" horiz-adv-x="1863" 
d="M932 291l-451 471v-762h-338v1577l791 -840l786 840v-1577h-338v764z" />
    <glyph glyph-name="N" unicode="N" horiz-adv-x="1396" 
d="M479 756v-756h-336v1577l775 -838v797h335v-1577z" />
    <glyph glyph-name="O" unicode="O" horiz-adv-x="1781" 
d="M891 -41q-164 0 -314 64.5t-258.5 173.5t-172.5 259t-64 314q0 218 108.5 404t295 294.5t405.5 108.5q218 0 404.5 -108.5t295.5 -294.5t109 -404q0 -219 -109 -406t-295.5 -296t-404.5 -109zM891 272q124 0 228 65t165.5 179.5t61.5 253.5q0 209 -133 351.5t-322 142.5
q-191 0 -323 -142t-132 -352t132 -354t323 -144z" />
    <glyph glyph-name="P" unicode="P" horiz-adv-x="1167" 
d="M481 0h-338v1327l-82 209h316q320 0 509 -160.5t189 -429.5q0 -126 -46 -236.5t-126.5 -190.5t-189 -132t-232.5 -68v-319zM731 932q0 126 -72.5 208.5t-177.5 88.5v-611q104 8 177 93t73 221z" />
    <glyph glyph-name="Q" unicode="Q" horiz-adv-x="1781" 
d="M1051 -393h-318v368q-184 37 -332.5 150t-233.5 282.5t-85 362.5q0 218 108.5 404t295 294.5t405.5 108.5q218 0 404.5 -108.5t295.5 -294.5t109 -404q0 -192 -85 -361.5t-233 -283t-331 -150.5v-368zM733 575h318v-272q132 54 213.5 180t81.5 287q0 209 -133 351.5
t-322 142.5q-191 0 -323 -142t-132 -352q0 -162 82 -289t215 -180v274z" />
    <glyph glyph-name="R" unicode="R" horiz-adv-x="1193" 
d="M731 932q0 126 -72.5 208.5t-177.5 88.5v-611q104 8 177 93t73 221zM778 0l-176 346q-58 -18 -121 -27v-319h-338v1327l-82 209h316q320 0 509 -160.5t189 -429.5q0 -262 -186 -438l264 -508h-375z" />
    <glyph glyph-name="S" unicode="S" horiz-adv-x="819" 
d="M727 1247h-82q-93 0 -143.5 -30.5t-50.5 -108.5q0 -44 28 -105.5t68 -127t80 -136t68 -152t28 -155.5q0 -203 -139 -317.5t-377 -114.5h-125v289h125q86 0 131 30.5t45 104.5q0 51 -28 117t-68 133t-80 136t-68 146t-28 144q0 203 142 319.5t372 116.5h102v-289z" />
    <glyph glyph-name="T" unicode="T" horiz-adv-x="899" 
d="M61 1536h777v-289h-220v-1247h-337v1247h-220v289z" />
    <glyph glyph-name="U" unicode="U" horiz-adv-x="1396" 
d="M1264 1536v-1022q0 -132 -45 -239t-123 -175t-180 -104.5t-218 -36.5q-156 0 -282.5 62t-204.5 190t-78 303v1022h340v-985q0 -285 225 -285q226 0 226 285v985h340z" />
    <glyph glyph-name="V" unicode="V" horiz-adv-x="1617" 
d="M809 -41l-778 1577h391l399 -881l402 881h364z" />
    <glyph glyph-name="W" unicode="W" horiz-adv-x="2080" 
d="M1495 -41l-455 954l-446 -954l-574 1577h367l272 -791l390 832l389 -813l266 772h356z" />
    <glyph glyph-name="X" unicode="X" horiz-adv-x="1300" 
d="M840 0l-211 399l-201 -399h-342l383 702l-438 834h368l271 -514l258 514h342l-439 -819l377 -717h-368z" />
    <glyph glyph-name="Y" unicode="Y" horiz-adv-x="1443" 
d="M891 0h-338v442l-533 1094h367l348 -731l340 731h348l-532 -1098v-438z" />
    <glyph glyph-name="Z" unicode="Z" horiz-adv-x="983" 
d="M51 0l432 1229h-393v307h842l-424 -1229h389v-307h-846z" />
    <glyph glyph-name="bracketleft" unicode="[" horiz-adv-x="727" 
d="M143 -440v2252h523v-276h-191v-1700h191v-276h-523z" />
    <glyph glyph-name="backslash" unicode="\" horiz-adv-x="1157" 
d="M1157 -205h-338l-819 1946h338z" />
    <glyph glyph-name="bracketright" unicode="]" horiz-adv-x="727" 
d="M61 -440v276h191v1700h-191v276h523v-2252h-523z" />
    <glyph glyph-name="asciicircum" unicode="^" horiz-adv-x="1179" 
d="M809 246l-225 547l-228 -547h-336l572 1210l567 -1210h-350z" />
    <glyph glyph-name="underscore" unicode="_" horiz-adv-x="1368" 
d="M61 -395v297h1246v-297h-1246z" />
    <glyph glyph-name="grave" unicode="`" horiz-adv-x="1024" 
d="M125 1618h367l163 -328h-284z" />
    <glyph glyph-name="a" unicode="a" 
d="M709 264q125 0 212 92.5t87 233.5q0 136 -87.5 227.5t-211.5 91.5q-128 0 -214.5 -91t-86.5 -228q0 -140 86.5 -233t214.5 -93zM1022 0v154q-120 -185 -358 -185q-120 0 -228.5 46t-188.5 127t-127.5 197.5t-47.5 250.5q0 131 47.5 246t127.5 195t189 126.5t228 46.5
q238 0 358 -182v152h313v-1174h-313z" />
    <glyph glyph-name="b" unicode="b" 
d="M795 -31q-238 0 -359 183v-152h-313v1536h328v-494q120 162 344 162q120 0 228.5 -46.5t188.5 -127t127 -196.5t47 -248t-47 -247.5t-127 -196t-188.5 -127t-228.5 -46.5zM750 909q-125 0 -212 -92t-87 -231q0 -138 87 -230t212 -92q128 0 214.5 91.5t86.5 230.5
t-86.5 231t-214.5 92z" />
    <glyph glyph-name="c" unicode="c" horiz-adv-x="1146" 
d="M678 -31q-122 0 -233 46t-193.5 127t-131 197.5t-48.5 250.5q0 174 85.5 315.5t228.5 220t312 78.5q214 0 357 -80v-321q-152 106 -326 106q-149 0 -235 -89t-86 -230q0 -152 90.5 -239t230.5 -87q88 0 154.5 19t156.5 63v-309q-56 -28 -151.5 -48t-210.5 -20z" />
    <glyph glyph-name="d" unicode="d" 
d="M709 264q125 0 212 92.5t87 233.5q0 136 -87.5 227.5t-211.5 91.5q-128 0 -214.5 -91t-86.5 -228q0 -140 86.5 -233t214.5 -93zM1022 0v154q-120 -185 -358 -185q-120 0 -228.5 46t-188.5 127t-127.5 197.5t-47.5 250.5q0 131 47.5 246t127.5 195t189 126.5t228 46.5
q224 0 344 -162v494h327v-1536h-313z" />
    <glyph glyph-name="e" unicode="e" horiz-adv-x="1277" 
d="M668 913q-95 0 -158 -50.5t-88 -147.5h459q-4 96 -63.5 147t-149.5 51zM1120 49q-160 -80 -372 -80q-314 0 -495 165.5t-181 445.5q0 170 78 312.5t218.5 227t313.5 84.5q166 0 289 -78.5t181.5 -223.5t37.5 -331l-10 -90h-762q26 -105 110 -162t217 -57q212 0 375 66
v-279z" />
    <glyph glyph-name="f" unicode="f" horiz-adv-x="796" 
d="M745 1174v-269h-235v-905h-328v905h-162v269h162q6 173 116 267.5t308 94.5h160v-250h-156q-55 0 -77.5 -24.5t-22.5 -85.5v-2h235z" />
    <glyph glyph-name="g" unicode="g" 
d="M709 264q125 0 212 92.5t87 233.5q0 136 -87.5 227.5t-211.5 91.5q-128 0 -214.5 -91t-86.5 -228q0 -140 86.5 -233t214.5 -93zM657 -543q-203 0 -360 45v283q157 -45 334 -45q194 0 292.5 84t98.5 282v48q-120 -185 -358 -185q-120 0 -228.5 46t-188.5 127t-127.5 197.5
t-47.5 250.5q0 131 47.5 246t127.5 195t189 126.5t228 46.5q238 0 358 -182v152h313v-1024q0 -333 -175.5 -513t-502.5 -180z" />
    <glyph glyph-name="h" unicode="h" horiz-adv-x="1327" 
d="M451 647v-647h-328v1536h328v-473q126 141 342 141q195 0 308 -130t113 -384v-690h-331v647q0 132 -57 197t-150 65q-100 0 -162.5 -64.5t-62.5 -197.5z" />
    <glyph glyph-name="i" unicode="i" horiz-adv-x="573" 
d="M123 1286v250h326v-250h-326zM451 1174v-1174h-328v1174h328z" />
    <glyph glyph-name="j" unicode="j" horiz-adv-x="573" 
d="M123 1286v250h326v-250h-326zM-133 -512v272h53q106 0 154.5 45t48.5 158v1211h328v-1211q0 -228 -127.5 -351.5t-358.5 -123.5h-98z" />
    <glyph glyph-name="k" unicode="k" horiz-adv-x="1198" 
d="M811 0l-360 530v-530h-328v1536h328v-979l378 617h338l-370 -607l391 -567h-377z" />
    <glyph glyph-name="l" unicode="l" horiz-adv-x="573" 
d="M451 0h-328v1536h328v-1536z" />
    <glyph glyph-name="m" unicode="m" horiz-adv-x="2041" 
d="M451 647v-647h-328v1174h313v-119q125 149 340 149q227 0 334 -174q133 174 385 174q203 0 318.5 -130t115.5 -384v-690h-327v647q0 132 -54 197t-143 65q-96 0 -155.5 -65t-59.5 -197v-647h-328v647q0 132 -54 197t-142 65q-96 0 -155.5 -65t-59.5 -197z" />
    <glyph glyph-name="n" unicode="n" horiz-adv-x="1323" 
d="M451 647v-647h-328v1174h313v-123q129 153 350 153q196 0 310 -130.5t114 -383.5v-690h-327v647q0 132 -57 197t-150 65q-100 0 -162.5 -64.5t-62.5 -197.5z" />
    <glyph glyph-name="o" unicode="o" horiz-adv-x="1415" 
d="M709 -31q-172 0 -319 83.5t-232.5 226.5t-85.5 311q0 166 85.5 307.5t232.5 224t319 82.5q171 0 317 -82.5t231.5 -224t85.5 -307.5q0 -168 -85.5 -311t-231.5 -226.5t-317 -83.5zM709 264q125 0 212 92.5t87 233.5q0 138 -87 228.5t-212 90.5q-128 0 -214.5 -90.5
t-86.5 -228.5q0 -140 86.5 -233t214.5 -93z" />
    <glyph glyph-name="p" unicode="p" 
d="M750 909q-124 0 -211.5 -92.5t-87.5 -230.5t87 -230t212 -92q128 0 214.5 91.5t86.5 230.5q0 138 -86.5 230.5t-214.5 92.5zM795 -31q-224 0 -344 162v-643h-328v1686h313v-152q120 182 359 182q120 0 228.5 -46.5t188.5 -127t127 -196.5t47 -248t-47 -247.5t-127 -196
t-188.5 -127t-228.5 -46.5z" />
    <glyph glyph-name="q" unicode="q" 
d="M1335 -512h-327v643q-120 -162 -344 -162q-120 0 -228.5 46t-188.5 127t-127.5 197.5t-47.5 250.5q0 131 47.5 246t127.5 195t189 126.5t228 46.5q238 0 358 -182v152h313v-1686zM709 264q125 0 212 92.5t87 233.5q0 135 -87.5 227t-211.5 92q-128 0 -214.5 -91.5
t-86.5 -227.5q0 -140 86.5 -233t214.5 -93z" />
    <glyph glyph-name="r" unicode="r" horiz-adv-x="854" 
d="M451 647v-647h-328v1174h313v-125q131 155 357 155v-327q-66 12 -117 12q-101 0 -163 -59.5t-62 -182.5z" />
    <glyph glyph-name="s" unicode="s" horiz-adv-x="968" 
d="M406 -31q-190 0 -320 56v274q54 -25 135 -40t156 -15q114 0 155 23t41 69q0 29 -27 55.5t-70 49.5t-94.5 48t-103.5 57.5t-95 71.5t-70 97.5t-27 128.5q0 158 128.5 259t334.5 101q200 0 317 -57v-273q-121 56 -288 56q-158 0 -158 -72q0 -22 27 -45t70 -46t95 -49.5
t103.5 -62t94.5 -77.5t70 -103t27 -131q0 -172 -136 -273.5t-365 -101.5z" />
    <glyph glyph-name="t" unicode="t" horiz-adv-x="843" 
d="M803 909h-240v-909h-327v909h-205v265h205v219h327v-219h240v-265z" />
    <glyph glyph-name="u" unicode="u" horiz-adv-x="1316" 
d="M881 0v121q-128 -152 -344 -152q-198 0 -311 130t-113 386v689h327v-648q0 -132 56.5 -197t148.5 -65q99 0 160 64.5t61 197.5v648h328v-1174h-313z" />
    <glyph glyph-name="v" unicode="v" horiz-adv-x="1282" 
d="M641 -61l-621 1235h369l260 -582l264 582h349z" />
    <glyph glyph-name="w" unicode="w" horiz-adv-x="1675" 
d="M1208 -61l-370 720l-365 -720l-442 1235h331l179 -549l305 581l301 -559l170 527h328z" />
    <glyph glyph-name="x" unicode="x" horiz-adv-x="1134" 
d="M729 0l-180 291l-168 -291h-338l344 549l-387 625h354l226 -363l217 363h338l-394 -621l344 -553h-356z" />
    <glyph glyph-name="y" unicode="y" horiz-adv-x="1290" 
d="M797 -512h-324v487l-453 1199h351l276 -789l297 789h326l-473 -1197v-489z" />
    <glyph glyph-name="z" unicode="z" horiz-adv-x="1019" 
d="M45 0l451 883h-416v291h889l-443 -885h414v-289h-895z" />
    <glyph glyph-name="braceleft" unicode="{" horiz-adv-x="839" 
d="M778 -440h-78q-214 0 -329 109.5t-115 310.5v456q0 62 -25 85.5t-92 23.5h-78v315h86q61 0 85 24.5t24 86.5v422q0 202 114.5 310.5t329.5 108.5h78v-276h-61q-73 0 -101 -33.5t-28 -113.5v-377q0 -53 -4 -90t-16 -80t-39 -73t-70 -48q36 -12 60 -34t37.5 -47.5
t20.5 -69.5t9 -84t2 -107v-395q0 -80 28 -114t101 -34h61v-276z" />
    <glyph glyph-name="bar" unicode="|" horiz-adv-x="624" 
d="M143 -205v1946h338v-1946h-338z" />
    <glyph glyph-name="braceright" unicode="}" horiz-adv-x="839" 
d="M139 -440h-78v276h62q73 0 101 34t28 114v395q0 67 2 107t9 84t20.5 69.5t37.5 47.5t60 34q-43 18 -70 48t-39 73t-16 80t-4 90v377q0 80 -28 113.5t-101 33.5h-62v276h78q215 0 330 -109t115 -310v-422q0 -62 23.5 -86.5t84.5 -24.5h86v-315h-78q-67 0 -91.5 -23.5
t-24.5 -85.5v-456q0 -200 -115.5 -310t-329.5 -110z" />
    <glyph glyph-name="asciitilde" unicode="~" horiz-adv-x="1218" 
d="M905 537q-72 0 -160.5 22.5t-157 50t-145.5 50t-129 22.5q-69 0 -121 -15t-110 -55v289q115 76 233 76q72 0 158.5 -23t152.5 -50t144.5 -50t136.5 -23q68 0 120 15t110 55v-289q-113 -75 -232 -75z" />
    <glyph glyph-name="uni00A0" unicode="&#xa0;" horiz-adv-x="737" 
 />
    <glyph glyph-name="exclamdown" unicode="&#xa1;" horiz-adv-x="624" 
d="M123 825v349h379v-349h-379zM133 -362v512l51 532h256l52 -532v-512h-359z" />
    <glyph glyph-name="cent" unicode="&#xa2;" horiz-adv-x="1062" 
d="M971 266q-103 -54 -256 -65v-201h-273v231q-172 55 -271 193.5t-99 331.5q0 185 113.5 330t295.5 196v252h273v-236q122 -15 217 -71v-314q-145 93 -322 93q-121 0 -190.5 -70.5t-69.5 -179.5q0 -117 75 -187.5t195 -70.5q88 0 158 14.5t154 56.5v-303z" />
    <glyph glyph-name="sterling" unicode="&#xa3;" horiz-adv-x="1091" 
d="M1030 297v-297h-948v297h184v195h-184v296h184v238q0 231 143.5 370.5t362.5 139.5h217v-307h-209q-95 0 -135.5 -52t-40.5 -153v-236h324v-296h-324v-195h426z" />
    <glyph glyph-name="currency" unicode="&#xa4;" horiz-adv-x="970" 
d="M485 590q64 0 102 39.5t38 103.5t-38 105t-102 41q-62 0 -99.5 -41t-37.5 -105t37.5 -103.5t99.5 -39.5zM483 379q-81 0 -145 24l-74 -116h-244l158 227q-76 88 -76 219q0 126 76 225l-158 228h244l84 -113q72 21 135 21q80 0 150 -25l74 117h243l-159 -228
q77 -96 77 -225q0 -125 -75 -219l157 -227h-243l-84 112q-72 -20 -140 -20z" />
    <glyph glyph-name="yen" unicode="&#xa5;" horiz-adv-x="1484" 
d="M1382 356h-471v-356h-338v356h-471v256h387l-63 133h-324v256h199l-260 535h369l348 -731l340 731h346l-260 -535h198v-256h-321l-66 -133h387v-256z" />
    <glyph glyph-name="brokenbar" unicode="&#xa6;" horiz-adv-x="624" 
d="M143 922v819h338v-819h-338zM143 -205v819h338v-819h-338z" />
    <glyph glyph-name="section" unicode="&#xa7;" horiz-adv-x="1185" 
d="M72 0v248h82q86 0 131 34.5t45 120.5q0 59 -31.5 136.5t-69 145t-69 169.5t-31.5 205q0 215 158.5 346t427.5 131h399v-248h-82q-60 0 -96.5 -31t-36.5 -88q0 -51 31.5 -129t69 -150.5t69 -176t31.5 -199.5q0 -242 -173 -378t-476 -136h-379zM498 229h39q128 0 196 76
t68 207q0 63 -31.5 147t-69 153.5t-69 155.5t-31.5 152q0 146 105 187h-74q-98 0 -150.5 -54t-52.5 -145q0 -69 20.5 -142.5t50 -136t59.5 -123.5t50.5 -127.5t20.5 -125.5q0 -74 -31 -134t-100 -90z" />
    <glyph glyph-name="dieresis" unicode="&#xa8;" horiz-adv-x="1024" 
d="M860 1587v-297h-297v297h297zM461 1587v-297h-297v297h297z" />
    <glyph glyph-name="copyright" unicode="&#xa9;" horiz-adv-x="1740" 
d="M870 -41q-218 0 -404.5 108.5t-295.5 295t-109 405.5q0 218 109 404.5t295.5 295.5t404.5 109q219 0 405.5 -109t295 -295.5t108.5 -404.5q0 -164 -64 -314t-172.5 -258.5t-258.5 -172.5t-314 -64zM870 158q158 0 292.5 81.5t213 222t78.5 306.5q0 165 -78.5 305.5
t-213 222.5t-292.5 82t-292.5 -82t-212.5 -222.5t-78 -305.5q0 -166 78 -306.5t212.5 -222t292.5 -81.5zM928 346q-208 0 -329.5 116t-121.5 308q0 180 126 306t315 126q140 0 249 -61v-226q-124 80 -249 80q-100 0 -158 -63t-58 -162q0 -98 61.5 -157.5t162.5 -59.5
q64 0 117.5 14.5t123.5 53.5v-211q-126 -64 -239 -64z" />
    <glyph glyph-name="ordfeminine" unicode="&#xaa;" horiz-adv-x="1024" 
d="M500 934q80 0 136 59t56 146q0 85 -56 142.5t-136 57.5t-136.5 -57.5t-56.5 -142.5q0 -87 56.5 -146t136.5 -59zM713 739v78q-87 -108 -244 -108q-169 0 -288.5 126.5t-119.5 303.5t119.5 303.5t288.5 126.5q157 0 244 -109v76h229v-797h-229z" />
    <glyph glyph-name="guillemotleft" unicode="&#xab;" horiz-adv-x="1269" 
d="M1198 160h-362l-261 426l271 422h352l-272 -416zM674 160h-363l-260 426l271 422h352l-273 -416z" />
    <glyph glyph-name="logicalnot" unicode="&#xac;" horiz-adv-x="1218" 
d="M1137 244h-322v370h-733v285h1055v-655z" />
    <glyph glyph-name="uni00AD" unicode="&#xad;" horiz-adv-x="0" 
 />
    <glyph glyph-name="registered" unicode="&#xae;" horiz-adv-x="1740" 
d="M870 -41q-218 0 -404.5 108.5t-295.5 295t-109 405.5q0 218 109 404.5t295.5 295.5t404.5 109q219 0 405.5 -109t295 -295.5t108.5 -404.5q0 -164 -64 -314t-172.5 -258.5t-258.5 -172.5t-314 -64zM870 158q158 0 292.5 81.5t213 222t78.5 306.5q0 165 -78.5 305.5
t-213 222.5t-292.5 82t-292.5 -82t-212.5 -222.5t-78 -305.5q0 -166 78 -306.5t212.5 -222t292.5 -81.5zM831 713q56 0 97 38.5t41 108.5q0 59 -40.5 92t-97.5 33v-272zM831 524v-147h-198v727l-45 76h178q179 0 292 -87.5t113 -230.5q0 -136 -98 -225l135 -260h-223
l-84 164q-57 -15 -70 -17z" />
    <glyph glyph-name="macron" unicode="&#xaf;" horiz-adv-x="1024" 
d="M844 1536v-246h-664v246h664z" />
    <glyph glyph-name="degree" unicode="&#xb0;" horiz-adv-x="770" 
d="M385 930q-134 0 -229 95t-95 228t95.5 228.5t228.5 95.5t228.5 -95.5t95.5 -228.5t-95 -228t-229 -95zM385 1116q50 0 85.5 39.5t35.5 97.5t-35.5 98t-85.5 40q-51 0 -86 -40t-35 -98t35 -97.5t86 -39.5z" />
    <glyph glyph-name="plusminus" unicode="&#xb1;" horiz-adv-x="1218" 
d="M1137 799h-367v-371h-321v371h-367v284h367v371h321v-371h367v-284zM1137 285v-285h-1055v285h1055z" />
    <glyph glyph-name="twosuperior" unicode="&#xb2;" horiz-adv-x="647" 
d="M586 848h-555l170 237q68 95 91 135.5t23 75.5q0 70 -77 70q-67 0 -162 -39v189q106 40 223 40q121 0 192.5 -60t71.5 -155q0 -65 -36.5 -132t-127.5 -175h187v-186z" />
    <glyph glyph-name="threesuperior" unicode="&#xb3;" horiz-adv-x="632" 
d="M285 827q-97 0 -213 33v184q104 -36 178 -36q52 0 80 18.5t28 52.5q0 72 -116 72q-68 0 -136 -12l160 219h-184v178h498l-181 -256q88 -20 135.5 -74.5t47.5 -130.5q0 -107 -83 -177.5t-214 -70.5z" />
    <glyph glyph-name="acute" unicode="&#xb4;" horiz-adv-x="1024" 
d="M899 1618l-246 -328h-284l163 328h367z" />
    <glyph glyph-name="mu" unicode="&#xb5;" horiz-adv-x="1327" 
d="M547 -31q-47 0 -107 11v-492h-317v1686h328v-648q0 -132 56 -197t148 -65q99 0 160.5 65t61.5 197v648h327v-1174h-313v121q-128 -152 -344 -152z" />
    <glyph glyph-name="paragraph" unicode="&#xb6;" horiz-adv-x="1347" 
d="M471 0v643h-6q-88 0 -163 37t-124.5 98t-77.5 137t-28 156q0 211 146 338t378 127h711l-82 -143v-1393h-287v1290h-180v-1290h-287z" />
    <glyph glyph-name="periodcentered" unicode="&#xb7;" horiz-adv-x="604" 
d="M502 963v-369h-400v369h400z" />
    <glyph glyph-name="cedilla" unicode="&#xb8;" horiz-adv-x="1024" 
d="M418 -369l41 467h262v-467h-303z" />
    <glyph glyph-name="onesuperior" unicode="&#xb9;" horiz-adv-x="460" 
d="M358 1577v-729h-256v549z" />
    <glyph glyph-name="ordmasculine" unicode="&#xba;" horiz-adv-x="1003" 
d="M500 709q-181 0 -310 126.5t-129 303.5t129 303.5t310 126.5q183 0 312.5 -126.5t129.5 -303.5t-129.5 -303.5t-312.5 -126.5zM500 934q80 0 136 59t56 146q0 85 -56 142.5t-136 57.5t-136.5 -57.5t-56.5 -142.5q0 -87 56.5 -146t136.5 -59z" />
    <glyph glyph-name="guillemotright" unicode="&#xbb;" horiz-adv-x="1269" 
d="M434 160h-362l272 432l-272 416h352l270 -422zM958 160h-362l272 432l-272 416h352l271 -422z" />
    <glyph glyph-name="onequarter" unicode="&#xbc;" horiz-adv-x="1523" 
d="M399 1577v-729h-256v549zM1335 1536l-975 -1536h-268l975 1536h268zM1241 387h201v-387h-201v96h-420l258 592h232l-183 -418h113v117z" />
    <glyph glyph-name="onehalf" unicode="&#xbd;" horiz-adv-x="1531" 
d="M399 1577v-729h-256v549zM1335 1536l-975 -1536h-268l975 1536h268zM1470 0h-555l170 238q69 97 92 137t23 74q0 69 -78 69q-66 0 -161 -39v189q108 41 223 41q121 0 192.5 -60t71.5 -155q0 -65 -36.5 -132.5t-127.5 -175.5h186v-186z" />
    <glyph glyph-name="threequarters" unicode="&#xbe;" horiz-adv-x="1654" 
d="M1466 1536l-974 -1536h-269l975 1536h268zM285 827q-97 0 -213 33v184q104 -36 178 -36q52 0 80 18.5t28 52.5q0 72 -116 72q-68 0 -136 -12l160 219h-184v178h498l-181 -256q88 -20 135.5 -74.5t47.5 -130.5q0 -107 -83 -177.5t-214 -70.5zM1372 387h201v-387h-201v96
h-420l258 592h232l-182 -418h112v117z" />
    <glyph glyph-name="questiondown" unicode="&#xbf;" horiz-adv-x="808" 
d="M244 825v349h379v-349h-379zM737 -90v-272q-342 0 -509 107.5t-167 299.5q0 96 43.5 180.5t145.5 186.5l33 32l32 238h256l17 -330l-64 -55q-79 -70 -113 -122t-34 -109q0 -50 32.5 -83.5t114 -53t213.5 -19.5z" />
    <glyph glyph-name="Agrave" unicode="&#xc0;" horiz-adv-x="1617" 
d="M422 2013h366l164 -327h-284zM981 500l-180 397l-180 -397h360zM1204 0l-90 203h-627l-92 -203h-364l778 1577l778 -1577h-383z" />
    <glyph glyph-name="Aacute" unicode="&#xc1;" horiz-adv-x="1617" 
d="M1196 2013l-246 -327h-284l163 327h367zM981 500l-180 397l-180 -397h360zM1204 0l-90 203h-627l-92 -203h-364l778 1577l778 -1577h-383z" />
    <glyph glyph-name="Acircumflex" unicode="&#xc2;" horiz-adv-x="1617" 
d="M885 1686l-76 75l-76 -75h-301l377 366l377 -366h-301zM981 500l-180 397l-180 -397h360zM1204 0l-90 203h-627l-92 -203h-364l778 1577l778 -1577h-383z" />
    <glyph glyph-name="Atilde" unicode="&#xc3;" horiz-adv-x="1617" 
d="M905 1903q31 0 31 41v77h201v-123q0 -111 -47.5 -175t-135.5 -64q-50 0 -108 30t-104 59.5t-68 29.5q-33 0 -33 -41v-78h-201v123q0 109 53 174t142 65q39 0 83.5 -18.5t76 -40.5t63 -40.5t47.5 -18.5zM981 500l-180 397l-180 -397h360zM1204 0l-90 203h-627l-92 -203
h-364l778 1577l778 -1577h-383z" />
    <glyph glyph-name="Adieresis" unicode="&#xc4;" horiz-adv-x="1617" 
d="M1157 1982v-296h-297v296h297zM758 1982v-296h-297v296h297zM981 500l-180 397l-180 -397h360zM1204 0l-90 203h-627l-92 -203h-364l778 1577l778 -1577h-383z" />
    <glyph glyph-name="Aring" unicode="&#xc5;" horiz-adv-x="1617" 
d="M717 1792q0 -38 24 -61t66 -23t68 23.5t26 60.5q0 39 -26 63.5t-68 24.5t-66 -24.5t-24 -63.5zM981 500l-180 397l-180 -397h360zM1204 0l-90 203h-627l-92 -203h-364l753 1526q-122 8 -199 82t-77 184q0 118 84 195t213 77q132 0 217.5 -77t85.5 -195q0 -109 -76.5 -183
t-197.5 -81l753 -1528h-383z" />
    <glyph glyph-name="AE" unicode="&#xc6;" horiz-adv-x="1560" 
d="M840 500v620l-260 -620h260zM840 0v203h-385l-84 -203h-361l717 1536h711v-289h-271v-422h271v-288h-271v-248h271v-289h-598z" />
    <glyph glyph-name="Ccedilla" unicode="&#xc7;" horiz-adv-x="1492" 
d="M1391 66q-178 -97 -410 -105v-330h-303l31 351q-293 59 -460 265.5t-167 512.5q0 167 63.5 317.5t173.5 260.5t266 174.5t333 64.5q265 0 473 -117v-352q-228 154 -476 154q-222 0 -349.5 -141t-127.5 -363q0 -221 133 -352.5t359 -131.5q124 0 226.5 28t234.5 101v-337z
" />
    <glyph glyph-name="Egrave" unicode="&#xc8;" horiz-adv-x="864" 
d="M10 2013h367l164 -327h-285zM143 0v1327l-82 209h680v-289h-270v-422h270v-288h-270v-248h270v-289h-598z" />
    <glyph glyph-name="Eacute" unicode="&#xc9;" horiz-adv-x="864" 
d="M784 2013l-245 -327h-285l164 327h366zM143 0v1327l-82 209h680v-289h-270v-422h270v-288h-270v-248h270v-289h-598z" />
    <glyph glyph-name="Ecircumflex" unicode="&#xca;" horiz-adv-x="864" 
d="M471 1686l-76 75l-76 -75h-301l377 366l377 -366h-301zM143 0v1327l-82 209h680v-289h-270v-422h270v-288h-270v-248h270v-289h-598z" />
    <glyph glyph-name="Edieresis" unicode="&#xcb;" horiz-adv-x="864" 
d="M745 1982v-296h-296v296h296zM346 1982v-296h-297v296h297zM143 0v1327l-82 209h680v-289h-270v-422h270v-288h-270v-248h270v-289h-598z" />
    <glyph glyph-name="Igrave" unicode="&#xcc;" horiz-adv-x="624" 
d="M-78 2013h367l164 -327h-285zM481 1536v-1536h-338v1536h338z" />
    <glyph glyph-name="Iacute" unicode="&#xcd;" horiz-adv-x="624" 
d="M698 2013l-245 -327h-285l164 327h366zM481 1536v-1536h-338v1536h338z" />
    <glyph glyph-name="Icircumflex" unicode="&#xce;" horiz-adv-x="624" 
d="M387 1686l-76 75l-75 -75h-302l377 366l377 -366h-301zM481 1536v-1536h-338v1536h338z" />
    <glyph glyph-name="Idieresis" unicode="&#xcf;" horiz-adv-x="624" 
d="M662 1982v-296h-297v296h297zM262 1982v-296h-297v296h297zM481 1536v-1536h-338v1536h338z" />
    <glyph glyph-name="Eth" unicode="&#xd0;" horiz-adv-x="1417" 
d="M526 0h-362v631h-144v276h144v420l-82 209h444q178 0 330.5 -60.5t256.5 -164t163 -244t59 -297.5q0 -158 -59 -299t-163 -245t-256.5 -165t-330.5 -61zM502 307h24q214 0 337.5 130.5t123.5 332.5q0 201 -123.5 330t-337.5 129h-24v-322h211v-276h-211v-324z" />
    <glyph glyph-name="Ntilde" unicode="&#xd1;" horiz-adv-x="1396" 
d="M774 1903q31 0 31 41v77h201v-123q0 -111 -47.5 -175t-135.5 -64q-50 0 -108 30t-104 59.5t-68 29.5q-33 0 -33 -41v-78h-201v123q0 109 53 174t142 65q39 0 83.5 -18.5t76 -40.5t63 -40.5t47.5 -18.5zM479 756v-756h-336v1577l775 -838v797h335v-1577z" />
    <glyph glyph-name="Ograve" unicode="&#xd2;" horiz-adv-x="1781" 
d="M483 2013h367l164 -327h-285zM891 -41q-164 0 -314 64.5t-258.5 173.5t-172.5 259t-64 314q0 218 108.5 404t295 294.5t405.5 108.5q218 0 404.5 -108.5t295.5 -294.5t109 -404q0 -219 -109 -406t-295.5 -296t-404.5 -109zM891 272q124 0 228 65t165.5 179.5t61.5 253.5
q0 209 -133 351.5t-322 142.5q-191 0 -323 -142t-132 -352t132 -354t323 -144z" />
    <glyph glyph-name="Oacute" unicode="&#xd3;" horiz-adv-x="1781" 
d="M1257 2013l-245 -327h-285l164 327h366zM891 -41q-164 0 -314 64.5t-258.5 173.5t-172.5 259t-64 314q0 218 108.5 404t295 294.5t405.5 108.5q218 0 404.5 -108.5t295.5 -294.5t109 -404q0 -219 -109 -406t-295.5 -296t-404.5 -109zM891 272q124 0 228 65t165.5 179.5
t61.5 253.5q0 209 -133 351.5t-322 142.5q-191 0 -323 -142t-132 -352t132 -354t323 -144z" />
    <glyph glyph-name="Ocircumflex" unicode="&#xd4;" horiz-adv-x="1781" 
d="M946 1686l-76 75l-75 -75h-301l376 366l377 -366h-301zM891 -41q-164 0 -314 64.5t-258.5 173.5t-172.5 259t-64 314q0 218 108.5 404t295 294.5t405.5 108.5q218 0 404.5 -108.5t295.5 -294.5t109 -404q0 -219 -109 -406t-295.5 -296t-404.5 -109zM891 272q124 0 228 65
t165.5 179.5t61.5 253.5q0 209 -133 351.5t-322 142.5q-191 0 -323 -142t-132 -352t132 -354t323 -144z" />
    <glyph glyph-name="Otilde" unicode="&#xd5;" horiz-adv-x="1781" 
d="M987 1903q31 0 31 41v77h201v-123q0 -111 -47.5 -175t-135.5 -64q-50 0 -108 30t-104 59.5t-68 29.5q-33 0 -33 -41v-78h-201v123q0 109 53 174t142 65q39 0 83.5 -18.5t76 -40.5t63 -40.5t47.5 -18.5zM891 -41q-164 0 -314 64.5t-258.5 173.5t-172.5 259t-64 314
q0 218 108.5 404t295 294.5t405.5 108.5q218 0 404.5 -108.5t295.5 -294.5t109 -404q0 -219 -109 -406t-295.5 -296t-404.5 -109zM891 272q124 0 228 65t165.5 179.5t61.5 253.5q0 209 -133 351.5t-322 142.5q-191 0 -323 -142t-132 -352t132 -354t323 -144z" />
    <glyph glyph-name="Odieresis" unicode="&#xd6;" horiz-adv-x="1781" 
d="M1219 1982v-296h-297v296h297zM819 1982v-296h-297v296h297zM891 -41q-164 0 -314 64.5t-258.5 173.5t-172.5 259t-64 314q0 218 108.5 404t295 294.5t405.5 108.5q218 0 404.5 -108.5t295.5 -294.5t109 -404q0 -219 -109 -406t-295.5 -296t-404.5 -109zM891 272
q124 0 228 65t165.5 179.5t61.5 253.5q0 209 -133 351.5t-322 142.5q-191 0 -323 -142t-132 -352t132 -354t323 -144z" />
    <glyph glyph-name="multiply" unicode="&#xd7;" horiz-adv-x="1218" 
d="M903 236l-305 305l-303 -303l-201 202l303 303l-307 306l227 227l308 -305l301 301l200 -201l-301 -303l305 -305z" />
    <glyph glyph-name="Oslash" unicode="&#xd8;" horiz-adv-x="1822" 
d="M911 -41q-241 0 -442 133l-84 -92h-405l274 297q-152 211 -152 473q0 218 108.5 404t295 294.5t405.5 108.5q225 0 416 -117l70 76h405l-252 -272q170 -220 170 -494q0 -219 -109 -406t-295.5 -296t-404.5 -109zM457 770q0 -113 41 -209l606 658q-92 45 -193 45
q-191 0 -322.5 -142t-131.5 -352zM911 272q124 0 228 65t165.5 179.5t61.5 253.5q0 130 -53 236l-621 -674q102 -60 219 -60z" />
    <glyph glyph-name="Ugrave" unicode="&#xd9;" horiz-adv-x="1396" 
d="M270 2013h367l164 -327h-285zM1264 1536v-1022q0 -132 -45 -239t-123 -175t-180 -104.5t-218 -36.5q-156 0 -282.5 62t-204.5 190t-78 303v1022h340v-985q0 -285 225 -285q226 0 226 285v985h340z" />
    <glyph glyph-name="Uacute" unicode="&#xda;" horiz-adv-x="1396" 
d="M1044 2013l-245 -327h-285l164 327h366zM1264 1536v-1022q0 -132 -45 -239t-123 -175t-180 -104.5t-218 -36.5q-156 0 -282.5 62t-204.5 190t-78 303v1022h340v-985q0 -285 225 -285q226 0 226 285v985h340z" />
    <glyph glyph-name="Ucircumflex" unicode="&#xdb;" horiz-adv-x="1396" 
d="M774 1686l-76 75l-75 -75h-301l376 366l377 -366h-301zM1264 1536v-1022q0 -132 -45 -239t-123 -175t-180 -104.5t-218 -36.5q-156 0 -282.5 62t-204.5 190t-78 303v1022h340v-985q0 -285 225 -285q226 0 226 285v985h340z" />
    <glyph glyph-name="Udieresis" unicode="&#xdc;" horiz-adv-x="1396" 
d="M1047 1982v-296h-297v296h297zM647 1982v-296h-297v296h297zM1264 1536v-1022q0 -132 -45 -239t-123 -175t-180 -104.5t-218 -36.5q-156 0 -282.5 62t-204.5 190t-78 303v1022h340v-985q0 -285 225 -285q226 0 226 285v985h340z" />
    <glyph glyph-name="Yacute" unicode="&#xdd;" horiz-adv-x="1443" 
d="M1090 2013l-246 -327h-285l164 327h367zM891 0h-338v442l-533 1094h367l348 -731l340 731h348l-532 -1098v-438z" />
    <glyph glyph-name="Thorn" unicode="&#xde;" horiz-adv-x="1167" 
d="M481 0h-338v1536h338v-164q269 -31 431.5 -186.5t162.5 -397.5q0 -126 -46 -236.5t-126.5 -190t-188.5 -131.5t-233 -68v-162zM727 774q0 124 -71 206t-175 91v-610q102 10 174 94t72 219z" />
    <glyph glyph-name="germandbls" unicode="&#xdf;" horiz-adv-x="1384" 
d="M852 -31q-91 0 -186 31v295q100 -31 178 -31q66 0 105.5 39.5t39.5 104.5q0 64 -44.5 100.5t-127.5 36.5h-151v291l94 28q151 46 151 207q0 89 -60.5 145t-158.5 56q-106 0 -173.5 -71t-67.5 -200v-1001h-328v997q0 163 75.5 294t206.5 203.5t291 72.5q162 0 287 -63.5
t190.5 -170.5t65.5 -239q0 -111 -54 -205.5t-159 -143.5q78 -19 135.5 -56t89.5 -86.5t47 -102.5t15 -113q0 -85 -28.5 -159.5t-84 -133t-145 -92t-203.5 -33.5z" />
    <glyph glyph-name="agrave" unicode="&#xe0;" 
d="M330 1618h366l164 -328h-285zM709 264q125 0 212 92.5t87 233.5q0 136 -87.5 227.5t-211.5 91.5q-128 0 -214.5 -91t-86.5 -228q0 -140 86.5 -233t214.5 -93zM1022 0v154q-120 -185 -358 -185q-120 0 -228.5 46t-188.5 127t-127.5 197.5t-47.5 250.5q0 131 47.5 246
t127.5 195t189 126.5t228 46.5q238 0 358 -182v152h313v-1174h-313z" />
    <glyph glyph-name="aacute" unicode="&#xe1;" 
d="M1104 1618l-246 -328h-285l164 328h367zM709 264q125 0 212 92.5t87 233.5q0 136 -87.5 227.5t-211.5 91.5q-128 0 -214.5 -91t-86.5 -228q0 -140 86.5 -233t214.5 -93zM1022 0v154q-120 -185 -358 -185q-120 0 -228.5 46t-188.5 127t-127.5 197.5t-47.5 250.5
q0 131 47.5 246t127.5 195t189 126.5t228 46.5q238 0 358 -182v152h313v-1174h-313z" />
    <glyph glyph-name="acircumflex" unicode="&#xe2;" 
d="M793 1290l-76 76l-76 -76h-301l377 367l377 -367h-301zM709 264q125 0 212 92.5t87 233.5q0 136 -87.5 227.5t-211.5 91.5q-128 0 -214.5 -91t-86.5 -228q0 -140 86.5 -233t214.5 -93zM1022 0v154q-120 -185 -358 -185q-120 0 -228.5 46t-188.5 127t-127.5 197.5
t-47.5 250.5q0 131 47.5 246t127.5 195t189 126.5t228 46.5q238 0 358 -182v152h313v-1174h-313z" />
    <glyph glyph-name="atilde" unicode="&#xe3;" 
d="M834 1507q30 0 30 41v78h201v-123q0 -111 -47 -175t-135 -64q-50 0 -108 29.5t-104.5 59t-68.5 29.5q-33 0 -33 -41v-77h-200v122q0 109 52.5 174.5t141.5 65.5q50 0 106.5 -30t101 -59.5t63.5 -29.5zM709 264q125 0 212 92.5t87 233.5q0 136 -87.5 227.5t-211.5 91.5
q-128 0 -214.5 -91t-86.5 -228q0 -140 86.5 -233t214.5 -93zM1022 0v154q-120 -185 -358 -185q-120 0 -228.5 46t-188.5 127t-127.5 197.5t-47.5 250.5q0 131 47.5 246t127.5 195t189 126.5t228 46.5q238 0 358 -182v152h313v-1174h-313z" />
    <glyph glyph-name="adieresis" unicode="&#xe4;" 
d="M1065 1587v-297h-297v297h297zM666 1587v-297h-297v297h297zM709 264q125 0 212 92.5t87 233.5q0 136 -87.5 227.5t-211.5 91.5q-128 0 -214.5 -91t-86.5 -228q0 -140 86.5 -233t214.5 -93zM1022 0v154q-120 -185 -358 -185q-120 0 -228.5 46t-188.5 127t-127.5 197.5
t-47.5 250.5q0 131 47.5 246t127.5 195t189 126.5t228 46.5q238 0 358 -182v152h313v-1174h-313z" />
    <glyph glyph-name="aring" unicode="&#xe5;" 
d="M416 1536q0 118 84 195t213 77q132 0 217.5 -77t85.5 -195q0 -116 -85.5 -191t-217.5 -75q-129 0 -213 75t-84 191zM625 1536q0 -38 24 -61t66 -23t68 23.5t26 60.5q0 39 -26 63.5t-68 24.5t-66 -24.5t-24 -63.5zM709 264q125 0 212 92.5t87 233.5q0 136 -87.5 227.5
t-211.5 91.5q-128 0 -214.5 -91t-86.5 -228q0 -140 86.5 -233t214.5 -93zM1022 0v154q-120 -185 -358 -185q-120 0 -228.5 46t-188.5 127t-127.5 197.5t-47.5 250.5q0 131 47.5 246t127.5 195t189 126.5t228 46.5q238 0 358 -182v152h313v-1174h-313z" />
    <glyph glyph-name="ae" unicode="&#xe6;" horiz-adv-x="2039" 
d="M1430 913q-95 0 -158 -50.5t-88 -147.5h458q-4 96 -63 147t-149 51zM1882 49q-62 -32 -159 -56t-212 -24q-319 0 -501 170q-227 -170 -500 -170q-188 0 -308 103.5t-120 267.5q0 171 132.5 274t322.5 103q156 0 297 -29v6q0 103 -78.5 159t-212.5 56q-193 0 -377 -73v294
q204 74 440 74q275 0 426 -157q170 157 412 157q166 0 289 -78.5t181.5 -223.5t37.5 -331l-10 -90h-762q26 -105 111 -162t218 -57q210 0 373 66v-279zM555 244q164 0 319 96q-18 51 -30 115q-129 24 -262 24q-185 0 -185 -119q0 -53 41.5 -84.5t116.5 -31.5z" />
    <glyph glyph-name="ccedilla" unicode="&#xe7;" horiz-adv-x="1146" 
d="M1040 37q-98 -50 -266 -64v-342h-303l31 363q-190 57 -310 218t-120 378q0 174 85.5 315.5t228.5 220t312 78.5q214 0 357 -80v-321q-152 106 -326 106q-149 0 -235 -89t-86 -230q0 -152 90.5 -239t230.5 -87q88 0 154.5 19t156.5 63v-309z" />
    <glyph glyph-name="egrave" unicode="&#xe8;" horiz-adv-x="1277" 
d="M281 1618h366l164 -328h-285zM668 913q-95 0 -158 -50.5t-88 -147.5h459q-4 96 -63.5 147t-149.5 51zM1120 49q-160 -80 -372 -80q-314 0 -495 165.5t-181 445.5q0 170 78 312.5t218.5 227t313.5 84.5q166 0 289 -78.5t181.5 -223.5t37.5 -331l-10 -90h-762
q26 -105 110 -162t217 -57q212 0 375 66v-279z" />
    <glyph glyph-name="eacute" unicode="&#xe9;" horiz-adv-x="1277" 
d="M1014 1618l-246 -328h-285l164 328h367zM668 913q-95 0 -158 -50.5t-88 -147.5h459q-4 96 -63.5 147t-149.5 51zM1120 49q-160 -80 -372 -80q-314 0 -495 165.5t-181 445.5q0 170 78 312.5t218.5 227t313.5 84.5q166 0 289 -78.5t181.5 -223.5t37.5 -331l-10 -90h-762
q26 -105 110 -162t217 -57q212 0 375 66v-279z" />
    <glyph glyph-name="ecircumflex" unicode="&#xea;" horiz-adv-x="1277" 
d="M743 1290l-75 76l-76 -76h-301l377 367l376 -367h-301zM668 913q-95 0 -158 -50.5t-88 -147.5h459q-4 96 -63.5 147t-149.5 51zM1120 49q-160 -80 -372 -80q-314 0 -495 165.5t-181 445.5q0 170 78 312.5t218.5 227t313.5 84.5q166 0 289 -78.5t181.5 -223.5t37.5 -331
l-10 -90h-762q26 -105 110 -162t217 -57q212 0 375 66v-279z" />
    <glyph glyph-name="edieresis" unicode="&#xeb;" horiz-adv-x="1277" 
d="M1016 1587v-297h-297v297h297zM616 1587v-297h-297v297h297zM668 913q-95 0 -158 -50.5t-88 -147.5h459q-4 96 -63.5 147t-149.5 51zM1120 49q-160 -80 -372 -80q-314 0 -495 165.5t-181 445.5q0 170 78 312.5t218.5 227t313.5 84.5q166 0 289 -78.5t181.5 -223.5
t37.5 -331l-10 -90h-762q26 -105 110 -162t217 -57q212 0 375 66v-279z" />
    <glyph glyph-name="igrave" unicode="&#xec;" horiz-adv-x="573" 
d="M-109 1618h367l164 -328h-285zM451 0h-328v1174h328v-1174z" />
    <glyph glyph-name="iacute" unicode="&#xed;" horiz-adv-x="573" 
d="M666 1618l-246 -328h-285l164 328h367zM451 0h-328v1174h328v-1174z" />
    <glyph glyph-name="icircumflex" unicode="&#xee;" horiz-adv-x="573" 
d="M362 1290l-75 76l-76 -76h-301l377 367l377 -367h-302zM451 0h-328v1174h328v-1174z" />
    <glyph glyph-name="idieresis" unicode="&#xef;" horiz-adv-x="573" 
d="M635 1587v-297h-297v297h297zM236 1587v-297h-297v297h297zM451 0h-328v1174h328v-1174z" />
    <glyph glyph-name="eth" unicode="&#xf0;" horiz-adv-x="1296" 
d="M649 -41q-125 0 -234 43.5t-183.5 117.5t-117 174.5t-42.5 211.5q0 153 75 278t202 194t278 69q37 0 90 -11l-111 146l-127 -70l-100 170l108 59l-145 195h369l37 -55l145 78l100 -168l-133 -72l135 -199q120 -174 175 -311t55 -285q0 -252 -160.5 -408.5t-415.5 -156.5z
M649 242q109 0 174.5 75.5t65.5 186.5q0 115 -65 188.5t-175 73.5q-111 0 -176 -75.5t-65 -188.5t65 -186.5t176 -73.5z" />
    <glyph glyph-name="ntilde" unicode="&#xf1;" horiz-adv-x="1323" 
d="M772 1507q31 0 31 41v78h201v-123q0 -111 -47.5 -175t-135.5 -64q-50 0 -108 29.5t-104 59t-68 29.5q-33 0 -33 -41v-77h-201v122q0 109 53 174.5t142 65.5q50 0 106.5 -30t100.5 -59.5t63 -29.5zM451 647v-647h-328v1174h313v-123q129 153 350 153q196 0 310 -130.5
t114 -383.5v-690h-327v647q0 132 -57 197t-150 65q-100 0 -162.5 -64.5t-62.5 -197.5z" />
    <glyph glyph-name="ograve" unicode="&#xf2;" horiz-adv-x="1415" 
d="M309 1618h367l164 -328h-285zM709 -31q-172 0 -319 83.5t-232.5 226.5t-85.5 311q0 166 85.5 307.5t232.5 224t319 82.5q171 0 317 -82.5t231.5 -224t85.5 -307.5q0 -168 -85.5 -311t-231.5 -226.5t-317 -83.5zM709 264q125 0 212 92.5t87 233.5q0 138 -87 228.5
t-212 90.5q-128 0 -214.5 -90.5t-86.5 -228.5q0 -140 86.5 -233t214.5 -93z" />
    <glyph glyph-name="oacute" unicode="&#xf3;" horiz-adv-x="1415" 
d="M1083 1618l-245 -328h-285l164 328h366zM709 -31q-172 0 -319 83.5t-232.5 226.5t-85.5 311q0 166 85.5 307.5t232.5 224t319 82.5q171 0 317 -82.5t231.5 -224t85.5 -307.5q0 -168 -85.5 -311t-231.5 -226.5t-317 -83.5zM709 264q125 0 212 92.5t87 233.5
q0 138 -87 228.5t-212 90.5q-128 0 -214.5 -90.5t-86.5 -228.5q0 -140 86.5 -233t214.5 -93z" />
    <glyph glyph-name="ocircumflex" unicode="&#xf4;" horiz-adv-x="1415" 
d="M772 1290l-76 76l-75 -76h-302l377 367l377 -367h-301zM709 -31q-172 0 -319 83.5t-232.5 226.5t-85.5 311q0 166 85.5 307.5t232.5 224t319 82.5q171 0 317 -82.5t231.5 -224t85.5 -307.5q0 -168 -85.5 -311t-231.5 -226.5t-317 -83.5zM709 264q125 0 212 92.5t87 233.5
q0 138 -87 228.5t-212 90.5q-128 0 -214.5 -90.5t-86.5 -228.5q0 -140 86.5 -233t214.5 -93z" />
    <glyph glyph-name="otilde" unicode="&#xf5;" horiz-adv-x="1415" 
d="M813 1507q31 0 31 41v78h200v-123q0 -111 -47 -175t-135 -64q-50 0 -108 29.5t-104 59t-68 29.5q-33 0 -33 -41v-77h-201v122q0 109 53 174.5t142 65.5q50 0 106.5 -30t100.5 -59.5t63 -29.5zM709 -31q-172 0 -319 83.5t-232.5 226.5t-85.5 311q0 166 85.5 307.5
t232.5 224t319 82.5q171 0 317 -82.5t231.5 -224t85.5 -307.5q0 -168 -85.5 -311t-231.5 -226.5t-317 -83.5zM709 264q125 0 212 92.5t87 233.5q0 138 -87 228.5t-212 90.5q-128 0 -214.5 -90.5t-86.5 -228.5q0 -140 86.5 -233t214.5 -93z" />
    <glyph glyph-name="odieresis" unicode="&#xf6;" horiz-adv-x="1415" 
d="M1044 1587v-297h-296v297h296zM645 1587v-297h-297v297h297zM709 -31q-172 0 -319 83.5t-232.5 226.5t-85.5 311q0 166 85.5 307.5t232.5 224t319 82.5q171 0 317 -82.5t231.5 -224t85.5 -307.5q0 -168 -85.5 -311t-231.5 -226.5t-317 -83.5zM709 264q125 0 212 92.5
t87 233.5q0 138 -87 228.5t-212 90.5q-128 0 -214.5 -90.5t-86.5 -228.5q0 -140 86.5 -233t214.5 -93z" />
    <glyph glyph-name="divide" unicode="&#xf7;" horiz-adv-x="1218" 
d="M809 1411v-369h-399v369h399zM82 614v285h1055v-285h-1055zM809 471v-369h-399v369h399z" />
    <glyph glyph-name="oslash" unicode="&#xf8;" horiz-adv-x="1415" 
d="M709 -31q-182 0 -332 92l-58 -61h-344l215 229q-118 158 -118 361q0 166 85.5 307.5t232.5 224t319 82.5q164 0 315 -82l47 52h344l-201 -216q129 -160 129 -368q0 -168 -85.5 -311t-231.5 -226.5t-317 -83.5zM408 590q0 -55 16 -111l385 414q-53 16 -100 16
q-128 0 -214.5 -90.5t-86.5 -228.5zM709 264q125 0 212 92.5t87 233.5q0 62 -23 123l-395 -424q55 -25 119 -25z" />
    <glyph glyph-name="ugrave" unicode="&#xf9;" horiz-adv-x="1316" 
d="M266 1618h367l164 -328h-285zM881 0v121q-128 -152 -344 -152q-198 0 -311 130t-113 386v689h327v-648q0 -132 56.5 -197t148.5 -65q99 0 160 64.5t61 197.5v648h328v-1174h-313z" />
    <glyph glyph-name="uacute" unicode="&#xfa;" horiz-adv-x="1316" 
d="M1040 1618l-245 -328h-285l164 328h366zM881 0v121q-128 -152 -344 -152q-198 0 -311 130t-113 386v689h327v-648q0 -132 56.5 -197t148.5 -65q99 0 160 64.5t61 197.5v648h328v-1174h-313z" />
    <glyph glyph-name="ucircumflex" unicode="&#xfb;" horiz-adv-x="1316" 
d="M729 1290l-76 76l-75 -76h-302l377 367l377 -367h-301zM881 0v121q-128 -152 -344 -152q-198 0 -311 130t-113 386v689h327v-648q0 -132 56.5 -197t148.5 -65q99 0 160 64.5t61 197.5v648h328v-1174h-313z" />
    <glyph glyph-name="udieresis" unicode="&#xfc;" horiz-adv-x="1316" 
d="M1001 1587v-297h-296v297h296zM602 1587v-297h-297v297h297zM881 0v121q-128 -152 -344 -152q-198 0 -311 130t-113 386v689h327v-648q0 -132 56.5 -197t148.5 -65q99 0 160 64.5t61 197.5v648h328v-1174h-313z" />
    <glyph glyph-name="yacute" unicode="&#xfd;" horiz-adv-x="1290" 
d="M1010 1618l-246 -328h-285l164 328h367zM797 -512h-324v487l-453 1199h351l276 -789l297 789h326l-473 -1197v-489z" />
    <glyph glyph-name="thorn" unicode="&#xfe;" 
d="M750 909q-124 0 -211.5 -92.5t-87.5 -230.5t87 -230t212 -92q128 0 214.5 91.5t86.5 230.5q0 138 -86.5 230.5t-214.5 92.5zM795 -31q-224 0 -344 162v-643h-328v2048h328v-494q120 162 344 162q120 0 228.5 -46.5t188.5 -127t127 -196.5t47 -248t-47 -247.5t-127 -196
t-188.5 -127t-228.5 -46.5z" />
    <glyph glyph-name="ydieresis" unicode="&#xff;" horiz-adv-x="1290" 
d="M1001 1587v-297h-296v297h296zM602 1587v-297h-297v297h297zM797 -512h-324v487l-453 1199h351l276 -789l297 789h326l-473 -1197v-489z" />
    <glyph glyph-name="Amacron" unicode="&#x100;" horiz-adv-x="1617" 
d="M1141 1931v-245h-664v245h664zM981 500l-180 397l-180 -397h360zM1204 0l-90 203h-627l-92 -203h-364l778 1577l778 -1577h-383z" />
    <glyph glyph-name="amacron" unicode="&#x101;" 
d="M1049 1536v-246h-664v246h664zM709 264q125 0 212 92.5t87 233.5q0 136 -87.5 227.5t-211.5 91.5q-128 0 -214.5 -91t-86.5 -228q0 -140 86.5 -233t214.5 -93zM1022 0v154q-120 -185 -358 -185q-120 0 -228.5 46t-188.5 127t-127.5 197.5t-47.5 250.5q0 131 47.5 246
t127.5 195t189 126.5t228 46.5q238 0 358 -182v152h313v-1174h-313z" />
    <glyph glyph-name="Abreve" unicode="&#x102;" horiz-adv-x="1617" 
d="M809 1655q-145 0 -230 76.5t-85 220.5v61h225v-61q0 -88 90 -88t90 88v61h225v-61q0 -144 -85 -220.5t-230 -76.5zM981 500l-180 397l-180 -397h360zM1204 0l-90 203h-627l-92 -203h-364l778 1577l778 -1577h-383z" />
    <glyph glyph-name="abreve" unicode="&#x103;" 
d="M717 1260q-145 0 -230.5 76t-85.5 220v62h226v-62q0 -88 90 -88t90 88v62h225v-62q0 -144 -85 -220t-230 -76zM709 264q125 0 212 92.5t87 233.5q0 136 -87.5 227.5t-211.5 91.5q-128 0 -214.5 -91t-86.5 -228q0 -140 86.5 -233t214.5 -93zM1022 0v154
q-120 -185 -358 -185q-120 0 -228.5 46t-188.5 127t-127.5 197.5t-47.5 250.5q0 131 47.5 246t127.5 195t189 126.5t228 46.5q238 0 358 -182v152h313v-1174h-313z" />
    <glyph glyph-name="Aogonek" unicode="&#x104;" horiz-adv-x="1617" 
d="M981 500l-180 397l-180 -397h360zM1425 -195v-221h-4q-162 0 -254 65t-92 169q0 126 125 192l-86 193h-627l-92 -203h-364l778 1577l778 -1577h-166q-43 0 -72.5 -27t-29.5 -69q0 -48 28.5 -73.5t73.5 -25.5h4z" />
    <glyph glyph-name="aogonek" unicode="&#x105;" 
d="M709 264q125 0 212 92.5t87 233.5q0 136 -87.5 227.5t-211.5 91.5q-128 0 -214.5 -91t-86.5 -228q0 -140 86.5 -233t214.5 -93zM1243 -195v-221h-4q-162 0 -254 65t-92 169q0 130 129 194v142q-120 -185 -358 -185q-120 0 -228.5 46t-188.5 127t-127.5 197.5t-47.5 250.5
q0 131 47.5 246t127.5 195t189 126.5t228 46.5q238 0 358 -182v152h313v-1174h-96q-43 0 -72.5 -27t-29.5 -69q0 -48 28.5 -73.5t73.5 -25.5h4z" />
    <glyph glyph-name="Cacute" unicode="&#x106;" horiz-adv-x="1492" 
d="M1221 2013l-246 -327h-285l164 327h367zM932 -41q-258 0 -451 100t-296 281.5t-103 419.5q0 167 63.5 317.5t173.5 260.5t266 174.5t333 64.5q265 0 473 -117v-352q-228 154 -476 154q-222 0 -349.5 -141t-127.5 -363q0 -221 133 -352.5t359 -131.5q124 0 226.5 28
t234.5 101v-337q-83 -45 -201.5 -76t-257.5 -31z" />
    <glyph glyph-name="cacute" unicode="&#x107;" horiz-adv-x="1146" 
d="M1034 1618l-246 -328h-284l164 328h366zM678 -31q-122 0 -233 46t-193.5 127t-131 197.5t-48.5 250.5q0 174 85.5 315.5t228.5 220t312 78.5q214 0 357 -80v-321q-152 106 -326 106q-149 0 -235 -89t-86 -230q0 -152 90.5 -239t230.5 -87q88 0 154.5 19t156.5 63v-309
q-56 -28 -151.5 -48t-210.5 -20z" />
    <glyph glyph-name="Ccircumflex" unicode="&#x108;" horiz-adv-x="1492" 
d="M909 1686l-75 75l-76 -75h-301l377 366l376 -366h-301zM932 -41q-258 0 -451 100t-296 281.5t-103 419.5q0 167 63.5 317.5t173.5 260.5t266 174.5t333 64.5q265 0 473 -117v-352q-228 154 -476 154q-222 0 -349.5 -141t-127.5 -363q0 -221 133 -352.5t359 -131.5
q124 0 226.5 28t234.5 101v-337q-83 -45 -201.5 -76t-257.5 -31z" />
    <glyph glyph-name="ccircumflex" unicode="&#x109;" horiz-adv-x="1146" 
d="M723 1290l-76 76l-76 -76h-301l377 367l377 -367h-301zM678 -31q-122 0 -233 46t-193.5 127t-131 197.5t-48.5 250.5q0 174 85.5 315.5t228.5 220t312 78.5q214 0 357 -80v-321q-152 106 -326 106q-149 0 -235 -89t-86 -230q0 -152 90.5 -239t230.5 -87q88 0 154.5 19
t156.5 63v-309q-56 -28 -151.5 -48t-210.5 -20z" />
    <glyph glyph-name="Cdotaccent" unicode="&#x10a;" horiz-adv-x="1492" 
d="M997 1686h-327v327h327v-327zM932 -41q-258 0 -451 100t-296 281.5t-103 419.5q0 167 63.5 317.5t173.5 260.5t266 174.5t333 64.5q265 0 473 -117v-352q-228 154 -476 154q-222 0 -349.5 -141t-127.5 -363q0 -221 133 -352.5t359 -131.5q124 0 226.5 28t234.5 101v-337
q-83 -45 -201.5 -76t-257.5 -31z" />
    <glyph glyph-name="cdotaccent" unicode="&#x10b;" horiz-adv-x="1146" 
d="M811 1290h-328v328h328v-328zM678 -31q-122 0 -233 46t-193.5 127t-131 197.5t-48.5 250.5q0 174 85.5 315.5t228.5 220t312 78.5q214 0 357 -80v-321q-152 106 -326 106q-149 0 -235 -89t-86 -230q0 -152 90.5 -239t230.5 -87q88 0 154.5 19t156.5 63v-309
q-56 -28 -151.5 -48t-210.5 -20z" />
    <glyph glyph-name="Ccaron" unicode="&#x10c;" horiz-adv-x="1492" 
d="M834 1647l-377 366h301l76 -76l75 76h301zM932 -41q-258 0 -451 100t-296 281.5t-103 419.5q0 167 63.5 317.5t173.5 260.5t266 174.5t333 64.5q265 0 473 -117v-352q-228 154 -476 154q-222 0 -349.5 -141t-127.5 -363q0 -221 133 -352.5t359 -131.5q124 0 226.5 28
t234.5 101v-337q-83 -45 -201.5 -76t-257.5 -31z" />
    <glyph glyph-name="ccaron" unicode="&#x10d;" horiz-adv-x="1146" 
d="M647 1251l-377 367h301l76 -76l76 76h301zM678 -31q-122 0 -233 46t-193.5 127t-131 197.5t-48.5 250.5q0 174 85.5 315.5t228.5 220t312 78.5q214 0 357 -80v-321q-152 106 -326 106q-149 0 -235 -89t-86 -230q0 -152 90.5 -239t230.5 -87q88 0 154.5 19t156.5 63v-309
q-56 -28 -151.5 -48t-210.5 -20z" />
    <glyph glyph-name="Dcaron" unicode="&#x10e;" horiz-adv-x="1396" 
d="M678 1647l-377 366h301l76 -76l76 76h301zM143 0v1327l-82 209h445q178 0 330.5 -60.5t256.5 -164t163 -244t59 -297.5q0 -158 -59 -299t-163 -245t-256.5 -165t-330.5 -61h-363zM481 307h25q214 0 337.5 130.5t123.5 332.5q0 201 -123.5 330t-337.5 129h-25v-922z" />
    <glyph glyph-name="dcaron" unicode="&#x10f;" horiz-adv-x="1740" 
d="M1741 1536l-41 -410h-266v410h307zM709 264q125 0 212 92.5t87 233.5q0 136 -87.5 227.5t-211.5 91.5q-128 0 -214.5 -91t-86.5 -228q0 -140 86.5 -233t214.5 -93zM1022 0v154q-120 -185 -358 -185q-120 0 -228.5 46t-188.5 127t-127.5 197.5t-47.5 250.5q0 131 47.5 246
t127.5 195t189 126.5t228 46.5q224 0 344 -162v494h327v-1536h-313z" />
    <glyph glyph-name="Dcroat" unicode="&#x110;" horiz-adv-x="1417" 
d="M526 0h-362v631h-144v276h144v420l-82 209h444q178 0 330.5 -60.5t256.5 -164t163 -244t59 -297.5q0 -158 -59 -299t-163 -245t-256.5 -165t-330.5 -61zM502 307h24q214 0 337.5 130.5t123.5 332.5q0 201 -123.5 330t-337.5 129h-24v-322h211v-276h-211v-324z" />
    <glyph glyph-name="dcroat" unicode="&#x111;" 
d="M709 264q125 0 212 92.5t87 233.5q0 136 -87.5 227.5t-211.5 91.5q-128 0 -214.5 -91t-86.5 -228q0 -140 86.5 -233t214.5 -93zM1022 0v154q-120 -185 -358 -185q-120 0 -228.5 46t-188.5 127t-127.5 197.5t-47.5 250.5q0 131 47.5 246t127.5 195t189 126.5t228 46.5
q224 0 344 -162v228h-238v164h238v102h327v-102h99v-164h-99v-1270h-313z" />
    <glyph glyph-name="Emacron" unicode="&#x112;" horiz-adv-x="864" 
d="M729 1931v-245h-663v245h663zM143 0v1327l-82 209h680v-289h-270v-422h270v-288h-270v-248h270v-289h-598z" />
    <glyph glyph-name="emacron" unicode="&#x113;" horiz-adv-x="1277" 
d="M999 1536v-246h-663v246h663zM668 913q-95 0 -158 -50.5t-88 -147.5h459q-4 96 -63.5 147t-149.5 51zM1120 49q-160 -80 -372 -80q-314 0 -495 165.5t-181 445.5q0 170 78 312.5t218.5 227t313.5 84.5q166 0 289 -78.5t181.5 -223.5t37.5 -331l-10 -90h-762
q26 -105 110 -162t217 -57q212 0 375 66v-279z" />
    <glyph glyph-name="Ebreve" unicode="&#x114;" horiz-adv-x="864" 
d="M397 1655q-145 0 -230 76.5t-85 220.5v61h225v-61q0 -88 90 -88t90 88v61h226v-61q0 -144 -85.5 -220.5t-230.5 -76.5zM143 0v1327l-82 209h680v-289h-270v-422h270v-288h-270v-248h270v-289h-598z" />
    <glyph glyph-name="ebreve" unicode="&#x115;" horiz-adv-x="1277" 
d="M668 1260q-145 0 -230.5 76t-85.5 220v62h226v-62q0 -88 90 -88t90 88v62h225v-62q0 -144 -85 -220t-230 -76zM668 913q-95 0 -158 -50.5t-88 -147.5h459q-4 96 -63.5 147t-149.5 51zM1120 49q-160 -80 -372 -80q-314 0 -495 165.5t-181 445.5q0 170 78 312.5t218.5 227
t313.5 84.5q166 0 289 -78.5t181.5 -223.5t37.5 -331l-10 -90h-762q26 -105 110 -162t217 -57q212 0 375 66v-279z" />
    <glyph glyph-name="Edotaccent" unicode="&#x116;" horiz-adv-x="864" 
d="M561 1686h-328v327h328v-327zM143 0v1327l-82 209h680v-289h-270v-422h270v-288h-270v-248h270v-289h-598z" />
    <glyph glyph-name="edotaccent" unicode="&#x117;" horiz-adv-x="1277" 
d="M831 1290h-327v328h327v-328zM668 913q-95 0 -158 -50.5t-88 -147.5h459q-4 96 -63.5 147t-149.5 51zM1120 49q-160 -80 -372 -80q-314 0 -495 165.5t-181 445.5q0 170 78 312.5t218.5 227t313.5 84.5q166 0 289 -78.5t181.5 -223.5t37.5 -331l-10 -90h-762
q26 -105 110 -162t217 -57q212 0 375 66v-279z" />
    <glyph glyph-name="Eogonek" unicode="&#x118;" horiz-adv-x="864" 
d="M700 -195v-221h-4q-162 0 -254 65t-92 169q0 116 107 182h-314v1327l-82 209h680v-289h-270v-422h270v-288h-270v-248h270v-289h-45q-43 0 -72.5 -27t-29.5 -69q0 -48 28.5 -73.5t73.5 -25.5h4z" />
    <glyph glyph-name="eogonek" unicode="&#x119;" horiz-adv-x="1277" 
d="M668 913q-95 0 -158 -50.5t-88 -147.5h459q-4 95 -63.5 146.5t-149.5 51.5zM969 -195v-221h-4q-162 0 -254.5 62t-92.5 161q0 103 93 162q-298 10 -468.5 175t-170.5 436q0 170 78 312.5t218.5 227t313.5 84.5q166 0 289 -78.5t181.5 -223.5t37.5 -331l-10 -90h-762
q26 -105 110 -162t217 -57q212 0 375 66v-279q-91 -42 -170 -57q-88 -25 -88 -98q0 -43 29 -66t74 -23h4z" />
    <glyph glyph-name="Ecaron" unicode="&#x11a;" horiz-adv-x="864" 
d="M397 1647l-377 366h302l75 -76l76 76h301zM143 0v1327l-82 209h680v-289h-270v-422h270v-288h-270v-248h270v-289h-598z" />
    <glyph glyph-name="ecaron" unicode="&#x11b;" horiz-adv-x="1277" 
d="M668 1251l-377 367h301l76 -76l75 76h301zM668 913q-95 0 -158 -50.5t-88 -147.5h459q-4 96 -63.5 147t-149.5 51zM1120 49q-160 -80 -372 -80q-314 0 -495 165.5t-181 445.5q0 170 78 312.5t218.5 227t313.5 84.5q166 0 289 -78.5t181.5 -223.5t37.5 -331l-10 -90h-762
q26 -105 110 -162t217 -57q212 0 375 66v-279z" />
    <glyph glyph-name="Gcircumflex" unicode="&#x11c;" horiz-adv-x="1523" 
d="M920 1686l-76 75l-76 -75h-301l377 366l377 -366h-301zM1411 76q-88 -47 -225 -82t-275 -35q-189 0 -344.5 58t-262 162.5t-164.5 253.5t-58 327q0 167 63.5 317.5t173.5 260.5t266 174.5t333 64.5q265 0 473 -117v-352q-228 154 -476 154q-147 0 -256.5 -66.5t-165 -180
t-55.5 -257.5q0 -219 127.5 -351.5t343.5 -132.5q89 0 174 15v489h328v-702z" />
    <glyph glyph-name="gcircumflex" unicode="&#x11d;" 
d="M793 1290l-76 76l-76 -76h-301l377 367l377 -367h-301zM709 264q125 0 212 92.5t87 233.5q0 136 -87.5 227.5t-211.5 91.5q-128 0 -214.5 -91t-86.5 -228q0 -140 86.5 -233t214.5 -93zM657 -543q-203 0 -360 45v283q157 -45 334 -45q194 0 292.5 84t98.5 282v48
q-120 -185 -358 -185q-120 0 -228.5 46t-188.5 127t-127.5 197.5t-47.5 250.5q0 131 47.5 246t127.5 195t189 126.5t228 46.5q238 0 358 -182v152h313v-1024q0 -333 -175.5 -513t-502.5 -180z" />
    <glyph glyph-name="Gbreve" unicode="&#x11e;" horiz-adv-x="1523" 
d="M844 1655q-145 0 -230.5 76.5t-85.5 220.5v61h226v-61q0 -88 90 -88t90 88v61h225v-61q0 -144 -85 -220.5t-230 -76.5zM1411 76q-88 -47 -225 -82t-275 -35q-189 0 -344.5 58t-262 162.5t-164.5 253.5t-58 327q0 167 63.5 317.5t173.5 260.5t266 174.5t333 64.5
q265 0 473 -117v-352q-228 154 -476 154q-147 0 -256.5 -66.5t-165 -180t-55.5 -257.5q0 -219 127.5 -351.5t343.5 -132.5q89 0 174 15v489h328v-702z" />
    <glyph glyph-name="gbreve" unicode="&#x11f;" 
d="M717 1260q-145 0 -230.5 76t-85.5 220v62h226v-62q0 -88 90 -88t90 88v62h225v-62q0 -144 -85 -220t-230 -76zM709 264q125 0 212 92.5t87 233.5q0 136 -87.5 227.5t-211.5 91.5q-128 0 -214.5 -91t-86.5 -228q0 -140 86.5 -233t214.5 -93zM657 -543q-203 0 -360 45v283
q157 -45 334 -45q194 0 292.5 84t98.5 282v48q-120 -185 -358 -185q-120 0 -228.5 46t-188.5 127t-127.5 197.5t-47.5 250.5q0 131 47.5 246t127.5 195t189 126.5t228 46.5q238 0 358 -182v152h313v-1024q0 -333 -175.5 -513t-502.5 -180z" />
    <glyph glyph-name="Gdotaccent" unicode="&#x120;" horiz-adv-x="1523" 
d="M1008 1686h-328v327h328v-327zM1411 76q-88 -47 -225 -82t-275 -35q-189 0 -344.5 58t-262 162.5t-164.5 253.5t-58 327q0 167 63.5 317.5t173.5 260.5t266 174.5t333 64.5q265 0 473 -117v-352q-228 154 -476 154q-147 0 -256.5 -66.5t-165 -180t-55.5 -257.5
q0 -219 127.5 -351.5t343.5 -132.5q89 0 174 15v489h328v-702z" />
    <glyph glyph-name="gdotaccent" unicode="&#x121;" 
d="M881 1290h-328v328h328v-328zM709 264q125 0 212 92.5t87 233.5q0 136 -87.5 227.5t-211.5 91.5q-128 0 -214.5 -91t-86.5 -228q0 -140 86.5 -233t214.5 -93zM657 -543q-203 0 -360 45v283q157 -45 334 -45q194 0 292.5 84t98.5 282v48q-120 -185 -358 -185
q-120 0 -228.5 46t-188.5 127t-127.5 197.5t-47.5 250.5q0 131 47.5 246t127.5 195t189 126.5t228 46.5q238 0 358 -182v152h313v-1024q0 -333 -175.5 -513t-502.5 -180z" />
    <glyph glyph-name="Gcommaaccent" unicode="&#x122;" horiz-adv-x="1523" 
d="M1411 76q-88 -47 -225 -82t-275 -35q-189 0 -344.5 58t-262 162.5t-164.5 253.5t-58 327q0 167 63.5 317.5t173.5 260.5t266 174.5t333 64.5q265 0 473 -117v-352q-228 154 -476 154q-147 0 -256.5 -66.5t-165 -180t-55.5 -257.5q0 -219 127.5 -351.5t343.5 -132.5
q89 0 174 15v489h328v-702zM971 -143l-80 -430h-254l29 430h305z" />
    <glyph glyph-name="gcommaaccent" unicode="&#x123;" 
d="M510 1290l80 430h254l-29 -430h-305zM709 264q125 0 212 92.5t87 233.5q0 136 -87.5 227.5t-211.5 91.5q-128 0 -214.5 -91t-86.5 -228q0 -140 86.5 -233t214.5 -93zM657 -543q-203 0 -360 45v283q157 -45 334 -45q194 0 292.5 84t98.5 282v48q-120 -185 -358 -185
q-120 0 -228.5 46t-188.5 127t-127.5 197.5t-47.5 250.5q0 131 47.5 246t127.5 195t189 126.5t228 46.5q238 0 358 -182v152h313v-1024q0 -333 -175.5 -513t-502.5 -180z" />
    <glyph glyph-name="Hcircumflex" unicode="&#x124;" horiz-adv-x="1437" 
d="M795 1686l-76 75l-76 -75h-301l377 366l377 -366h-301zM956 721v815h338v-1536h-338v414h-475v-414h-338v1536h338v-815h475z" />
    <glyph glyph-name="hcircumflex" unicode="&#x125;" horiz-adv-x="1327" 
d="M731 1686l-76 75l-75 -75h-301l376 366l377 -366h-301zM451 647v-647h-328v1536h328v-473q126 141 342 141q195 0 308 -130t113 -384v-690h-331v647q0 132 -57 197t-150 65q-100 0 -162.5 -64.5t-62.5 -197.5z" />
    <glyph glyph-name="Hbar" unicode="&#x126;" horiz-adv-x="1478" 
d="M502 721h475v303h-475v-303zM502 414v-414h-338v1024h-144v246h144v266h338v-266h475v266h338v-266h143v-246h-143v-1024h-338v414h-475z" />
    <glyph glyph-name="hbar" unicode="&#x127;" horiz-adv-x="1327" 
d="M451 647v-647h-328v1270h-123v164h123v102h328v-102h213v-164h-213v-207q126 141 342 141q195 0 308 -130t113 -384v-690h-331v647q0 132 -57 197t-150 65q-100 0 -162.5 -64.5t-62.5 -197.5z" />
    <glyph glyph-name="Itilde" unicode="&#x128;" horiz-adv-x="624" 
d="M428 1903q31 0 31 41v77h200v-123q0 -111 -47 -175t-135 -64q-50 0 -108 30t-104 59.5t-68 29.5q-33 0 -33 -41v-78h-201v123q0 109 53 174t142 65q39 0 83.5 -18.5t76 -40.5t63 -40.5t47.5 -18.5zM481 1536v-1536h-338v1536h338z" />
    <glyph glyph-name="itilde" unicode="&#x129;" horiz-adv-x="573" 
d="M403 1507q31 0 31 41v78h201v-123q0 -111 -47 -175t-135 -64q-50 0 -108 29.5t-104.5 59t-68.5 29.5q-33 0 -33 -41v-77h-200v122q0 109 52.5 174.5t141.5 65.5q50 0 106.5 -30t100.5 -59.5t63 -29.5zM451 0h-328v1174h328v-1174z" />
    <glyph glyph-name="Imacron" unicode="&#x12a;" horiz-adv-x="624" 
d="M643 1931v-245h-663v245h663zM481 1536v-1536h-338v1536h338z" />
    <glyph glyph-name="imacron" unicode="&#x12b;" horiz-adv-x="573" 
d="M618 1536v-246h-663v246h663zM451 0h-328v1174h328v-1174z" />
    <glyph glyph-name="Ibreve" unicode="&#x12c;" horiz-adv-x="624" 
d="M313 1655q-145 0 -230 76.5t-85 220.5v61h225v-61q0 -88 90 -88t90 88v61h226v-61q0 -144 -85.5 -220.5t-230.5 -76.5zM481 1536v-1536h-338v1536h338z" />
    <glyph glyph-name="ibreve" unicode="&#x12d;" horiz-adv-x="573" 
d="M287 1260q-145 0 -230.5 76t-85.5 220v62h226v-62q0 -88 90 -88t90 88v62h225v-62q0 -144 -85 -220t-230 -76zM451 0h-328v1174h328v-1174z" />
    <glyph glyph-name="Iogonek" unicode="&#x12e;" horiz-adv-x="624" 
d="M342 -195v-221h-4q-162 0 -254 65t-92 169q0 67 38.5 121t112.5 84v1513h338v-1536h-143q-43 0 -72.5 -27t-29.5 -69q0 -48 28.5 -73.5t73.5 -25.5h4z" />
    <glyph glyph-name="iogonek" unicode="&#x12f;" horiz-adv-x="573" 
d="M123 1286v250h326v-250h-326zM453 -195v-221h-4q-162 0 -254.5 65t-94.5 169q0 117 109 182h-86v1174h328v-1119h2v-55h-4q-43 0 -73 -27t-30 -69q0 -48 29 -73.5t74 -25.5h4z" />
    <glyph glyph-name="Idotaccent" unicode="&#x130;" horiz-adv-x="624" 
d="M475 1686h-328v327h328v-327zM481 1536v-1536h-338v1536h338z" />
    <glyph glyph-name="dotlessi" unicode="&#x131;" horiz-adv-x="573" 
d="M451 0h-328v1174h328v-1174z" />
    <glyph glyph-name="IJ" unicode="&#x132;" horiz-adv-x="1441" 
d="M858 0h-233v289h188q78 0 118 35.5t40 126.5v778h-326v307h664v-1085q0 -218 -118 -334.5t-333 -116.5zM481 1536v-1536h-338v1536h338z" />
    <glyph glyph-name="ij" unicode="&#x133;" horiz-adv-x="1140" 
d="M690 1286v250h326v-250h-326zM123 1286v250h326v-250h-326zM434 -512v272h53q106 0 154.5 45t48.5 158v1211h328v-1211q0 -228 -127.5 -351.5t-358.5 -123.5h-98zM451 1174v-1174h-328v1174h328z" />
    <glyph glyph-name="Jcircumflex" unicode="&#x134;" horiz-adv-x="899" 
d="M672 1686l-76 75l-76 -75h-301l377 366l377 -366h-301zM315 0h-233v289h188q78 0 118 35.5t40 126.5v778h-326v307h664v-1085q0 -218 -118 -334.5t-333 -116.5z" />
    <glyph glyph-name="jcircumflex" unicode="&#x135;" horiz-adv-x="573" 
d="M358 1290l-75 76l-76 -76h-301l377 367l376 -367h-301zM-133 -512v272h53q106 0 154.5 45t48.5 158v1211h328v-1211q0 -228 -127.5 -351.5t-358.5 -123.5h-98z" />
    <glyph glyph-name="Kcommaaccent" unicode="&#x136;" horiz-adv-x="1304" 
d="M852 0l-371 524v-524h-338v1536h338v-973l422 973h361l-424 -954l415 -582h-403zM784 -143l-79 -430h-254l28 430h305z" />
    <glyph glyph-name="kcommaaccent" unicode="&#x137;" horiz-adv-x="1198" 
d="M811 0l-360 530v-530h-328v1536h328v-979l378 617h338l-370 -607l391 -567h-377zM702 -143l-79 -430h-254l28 430h305z" />
    <glyph glyph-name="Lacute" unicode="&#x139;" horiz-adv-x="833" 
d="M698 2013l-245 -327h-285l164 327h366zM481 1536v-1247h260v-289h-598v1536h338z" />
    <glyph glyph-name="lacute" unicode="&#x13a;" horiz-adv-x="573" 
d="M670 2013l-246 -327h-285l164 327h367zM451 0h-328v1536h328v-1536z" />
    <glyph glyph-name="Lcommaaccent" unicode="&#x13b;" horiz-adv-x="833" 
d="M481 1536v-1247h260v-289h-598v1536h338zM590 -143l-80 -430h-254l29 430h305z" />
    <glyph glyph-name="lcommaaccent" unicode="&#x13c;" horiz-adv-x="573" 
d="M451 0h-328v1536h328v-1536zM430 -143l-80 -430h-254l29 430h305z" />
    <glyph glyph-name="Lcaron" unicode="&#x13d;" horiz-adv-x="878" 
d="M879 1536l-41 -410h-267v410h308zM481 1536v-1247h260v-289h-598v1536h338z" />
    <glyph glyph-name="lcaron" unicode="&#x13e;" horiz-adv-x="874" 
d="M874 1536l-40 -410h-267v410h307zM451 0h-328v1536h328v-1536z" />
    <glyph glyph-name="Ldot" unicode="&#x13f;" horiz-adv-x="964" 
d="M481 1536v-1247h260v-289h-598v1536h338zM995 963v-369h-399v369h399z" />
    <glyph glyph-name="ldot" unicode="&#x140;" horiz-adv-x="966" 
d="M451 0h-328v1536h328v-1536zM967 963v-369h-400v369h400z" />
    <glyph glyph-name="Lslash" unicode="&#x141;" horiz-adv-x="854" 
d="M762 0h-598v586l-144 -56v308l144 55v643h338v-512l160 61v-307l-160 -61v-428h260v-289z" />
    <glyph glyph-name="lslash" unicode="&#x142;" horiz-adv-x="614" 
d="M471 0h-328v438l-102 -37v285l102 37v813h328v-692l102 37v-283l-102 -37v-561z" />
    <glyph glyph-name="Nacute" unicode="&#x143;" horiz-adv-x="1396" 
d="M1044 2013l-245 -327h-285l164 327h366zM479 756v-756h-336v1577l775 -838v797h335v-1577z" />
    <glyph glyph-name="nacute" unicode="&#x144;" horiz-adv-x="1323" 
d="M1042 1618l-245 -328h-285l164 328h366zM451 647v-647h-328v1174h313v-123q129 153 350 153q196 0 310 -130.5t114 -383.5v-690h-327v647q0 132 -57 197t-150 65q-100 0 -162.5 -64.5t-62.5 -197.5z" />
    <glyph glyph-name="Ncommaaccent" unicode="&#x145;" horiz-adv-x="1396" 
d="M479 756v-756h-336v1577l775 -838v797h335v-1577zM784 -143l-79 -430h-254l28 430h305z" />
    <glyph glyph-name="ncommaaccent" unicode="&#x146;" horiz-adv-x="1323" 
d="M451 647v-647h-328v1174h313v-123q129 153 350 153q196 0 310 -130.5t114 -383.5v-690h-327v647q0 132 -57 197t-150 65q-100 0 -162.5 -64.5t-62.5 -197.5zM782 -143l-80 -430h-253l28 430h305z" />
    <glyph glyph-name="Ncaron" unicode="&#x147;" horiz-adv-x="1396" 
d="M657 1647l-376 366h301l75 -76l76 76h301zM479 756v-756h-336v1577l775 -838v797h335v-1577z" />
    <glyph glyph-name="ncaron" unicode="&#x148;" horiz-adv-x="1323" 
d="M655 1251l-376 367h301l75 -76l76 76h301zM451 647v-647h-328v1174h313v-123q129 153 350 153q196 0 310 -130.5t114 -383.5v-690h-327v647q0 132 -57 197t-150 65q-100 0 -162.5 -64.5t-62.5 -197.5z" />
    <glyph glyph-name="Omacron" unicode="&#x14c;" horiz-adv-x="1781" 
d="M1202 1931v-245h-663v245h663zM891 -41q-164 0 -314 64.5t-258.5 173.5t-172.5 259t-64 314q0 218 108.5 404t295 294.5t405.5 108.5q218 0 404.5 -108.5t295.5 -294.5t109 -404q0 -219 -109 -406t-295.5 -296t-404.5 -109zM891 272q124 0 228 65t165.5 179.5t61.5 253.5
q0 209 -133 351.5t-322 142.5q-191 0 -323 -142t-132 -352t132 -354t323 -144z" />
    <glyph glyph-name="omacron" unicode="&#x14d;" horiz-adv-x="1415" 
d="M1028 1536v-246h-663v246h663zM709 -31q-172 0 -319 83.5t-232.5 226.5t-85.5 311q0 166 85.5 307.5t232.5 224t319 82.5q171 0 317 -82.5t231.5 -224t85.5 -307.5q0 -168 -85.5 -311t-231.5 -226.5t-317 -83.5zM709 264q125 0 212 92.5t87 233.5q0 138 -87 228.5
t-212 90.5q-128 0 -214.5 -90.5t-86.5 -228.5q0 -140 86.5 -233t214.5 -93z" />
    <glyph glyph-name="Obreve" unicode="&#x14e;" horiz-adv-x="1781" 
d="M870 1655q-145 0 -230 76.5t-85 220.5v61h225v-61q0 -88 90 -88q91 0 91 88v61h225v-61q0 -144 -85.5 -220.5t-230.5 -76.5zM891 -41q-164 0 -314 64.5t-258.5 173.5t-172.5 259t-64 314q0 218 108.5 404t295 294.5t405.5 108.5q218 0 404.5 -108.5t295.5 -294.5
t109 -404q0 -219 -109 -406t-295.5 -296t-404.5 -109zM891 272q124 0 228 65t165.5 179.5t61.5 253.5q0 209 -133 351.5t-322 142.5q-191 0 -323 -142t-132 -352t132 -354t323 -144z" />
    <glyph glyph-name="obreve" unicode="&#x14f;" horiz-adv-x="1415" 
d="M696 1260q-145 0 -230 76t-85 220v62h225v-62q0 -88 90 -88t90 88v62h226v-62q0 -144 -85.5 -220t-230.5 -76zM709 -31q-172 0 -319 83.5t-232.5 226.5t-85.5 311q0 166 85.5 307.5t232.5 224t319 82.5q171 0 317 -82.5t231.5 -224t85.5 -307.5q0 -168 -85.5 -311
t-231.5 -226.5t-317 -83.5zM709 264q125 0 212 92.5t87 233.5q0 138 -87 228.5t-212 90.5q-128 0 -214.5 -90.5t-86.5 -228.5q0 -140 86.5 -233t214.5 -93z" />
    <glyph glyph-name="Ohungarumlaut" unicode="&#x150;" horiz-adv-x="1781" 
d="M1350 2013l-179 -327h-276l137 327h318zM973 2013l-178 -327h-277l137 327h318zM891 -41q-164 0 -314 64.5t-258.5 173.5t-172.5 259t-64 314q0 218 108.5 404t295 294.5t405.5 108.5q218 0 404.5 -108.5t295.5 -294.5t109 -404q0 -219 -109 -406t-295.5 -296
t-404.5 -109zM891 272q124 0 228 65t165.5 179.5t61.5 253.5q0 209 -133 351.5t-322 142.5q-191 0 -323 -142t-132 -352t132 -354t323 -144z" />
    <glyph glyph-name="ohungarumlaut" unicode="&#x151;" horiz-adv-x="1415" 
d="M1176 1618l-179 -328h-276l137 328h318zM799 1618l-178 -328h-277l137 328h318zM709 -31q-172 0 -319 83.5t-232.5 226.5t-85.5 311q0 166 85.5 307.5t232.5 224t319 82.5q171 0 317 -82.5t231.5 -224t85.5 -307.5q0 -168 -85.5 -311t-231.5 -226.5t-317 -83.5zM709 264
q125 0 212 92.5t87 233.5q0 138 -87 228.5t-212 90.5q-128 0 -214.5 -90.5t-86.5 -228.5q0 -140 86.5 -233t214.5 -93z" />
    <glyph glyph-name="OE" unicode="&#x152;" horiz-adv-x="2068" 
d="M893 279q188 0 320.5 142t132.5 349q0 205 -132.5 346t-320.5 141q-190 0 -320.5 -140.5t-130.5 -346.5q0 -207 131 -349t320 -142zM1348 0v121q-179 -162 -457 -162q-164 0 -314 64.5t-258.5 173.5t-172.5 259t-64 314q0 218 108.5 404t295 294.5t405.5 108.5
q276 0 457 -160v119h598v-289h-271v-422h271v-288h-271v-248h271v-289h-598z" />
    <glyph glyph-name="oe" unicode="&#x153;" horiz-adv-x="2215" 
d="M1606 913q-95 0 -158 -50.5t-88 -147.5h459q-4 96 -63.5 147t-149.5 51zM709 264q125 0 212 92.5t87 233.5q0 136 -87.5 227.5t-211.5 91.5q-128 0 -214.5 -91t-86.5 -228q0 -140 86.5 -233t214.5 -93zM2058 49q-160 -80 -372 -80q-336 0 -521 191q-90 -90 -207.5 -140.5
t-248.5 -50.5q-172 0 -319 83.5t-232.5 226.5t-85.5 311q0 165 85.5 306.5t232.5 224.5t319 83q134 0 253 -51.5t209 -142.5q84 91 199.5 142.5t249.5 51.5q166 0 289 -78.5t181.5 -223.5t37.5 -331l-10 -90h-762q26 -105 110 -162t217 -57q212 0 375 66v-279z" />
    <glyph glyph-name="Racute" unicode="&#x154;" horiz-adv-x="1193" 
d="M944 2013l-246 -327h-284l164 327h366zM731 932q0 126 -72.5 208.5t-177.5 88.5v-611q104 8 177 93t73 221zM778 0l-176 346q-58 -18 -121 -27v-319h-338v1327l-82 209h316q320 0 509 -160.5t189 -429.5q0 -262 -186 -438l264 -508h-375z" />
    <glyph glyph-name="racute" unicode="&#x155;" horiz-adv-x="854" 
d="M809 1618l-246 -328h-284l163 328h367zM451 647v-647h-328v1174h313v-125q131 155 357 155v-327q-66 12 -117 12q-101 0 -163 -59.5t-62 -182.5z" />
    <glyph glyph-name="Rcommaaccent" unicode="&#x156;" horiz-adv-x="1193" 
d="M731 932q0 126 -72.5 208.5t-177.5 88.5v-611q104 8 177 93t73 221zM778 0l-176 346q-58 -18 -121 -27v-319h-338v1327l-82 209h316q320 0 509 -160.5t189 -429.5q0 -262 -186 -438l264 -508h-375zM745 -143l-79 -430h-254l28 430h305z" />
    <glyph glyph-name="rcommaaccent" unicode="&#x157;" horiz-adv-x="854" 
d="M451 647v-647h-328v1174h313v-125q131 155 357 155v-327q-66 12 -117 12q-101 0 -163 -59.5t-62 -182.5zM432 -143l-80 -430h-254l29 430h305z" />
    <glyph glyph-name="Rcaron" unicode="&#x158;" horiz-adv-x="1193" 
d="M557 1647l-377 366h301l76 -76l76 76h301zM731 932q0 126 -72.5 208.5t-177.5 88.5v-611q104 8 177 93t73 221zM778 0l-176 346q-58 -18 -121 -27v-319h-338v1327l-82 209h316q320 0 509 -160.5t189 -429.5q0 -262 -186 -438l264 -508h-375z" />
    <glyph glyph-name="rcaron" unicode="&#x159;" horiz-adv-x="854" 
d="M422 1251l-377 367h301l76 -76l76 76h301zM451 647v-647h-328v1174h313v-125q131 155 357 155v-327q-66 12 -117 12q-101 0 -163 -59.5t-62 -182.5z" />
    <glyph glyph-name="Sacute" unicode="&#x15a;" horiz-adv-x="819" 
d="M766 2013l-246 -327h-284l163 327h367zM727 1247h-82q-93 0 -143.5 -30.5t-50.5 -108.5q0 -44 28 -105.5t68 -127t80 -136t68 -152t28 -155.5q0 -203 -139 -317.5t-377 -114.5h-125v289h125q86 0 131 30.5t45 104.5q0 51 -28 117t-68 133t-80 136t-68 146t-28 144
q0 203 142 319.5t372 116.5h102v-289z" />
    <glyph glyph-name="sacute" unicode="&#x15b;" horiz-adv-x="968" 
d="M883 1618l-246 -328h-285l164 328h367zM406 -31q-190 0 -320 56v274q54 -25 135 -40t156 -15q114 0 155 23t41 69q0 29 -27 55.5t-70 49.5t-94.5 48t-103.5 57.5t-95 71.5t-70 97.5t-27 128.5q0 158 128.5 259t334.5 101q200 0 317 -57v-273q-121 56 -288 56
q-158 0 -158 -72q0 -22 27 -45t70 -46t95 -49.5t103.5 -62t94.5 -77.5t70 -103t27 -131q0 -172 -136 -273.5t-365 -101.5z" />
    <glyph glyph-name="Scircumflex" unicode="&#x15c;" horiz-adv-x="819" 
d="M455 1686l-76 75l-76 -75h-301l377 366l377 -366h-301zM727 1247h-82q-93 0 -143.5 -30.5t-50.5 -108.5q0 -44 28 -105.5t68 -127t80 -136t68 -152t28 -155.5q0 -203 -139 -317.5t-377 -114.5h-125v289h125q86 0 131 30.5t45 104.5q0 51 -28 117t-68 133t-80 136t-68 146
t-28 144q0 203 142 319.5t372 116.5h102v-289z" />
    <glyph glyph-name="scircumflex" unicode="&#x15d;" horiz-adv-x="968" 
d="M571 1290l-75 76l-76 -76h-301l377 367l376 -367h-301zM406 -31q-190 0 -320 56v274q54 -25 135 -40t156 -15q114 0 155 23t41 69q0 29 -27 55.5t-70 49.5t-94.5 48t-103.5 57.5t-95 71.5t-70 97.5t-27 128.5q0 158 128.5 259t334.5 101q200 0 317 -57v-273
q-121 56 -288 56q-158 0 -158 -72q0 -22 27 -45t70 -46t95 -49.5t103.5 -62t94.5 -77.5t70 -103t27 -131q0 -172 -136 -273.5t-365 -101.5z" />
    <glyph glyph-name="Scedilla" unicode="&#x15e;" horiz-adv-x="819" 
d="M506 -369h-303l33 369h-29h-125v289h125q86 0 131 30.5t45 104.5q0 51 -28 117t-68 133t-80 136t-68 146t-28 144q0 203 142 319.5t372 116.5h102v-289h-82q-93 0 -143.5 -30.5t-50.5 -108.5q0 -44 28 -105.5t68 -127t80 -136t68 -152t28 -155.5q0 -127 -56.5 -221.5
t-160.5 -147.5v-432z" />
    <glyph glyph-name="scedilla" unicode="&#x15f;" horiz-adv-x="968" 
d="M623 -369h-304l31 340q-153 6 -264 54v274q54 -25 135 -40t156 -15q114 0 155 23t41 69q0 29 -27 55.5t-70 49.5t-94.5 48t-103.5 57.5t-95 71.5t-70 97.5t-27 128.5q0 158 128.5 259t334.5 101q200 0 317 -57v-273q-121 56 -288 56q-158 0 -158 -72q0 -22 27 -45t70 -46
t95 -49.5t103.5 -62t94.5 -77.5t70 -103t27 -131q0 -125 -75 -215.5t-209 -130.5v-367z" />
    <glyph glyph-name="Scaron" unicode="&#x160;" horiz-adv-x="819" 
d="M377 1647l-377 366h301l76 -76l76 76h301zM727 1247h-82q-93 0 -143.5 -30.5t-50.5 -108.5q0 -44 28 -105.5t68 -127t80 -136t68 -152t28 -155.5q0 -203 -139 -317.5t-377 -114.5h-125v289h125q86 0 131 30.5t45 104.5q0 51 -28 117t-68 133t-80 136t-68 146t-28 144
q0 203 142 319.5t372 116.5h102v-289z" />
    <glyph glyph-name="scaron" unicode="&#x161;" horiz-adv-x="968" 
d="M496 1251l-377 367h301l76 -76l75 76h301zM406 -31q-190 0 -320 56v274q54 -25 135 -40t156 -15q114 0 155 23t41 69q0 29 -27 55.5t-70 49.5t-94.5 48t-103.5 57.5t-95 71.5t-70 97.5t-27 128.5q0 158 128.5 259t334.5 101q200 0 317 -57v-273q-121 56 -288 56
q-158 0 -158 -72q0 -22 27 -45t70 -46t95 -49.5t103.5 -62t94.5 -77.5t70 -103t27 -131q0 -172 -136 -273.5t-365 -101.5z" />
    <glyph glyph-name="uni0162" unicode="&#x162;" horiz-adv-x="899" 
d="M61 1536h777v-289h-220v-1247h-337v1247h-220v289zM596 -143l-80 -430h-254l29 430h305z" />
    <glyph glyph-name="uni0163" unicode="&#x163;" horiz-adv-x="843" 
d="M803 909h-240v-909h-327v909h-205v265h205v219h327v-219h240v-265zM549 -143l-80 -430h-254l29 430h305z" />
    <glyph glyph-name="Tcaron" unicode="&#x164;" horiz-adv-x="899" 
d="M449 1647l-377 366h301l76 -76l75 76h301zM61 1536h777v-289h-220v-1247h-337v1247h-220v289z" />
    <glyph glyph-name="tcaron" unicode="&#x165;" horiz-adv-x="843" 
d="M973 1673l-41 -409h-266v409h307zM803 909h-240v-909h-327v909h-205v265h205v219h327v-219h240v-265z" />
    <glyph glyph-name="Tbar" unicode="&#x166;" horiz-adv-x="899" 
d="M782 475h-164v-475h-337v475h-164v246h164v526h-220v289h777v-289h-220v-526h164v-246z" />
    <glyph glyph-name="tbar" unicode="&#x167;" horiz-adv-x="843" 
d="M729 414h-166v-414h-327v414h-170v245h170v250h-205v265h205v219h327v-219h240v-265h-240v-250h166v-245z" />
    <glyph glyph-name="Utilde" unicode="&#x168;" horiz-adv-x="1396" 
d="M774 1903q31 0 31 41v77h201v-123q0 -111 -47.5 -175t-135.5 -64q-50 0 -108 30t-104 59.5t-68 29.5q-33 0 -33 -41v-78h-201v123q0 109 53 174t142 65q39 0 83.5 -18.5t76 -40.5t63 -40.5t47.5 -18.5zM1264 1536v-1022q0 -132 -45 -239t-123 -175t-180 -104.5
t-218 -36.5q-156 0 -282.5 62t-204.5 190t-78 303v1022h340v-985q0 -285 225 -285q226 0 226 285v985h340z" />
    <glyph glyph-name="utilde" unicode="&#x169;" horiz-adv-x="1316" 
d="M770 1507q31 0 31 41v78h200v-123q0 -111 -47 -175t-135 -64q-50 0 -108 29.5t-104 59t-68 29.5q-33 0 -33 -41v-77h-201v122q0 109 53 174.5t142 65.5q50 0 106.5 -30t100.5 -59.5t63 -29.5zM881 0v121q-128 -152 -344 -152q-198 0 -311 130t-113 386v689h327v-648
q0 -132 56.5 -197t148.5 -65q99 0 160 64.5t61 197.5v648h328v-1174h-313z" />
    <glyph glyph-name="Umacron" unicode="&#x16a;" horiz-adv-x="1396" 
d="M1030 1931v-245h-663v245h663zM1264 1536v-1022q0 -132 -45 -239t-123 -175t-180 -104.5t-218 -36.5q-156 0 -282.5 62t-204.5 190t-78 303v1022h340v-985q0 -285 225 -285q226 0 226 285v985h340z" />
    <glyph glyph-name="umacron" unicode="&#x16b;" horiz-adv-x="1316" 
d="M985 1536v-246h-663v246h663zM881 0v121q-128 -152 -344 -152q-198 0 -311 130t-113 386v689h327v-648q0 -132 56.5 -197t148.5 -65q99 0 160 64.5t61 197.5v648h328v-1174h-313z" />
    <glyph glyph-name="Ubreve" unicode="&#x16c;" horiz-adv-x="1396" 
d="M698 1655q-145 0 -230 76.5t-85 220.5v61h225v-61q0 -88 90 -88t90 88v61h226v-61q0 -144 -85.5 -220.5t-230.5 -76.5zM1264 1536v-1022q0 -132 -45 -239t-123 -175t-180 -104.5t-218 -36.5q-156 0 -282.5 62t-204.5 190t-78 303v1022h340v-985q0 -285 225 -285
q226 0 226 285v985h340z" />
    <glyph glyph-name="ubreve" unicode="&#x16d;" horiz-adv-x="1316" 
d="M653 1260q-145 0 -230 76t-85 220v62h225v-62q0 -88 90 -88t90 88v62h226v-62q0 -144 -85.5 -220t-230.5 -76zM881 0v121q-128 -152 -344 -152q-198 0 -311 130t-113 386v689h327v-648q0 -132 56.5 -197t148.5 -65q99 0 160 64.5t61 197.5v648h328v-1174h-313z" />
    <glyph glyph-name="Uring" unicode="&#x16e;" horiz-adv-x="1396" 
d="M356 1931q0 119 84 196t213 77q132 0 217.5 -77t85.5 -196q0 -116 -85.5 -191t-217.5 -75q-129 0 -213 75t-84 191zM565 1931q0 -38 24 -61t66 -23t68.5 23.5t26.5 60.5q0 39 -26.5 63.5t-68.5 24.5t-66 -24.5t-24 -63.5zM1264 1536v-1022q0 -132 -45 -239t-123 -175
t-180 -104.5t-218 -36.5q-156 0 -282.5 62t-204.5 190t-78 303v1022h340v-985q0 -285 225 -285q226 0 226 285v985h340z" />
    <glyph glyph-name="uring" unicode="&#x16f;" horiz-adv-x="1316" 
d="M352 1536q0 118 84 195t213 77q132 0 217.5 -77t85.5 -195q0 -116 -85.5 -191t-217.5 -75q-129 0 -213 75t-84 191zM561 1536q0 -38 24 -61t66 -23t68 23.5t26 60.5q0 39 -26 63.5t-68 24.5t-66 -24.5t-24 -63.5zM881 0v121q-128 -152 -344 -152q-198 0 -311 130
t-113 386v689h327v-648q0 -132 56.5 -197t148.5 -65q99 0 160 64.5t61 197.5v648h328v-1174h-313z" />
    <glyph glyph-name="Uhungarumlaut" unicode="&#x170;" horiz-adv-x="1396" 
d="M1178 2013l-179 -327h-276l137 327h318zM801 2013l-178 -327h-277l137 327h318zM1264 1536v-1022q0 -132 -45 -239t-123 -175t-180 -104.5t-218 -36.5q-156 0 -282.5 62t-204.5 190t-78 303v1022h340v-985q0 -285 225 -285q226 0 226 285v985h340z" />
    <glyph glyph-name="uhungarumlaut" unicode="&#x171;" horiz-adv-x="1316" 
d="M1133 1618l-179 -328h-276l137 328h318zM756 1618l-178 -328h-277l137 328h318zM881 0v121q-128 -152 -344 -152q-198 0 -311 130t-113 386v689h327v-648q0 -132 56.5 -197t148.5 -65q99 0 160 64.5t61 197.5v648h328v-1174h-313z" />
    <glyph glyph-name="Uogonek" unicode="&#x172;" horiz-adv-x="1396" 
d="M920 -416h-5q-162 0 -254 62t-92 161q0 95 80 154q-108 7 -201 46.5t-163.5 108t-111 171t-40.5 227.5v1022h340v-985q0 -285 225 -285q226 0 226 285v985h340v-1022q0 -196 -93.5 -329t-250.5 -189v0q-6 -2 -19.5 -6t-19.5 -6q-68 -28 -68 -90q0 -43 28.5 -66t73.5 -23
h5v-221z" />
    <glyph glyph-name="uogonek" unicode="&#x173;" horiz-adv-x="1316" 
d="M1114 -195v-221h-4q-162 0 -254 65t-92 169q0 123 117 188v115q-128 -152 -344 -152q-198 0 -311 130t-113 386v689h327v-648q0 -132 56.5 -197t148.5 -65q99 0 160 64.5t61 197.5v648h328v-1174h-84q-43 0 -72.5 -27t-29.5 -69q0 -48 28.5 -73.5t73.5 -25.5h4z" />
    <glyph glyph-name="Wcircumflex" unicode="&#x174;" horiz-adv-x="2080" 
d="M1116 1686l-76 75l-75 -75h-301l376 366l377 -366h-301zM1495 -41l-455 954l-446 -954l-574 1577h367l272 -791l390 832l389 -813l266 772h356z" />
    <glyph glyph-name="wcircumflex" unicode="&#x175;" horiz-adv-x="1675" 
d="M920 1290l-76 76l-76 -76h-301l377 367l377 -367h-301zM1208 -61l-370 720l-365 -720l-442 1235h331l179 -549l305 581l301 -559l170 527h328z" />
    <glyph glyph-name="Ycircumflex" unicode="&#x176;" horiz-adv-x="1443" 
d="M799 1686l-76 75l-76 -75h-301l377 366l377 -366h-301zM891 0h-338v442l-533 1094h367l348 -731l340 731h348l-532 -1098v-438z" />
    <glyph glyph-name="ycircumflex" unicode="&#x177;" horiz-adv-x="1290" 
d="M729 1290l-76 76l-75 -76h-302l377 367l377 -367h-301zM797 -512h-324v487l-453 1199h351l276 -789l297 789h326l-473 -1197v-489z" />
    <glyph glyph-name="Ydieresis" unicode="&#x178;" horiz-adv-x="1443" 
d="M1071 1982v-296h-297v296h297zM672 1982v-296h-297v296h297zM891 0h-338v442l-533 1094h367l348 -731l340 731h348l-532 -1098v-438z" />
    <glyph glyph-name="Zacute" unicode="&#x179;" horiz-adv-x="983" 
d="M868 2013l-245 -327h-285l164 327h366zM51 0l432 1229h-393v307h842l-424 -1229h389v-307h-846z" />
    <glyph glyph-name="zacute" unicode="&#x17a;" horiz-adv-x="1019" 
d="M891 1618l-246 -328h-285l164 328h367zM45 0l451 883h-416v291h889l-443 -885h414v-289h-895z" />
    <glyph glyph-name="Zdotaccent" unicode="&#x17b;" horiz-adv-x="983" 
d="M666 1686h-328v327h328v-327zM51 0l432 1229h-393v307h842l-424 -1229h389v-307h-846z" />
    <glyph glyph-name="zdotaccent" unicode="&#x17c;" horiz-adv-x="1019" 
d="M668 1290h-328v328h328v-328zM45 0l451 883h-416v291h889l-443 -885h414v-289h-895z" />
    <glyph glyph-name="Zcaron" unicode="&#x17d;" horiz-adv-x="983" 
d="M502 1647l-377 366h301l76 -76l76 76h301zM51 0l432 1229h-393v307h842l-424 -1229h389v-307h-846z" />
    <glyph glyph-name="zcaron" unicode="&#x17e;" horiz-adv-x="1019" 
d="M504 1251l-377 367h301l76 -76l76 76h301zM45 0l451 883h-416v291h889l-443 -885h414v-289h-895z" />
    <glyph glyph-name="florin" unicode="&#x192;" horiz-adv-x="983" 
d="M989 1272h-184q-91 0 -142 -29t-78.5 -99t-39.5 -202l-2 -51h375v-260h-394l-41 -596q-18 -255 -153.5 -401t-372.5 -146h-203v264h185q132 0 189 69.5t69 256.5l36 553h-239v260h256l8 98q18 256 153.5 401.5t374.5 145.5h203v-264z" />
    <glyph glyph-name="uni0218" unicode="&#x218;" horiz-adv-x="819" 
d="M727 1247h-82q-93 0 -143.5 -30.5t-50.5 -108.5q0 -44 28 -105.5t68 -127t80 -136t68 -152t28 -155.5q0 -203 -139 -317.5t-377 -114.5h-125v289h125q86 0 131 30.5t45 104.5q0 51 -28 117t-68 133t-80 136t-68 146t-28 144q0 203 142 319.5t372 116.5h102v-289z
M506 -143l-80 -430h-254l29 430h305z" />
    <glyph glyph-name="uni0219" unicode="&#x219;" horiz-adv-x="968" 
d="M406 -31q-190 0 -320 56v274q54 -25 135 -40t156 -15q114 0 155 23t41 69q0 29 -27 55.5t-70 49.5t-94.5 48t-103.5 57.5t-95 71.5t-70 97.5t-27 128.5q0 158 128.5 259t334.5 101q200 0 317 -57v-273q-121 56 -288 56q-158 0 -158 -72q0 -22 27 -45t70 -46t95 -49.5
t103.5 -62t94.5 -77.5t70 -103t27 -131q0 -172 -136 -273.5t-365 -101.5zM643 -143l-80 -430h-254l29 430h305z" />
    <glyph glyph-name="uni021A" unicode="&#x21a;" horiz-adv-x="899" 
d="M61 1536h777v-289h-220v-1247h-337v1247h-220v289zM596 -143l-80 -430h-254l29 430h305z" />
    <glyph glyph-name="uni021B" unicode="&#x21b;" horiz-adv-x="843" 
d="M803 909h-240v-909h-327v909h-205v265h205v219h327v-219h240v-265zM549 -143l-80 -430h-254l29 430h305z" />
    <glyph glyph-name="circumflex" unicode="&#x2c6;" horiz-adv-x="1024" 
d="M588 1290l-76 76l-76 -76h-301l377 367l377 -367h-301z" />
    <glyph glyph-name="caron" unicode="&#x2c7;" horiz-adv-x="1024" 
d="M512 1251l-377 367h301l76 -76l76 76h301z" />
    <glyph glyph-name="breve" unicode="&#x2d8;" horiz-adv-x="1024" 
d="M512 1260q-145 0 -230 76t-85 220v62h225v-62q0 -88 90 -88t90 88v62h225v-62q0 -144 -85 -220t-230 -76z" />
    <glyph glyph-name="dotaccent" unicode="&#x2d9;" horiz-adv-x="1024" 
d="M676 1290h-328v328h328v-328z" />
    <glyph glyph-name="ring" unicode="&#x2da;" horiz-adv-x="1024" 
d="M211 1536q0 118 84 195t213 77q132 0 217.5 -77t85.5 -195q0 -116 -85.5 -191t-217.5 -75q-129 0 -213 75t-84 191zM420 1536q0 -38 24 -61t66 -23t68 23.5t26 60.5q0 39 -26 63.5t-68 24.5t-66 -24.5t-24 -63.5z" />
    <glyph glyph-name="ogonek" unicode="&#x2db;" horiz-adv-x="1024" 
d="M680 -195v-221h-4q-162 0 -254 65t-92 169q0 105 90.5 171t255.5 66h4v-55h-4q-43 0 -73 -27t-30 -69q0 -48 29 -73.5t74 -25.5h4z" />
    <glyph glyph-name="tilde" unicode="&#x2dc;" horiz-adv-x="1024" 
d="M629 1507q30 0 30 41v78h201v-123q0 -111 -47 -175t-135 -64q-50 0 -108 29.5t-104.5 59t-68.5 29.5q-32 0 -32 -41v-77h-201v122q0 109 52.5 174.5t141.5 65.5q50 0 106.5 -30t101 -59.5t63.5 -29.5z" />
    <glyph glyph-name="hungarumlaut" unicode="&#x2dd;" horiz-adv-x="1024" 
d="M991 1618l-178 -328h-276l137 328h317zM614 1618l-178 -328h-276l137 328h317z" />
    <glyph glyph-name="uni0394" unicode="&#x394;" horiz-adv-x="1617" 
d="M1073 297l-272 602l-275 -602h547zM31 0l778 1577l778 -1577h-1556z" />
    <glyph glyph-name="uni03A9" unicode="&#x3a9;" horiz-adv-x="1740" 
d="M102 0v285h265q-145 93 -225.5 232.5t-80.5 313.5q0 202 108.5 373.5t295 272t405.5 100.5t405.5 -100.5t295 -272t108.5 -373.5q0 -174 -80 -313.5t-225 -232.5h264v-285h-686v242q183 116 279 254t96 315q0 196 -132 327.5t-325 131.5t-324.5 -131.5t-131.5 -327.5
q0 -177 95.5 -315t278.5 -254v-242h-686z" />
    <glyph glyph-name="pi" unicode="&#x3c0;" horiz-adv-x="1437" 
d="M874 844h-331v-844h-334v844h-148v307h1295v-307h-148v-496q0 -53 26 -73.5t83 -20.5h39v-254h-148q-154 0 -244 88t-90 260v496z" />
    <glyph glyph-name="Wgrave" unicode="&#x1e80;" horiz-adv-x="2080" 
d="M633 2013h366l164 -327h-284zM1495 -41l-455 954l-446 -954l-574 1577h367l272 -791l390 832l389 -813l266 772h356z" />
    <glyph glyph-name="wgrave" unicode="&#x1e81;" horiz-adv-x="1675" 
d="M436 1618h367l164 -328h-285zM1208 -61l-370 720l-365 -720l-442 1235h331l179 -549l305 581l301 -559l170 527h328z" />
    <glyph glyph-name="Wacute" unicode="&#x1e82;" horiz-adv-x="2080" 
d="M1407 2013l-246 -327h-284l163 327h367zM1495 -41l-455 954l-446 -954l-574 1577h367l272 -791l390 832l389 -813l266 772h356z" />
    <glyph glyph-name="wacute" unicode="&#x1e83;" horiz-adv-x="1675" 
d="M1210 1618l-245 -328h-285l164 328h366zM1208 -61l-370 720l-365 -720l-442 1235h331l179 -549l305 581l301 -559l170 527h328z" />
    <glyph glyph-name="Wdieresis" unicode="&#x1e84;" horiz-adv-x="2080" 
d="M1389 1982v-296h-297v296h297zM989 1982v-296h-297v296h297zM1495 -41l-455 954l-446 -954l-574 1577h367l272 -791l390 832l389 -813l266 772h356z" />
    <glyph glyph-name="wdieresis" unicode="&#x1e85;" horiz-adv-x="1675" 
d="M1192 1587v-297h-297v297h297zM793 1587v-297h-297v297h297zM1208 -61l-370 720l-365 -720l-442 1235h331l179 -549l305 581l301 -559l170 527h328z" />
    <glyph glyph-name="Ygrave" unicode="&#x1ef2;" horiz-adv-x="1443" 
d="M336 2013h366l164 -327h-284zM891 0h-338v442l-533 1094h367l348 -731l340 731h348l-532 -1098v-438z" />
    <glyph glyph-name="ygrave" unicode="&#x1ef3;" horiz-adv-x="1290" 
d="M236 1618h366l164 -328h-285zM797 -512h-324v487l-453 1199h351l276 -789l297 789h326l-473 -1197v-489z" />
    <glyph glyph-name="endash" unicode="&#x2013;" horiz-adv-x="1024" 
d="M82 424v297h860v-297h-860z" />
    <glyph glyph-name="emdash" unicode="&#x2014;" horiz-adv-x="2048" 
d="M82 424v297h1884v-297h-1884z" />
    <glyph glyph-name="quoteleft" unicode="&#x2018;" horiz-adv-x="542" 
d="M102 1206l156 330h203l-129 -330h108v-286h-338v286z" />
    <glyph glyph-name="quoteright" unicode="&#x2019;" horiz-adv-x="542" 
d="M440 1249l-155 -329h-203l129 329h-109v287h338v-287z" />
    <glyph glyph-name="quotesinglbase" unicode="&#x201a;" horiz-adv-x="542" 
d="M440 0l-155 -330h-203l129 330h-109v287h338v-287z" />
    <glyph glyph-name="quotedblleft" unicode="&#x201c;" horiz-adv-x="993" 
d="M553 1206l156 330h202l-129 -330h109v-286h-338v286zM102 1206l156 330h203l-129 -330h108v-286h-338v286z" />
    <glyph glyph-name="quotedblright" unicode="&#x201d;" horiz-adv-x="993" 
d="M891 1249l-156 -329h-203l130 329h-109v287h338v-287zM440 1249l-155 -329h-203l129 329h-109v287h338v-287z" />
    <glyph glyph-name="quotedblbase" unicode="&#x201e;" horiz-adv-x="993" 
d="M891 0l-156 -330h-203l130 330h-109v287h338v-287zM440 0l-155 -330h-203l129 330h-109v287h338v-287z" />
    <glyph glyph-name="dagger" unicode="&#x2020;" horiz-adv-x="993" 
d="M932 862h-270v-862h-330v862h-271v289h271v385h330v-385h270v-289z" />
    <glyph glyph-name="daggerdbl" unicode="&#x2021;" horiz-adv-x="1034" 
d="M952 303h-270v-303h-330v303h-270v289h270v352h-270v289h270v303h330v-303h270v-289h-270v-352h270v-289z" />
    <glyph glyph-name="bullet" unicode="&#x2022;" horiz-adv-x="737" 
d="M369 324l-328 327l328 328l327 -328z" />
    <glyph glyph-name="ellipsis" unicode="&#x2026;" horiz-adv-x="1832" 
d="M1731 369v-369h-400v369h400zM1116 369v-369h-399v369h399zM502 369v-369h-400v369h400z" />
    <glyph glyph-name="perthousand" unicode="&#x2030;" horiz-adv-x="2461" 
d="M395 848q-149 0 -256.5 107.5t-107.5 256.5t107.5 257t256.5 108q151 0 259 -108t108 -257t-108 -256.5t-259 -107.5zM1448 1536l-975 -1536h-268l975 1536h268zM395 1051q60 0 103 47.5t43 113.5q0 68 -42.5 115t-103.5 47q-60 0 -101.5 -46.5t-41.5 -115.5
q0 -66 41.5 -113.5t101.5 -47.5zM2075 -41q-149 0 -257 108t-108 257t108 256.5t257 107.5q151 0 258.5 -107.5t107.5 -256.5q0 -150 -107.5 -257.5t-258.5 -107.5zM1255 -41q-149 0 -256.5 108t-107.5 257t107.5 256.5t256.5 107.5q151 0 259 -107.5t108 -256.5t-108 -257
t-259 -108zM2075 162q60 0 102.5 48t42.5 114q0 68 -42 114.5t-103 46.5q-60 0 -102 -46t-42 -115q0 -66 42 -114t102 -48zM1255 162q60 0 103 48t43 114q0 68 -42.5 114.5t-103.5 46.5q-60 0 -101.5 -46t-41.5 -115q0 -66 41.5 -114t101.5 -48z" />
    <glyph glyph-name="guilsinglleft" unicode="&#x2039;" horiz-adv-x="745" 
d="M674 160h-363l-260 426l271 422h352l-273 -416z" />
    <glyph glyph-name="guilsinglright" unicode="&#x203a;" horiz-adv-x="745" 
d="M434 160h-362l272 432l-272 416h352l270 -422z" />
    <glyph glyph-name="fraction" unicode="&#x2044;" horiz-adv-x="423" 
d="M834 1536l-975 -1536h-269l975 1536h269z" />
    <glyph glyph-name="zerosuperior" unicode="&#x2070;" horiz-adv-x="894" 
d="M446 827q-154 0 -264 108t-110 257t110 256.5t264 107.5q155 0 266 -107.5t111 -256.5t-111 -257t-266 -108zM285 1192q0 -34 8 -55l217 217q-30 12 -64 12q-68 0 -114.5 -50.5t-46.5 -123.5zM446 1018q68 0 116 51t48 123q0 30 -10 63l-221 -221q32 -16 67 -16z" />
    <glyph glyph-name="foursuperior" unicode="&#x2074;" horiz-adv-x="720" 
d="M438 1235h201v-387h-201v96h-420l258 592h232l-182 -418h112v117z" />
    <glyph glyph-name="Euro" unicode="&#x20ac;" horiz-adv-x="1626" 
d="M1534 76q-220 -117 -459 -117q-292 0 -498.5 127t-293.5 352h-222v256h166q-2 20 -2 66q0 44 2 67h-166v256h230q94 223 300 358.5t470 135.5q265 0 473 -117v-348q-228 154 -475 154q-252 0 -385 -183h483v-256h-575q-4 -46 -4 -69q0 -24 4 -64h575v-256h-477
q136 -168 393 -168q124 0 226.5 28t234.5 101v-323z" />
    <glyph glyph-name="uni20B9" unicode="&#x20b9;" horiz-adv-x="1136" 
d="M1055 803h-224q-42 -159 -176 -283l273 -520h-375l-178 350q-63 -23 -119 -39l-154 -43v307l154 43q174 51 223 185h-377v276h375q-31 83 -90 130.5t-131 47.5h-154v279h953v-276h-297q58 -83 78 -181h219v-276z" />
    <glyph glyph-name="uni2113" unicode="&#x2113;" horiz-adv-x="1083" 
d="M786 0h-120q-203 0 -329.5 104t-146.5 302l-149 -52v281l147 51v379q0 105 28.5 196.5t83 162.5t140.5 112t193 41q182 0 285.5 -117.5t103.5 -298.5q0 -120 -39 -224t-108.5 -181.5t-156 -134.5t-192.5 -99v-63q0 -72 41.5 -112t98.5 -40h120v-307zM526 1139v-328
q183 102 183 358q0 160 -86 160q-48 0 -72.5 -51t-24.5 -139z" />
    <glyph glyph-name="trademark" unicode="&#x2122;" horiz-adv-x="1329" 
d="M51 1536h434v-184h-112v-478h-209v478h-113v184zM920 1016l-127 119v-261h-205v680l332 -292l327 292v-680h-203v261z" />
    <glyph glyph-name="Omega" unicode="&#x2126;" horiz-adv-x="1740" 
d="M102 0v285h265q-145 93 -225.5 232.5t-80.5 313.5q0 202 108.5 373.5t295 272t405.5 100.5t405.5 -100.5t295 -272t108.5 -373.5q0 -174 -80 -313.5t-225 -232.5h264v-285h-686v242q183 116 279 254t96 315q0 196 -132 327.5t-325 131.5t-324.5 -131.5t-131.5 -327.5
q0 -177 95.5 -315t278.5 -254v-242h-686z" />
    <glyph glyph-name="estimated" unicode="&#x212e;" horiz-adv-x="1447" 
d="M1356 526h-1016q-8 0 -8 -6v-307q0 -20 14 -37q74 -77 173 -120.5t212 -43.5q121 0 225 48.5t179 136.5h90q-89 -102 -218 -161t-278 -59q-170 0 -314.5 75.5t-228.5 205.5t-84 283t84 283.5t228.5 207t314.5 76.5t314.5 -76.5t228.5 -207t84 -283.5v-15zM1126 565v309
q0 23 -16 39q-74 75 -171.5 117.5t-207.5 42.5q-111 0 -210.5 -43.5t-172.5 -122.5q-16 -13 -16 -39v-303q0 -8 8 -8h780q6 0 6 8z" />
    <glyph glyph-name="partialdiff" unicode="&#x2202;" horiz-adv-x="1316" 
d="M621 -41q-247 0 -400 143.5t-153 362.5q0 152 75.5 280.5t210 204.5t297.5 76q127 0 215 -35q-47 153 -147 295.5t-234 249.5h402q184 -188 273 -426t89 -475q0 -148 -47.5 -274.5t-130.5 -214.5t-199.5 -137.5t-250.5 -49.5zM639 238q114 0 187 81t73 187
q0 107 -61.5 174.5t-169.5 67.5q-115 0 -188.5 -81t-73.5 -188t62.5 -174t170.5 -67z" />
    <glyph glyph-name="Delta" unicode="&#x2206;" horiz-adv-x="1617" 
d="M1073 297l-272 602l-275 -602h547zM31 0l778 1577l778 -1577h-1556z" />
    <glyph glyph-name="product" unicode="&#x220f;" horiz-adv-x="1437" 
d="M143 1536h1151v-1782h-338v1475h-475v-1475h-338v1782z" />
    <glyph glyph-name="summation" unicode="&#x2211;" horiz-adv-x="1249" 
d="M1188 51v-297h-1168l580 754l-580 1028h1168v-297h-606l413 -739l-340 -449h533z" />
    <glyph glyph-name="minus" unicode="&#x2212;" horiz-adv-x="1218" 
d="M82 614v285h1055v-285h-1055z" />
    <glyph glyph-name="uni2215" unicode="&#x2215;" horiz-adv-x="423" 
d="M834 1536l-975 -1536h-269l975 1536h269z" />
    <glyph glyph-name="radical" unicode="&#x221a;" horiz-adv-x="1486" 
d="M709 -41l-402 782l-168 -55l-78 229l439 152l200 -442l447 1116h340z" />
    <glyph glyph-name="infinity" unicode="&#x221e;" horiz-adv-x="1865" 
d="M1309 242q-117 0 -214 46t-163 128q-65 -82 -160 -128t-211 -46q-98 0 -187 38.5t-152.5 102.5t-101.5 152.5t-38 185.5q0 198 140 337.5t339 139.5q115 0 210.5 -46t160.5 -126q67 81 163.5 126.5t213.5 45.5q195 0 335 -140t140 -337q0 -129 -64 -239.5t-173.5 -175
t-237.5 -64.5zM1288 487q85 0 146 68t61 166q0 99 -60.5 165t-146.5 66q-89 0 -149 -66t-60 -165q0 -97 60 -165.5t149 -68.5zM580 487q86 0 146 68t60 166q0 99 -59.5 165t-146.5 66q-89 0 -149 -66t-60 -165q0 -97 60 -165.5t149 -68.5z" />
    <glyph glyph-name="integral" unicode="&#x222b;" horiz-adv-x="1067" 
d="M41 -512v307h147q95 0 136 52t41 153v1026q0 154 67 271t181 178t257 61h156v-307h-147q-95 0 -136 -52t-41 -153v-1026q0 -154 -67 -271t-181 -178t-257 -61h-156z" />
    <glyph glyph-name="approxequal" unicode="&#x2248;" horiz-adv-x="1218" 
d="M905 717q-72 0 -160.5 22.5t-157 50t-145.5 50t-129 22.5q-69 0 -121 -14.5t-110 -54.5v288q115 76 233 76q72 0 158.5 -22.5t152.5 -50t144.5 -50t136.5 -22.5q68 0 120.5 14.5t109.5 54.5v-288q-115 -76 -232 -76zM905 272q-72 0 -160.5 23t-157 50t-145.5 50t-129 23
q-69 0 -121 -15t-110 -55v289q115 76 233 76q72 0 158.5 -23t152.5 -50t144.5 -50t136.5 -23q68 0 120 15t110 55v-289q-115 -76 -232 -76z" />
    <glyph glyph-name="notequal" unicode="&#x2260;" horiz-adv-x="1218" 
d="M1137 375h-519l-83 -246h-277l84 246h-260v284h356l49 144h-405v284h502l84 246h276l-84 -246h277v-284h-373l-49 -144h422v-284z" />
    <glyph glyph-name="lessequal" unicode="&#x2264;" horiz-adv-x="995" 
d="M903 0h-862v285h737l-758 508l883 587v-370l-375 -219l375 -220v-571z" />
    <glyph glyph-name="greaterequal" unicode="&#x2265;" horiz-adv-x="995" 
d="M954 0h-862v571l375 220l-375 219v370l883 -592l-756 -503h735v-285z" />
    <glyph glyph-name="lozenge" unicode="&#x25ca;" horiz-adv-x="1179" 
d="M1159 756l-567 -797l-572 797l572 821zM346 758l238 -344l235 344l-235 360z" />
    <glyph glyph-name="dotlessj" unicode="&#xf6be;" horiz-adv-x="573" 
d="M-133 -512v272h53q106 0 154.5 45t48.5 158v1211h328v-1211q0 -228 -127.5 -351.5t-358.5 -123.5h-98z" />
    <glyph glyph-name="commaaccent" unicode="&#xf6c3;" horiz-adv-x="1044" 
d="M649 -143l-80 -430h-254l29 430h305z" />
    <glyph glyph-name="CR" horiz-adv-x="0" 
 />
    <glyph glyph-name="C.alt" horiz-adv-x="1019" 
d="M918 307v-307q-383 0 -609.5 208.5t-226.5 551.5q0 159 63.5 301.5t173.5 247t266 166t333 61.5v-307q-224 0 -356 -132.5t-132 -338.5q0 -203 133 -327t355 -124z" />
    <glyph glyph-name="G.alt" horiz-adv-x="1044" 
d="M932 0q-184 0 -331.5 45t-242.5 119t-159 174t-90.5 205t-26.5 217q0 159 63.5 301.5t173.5 247t266 166t333 61.5v-307q-224 0 -356 -132.5t-132 -338.5q0 -120 49 -221.5t150 -167.5v393h303v-762z" />
    <glyph glyph-name="J.alt" horiz-adv-x="624" 
d="M481 1536v-1597q0 -228 -124.5 -339.5t-346.5 -111.5h-82v289h62q153 0 153 162v1597h338z" />
    <glyph glyph-name="S.alt" horiz-adv-x="1069" 
d="M1049 1247h-82q-37 0 -62.5 -7t-51.5 -28.5t-45 -62.5t-38 -109t-37 -168l-18 -104q-32 -183 -74.5 -316t-93 -220.5t-117 -139t-139.5 -72t-168 -20.5h-103v289h82q35 0 60 8t53.5 35.5t51.5 79t47.5 141.5t47.5 219l19 105q34 193 88 324t130.5 203.5t164 102
t203.5 29.5h82v-289z" />
    <glyph glyph-name="Ccedilla.alt" horiz-adv-x="1019" 
d="M918 0q-62 0 -121 6v-375h-303l38 439q-214 87 -332 266.5t-118 423.5q0 159 63.5 301.5t173.5 247t266 166t333 61.5v-307q-224 0 -356 -132.5t-132 -338.5q0 -203 133 -327t355 -124v-307z" />
    <glyph glyph-name="Cacute.alt" horiz-adv-x="1019" 
d="M1016 2013l-246 -327h-285l164 327h367zM918 307v-307q-383 0 -609.5 208.5t-226.5 551.5q0 159 63.5 301.5t173.5 247t266 166t333 61.5v-307q-224 0 -356 -132.5t-132 -338.5q0 -203 133 -327t355 -124z" />
    <glyph glyph-name="Ccaron.alt" horiz-adv-x="1019" 
d="M629 1647l-377 366h301l76 -76l76 76h301zM918 307v-307q-383 0 -609.5 208.5t-226.5 551.5q0 159 63.5 301.5t173.5 247t266 166t333 61.5v-307q-224 0 -356 -132.5t-132 -338.5q0 -203 133 -327t355 -124z" />
    <glyph glyph-name="Ccircumflex.alt" horiz-adv-x="1019" 
d="M705 1686l-76 75l-76 -75h-301l377 366l377 -366h-301zM918 307v-307q-383 0 -609.5 208.5t-226.5 551.5q0 159 63.5 301.5t173.5 247t266 166t333 61.5v-307q-224 0 -356 -132.5t-132 -338.5q0 -203 133 -327t355 -124z" />
    <glyph glyph-name="Cdotaccent.alt" horiz-adv-x="1019" 
d="M793 1686h-328v327h328v-327zM918 307v-307q-383 0 -609.5 208.5t-226.5 551.5q0 159 63.5 301.5t173.5 247t266 166t333 61.5v-307q-224 0 -356 -132.5t-132 -338.5q0 -203 133 -327t355 -124z" />
    <glyph glyph-name="Gbreve.alt" horiz-adv-x="1044" 
d="M639 1655q-145 0 -230 76.5t-85 220.5v61h225v-61q0 -88 90 -88t90 88v61h225v-61q0 -144 -85 -220.5t-230 -76.5zM932 0q-184 0 -331.5 45t-242.5 119t-159 174t-90.5 205t-26.5 217q0 159 63.5 301.5t173.5 247t266 166t333 61.5v-307q-224 0 -356 -132.5t-132 -338.5
q0 -120 49 -221.5t150 -167.5v393h303v-762z" />
    <glyph glyph-name="Gcircumflex.alt" horiz-adv-x="1044" 
d="M715 1686l-76 75l-76 -75h-301l377 366l377 -366h-301zM932 0q-184 0 -331.5 45t-242.5 119t-159 174t-90.5 205t-26.5 217q0 159 63.5 301.5t173.5 247t266 166t333 61.5v-307q-224 0 -356 -132.5t-132 -338.5q0 -120 49 -221.5t150 -167.5v393h303v-762z" />
    <glyph glyph-name="Gcommaaccent.alt" horiz-adv-x="1044" 
d="M932 0q-184 0 -331.5 45t-242.5 119t-159 174t-90.5 205t-26.5 217q0 159 63.5 301.5t173.5 247t266 166t333 61.5v-307q-224 0 -356 -132.5t-132 -338.5q0 -120 49 -221.5t150 -167.5v393h303v-762zM766 -143l-80 -430h-254l29 430h305z" />
    <glyph glyph-name="Gdotaccent.alt" horiz-adv-x="1044" 
d="M803 1686h-328v327h328v-327zM932 0q-184 0 -331.5 45t-242.5 119t-159 174t-90.5 205t-26.5 217q0 159 63.5 301.5t173.5 247t266 166t333 61.5v-307q-224 0 -356 -132.5t-132 -338.5q0 -120 49 -221.5t150 -167.5v393h303v-762z" />
    <glyph glyph-name="Jcircumflex.alt" horiz-adv-x="624" 
d="M395 1686l-76 75l-75 -75h-301l376 366l377 -366h-301zM481 1536v-1597q0 -228 -124.5 -339.5t-346.5 -111.5h-82v289h62q153 0 153 162v1597h338z" />
    <glyph glyph-name="Scaron.alt" horiz-adv-x="1069" 
d="M807 1647l-377 366h301l76 -76l76 76h301zM1049 1247h-82q-37 0 -62.5 -7t-51.5 -28.5t-45 -62.5t-38 -109t-37 -168l-18 -104q-32 -183 -74.5 -316t-93 -220.5t-117 -139t-139.5 -72t-168 -20.5h-103v289h82q35 0 60 8t53.5 35.5t51.5 79t47.5 141.5t47.5 219l19 105
q34 193 88 324t130.5 203.5t164 102t203.5 29.5h82v-289z" />
    <glyph glyph-name="Sacute.alt" horiz-adv-x="1069" 
d="M1176 2013l-246 -327h-285l164 327h367zM1049 1247h-82q-37 0 -62.5 -7t-51.5 -28.5t-45 -62.5t-38 -109t-37 -168l-18 -104q-32 -183 -74.5 -316t-93 -220.5t-117 -139t-139.5 -72t-168 -20.5h-103v289h82q35 0 60 8t53.5 35.5t51.5 79t47.5 141.5t47.5 219l19 105
q34 193 88 324t130.5 203.5t164 102t203.5 29.5h82v-289z" />
    <glyph glyph-name="Scedilla.alt" horiz-adv-x="1069" 
d="M424 -369h-303l33 369h-31h-103v289h82q35 0 60 8t53.5 35.5t51.5 79t47.5 141.5t47.5 219l19 105q34 193 88 324t130.5 203.5t164 102t203.5 29.5h82v-289h-82q-37 0 -62.5 -7t-51.5 -28.5t-45 -62.5t-38 -109t-37 -168l-18 -104q-49 -277 -120 -440t-171 -240v-457z
" />
    <glyph glyph-name="Scircumflex.alt" horiz-adv-x="1069" 
d="M885 1686l-76 75l-76 -75h-301l377 366l377 -366h-301zM1049 1247h-82q-37 0 -62.5 -7t-51.5 -28.5t-45 -62.5t-38 -109t-37 -168l-18 -104q-32 -183 -74.5 -316t-93 -220.5t-117 -139t-139.5 -72t-168 -20.5h-103v289h82q35 0 60 8t53.5 35.5t51.5 79t47.5 141.5
t47.5 219l19 105q34 193 88 324t130.5 203.5t164 102t203.5 29.5h82v-289z" />
    <glyph glyph-name="uni0218.alt" horiz-adv-x="1069" 
d="M1049 1247h-82q-37 0 -62.5 -7t-51.5 -28.5t-45 -62.5t-38 -109t-37 -168l-18 -104q-32 -183 -74.5 -316t-93 -220.5t-117 -139t-139.5 -72t-168 -20.5h-103v289h82q35 0 60 8t53.5 35.5t51.5 79t47.5 141.5t47.5 219l19 105q34 193 88 324t130.5 203.5t164 102
t203.5 29.5h82v-289zM485 -143l-79 -430h-254l28 430h305z" />
    <glyph glyph-name="i.dot" horiz-adv-x="573" 
d="M123 1286v250h326v-250h-326zM451 1174v-1174h-328v1174h328z" />
    <glyph glyph-name="caron.alt" horiz-adv-x="1024" 
d="M676 1536l-41 -410h-266v410h307z" />
    <glyph glyph-name="revcommaaccent" horiz-adv-x="1044" 
d="M315 1290l80 430h254l-28 -430h-306z" />
    </font>
</defs>
</svg>
