<svg xmlns="http://www.w3.org/2000/svg" width="22" height="25" viewBox="0 0 22 25"><g transform="translate(-854 -1170)"><path d="M11.455,0h.406L18,6.5H11.455Z" transform="translate(858 1170)" fill="#d1cece" fill-rule="evenodd"/><path d="M17.5,7H11.364V.5H1.5a1,1,0,0,0-1,1v22a1,1,0,0,0,1,1h15a1,1,0,0,0,1-1Z" transform="translate(858 1170)" fill="none" stroke="#d1cece" stroke-width="1" fill-rule="evenodd"/><rect width="22" height="10" rx="1" transform="translate(854 1181)" fill="#7cb659"/><path d="M7.218,3.723l.813-1.654H9.4L8.011,4.536,9.44,7.045H8.056L7.218,5.36,6.381,7.045H5L6.425,4.536,5.038,2.068H6.4Zm3.811,2.4h2.088v.923H9.83V2.068h1.2Zm5.161-.4A.493.493,0,0,0,16,5.312a2.316,2.316,0,0,0-.655-.3,6.274,6.274,0,0,1-.766-.3A1.45,1.45,0,0,1,13.617,3.4a1.171,1.171,0,0,1,.241-.73,1.558,1.558,0,0,1,.682-.492A2.653,2.653,0,0,1,15.531,2a2.321,2.321,0,0,1,.962.191,1.523,1.523,0,0,1,.661.545,1.424,1.424,0,0,1,.236.808h-1.2a.6.6,0,0,0-.186-.472.726.726,0,0,0-.5-.167A.819.819,0,0,0,15,3.048a.418.418,0,0,0,.019.708,2.589,2.589,0,0,0,.721.321,4.417,4.417,0,0,1,.848.357,1.424,1.424,0,0,1,.807,1.282A1.215,1.215,0,0,1,16.9,6.741a2.189,2.189,0,0,1-1.35.373,2.678,2.678,0,0,1-1.1-.217,1.652,1.652,0,0,1-.738-.595,1.55,1.55,0,0,1-.248-.87h1.2a.763.763,0,0,0,.207.59.978.978,0,0,0,.672.19.772.772,0,0,0,.47-.128A.423.423,0,0,0,16.19,5.722Z" transform="translate(854 1181)" fill="#fff" fill-rule="evenodd"/></g></svg>