<svg width="20" height="21" viewBox="0 0 20 21" fill="none" xmlns="http://www.w3.org/2000/svg">
<g clip-path="url(#clip0_4049_29544)">
<path d="M10 20.5C15.5228 20.5 20 16.0228 20 10.5C20 4.97715 15.5228 0.5 10 0.5C4.47715 0.5 0 4.97715 0 10.5C0 16.0228 4.47715 20.5 10 20.5Z" fill="#F0F0F0"/>
<path d="M9.99926 0.5C5.37898 0.5 1.49125 3.63363 0.34375 7.89129H19.6548C18.5073 3.63363 14.6195 0.5 9.99926 0.5Z" fill="#A2001D"/>
<path d="M9.99926 20.4997C14.6195 20.4997 18.5073 17.3661 19.6548 13.1084H0.34375C1.49125 17.366 5.37898 20.4997 9.99926 20.4997Z" fill="#A2001D"/>
</g>
<defs>
<clipPath id="clip0_4049_29544">
<rect width="20" height="20" fill="white" transform="translate(0 0.5)"/>
</clipPath>
</defs>
</svg>
