<svg xmlns="http://www.w3.org/2000/svg" width="20" height="21" viewBox="0 0 20 21" fill="none">
<path d="M19.9154 9.19566H11.3044H11.3044V0.584648C10.8774 0.529063 10.4421 0.5 10 0.5C9.55785 0.5 9.12262 0.529063 8.69566 0.584648V9.19559V9.19563H0.0846484C0.0290625 9.62262 0 10.0579 0 10.5C0 10.9421 0.0290625 11.3774 0.0846484 11.8043H8.69559H8.69563V20.4154C9.12262 20.4709 9.55785 20.5 10 20.5C10.4421 20.5 10.8774 20.471 11.3043 20.4154V11.8044V11.8044H19.9154C19.9709 11.3774 20 10.9421 20 10.5C20 10.0579 19.9709 9.62262 19.9154 9.19566Z" fill="#D80027"/>
<path d="M12.6094 13.1084L17.0717 17.5708C17.277 17.3656 17.4727 17.1511 17.6595 16.9288L13.8391 13.1084H12.6094V13.1084Z" fill="#D80027"/>
<path d="M7.39207 13.1084H7.39199L2.92969 17.5707C3.13484 17.7759 3.34934 17.9717 3.57168 18.1585L7.39207 14.338V13.1084Z" fill="#D80027"/>
<path d="M7.39195 7.89117V7.89109L2.92961 3.42871C2.72438 3.63387 2.52859 3.84836 2.3418 4.0707L6.16223 7.89113H7.39195V7.89117Z" fill="#D80027"/>
<path d="M12.6094 7.89102L17.0718 3.42859C16.8666 3.22336 16.6521 3.02758 16.4298 2.84082L12.6094 6.66125V7.89102Z" fill="#D80027"/>
</svg>