<svg xmlns="http://www.w3.org/2000/svg" width="22.4" height="18.572" viewBox="0 0 22.4 18.572"><path d="M109.26,5.36c4.01.05,6.35,2.59,3.7,6.06a13.576,13.576,0,0,1-6.04,4.19c-.13.05-.27.09-.4.14-.25.09-.51.17-.76.25-.6.17-1.18.32-1.74.44-.6.12-1.19.21-1.75.28-.4.04-.79.07-1.16.08-2.56.06-4.49-.66-5.12-2.2-.75-1.85.78-4.41,3.84-6.37-2.26.94-6.38,3.15-6.56,6.32v.4a4.5,4.5,0,0,0,.18.99c.66,2.13,3.74,3.13,7.66,2.77.38-.03.77-.08,1.16-.14.57-.08,1.15-.2,1.75-.34.57-.14,1.15-.31,1.74-.5.12-.04.25-.08.38-.13.27-.09.53-.18.78-.28a16.261,16.261,0,0,0,7.39-4.9,6.166,6.166,0,0,0,1.36-3.07v-.7C115.44,6.35,112.82,4.99,109.26,5.36Zm-2.61-1.15a1.112,1.112,0,0,0,.27-.03,1.437,1.437,0,0,0,.87-1.51,1.283,1.283,0,0,0-.87-1.53.913.913,0,0,0-.17-.01,1.026,1.026,0,0,0-.99.75,2.451,2.451,0,0,0-.15.79,2.224,2.224,0,0,0,.15.92.92.92,0,0,0,.89.62Zm-.01.27a2.539,2.539,0,0,0-.65.07l.05.07.1.18.07.19.07.19.04.2.04.2.02.21V6.2l-.01.2-.01.21-.03.21-.03.2-.03.21-.04.21-.04.2-.05.2-.04.19-.04.19-.05.18-.04.17-.04.16-.04.16-.02.1-.02.12-.03.12-.02.12-.02.14-.02.11v.03l-.03.14-.03.15-.02.15-.02.16-.02.16-.03.16-.02.17-.02.16-.02.16-.02.17-.02.17h0c.04.48.07.89.09,1.12a1.188,1.188,0,0,0,.16.59.7.7,0,0,0,.6.28.881.881,0,0,0,.56-.2,1.167,1.167,0,0,0,.26-.67c.1-.68.4-2.93.66-3.9.37-1.39,1.25-3.92-.92-4.11a2.529,2.529,0,0,0-.28-.01ZM104,3.76h.02c.84,0,1.23-.8,1.23-1.77S104.86.22,104.02.21H104c-.85,0-1.24.8-1.24,1.78S103.15,3.76,104,3.76Zm-1.73,4.11c.08.34.16.65.22.93.27,1.11.52,3.69.62,4.47a.91.91,0,1,0,1.81,0c.09-.78.35-3.36.61-4.47.06-.28.15-.59.23-.93a4.626,4.626,0,0,0,0-2.99,2.267,2.267,0,0,0-3.49,0,4.561,4.561,0,0,0,0,2.99Zm-1.16-3.69a1.086,1.086,0,0,0,.26.03.923.923,0,0,0,.9-.62,2.4,2.4,0,0,0,.14-.92,2.759,2.759,0,0,0-.14-.79,1.035,1.035,0,0,0-.99-.75.913.913,0,0,0-.17.01,1.3,1.3,0,0,0-.88,1.53,1.444,1.444,0,0,0,.88,1.51Zm-.26,8.32a1.1,1.1,0,0,0,.26.67.83.83,0,0,0,.55.2.716.716,0,0,0,.61-.28,1.448,1.448,0,0,0,.16-.59c.02-.23.05-.64.09-1.11v-.01l-.02-.17-.02-.17-.03-.16-.02-.16-.02-.17-.02-.16-.02-.16-.03-.16-.02-.15-.02-.15-.03-.14V9.61l-.02-.12-.02-.14-.03-.12-.02-.12-.03-.12-.02-.1-.03-.16-.05-.16-.04-.17-.04-.18-.05-.19-.04-.19-.04-.2-.05-.2-.04-.21-.03-.21-.02-.2-.03-.21-.02-.21-.01-.21v-.2l.01-.2.02-.21.03-.2.05-.2.06-.19.08-.19.1-.18.05-.07a2.591,2.591,0,0,0-.65-.07,2.529,2.529,0,0,0-.28.01c-2.17.19-1.29,2.72-.92,4.11.26.97.56,3.22.66,3.9Z" transform="translate(-93.27 -0.21)" fill-rule="evenodd"/></svg>