<svg xmlns="http://www.w3.org/2000/svg" width="20" height="21" viewBox="0 0 20 21" fill="none">
<path fill-rule="evenodd" clip-rule="evenodd" d="M10.5 2.5L8 5.5V8.25H4V11.25H8V18.5H11V11.25H15.5V8.25H11V6.5L12 5.5H15.5V2.5H10.5Z" fill="#222720"/>
<path d="M8 5.5L7.61589 5.17991L7.5 5.31897V5.5H8ZM10.5 2.5V2H10.2658L10.1159 2.17991L10.5 2.5ZM8 8.25V8.75H8.5V8.25H8ZM4 8.25V7.75H3.5V8.25H4ZM4 11.25H3.5V11.75H4V11.25ZM8 11.25H8.5V10.75H8V11.25ZM8 18.5H7.5V19H8V18.5ZM11 18.5V19H11.5V18.5H11ZM11 11.25V10.75H10.5V11.25H11ZM15.5 11.25V11.75H16V11.25H15.5ZM15.5 8.25H16V7.75H15.5V8.25ZM11 8.25H10.5V8.75H11V8.25ZM11 6.5L10.6464 6.14645L10.5 6.29289V6.5H11ZM12 5.5V5H11.7929L11.6464 5.14645L12 5.5ZM15.5 5.5V6H16V5.5H15.5ZM15.5 2.5H16V2H15.5V2.5ZM8.38411 5.82009L10.8841 2.82009L10.1159 2.17991L7.61589 5.17991L8.38411 5.82009ZM8.5 8.25V5.5H7.5V8.25H8.5ZM4 8.75H8V7.75H4V8.75ZM4.5 11.25V8.25H3.5V11.25H4.5ZM8 10.75H4V11.75H8V10.75ZM8.5 18.5V11.25H7.5V18.5H8.5ZM11 18H8V19H11V18ZM10.5 11.25V18.5H11.5V11.25H10.5ZM15.5 10.75H11V11.75H15.5V10.75ZM15 8.25V11.25H16V8.25H15ZM11 8.75H15.5V7.75H11V8.75ZM10.5 6.5V8.25H11.5V6.5H10.5ZM11.6464 5.14645L10.6464 6.14645L11.3536 6.85355L12.3536 5.85355L11.6464 5.14645ZM15.5 5H12V6H15.5V5ZM15 2.5V5.5H16V2.5H15ZM10.5 3H15.5V2H10.5V3Z" fill="#222720"/>
</svg>