<svg xmlns="http://www.w3.org/2000/svg" width="24.613" height="16.001" viewBox="0 0 24.613 16.001"><path d="M9.775,34.65a.536.536,0,0,1-.536-.536V32.15a.536.536,0,0,1,.536-.536H17s0,1.783-.01,1.836a8,8,0,1,1-2.49-6.258.536.536,0,0,1,0,.78l-1.435,1.351a.538.538,0,0,1-.732,0,4.962,4.962,0,1,0,1.349,5.326Zm13.434-1.492h1.933a.439.439,0,0,1,.473.394v1.356a.439.439,0,0,1-.473.394H23.209v1.611a.439.439,0,0,1-.473.394H21.11a.439.439,0,0,1-.473-.394V35.3H18.7a.439.439,0,0,1-.473-.394V33.553a.439.439,0,0,1,.473-.394h1.933V31.548a.439.439,0,0,1,.473-.394h1.627a.439.439,0,0,1,.473.394Z" transform="translate(-1.002 -25.004)" fill-rule="evenodd"/></svg>