<svg xmlns="http://www.w3.org/2000/svg" width="16" height="16" viewBox="0 0 16 16"><path d="M42.125,25H43c2.606,0,2.914.009,3.943.056a5.4,5.4,0,0,1,1.812.336,3.234,3.234,0,0,1,1.852,1.852,5.391,5.391,0,0,1,.336,1.812C50.99,30.087,51,30.4,51,33s-.01,2.913-.057,3.942a5.4,5.4,0,0,1-.336,1.811A3.237,3.237,0,0,1,48.755,40.6a5.383,5.383,0,0,1-1.812.336C45.915,40.988,45.606,41,43,41s-2.915-.01-3.943-.057a5.415,5.415,0,0,1-1.812-.336,3.234,3.234,0,0,1-1.853-1.851,5.391,5.391,0,0,1-.336-1.812C35.009,35.913,35,35.6,35,33s.009-2.913.056-3.942a5.4,5.4,0,0,1,.336-1.812,3.234,3.234,0,0,1,1.853-1.853,5.39,5.39,0,0,1,1.812-.337c.9-.041,1.249-.053,3.068-.055Zm6.085,1.62a1.171,1.171,0,1,0,1.171,1.171A1.171,1.171,0,0,0,48.21,26.62ZM43,27.991A5.011,5.011,0,1,0,48.011,33,5.011,5.011,0,0,0,43,27.991Zm0,1.759A3.253,3.253,0,1,1,39.747,33,3.253,3.253,0,0,1,43,29.75Z" transform="translate(-35 -25)"/></svg>