<svg xmlns="http://www.w3.org/2000/svg" width="15.363" height="12.479" viewBox="0 0 15.363 12.479"><path d="M16.159,6.38a6.446,6.446,0,0,1-1.81.5,3.171,3.171,0,0,0,1.386-1.74,6.3,6.3,0,0,1-2,.76,3.152,3.152,0,0,0-5.37,2.87,8.926,8.926,0,0,1-6.5-3.29A3.157,3.157,0,0,0,2.84,9.69a3.134,3.134,0,0,1-1.427-.4v.04a3.152,3.152,0,0,0,2.528,3.09,3.24,3.24,0,0,1-.83.11,3.837,3.837,0,0,1-.593-.05,3.142,3.142,0,0,0,2.944,2.18A6.448,6.448,0,0,1,.8,15.97,8.969,8.969,0,0,0,14.6,8.42c0-.14,0-.27-.009-.41a6.345,6.345,0,0,0,1.572-1.63Z" transform="translate(-0.8 -4.903)" fill-rule="evenodd"/></svg>