<svg xmlns="http://www.w3.org/2000/svg" width="16.031" height="19.004" viewBox="0 0 16.031 19.004"><path d="M72.665,35.31c.279,0,.423.247.422.731v2.285c0,.483-.143.723-.422.723a.7.7,0,0,1-.485-.239V35.545a.7.7,0,0,1,.485-.235Zm3.552,0c.322,0,.485.247.484.743v.5H75.73v-.5Q75.73,35.309,76.217,35.31Zm2.017-3.679a3.44,3.44,0,0,1,.638,1.582,24.112,24.112,0,0,1,.159,2.578V37a24.129,24.129,0,0,1-.159,2.579,3.428,3.428,0,0,1-.637,1.58,2.3,2.3,0,0,1-1.607.674C74.384,42,71.016,42,71.016,42s-4.168-.037-5.452-.16a2.727,2.727,0,0,1-1.767-.681,3.432,3.432,0,0,1-.637-1.58A24.146,24.146,0,0,1,63,37V35.792a24.129,24.129,0,0,1,.159-2.578,3.443,3.443,0,0,1,.637-1.582,2.3,2.3,0,0,1,1.606-.674c2.245-.16,5.61-.16,5.61-.16h.007s3.365,0,5.608.16a2.3,2.3,0,0,1,1.607.674Zm-11.7,8.225h0V33.681H67.7V32.67H64.308v1.011h1.143v6.176Zm3.833,0h0V34.5h-.973v4.093c-.216.3-.419.455-.614.455-.129,0-.2-.078-.229-.228a3.735,3.735,0,0,1-.007-.377V34.5H67.57v4.234a2.743,2.743,0,0,0,.085.8.6.6,0,0,0,.627.4,1.561,1.561,0,0,0,1.111-.659v.585ZM74.06,38.25V36.118a4.1,4.1,0,0,0-.1-1.077.77.77,0,0,0-.776-.6,1.316,1.316,0,0,0-1.006.581V32.67h-.973v7.187h.973v-.519a1.324,1.324,0,0,0,1.006.594.769.769,0,0,0,.776-.6,4.238,4.238,0,0,0,.1-1.081Zm3.616-.9h0V36.24a2.106,2.106,0,0,0-.3-1.261,1.35,1.35,0,0,0-1.147-.549,1.384,1.384,0,0,0-1.164.549,2.088,2.088,0,0,0-.3,1.261v1.876a2.068,2.068,0,0,0,.312,1.259,1.391,1.391,0,0,0,1.176.55,1.346,1.346,0,0,0,1.177-.582,1.367,1.367,0,0,0,.228-.58c.008-.1.021-.313.021-.625V38h-.992a6.3,6.3,0,0,1-.022.659.418.418,0,0,1-.434.389q-.5,0-.5-.744v-.95Zm-9.225-7.094H67.36V27.32a18.111,18.111,0,0,0-.666-2.3c-.23-.674-.469-1.35-.7-2.024h1.147l.773,2.851L68.658,23h1.1l-1.31,4.32Zm2.556.074a1.339,1.339,0,0,1-1.144-.553,2.083,2.083,0,0,1-.307-1.273V26.6a2.09,2.09,0,0,1,.307-1.273,1.458,1.458,0,0,1,2.289,0,2.122,2.122,0,0,1,.306,1.273v1.9a2.116,2.116,0,0,1-.306,1.273,1.343,1.343,0,0,1-1.146.559Zm-.469-3.918v2.277c0,.5.153.751.469.751s.467-.25.467-.751V26.418c0-.5-.152-.751-.467-.751s-.471.25-.471.751Zm5.5,3.844h-.982v-.59a1.582,1.582,0,0,1-1.122.665.6.6,0,0,1-.633-.4,2.7,2.7,0,0,1-.087-.8v-4.28h.979v3.986a2.181,2.181,0,0,0,.012.381c.021.151.1.229.231.229.2,0,.4-.153.62-.459V24.849h.982Z" transform="translate(-63 -22.996)" fill-rule="evenodd"/></svg>