<svg id="Layer_1" data-name="Layer 1" xmlns="http://www.w3.org/2000/svg" xmlns:xlink="http://www.w3.org/1999/xlink" viewBox="0 0 100 100"><defs><style>.cls-1{fill:url(#New_Gradient_Swatch_4);}.cls-2{fill:url(#New_Gradient_Swatch_3);}</style><linearGradient id="New_Gradient_Swatch_4" x1="41.66" y1="1.63" x2="41.66" y2="98.54" gradientUnits="userSpaceOnUse"><stop offset="0.3" stop-color="#ff1b2d"/><stop offset="0.44" stop-color="#fa1a2c"/><stop offset="0.59" stop-color="#ed1528"/><stop offset="0.76" stop-color="#d60e21"/><stop offset="0.93" stop-color="#b70519"/><stop offset="1" stop-color="#a70014"/></linearGradient><linearGradient id="New_Gradient_Swatch_3" x1="66.77" y1="7.34" x2="66.77" y2="93.06" gradientUnits="userSpaceOnUse"><stop offset="0" stop-color="#9c0000"/><stop offset="0.7" stop-color="#ff4b4b"/></linearGradient></defs><path class="cls-1" d="M33.54,78.18C28,71.65,24.43,62,24.19,51.18V48.82c.24-10.82,3.82-20.47,9.35-27C40.72,12.51,51.38,6.6,63.28,6.6a36.05,36.05,0,0,1,20,6.13A49.78,49.78,0,0,0,50.19,0H50a50,50,0,0,0-2.38,99.94c.79,0,1.58.06,2.38.06A49.81,49.81,0,0,0,83.32,87.28a36.12,36.12,0,0,1-20,6.12C51.38,93.4,40.72,87.49,33.54,78.18Z" transform="translate(0 0)"/><path class="cls-2" d="M33.54,21.82c4.59-5.41,10.52-8.68,17-8.68,14.56,0,26.36,16.5,26.36,36.86S65.09,86.86,50.53,86.86c-6.47,0-12.4-3.27-17-8.68C40.72,87.49,51.38,93.4,63.28,93.4a36.12,36.12,0,0,0,20-6.12,50,50,0,0,0,0-74.55,36.05,36.05,0,0,0-20-6.13C51.38,6.6,40.72,12.51,33.54,21.82Z" transform="translate(0 0)"/></svg>