<svg xmlns="http://www.w3.org/2000/svg" width="26.656" height="17.462" viewBox="0 0 26.656 17.462"><path d="M0,12.36A5.1,5.1,0,0,1,3.972,7.392a6.091,6.091,0,0,1,6-4.8A5.942,5.942,0,0,1,13.764,3.9a5.88,5.88,0,0,1,2.16,3.36h.324a5.1,5.1,0,0,1,0,10.2H5.124a4.836,4.836,0,0,1-1.98-.408A5.329,5.329,0,0,1,1.5,15.984,5.333,5.333,0,0,1,.408,14.352,4.933,4.933,0,0,1,0,12.36Zm1.74,0a3.228,3.228,0,0,0,.984,2.352,3.271,3.271,0,0,0,2.388.984H16.248a3.262,3.262,0,0,0,2.388-.984,3.212,3.212,0,0,0,1-2.352,3.148,3.148,0,0,0-1-2.352,3.289,3.289,0,0,0-2.388-.984H14.58a.159.159,0,0,1-.18-.18l-.084-.588A4.363,4.363,0,0,0,9.948,4.32,4.267,4.267,0,0,0,7,5.448,4.169,4.169,0,0,0,5.58,8.256l-.084.5c0,.12-.06.18-.192.18l-.54.084a3.228,3.228,0,0,0-2.172,1.072A3.367,3.367,0,0,0,1.74,12.36ZM12.36,1.9c-.12.108-.1.192.084.252a10.7,10.7,0,0,1,1.3.66c.132.036.228.024.264-.036a3.7,3.7,0,0,1,6.252,2.34l.108.768h1.7A2.813,2.813,0,0,1,24.184,10.6a2.83,2.83,0,0,1-1.836.924c-.12,0-.18.06-.18.192v1.356c0,.132.06.192.18.192a4.57,4.57,0,0,0-.276-9.132h-.18A5.588,5.588,0,0,0,16.552,0,5.27,5.27,0,0,0,12.36,1.9Z" transform="translate(0 0.002)"/></svg>