<svg xmlns="http://www.w3.org/2000/svg" width="34.921" height="28.921" viewBox="0 0 34.921 28.921"><path d="M0,24.084a1,1,0,0,0,.288.732,3.638,3.638,0,0,0,1.056.324H10.8a.953.953,0,0,0,.72-.312,1.006,1.006,0,0,0,.3-.732.934.934,0,0,0-.3-.708,1.016,1.016,0,0,0-.72-.288H1.344a1.638,1.638,0,0,0-.912.288.84.84,0,0,0-.432.7Zm1.668-3.6a.917.917,0,0,0,.3.708.885.885,0,0,0,.7.312h11.28a1.026,1.026,0,0,0,0-2.052H2.66a.935.935,0,0,0-.708.3,1.024,1.024,0,0,0-.284.732Zm1.26-2.844c0,.108.072.156.2.156H4.8c.144,0,.228-.048.264-.156a4.3,4.3,0,0,1,1.308-1.584,3.9,3.9,0,0,1,1.9-.744H8.92c.132,0,.192-.072.192-.228l.084-.672a5.085,5.085,0,0,1,.828-2.34,4.949,4.949,0,0,1,1.836-1.644,5.134,5.134,0,0,1,7.512,3.984l.084.672a.2.2,0,0,0,.216.228h1.92a3.791,3.791,0,0,1,2.76,1.152,3.677,3.677,0,0,1,1.164,2.724,3.954,3.954,0,0,1-3.936,3.924H13.308c-.132,0-.2.072-.2.228v1.6c0,.144.072.216.2.216h8.268a5.754,5.754,0,0,0,2.988-.8A5.968,5.968,0,0,0,27.54,19.2a5.579,5.579,0,0,0-.516-2.412,6.075,6.075,0,0,0,1.392-3.936A6.155,6.155,0,0,0,27.564,9.7,6.327,6.327,0,0,0,22.1,6.548a6.1,6.1,0,0,0-2.52.54,6.189,6.189,0,0,0-2.088,1.5,6.944,6.944,0,0,0-3.24-.78A7.05,7.05,0,0,0,9.744,9.38a6.91,6.91,0,0,0-2.508,4.032,6.079,6.079,0,0,0-4.32,4.152C2.94,17.58,2.928,17.6,2.928,17.64ZM3.78,27.912a.928.928,0,0,0,.312.708.935.935,0,0,0,.708.3H16.1a.935.935,0,0,0,.708-.3,1,1,0,0,0,.288-.72,1.013,1.013,0,0,0-.288-.744.987.987,0,0,0-.72-.3H4.8a.943.943,0,0,0-.72.3A1.071,1.071,0,0,0,3.78,27.912ZM12.768,4.5a.94.94,0,0,0,.288.72l.768.792a1.017,1.017,0,0,0,1.752-.732.969.969,0,0,0-.288-.708l-.78-.78a.94.94,0,0,0-.684-.3,1.022,1.022,0,0,0-.756.3.953.953,0,0,0-.3.708ZM19.2,9.756a4.293,4.293,0,0,1,5.928.1A4.076,4.076,0,0,1,26.36,12.84a4.27,4.27,0,0,1-.552,2.172,5.683,5.683,0,0,0-4.2-1.716h-.36A7.3,7.3,0,0,0,19.2,9.756Zm1.92-6.264a.917.917,0,0,0,.3.708,1,1,0,0,0,1.716-.72V1.032A1.046,1.046,0,0,0,22.86.3a.943.943,0,0,0-.72-.3.979.979,0,0,0-.72.3.987.987,0,0,0-.3.732Zm6.624,2.736a.943.943,0,0,0,.3.72.857.857,0,0,0,.72.288.833.833,0,0,0,.708-.288L31.224,5.22a.976.976,0,0,0,.288-.744,1.024,1.024,0,0,0-1.02-1.02,1.089,1.089,0,0,0-.732.276L28.06,5.52a.965.965,0,0,0-.316.708ZM28.7,20.46a1.016,1.016,0,0,0,.276.72l.792.756a.989.989,0,0,0,1.464,0,.977.977,0,0,0,.288-.72,1.065,1.065,0,0,0-.288-.732l-.768-.732a1.129,1.129,0,0,0-.78-.312.951.951,0,0,0-.708.288A1.067,1.067,0,0,0,28.7,20.46Zm1.728-7.584a.947.947,0,0,0,.324.732,1.019,1.019,0,0,0,.72.3h2.436a.953.953,0,0,0,.708-.3.987.987,0,0,0,.3-.732.934.934,0,0,0-.288-.684,1.008,1.008,0,0,0-.708-.272H31.488a1.1,1.1,0,0,0-.744.276.914.914,0,0,0-.312.68Z" transform="translate(0 0)"/></svg>