<svg xmlns="http://www.w3.org/2000/svg" width="32.201" height="31.733" viewBox="0 0 32.201 31.733"><path d="M0,19.188A5.672,5.672,0,0,0,.772,22.08,5.873,5.873,0,0,0,2.86,24.228a5.679,5.679,0,0,0,2.88.852.184.184,0,0,0,.2-.2v-1.6c0-.144-.072-.228-.2-.228a3.714,3.714,0,0,1-2.616-1.224A3.75,3.75,0,0,1,2.04,19.172,3.706,3.706,0,0,1,3.06,16.58,3.981,3.981,0,0,1,5.58,15.3l.636-.072c.144,0,.216-.072.216-.228l.1-.612a4.957,4.957,0,0,1,1.632-3.276A4.9,4.9,0,0,1,11.584,9.8,4.939,4.939,0,0,1,15,11.112a4.8,4.8,0,0,1,1.656,3.24l.084.7a.184.184,0,0,0,.2.2h1.932a3.892,3.892,0,0,1,.24,7.776.2.2,0,0,0-.228.228v1.6c0,.132.072.2.228.2a5.924,5.924,0,0,0,5.724-5.892,5.5,5.5,0,0,0-.516-2.436,6.284,6.284,0,0,0,.54-7.068,6.358,6.358,0,0,0-2.292-2.288,6.111,6.111,0,0,0-3.144-.84A6.014,6.014,0,0,0,14.784,8.6a6.663,6.663,0,0,0-3.228-.792,7.162,7.162,0,0,0-7,5.58,5.919,5.919,0,0,0-3.288,2.1A5.784,5.784,0,0,0,0,19.188ZM6.58,28.4a.975.975,0,0,0,.288.684,1.024,1.024,0,0,0,.7.288.988.988,0,0,0,.708-.276.931.931,0,0,0,.276-.7.95.95,0,0,0-.288-.708.94.94,0,0,0-.708-.276.988.988,0,0,0-.708.276,1.01,1.01,0,0,0-.272.712ZM7.6,24.048a1.024,1.024,0,0,0,.288.732.917.917,0,0,0,.708.3.935.935,0,0,0,.708-.3,1.024,1.024,0,0,0,.288-.732,1,1,0,0,0-2,0Zm2.28,6.7a.934.934,0,0,0,.288.684.946.946,0,0,0,.7.3,1.016,1.016,0,0,0,.72-.276.917.917,0,0,0,.3-.708.943.943,0,0,0-.3-.72.979.979,0,0,0-.72-.3.946.946,0,0,0-.7.3,1.016,1.016,0,0,0-.284.716Zm.18-26.256a.931.931,0,0,0,.288.708l.792.792a.905.905,0,0,0,.636.3.878.878,0,0,0,.732-.264.989.989,0,0,0,.36-.756,1.132,1.132,0,0,0-.288-.768l-.764-.732a.875.875,0,0,0-.7-.3,1.022,1.022,0,0,0-.756.3.943.943,0,0,0-.3.716Zm.84,21.86a1.019,1.019,0,0,0,.3.72.934.934,0,0,0,.684.288,1.024,1.024,0,0,0,.732-.288.943.943,0,0,0,.3-.72,1.024,1.024,0,0,0-1.032-1.02.927.927,0,0,0-.7.3A1.016,1.016,0,0,0,10.9,26.352Zm.516-4.32a.942.942,0,0,0,.288.7.961.961,0,0,0,.7.288.977.977,0,0,0,.72-.288.917.917,0,0,0,.3-.708.934.934,0,0,0-.3-.708,1.016,1.016,0,0,0-.72-.288.942.942,0,0,0-.7.288,1,1,0,0,0-.284.716ZM14.264,28.4a1.015,1.015,0,0,0,.276.684,1.037,1.037,0,0,0,.72.288.988.988,0,0,0,.708-.276.931.931,0,0,0,.276-.7.988.988,0,0,0-.276-.708.94.94,0,0,0-.708-.276.977.977,0,0,0-.72.288.931.931,0,0,0-.272.7Zm1.02-4.356a1.024,1.024,0,0,0,.288.732.985.985,0,0,0,1.416,0,1.024,1.024,0,0,0,.288-.732,1,1,0,0,0-1.7-.7.961.961,0,0,0-.288.7Zm1.176-14.3A4.133,4.133,0,0,1,19.424,8.56,4.033,4.033,0,0,1,22.4,9.8a4.087,4.087,0,0,1,1.236,2.988A4.451,4.451,0,0,1,23.028,15a5.644,5.644,0,0,0-4.164-1.728H18.48a7.308,7.308,0,0,0-2.016-3.528Zm1.92-6.264a.892.892,0,0,0,.3.7,1.067,1.067,0,0,0,.732.276.988.988,0,0,0,.712-.288.931.931,0,0,0,.276-.7V1.032A1.024,1.024,0,0,0,20.112.3a.884.884,0,0,0-.684-.3.991.991,0,0,0-.72.312.991.991,0,0,0-.312.72V3.48ZM25,6.2a.935.935,0,0,0,.3.708,1.01,1.01,0,0,0,.672.312.924.924,0,0,0,.744-.312L28.436,5.2a1.015,1.015,0,0,0,0-1.464.979.979,0,0,0-.72-.3.946.946,0,0,0-.7.3L25.3,5.484a.943.943,0,0,0-.3.72Zm.96,14.16a1.013,1.013,0,0,0,.288.744l.768.756a1.459,1.459,0,0,0,.768.288.928.928,0,0,0,.672-.312,1.006,1.006,0,0,0,.3-.732.921.921,0,0,0-.312-.7l-.744-.78a1.065,1.065,0,0,0-.732-.288,1.025,1.025,0,0,0-1.008,1.02Zm1.74-7.572a.928.928,0,0,0,.312.708.991.991,0,0,0,.744.324h2.424a1.024,1.024,0,0,0,1.02-1.032.943.943,0,0,0-.3-.72,1.028,1.028,0,0,0-.72-.3h-2.42a1.033,1.033,0,0,0-.744.3.947.947,0,0,0-.316.72Z" transform="translate(-0.003 0)"/></svg>