<svg xmlns="http://www.w3.org/2000/svg" width="32.376" height="32.201" viewBox="0 0 32.376 32.201"><path d="M0,19.236a5.727,5.727,0,0,0,1.668,4.132A5.85,5.85,0,0,0,5.76,25.2a.184.184,0,0,0,.2-.2V23.388a.184.184,0,0,0-.2-.2,3.731,3.731,0,0,1-2.628-1.24,3.849,3.849,0,0,1-1.08-2.712,3.706,3.706,0,0,1,1.02-2.592A3.953,3.953,0,0,1,5.588,15.36l.636-.06c.156,0,.24-.072.24-.2l.084-.648a5.088,5.088,0,0,1,5.068-4.584,5.158,5.158,0,0,1,5.112,4.58l.084.684c0,.144.072.228.2.228h1.944a3.791,3.791,0,0,1,2.76,1.152,3.678,3.678,0,0,1,1.172,2.724,3.829,3.829,0,0,1-1.08,2.712,3.777,3.777,0,0,1-2.62,1.236c-.144,0-.228.072-.228.2v1.608c0,.132.072.2.228.2a5.945,5.945,0,0,0,5.736-5.952,5.792,5.792,0,0,0-.5-2.412,6.318,6.318,0,0,0,.552-7.14,6.242,6.242,0,0,0-2.3-2.3,6.142,6.142,0,0,0-3.144-.84A5.958,5.958,0,0,0,14.868,8.64a6.757,6.757,0,0,0-3.252-.792,7.2,7.2,0,0,0-7.028,5.62A5.792,5.792,0,0,0,1.3,15.556,5.73,5.73,0,0,0,0,19.236Zm6.48,8.232a1.029,1.029,0,0,0,.78.988,2.109,2.109,0,0,0,.324.048.909.909,0,0,0,.924-.768l1.9-7.056a.991.991,0,0,0-.1-.8.92.92,0,0,0-.636-.456.884.884,0,0,0-.756.084,1.01,1.01,0,0,0-.492.612l-1.9,7.092C6.5,27.36,6.48,27.444,6.48,27.468Zm3.132,3.7a1.146,1.146,0,0,0,.18.624.84.84,0,0,0,.624.36,2.221,2.221,0,0,0,.312.048.866.866,0,0,0,.54-.2.988.988,0,0,0,.324-.576l2.88-10.716a1,1,0,0,0-.084-.768,1.046,1.046,0,0,0-.6-.48.933.933,0,0,0-.78.084.954.954,0,0,0-.48.612L9.648,30.868C9.624,31.044,9.612,31.152,9.612,31.168Zm.5-26.676a.987.987,0,0,0,.3.732l.78.792a1.177,1.177,0,0,0,.744.264,1.044,1.044,0,0,0,.7-.276.928.928,0,0,0,.312-.708,1.132,1.132,0,0,0-.288-.768l-.768-.78a1.05,1.05,0,0,0-1.776.744Zm4.476,23a1.012,1.012,0,0,0,.18.564.987.987,0,0,0,.552.384,2.414,2.414,0,0,0,.3.048,1.058,1.058,0,0,0,.588-.18.892.892,0,0,0,.36-.588l1.9-7.056a1,1,0,0,0-.684-1.248.986.986,0,0,0-1.248.7l-1.9,7.092C14.616,27.384,14.588,27.48,14.588,27.492ZM16.548,9.8a4.182,4.182,0,0,1,2.976-1.2,4.067,4.067,0,0,1,3,1.248,4.11,4.11,0,0,1,1.236,3.024,4.421,4.421,0,0,1-.624,2.22,5.7,5.7,0,0,0-4.188-1.74h-.4A6.916,6.916,0,0,0,16.548,9.8Zm1.944-6.3a.935.935,0,0,0,.3.708,1.024,1.024,0,0,0,.732.288,1.008,1.008,0,0,0,.708-.276.95.95,0,0,0,.288-.708V1.044a1.064,1.064,0,0,0-.276-.756A.95.95,0,0,0,19.536,0a.977.977,0,0,0-.744.3,1.032,1.032,0,0,0-.288.744V3.5ZM25.128,6.24a.882.882,0,0,0,.324.708.934.934,0,0,0,.66.312.9.9,0,0,0,.744-.312l1.732-1.716a.988.988,0,0,0,.312-.756.969.969,0,0,0-.3-.732,1.024,1.024,0,0,0-.732-.288.986.986,0,0,0-.7.3L25.452,5.484a1,1,0,0,0-.324.756ZM26.1,20.46a1.1,1.1,0,0,0,.288.756l.78.756a1.145,1.145,0,0,0,.72.252l.024.024a.942.942,0,0,0,.7-.288,1,1,0,0,0,.288-.732.885.885,0,0,0-.312-.7l-.744-.792a1.1,1.1,0,0,0-.744-.288.934.934,0,0,0-.708.3.969.969,0,0,0-.292.712Zm1.752-7.6a.928.928,0,0,0,.312.708,1,1,0,0,0,.744.312h2.436a1.027,1.027,0,0,0,.732-1.752,1,1,0,0,0-.732-.312H28.908a1.045,1.045,0,0,0-.744.312.955.955,0,0,0-.312.74Z" transform="translate(0.001 0.001)"/></svg>