<svg xmlns="http://www.w3.org/2000/svg" width="32.425" height="32.34" viewBox="0 0 32.425 32.34"><path d="M0,19.272a5.782,5.782,0,0,0,1.2,3.6,5.719,5.719,0,0,0,3.1,2.112l-.792,2.04c-.06.168,0,.264.168.264H6.228L4.512,32.34H4.86l5.232-6.792a.145.145,0,0,0,.024-.168c-.024-.06-.084-.084-.168-.084H7.32l2.992-5.58c.084-.168.036-.264-.168-.264H6.588a.322.322,0,0,0-.276.18L5.028,23.088a3.948,3.948,0,0,1-2.976-3.816A3.743,3.743,0,0,1,3.06,16.656a3.981,3.981,0,0,1,2.532-1.284l.612-.036a.246.246,0,0,0,.264-.168l.084-.708a5.088,5.088,0,0,1,5.076-4.584A5,5,0,0,1,15.06,11.2a4.908,4.908,0,0,1,1.68,3.264l.1.708c0,.132.072.2.216.2h1.932A3.817,3.817,0,0,1,21.76,16.52a3.711,3.711,0,0,1,1.164,2.748,3.829,3.829,0,0,1-1.08,2.712,3.753,3.753,0,0,1-2.62,1.236c-.156,0-.24.072-.24.216V25.04c0,.132.084.2.24.2a5.594,5.594,0,0,0,2.9-.864,6.04,6.04,0,0,0,2.088-2.16,5.815,5.815,0,0,0,.768-2.94,5.633,5.633,0,0,0-.516-2.424,6.338,6.338,0,0,0-1.788-9.42,6.242,6.242,0,0,0-5.684-.316,6.455,6.455,0,0,0-2.112,1.5,6.832,6.832,0,0,0-3.268-.78,7.2,7.2,0,0,0-7.04,5.628,5.792,5.792,0,0,0-3.288,2.088A5.933,5.933,0,0,0,0,19.272ZM10.092,4.524a.979.979,0,0,0,.3.72l.78.792a1.034,1.034,0,0,0,.66.312.855.855,0,0,0,.732-.276,1,1,0,0,0,.36-.768.979.979,0,0,0-.3-.72l-.756-.792a.977.977,0,0,0-.72-.288,1.061,1.061,0,0,0-.756.288A1.078,1.078,0,0,0,10.092,4.524Zm1.42,22.044a.931.931,0,0,0,.288.708.961.961,0,0,0,.7.288,1.024,1.024,0,0,0,.732-.288.934.934,0,0,0,.3-.708.987.987,0,0,0-.3-.732,1,1,0,0,0-.732-.312.959.959,0,0,0-.7.312.976.976,0,0,0-.288.732Zm0-4.368a.9.9,0,0,0,.288.7.961.961,0,0,0,.7.288,1.046,1.046,0,0,0,.732-.276.941.941,0,0,0,.3-.708,1.024,1.024,0,0,0-1.032-1.02.91.91,0,0,0-.7.3A1.016,1.016,0,0,0,11.512,22.2Zm0,8.772a.934.934,0,0,0,.288.684.947.947,0,0,0,.7.3,1.024,1.024,0,0,0,.732-.288.917.917,0,0,0,.3-.708.987.987,0,0,0-.3-.732,1,1,0,0,0-.732-.312.959.959,0,0,0-.7.312A1.1,1.1,0,0,0,11.512,30.972Zm3.876-6.732a.943.943,0,0,0,.3.72,1.008,1.008,0,0,0,.72.3.935.935,0,0,0,.708-.3,1.016,1.016,0,0,0,.288-.72.961.961,0,0,0-.288-.7.951.951,0,0,0-.708-.288,1.016,1.016,0,0,0-.72.288.909.909,0,0,0-.3.7Zm0,4.368a.942.942,0,0,0,.288.7.977.977,0,0,0,.72.288.951.951,0,0,0,.708-.288.94.94,0,0,0,.276-.708.988.988,0,0,0-.276-.708.94.94,0,0,0-.708-.276,1.016,1.016,0,0,0-.72.276.978.978,0,0,0-.292.716Zm1.2-18.768a4.291,4.291,0,0,1,5.952.072,4.067,4.067,0,0,1,1.248,3,4.342,4.342,0,0,1-.564,2.172A5.739,5.739,0,0,0,19,13.356h-.372A6.79,6.79,0,0,0,16.584,9.84ZM18.5,3.516a1.024,1.024,0,0,0,1.02,1.032.943.943,0,0,0,.72-.3,1.024,1.024,0,0,0,.288-.732V1.044a1,1,0,0,0-.288-.732A.953.953,0,0,0,19.524,0a.943.943,0,0,0-.72.3,1.035,1.035,0,0,0-.3.732Zm6.7,2.748a1.016,1.016,0,0,0,.276.72.957.957,0,0,0,1.416,0L28.62,5.256a.913.913,0,0,0,.312-.72.953.953,0,0,0-.312-.72.959.959,0,0,0-1.416,0L25.476,5.544a.932.932,0,0,0-.276.72Zm.924,14.292a.979.979,0,0,0,.3.72l.78.756a1.053,1.053,0,0,0,.744.3l.024.024a.785.785,0,0,0,.648-.324.913.913,0,0,0,.312-.72,1.038,1.038,0,0,0-.312-.732l-.744-.744a1,1,0,0,0-.732-.324.953.953,0,0,0-.72.312,1.056,1.056,0,0,0-.3.732Zm1.76-7.64a1.068,1.068,0,0,0,1.032,1.02h2.472a1.024,1.024,0,0,0,1.032-1.02.961.961,0,0,0-.3-.72,1.024,1.024,0,0,0-.732-.288H28.92a1,1,0,0,0-.732.288.943.943,0,0,0-.3.72Z" transform="translate(0 0)"/></svg>