<svg xmlns="http://www.w3.org/2000/svg" width="32.261" height="25.129" viewBox="0 0 32.261 25.129"><path d="M0,19.188a5.907,5.907,0,0,0,5.916,5.94h13a5.935,5.935,0,0,0,5.952-5.94,6.2,6.2,0,0,0-.5-2.4,6.042,6.042,0,0,0,1.36-3.96A6.276,6.276,0,0,0,19.436,6.54a6.247,6.247,0,0,0-4.652,2.088,6.418,6.418,0,0,0-3.24-.792,7.13,7.13,0,0,0-6.972,5.592,5.7,5.7,0,0,0-3.288,2.08A5.786,5.786,0,0,0,0,19.188Zm2.052,0a3.714,3.714,0,0,1,1.008-2.6,3.937,3.937,0,0,1,2.52-1.28l.6-.036a.2.2,0,0,0,.228-.216l.084-.648a5.135,5.135,0,0,1,1.692-3.252,4.844,4.844,0,0,1,3.372-1.308A4.988,4.988,0,0,1,15,11.168a4.788,4.788,0,0,1,1.644,3.252l.084.7a.23.23,0,0,0,.252.2h1.932A3.934,3.934,0,0,1,22.8,19.2a3.822,3.822,0,0,1-1.14,2.784,3.718,3.718,0,0,1-2.732,1.156H5.916a3.678,3.678,0,0,1-2.724-1.164,3.862,3.862,0,0,1-1.14-2.784Zm8.04-14.724a1.1,1.1,0,0,0,.288.756l.792.768a1.124,1.124,0,0,0,.768.3.884.884,0,0,0,.66-.312,1.052,1.052,0,0,0,.288-.744.91.91,0,0,0-.312-.708l-.708-.792a1.065,1.065,0,0,0-.732-.288,1.014,1.014,0,0,0-.744.3.943.943,0,0,0-.3.72ZM16.5,9.78a4.259,4.259,0,0,1,5.964.036,4.094,4.094,0,0,1,1.248,3.012,4.451,4.451,0,0,1-.612,2.208,5.736,5.736,0,0,0-4.188-1.728h-.384A7.156,7.156,0,0,0,16.5,9.78Zm1.956-6.336a1.035,1.035,0,0,0,.276.744.923.923,0,0,0,.708.276,1.035,1.035,0,0,0,.744-.276.987.987,0,0,0,.276-.744V.984a.95.95,0,0,0-.288-.708A.977.977,0,0,0,19.44,0a.988.988,0,0,0-.708.276.923.923,0,0,0-.276.708ZM25.08,6.192a1.027,1.027,0,0,0,.264.744,1.24,1.24,0,0,0,.744.288,1.2,1.2,0,0,0,.708-.288L28.512,5.22a1.111,1.111,0,0,0,.288-.768.984.984,0,0,0-1-1.008.9.9,0,0,0-.7.288L25.344,5.448A1.153,1.153,0,0,0,25.08,6.192ZM26.028,20.4a1.061,1.061,0,0,0,.3.756l.78.756a.9.9,0,0,0,.7.288.943.943,0,0,0,.72-.3,1.032,1.032,0,0,0,.288-.744.961.961,0,0,0-.288-.7l-.78-.78a.935.935,0,0,0-.684-.288.977.977,0,0,0-.72.288.952.952,0,0,0-.316.724Zm1.764-7.572a.921.921,0,0,0,.312.7,1,1,0,0,0,.732.288h2.448a.979.979,0,0,0,.7-.276.923.923,0,0,0,.276-.708,1.016,1.016,0,0,0-.276-.72.933.933,0,0,0-.7-.3H28.836a.987.987,0,0,0-.732.3.946.946,0,0,0-.312.716Z" transform="translate(0 0.001)"/></svg>