<?xml version="1.0" encoding="utf-8"?>
<!-- Generator: Adobe Illustrator 26.3.1, SVG Export Plug-In . SVG Version: 6.00 Build 0)  -->
<svg version="1.1" id="Layer_1" xmlns="http://www.w3.org/2000/svg" xmlns:xlink="http://www.w3.org/1999/xlink" x="0px" y="0px"
	 viewBox="0 0 26 19" style="enable-background:new 0 0 26 19;" xml:space="preserve">
<g>
	<path d="M23.7,8.1c-0.5-0.5-1.2-1-1.9-1.3c-0.9-0.4-1.7-0.4-2.6-0.4c-0.3-1.2-0.9-2.4-1.8-3.3c-1.3-1.4-3.2-2.2-5.1-2.2
		c-1.6,0-3.2,0.5-4.5,1.6s-2.2,2.4-2.5,4C4,6.8,2.8,7.5,2,8.6c-0.8,1-1.3,2.4-1.3,3.7c0,0.8,0.1,1.6,0.4,2.3s0.7,1.4,1.3,1.9
		c0.5,0.6,1.2,1,1.9,1.3C5,18,5.7,18.1,6.5,18.1h13c1,0,2.1-0.3,3-0.8s1.6-1.3,2.2-2.2c0.4-0.7,0.6-1.4,0.7-2.2
		C25.6,11.2,25,9.4,23.7,8.1C23.7,8.1,23.7,8.1,23.7,8.1z M23.1,13.7c-0.2,0.5-0.5,0.9-0.9,1.3c-0.4,0.4-0.8,0.7-1.2,0.9
		c-0.5,0.2-1,0.3-1.5,0.3h-13c-0.5,0-1-0.1-1.5-0.3S4.1,15.4,3.8,15c-0.4-0.4-0.7-0.8-0.9-1.3c-0.2-0.5-0.3-1-0.3-1.5
		c0-1,0.3-1.9,1-2.6c0.7-0.7,1.6-1.2,2.5-1.3h0.8L7,7.4C7.2,6.2,7.8,5,8.8,4.2c0.9-0.9,2.1-1.3,3.4-1.3s2.5,0.5,3.4,1.3
		c1,0.8,1.5,2,1.7,3.3l0.1,0.9h2.1c0.5,0,1,0.1,1.5,0.3s0.9,0.5,1.3,0.8s0.7,0.8,0.9,1.2c0,0,0,0,0,0c0.3,0.9,0.3,1.8,0,2.7
		C23.2,13.5,23.1,13.6,23.1,13.7z"/>
</g>
</svg>
