<svg xmlns="http://www.w3.org/2000/svg" width="26.073" height="19.78" viewBox="0 0 26.073 19.78"><path d="M0,13.848a5.784,5.784,0,0,1,1.272-3.7A5.62,5.62,0,0,1,4.56,8.088a7.012,7.012,0,0,1,1.68-3.24A7.225,7.225,0,0,1,14.412,3.06,6.22,6.22,0,0,1,15.6,1.6,5.568,5.568,0,0,1,17,.648,7.969,7.969,0,0,1,18.416.156,5.856,5.856,0,0,1,19.76,0a6.083,6.083,0,0,1,1.476.192l.984.3c.168.072.216.156.168.264l-.168.72a4.7,4.7,0,0,0-.12,1.032,3.826,3.826,0,0,0,.18,1.14,4.564,4.564,0,0,0,.528,1.128,3.58,3.58,0,0,0,.96,1,4.5,4.5,0,0,0,1.38.684l.744.264q.18.054.18.192A.3.3,0,0,1,26.048,7l-.216.8a5.931,5.931,0,0,1-1.8,3.084,5.806,5.806,0,0,1,.784,2.684,1.632,1.632,0,0,1,.012.276,5.741,5.741,0,0,1-.8,2.976,5.919,5.919,0,0,1-2.16,2.16,5.858,5.858,0,0,1-2.976.8H5.916a5.741,5.741,0,0,1-2.976-.8A5.978,5.978,0,0,1,.792,16.82,5.784,5.784,0,0,1,0,13.848Zm2.052,0A3.818,3.818,0,0,0,3.2,16.62,3.683,3.683,0,0,0,5.916,17.8H18.888a3.666,3.666,0,0,0,2.736-1.164,3.862,3.862,0,0,0,1.14-2.784,3.666,3.666,0,0,0-1.152-2.712A3.773,3.773,0,0,0,18.876,10H16.74l-.12-.9a4.854,4.854,0,0,0-1.512-3.108,5.1,5.1,0,0,0-3.156-1.44,1.187,1.187,0,0,1-.18-.012,1.108,1.108,0,0,0-.18-.012,5.353,5.353,0,0,0-1.848.348V4.848A5.245,5.245,0,0,0,6.456,9.1l-.084.864L5.556,10a3.937,3.937,0,0,0-2.524,1.272A3.656,3.656,0,0,0,2.052,13.848Zm14.1-9.732a6.8,6.8,0,0,1,2.364,3.816H18.9a5.458,5.458,0,0,1,3.8,1.416,3.99,3.99,0,0,0,.912-1.284A5.941,5.941,0,0,1,21.02,5.7a6.483,6.483,0,0,1-.944-3.332V2.076a1.787,1.787,0,0,0-.288-.012,3.957,3.957,0,0,0-2.04.528A4.14,4.14,0,0,0,16.152,4.116Z" transform="translate(0.001)"/></svg>