<svg xmlns="http://www.w3.org/2000/svg" width="26.184" height="26.874" viewBox="0 0 26.184 26.874"><path d="M0,13.85a5.742,5.742,0,0,0,1.192,3.564,5.954,5.954,0,0,0,3.1,2.148l-.78,2.04c-.048.168,0,.252.168.252H6.224L4.668,26.87H5l5.076-6.744a.145.145,0,0,0,.024-.168.17.17,0,0,0-.168-.084H7.32l2.964-5.568c.084-.168.036-.264-.156-.264H6.576a.305.305,0,0,0-.264.18l-1.284,3.46a3.909,3.909,0,0,1-2.136-1.4A3.753,3.753,0,0,1,2.04,13.87a3.714,3.714,0,0,1,1.02-2.6A4.01,4.01,0,0,1,5.58,9.986L6.216,9.9c.156,0,.24-.072.24-.216l.084-.612A5.088,5.088,0,0,1,11.6,4.482a5.161,5.161,0,0,1,5.112,4.572l.084.684c0,.144.072.228.2.228h1.944a3.869,3.869,0,0,1,2.8,1.14,3.8,3.8,0,0,1,.084,5.388,3.937,3.937,0,0,1-2.64,1.236.2.2,0,0,0-.228.228v1.624c0,.144.072.216.228.216a5.945,5.945,0,0,0,5.736-5.952,5.813,5.813,0,0,0-.792-2.94,6.38,6.38,0,0,0,1.812-3.144l.228-.816c.012-.012.012-.036.012-.084,0-.1-.06-.156-.18-.192l-.744-.2a4.181,4.181,0,0,1-1.752-1.008A4.33,4.33,0,0,1,22.488,4,3.759,3.759,0,0,1,22.2,2.482a4.3,4.3,0,0,1,.12-1.02L22.452.73a.231.231,0,0,0-.168-.276l-.96-.288A8.056,8.056,0,0,0,19.836,0,5.271,5.271,0,0,0,18.48.142a7.405,7.405,0,0,0-1.428.48,5.417,5.417,0,0,0-1.416.948,6.34,6.34,0,0,0-1.188,1.44,8.1,8.1,0,0,0-2.832-.552A7,7,0,0,0,7.1,4.042a7.081,7.081,0,0,0-2.532,4.04A5.931,5.931,0,0,0,0,13.854Zm11.508,7.284a.931.931,0,0,0,.288.708.961.961,0,0,0,.7.288,1.024,1.024,0,0,0,.732-.288.935.935,0,0,0,.3-.708.987.987,0,0,0-.3-.732,1,1,0,0,0-.732-.312.959.959,0,0,0-.7.312.976.976,0,0,0-.288.732Zm0-4.368a.9.9,0,0,0,.288.7.961.961,0,0,0,.7.288,1.046,1.046,0,0,0,.732-.276.941.941,0,0,0,.3-.708A1.024,1.024,0,0,0,12.5,15.75a.91.91,0,0,0-.7.3A1.016,1.016,0,0,0,11.508,16.766Zm0,8.772a.934.934,0,0,0,.288.684.946.946,0,0,0,.7.3,1.024,1.024,0,0,0,.732-.288.917.917,0,0,0,.3-.708.987.987,0,0,0-.3-.732,1,1,0,0,0-.736-.312.959.959,0,0,0-.7.312A1.1,1.1,0,0,0,11.508,25.538Zm3.876-6.732a.943.943,0,0,0,.3.72,1.008,1.008,0,0,0,.72.3.935.935,0,0,0,.708-.3,1.016,1.016,0,0,0,.288-.72.961.961,0,0,0-.288-.7.951.951,0,0,0-.708-.288,1.016,1.016,0,0,0-.72.288.909.909,0,0,0-.3.7Zm0,4.368a.942.942,0,0,0,.288.7.977.977,0,0,0,.72.288.951.951,0,0,0,.708-.288.94.94,0,0,0,.276-.708.988.988,0,0,0-.276-.708.94.94,0,0,0-.708-.276,1.016,1.016,0,0,0-.72.276.977.977,0,0,0-.288.716ZM16.2,4.106a4.068,4.068,0,0,1,1.608-1.548,4.424,4.424,0,0,1,2.112-.54h.264V2.4a6.178,6.178,0,0,0,.408,2.232,6.3,6.3,0,0,0,1.224,1.992,6.07,6.07,0,0,0,1.932,1.456,3.713,3.713,0,0,1-.912,1.236,5.741,5.741,0,0,0-3.864-1.4h-.4A6.8,6.8,0,0,0,16.2,4.106Z" transform="translate(0 0.004)"/></svg>