<svg xmlns="http://www.w3.org/2000/svg" width="26.249" height="26.789" viewBox="0 0 26.249 26.789"><path d="M0,13.92a5.738,5.738,0,0,0,1.68,4.128,5.867,5.867,0,0,0,4.08,1.836c.144,0,.216-.072.216-.2V18.072c0-.132-.072-.2-.216-.2a3.779,3.779,0,0,1-2.628-1.236,3.829,3.829,0,0,1-1.08-2.712,3.714,3.714,0,0,1,1.02-2.6,3.953,3.953,0,0,1,2.52-1.284l.636-.048c.156,0,.24-.072.24-.2l.084-.648a5.131,5.131,0,0,1,10.2,0l.1.684c0,.144.072.216.2.216H19A3.846,3.846,0,0,1,21.78,11.2a3.715,3.715,0,0,1,1.176,2.724,3.829,3.829,0,0,1-1.08,2.712,3.78,3.78,0,0,1-2.628,1.236c-.168,0-.252.072-.252.2V19.68c0,.132.084.2.252.2A5.669,5.669,0,0,0,23.3,18.068a5.774,5.774,0,0,0,1.668-4.14,5.7,5.7,0,0,0-.816-2.952,6.091,6.091,0,0,0,1.9-3.144l.168-.864a.115.115,0,0,0,.024-.084c0-.084-.06-.156-.192-.192l-.672-.216a4.036,4.036,0,0,1-1.752-1,4.094,4.094,0,0,1-1.356-3.012,3.387,3.387,0,0,1,.1-.984l.168-.732c.048-.12,0-.216-.168-.288l-.96-.28A7.013,7.013,0,0,0,19.892,0a5.909,5.909,0,0,0-1.368.156,7.31,7.31,0,0,0-1.44.492,5.48,5.48,0,0,0-1.44.96,6.214,6.214,0,0,0-1.2,1.464,8.163,8.163,0,0,0-2.8-.54A7,7,0,0,0,7.132,4.116,7.072,7.072,0,0,0,4.608,8.16a5.774,5.774,0,0,0-3.292,2.08A5.6,5.6,0,0,0,0,13.92Zm6.672,8.208a1.029,1.029,0,0,0,.78.988,1.049,1.049,0,0,0,.768-.048A.943.943,0,0,0,8.7,22.4l1.716-7.048a1.073,1.073,0,0,0-.1-.8.918.918,0,0,0-.624-.444.884.884,0,0,0-.756.084,1.01,1.01,0,0,0-.492.612L6.716,21.876c0,.012-.012.048-.024.108A.886.886,0,0,0,6.672,22.128ZM9.8,25.812a.975.975,0,0,0,.18.552.941.941,0,0,0,.54.372,1.159,1.159,0,0,0,.288.048.916.916,0,0,0,.984-.708L14.5,15.36a.991.991,0,0,0-.684-1.248.965.965,0,0,0-.792.084.9.9,0,0,0-.468.6L9.84,25.5a1,1,0,0,1-.012.144A.5.5,0,0,0,9.8,25.812ZM14.8,22.224c0,.432.252.72.756.888a1.525,1.525,0,0,0,.36.072,1.091,1.091,0,0,0,.42-.084.816.816,0,0,0,.468-.7l1.716-7.04a.976.976,0,0,0-.1-.78,1.017,1.017,0,0,0-.612-.468.965.965,0,0,0-.792.084.854.854,0,0,0-.456.612l-1.716,7.08C14.816,22.08,14.8,22.2,14.8,22.224Zm1.42-18.06a3.948,3.948,0,0,1,1.572-1.6A4.215,4.215,0,0,1,19.9,2.04a2.328,2.328,0,0,1,.324.012v.36A6.209,6.209,0,0,0,23.8,8.076a3.888,3.888,0,0,1-.948,1.284A5.876,5.876,0,0,0,18.972,8H18.6A6.636,6.636,0,0,0,16.216,4.164Z" transform="translate(0 0)"/></svg>