<svg xmlns="http://www.w3.org/2000/svg" width="30.385" height="23.6" viewBox="0 0 30.385 23.6"><path d="M0,18.852a.917.917,0,0,0,.3.708,1.052,1.052,0,0,0,.756.276h11.28a.988.988,0,0,0,.708-.276.94.94,0,0,0,.276-.708,1.025,1.025,0,0,0-.276-.732.951.951,0,0,0-.708-.288H1.056A1.061,1.061,0,0,0,.3,18.12a.951.951,0,0,0-.3.732Zm3.156-3.66a.953.953,0,0,0,.312.72.943.943,0,0,0,.72.3h11.3a.934.934,0,0,0,.708-.3,1.045,1.045,0,0,0,.012-1.428A.931.931,0,0,0,15.5,14.2H4.2a1.024,1.024,0,0,0-.732.288.946.946,0,0,0-.312.708ZM4.4,12.384c0,.108.072.168.216.168H6.336a.315.315,0,0,0,.264-.168,3.941,3.941,0,0,1,1.248-1.62,3.42,3.42,0,0,1,1.9-.72l.66-.084c.144,0,.216-.072.216-.2l.084-.624a4.878,4.878,0,0,1,1.656-3.264,5,5,0,0,1,3.444-1.308,4.933,4.933,0,0,1,3.408,1.3,5.106,5.106,0,0,1,1.692,3.252l.1.7c0,.132.072.2.216.2h1.932a3.933,3.933,0,0,1,3.924,3.916,3.976,3.976,0,0,1-3.924,3.912H14.868a.184.184,0,0,0-.2.2v1.608a.184.184,0,0,0,.2.2H23.16a5.957,5.957,0,0,0,5.184-8.9,6.148,6.148,0,0,0,1.812-3.1l.216-.816c.012-.012.012-.036.012-.084,0-.1-.06-.156-.18-.192L29.46,6.5a4.31,4.31,0,0,1-1.392-.684,3.8,3.8,0,0,1-.96-1.008,4.563,4.563,0,0,1-.528-1.128,3.767,3.767,0,0,1-.18-1.14,5.367,5.367,0,0,1,.132-1.044L26.688.76c.048-.108,0-.2-.156-.276l-1.008-.3a6.123,6.123,0,0,0-1.5-.192,5.808,5.808,0,0,0-1.356.156A7.385,7.385,0,0,0,21.252.64a5.188,5.188,0,0,0-1.416.96,6.476,6.476,0,0,0-1.188,1.472,7.39,7.39,0,0,0-2.844-.58,7.14,7.14,0,0,0-7,5.64,5.958,5.958,0,0,0-4.364,4.12v.04C4.416,12.3,4.4,12.336,4.4,12.384ZM5.28,22.572a1.024,1.024,0,0,0,1.02,1.02H17.616a1.024,1.024,0,0,0,1.032-1.02.935.935,0,0,0-.3-.708,1.024,1.024,0,0,0-.732-.288H6.3a.977.977,0,0,0-.72.288.935.935,0,0,0-.3.708ZM20.38,4.128A4.235,4.235,0,0,1,22,2.592a4.077,4.077,0,0,1,2.04-.528,1.961,1.961,0,0,1,.3.012v.288a6.443,6.443,0,0,0,.944,3.348,5.932,5.932,0,0,0,2.6,2.376,3.815,3.815,0,0,1-.9,1.284,5.547,5.547,0,0,0-3.84-1.416h-.384A6.9,6.9,0,0,0,20.38,4.128Z" transform="translate(0.001 0.008)"/></svg>