<svg xmlns="http://www.w3.org/2000/svg" width="26.233" height="26.552" viewBox="0 0 26.233 26.552"><path d="M0,13.92a5.71,5.71,0,0,0,1.68,4.116,5.744,5.744,0,0,0,4.08,1.812c.144,0,.216-.072.216-.2V18.036c0-.132-.072-.2-.216-.2A3.727,3.727,0,0,1,3.144,16.6a3.89,3.89,0,0,1-.072-5.328,3.734,3.734,0,0,1,2.52-1.236l.636-.084c.156,0,.24-.072.24-.2l.084-.624A5,5,0,0,1,8.2,5.828,4.916,4.916,0,0,1,11.628,4.5,5.158,5.158,0,0,1,16.74,9.08l.1.684c0,.144.072.216.2.216h1.944a3.8,3.8,0,0,1,2.8,1.164,3.869,3.869,0,0,1,.072,5.46A3.8,3.8,0,0,1,19.24,17.84c-.168,0-.252.072-.252.2v1.6c0,.132.084.2.252.2a5.652,5.652,0,0,0,2.892-.852,6,6,0,0,0,2.052-8.052,6.115,6.115,0,0,0,1.824-3.1l.2-.864a.155.155,0,0,0,.024-.1c0-.084-.06-.156-.192-.192l-.732-.2a4.5,4.5,0,0,1-1.4-.684,3.851,3.851,0,0,1-.972-1.008,4.443,4.443,0,0,1-.528-1.14,3.826,3.826,0,0,1-.18-1.14,4.55,4.55,0,0,1,.12-1.032L22.48.736c.024-.108-.024-.2-.168-.264l-.96-.288a6.123,6.123,0,0,0-1.5-.192,5.781,5.781,0,0,0-1.344.156A7.385,7.385,0,0,0,17.092.64a5.474,5.474,0,0,0-1.42.964,6.477,6.477,0,0,0-1.188,1.464,7.533,7.533,0,0,0-2.856-.6A7,7,0,0,0,7.116,4.056,7.072,7.072,0,0,0,4.584,8.1a5.968,5.968,0,0,0-3.3,2.112A5.828,5.828,0,0,0,0,13.92ZM6.636,23.2a.942.942,0,0,0,.288.7.961.961,0,0,0,.7.288.993.993,0,0,0,.72-1.692.967.967,0,0,0-.72-.276.914.914,0,0,0-.7.276.931.931,0,0,0-.288.7Zm.516-4.368a.977.977,0,0,0,.288.72.96.96,0,0,0,.708.3.943.943,0,0,0,.72-.3,1.016,1.016,0,0,0,.288-.72.961.961,0,0,0-.288-.7,1.029,1.029,0,0,0-1.428,0,.942.942,0,0,0-.288.7Zm2.82,6.732a.935.935,0,0,0,.288.684.946.946,0,0,0,.7.3,1.024,1.024,0,0,0,.732-.288.917.917,0,0,0,.3-.708.986.986,0,0,0-.3-.732,1,1,0,0,0-.732-.312.959.959,0,0,0-.7.312A1.1,1.1,0,0,0,9.972,25.56Zm.768-4.4a.917.917,0,0,0,.3.708.934.934,0,0,0,.684.288,1.024,1.024,0,0,0,.732-.288.946.946,0,0,0,.312-.708,1,1,0,0,0-.312-.732,1.018,1.018,0,0,0-.732-.312.959.959,0,0,0-.7.312.977.977,0,0,0-.284.728Zm.768-4.368a.9.9,0,0,0,.288.7.961.961,0,0,0,.7.288,1.046,1.046,0,0,0,.732-.276.941.941,0,0,0,.3-.708,1.024,1.024,0,0,0-1.032-1.02.927.927,0,0,0-.7.3,1.016,1.016,0,0,0-.288.712ZM14.376,23.2a.942.942,0,0,0,.288.7,1.029,1.029,0,0,0,1.428,0,.949.949,0,0,0,.288-.708.988.988,0,0,0-.276-.708.94.94,0,0,0-.708-.276,1.016,1.016,0,0,0-.72.276.943.943,0,0,0-.3.712Zm.5-4.368a1.024,1.024,0,0,0,1.02,1.02.934.934,0,0,0,.708-.3,1.016,1.016,0,0,0,.288-.72.961.961,0,0,0-.288-.7.951.951,0,0,0-.708-.288.961.961,0,0,0-.72.3.9.9,0,0,0-.3.684Zm1.332-14.7a3.939,3.939,0,0,1,1.56-1.512,4.383,4.383,0,0,1,2.052-.552,2.858,2.858,0,0,1,.4.024v.372a6.242,6.242,0,0,0,.936,3.288,6.1,6.1,0,0,0,2.6,2.352,4.31,4.31,0,0,1-.912,1.284,5.616,5.616,0,0,0-3.876-1.416H18.6a6.947,6.947,0,0,0-2.38-3.844Z" transform="translate(0 0.008)"/></svg>