<svg xmlns="http://www.w3.org/2000/svg" width="24.877" height="24.072" viewBox="0 0 24.877 24.072"><path d="M0,11.364A5.73,5.73,0,0,1,1.3,7.68,5.783,5.783,0,0,1,4.576,5.6,7.081,7.081,0,0,1,7.1,1.572a7.172,7.172,0,0,1,8.916-.036,6.942,6.942,0,0,1,2.52,3.948h.384a5.958,5.958,0,0,1,2.976.78,5.851,5.851,0,0,1,2.976,5.1,5.933,5.933,0,0,1-2.832,5.088,5.644,5.644,0,0,1-2.88.852c-.156,0-.24-.072-.24-.2V15.5c0-.144.084-.216.24-.216a3.714,3.714,0,0,0,2.616-1.224,3.829,3.829,0,0,0,1.08-2.712A3.683,3.683,0,0,0,21.684,8.64a3.818,3.818,0,0,0-2.772-1.152H16.98c-.144,0-.216-.072-.216-.2l-.1-.7A4.891,4.891,0,0,0,15,3.336a5.125,5.125,0,0,0-6.84,0A4.824,4.824,0,0,0,6.532,6.588l-.084.636a.212.212,0,0,1-.24.228l-.636.036A4.01,4.01,0,0,0,3.048,8.772a3.665,3.665,0,0,0-1.016,2.592,3.829,3.829,0,0,0,1.076,2.708A3.714,3.714,0,0,0,5.724,15.3c.132,0,.2.072.2.216v1.6a.184.184,0,0,1-.2.2,5.845,5.845,0,0,1-4.08-1.836A5.677,5.677,0,0,1,0,11.364Zm6.42,8.028a.818.818,0,0,1,.048-.24l1.956-6.924a.969.969,0,0,1,.384-.528,1,1,0,0,1,.552-.18,1.343,1.343,0,0,1,.288.036A.9.9,0,0,1,10.3,12a.979.979,0,0,1,.1.8L8.432,19.68a.944.944,0,0,1-.984.768.511.511,0,0,1-.132-.024.772.772,0,0,0-.12-.036,1,1,0,0,1-.588-.4A1.074,1.074,0,0,1,6.42,19.392Zm3.144,3.372L12.492,12.24a.791.791,0,0,1,.36-.528,1.087,1.087,0,0,1,.588-.18,1.49,1.49,0,0,1,.324.036.921.921,0,0,1,.588.468,1,1,0,0,1,.084.768L11.52,23.34a.872.872,0,0,1-.348.516.977.977,0,0,1-.612.216.786.786,0,0,1-.3-.06,1.1,1.1,0,0,1-.624-.468.951.951,0,0,1-.072-.78Zm4.956-3.348a1.286,1.286,0,0,1,.048-.276l1.956-6.924a1,1,0,0,1,.36-.528.974.974,0,0,1,.552-.18,1.469,1.469,0,0,1,.312.036.932.932,0,0,1,.552.372,1.012,1.012,0,0,1,.18.564,1.361,1.361,0,0,1-.024.168c-.012.072-.024.12-.024.144l-1.956,6.88a.886.886,0,0,1-.336.552,1.014,1.014,0,0,1-.612.2l-.288-.06a.971.971,0,0,1-.552-.384A1.1,1.1,0,0,1,14.52,19.416Z" transform="translate(0.001 0)"/></svg>