<svg xmlns="http://www.w3.org/2000/svg" width="25.489" height="25.513" viewBox="0 0 25.489 25.513"><path d="M0,12.744A1.014,1.014,0,0,1,.3,12a1.037,1.037,0,0,1,.72-.288H3.468a.909.909,0,0,1,.7.3,1.127,1.127,0,0,1,.012,1.464.892.892,0,0,1-.7.3H1.032a.979.979,0,0,1-.72-.3A1,1,0,0,1,0,12.744ZM3.432,21.06a1.111,1.111,0,0,1,.276-.732l1.764-1.716a.923.923,0,0,1,.708-.276,1.016,1.016,0,0,1,.72.276.9.9,0,0,1,.288.684,1.132,1.132,0,0,1-.288.768l-1.7,1.7a1.09,1.09,0,0,1-1.476,0,.969.969,0,0,1-.292-.7Zm0-16.608a1.111,1.111,0,0,1,.276-.732,1.152,1.152,0,0,1,.768-.3,1.009,1.009,0,0,1,.708.288L6.9,5.472a.931.931,0,0,1,.288.708A.984.984,0,0,1,6.18,7.188.931.931,0,0,1,5.472,6.9L3.72,5.184a1,1,0,0,1-.288-.732Zm3.06,8.292a6.057,6.057,0,0,1,.84-3.12A6.267,6.267,0,0,1,9.624,7.332,6.156,6.156,0,0,1,15.168,7a6.258,6.258,0,0,1,3.812,5.76,6.068,6.068,0,0,1-.84,3.132,6.253,6.253,0,0,1-10.824,0A6.376,6.376,0,0,1,6.492,12.744Zm2.04,0a4.236,4.236,0,0,0,8.472,0A4.045,4.045,0,0,0,15.756,9.78a4.111,4.111,0,0,0-3-1.224A4.057,4.057,0,0,0,9.78,9.78a4,4,0,0,0-1.248,2.964Zm3.192,9.336a.943.943,0,0,1,.3-.72,1.016,1.016,0,0,1,.72-.288,1,1,0,0,1,.732.288.977.977,0,0,1,.288.72v2.388a1.014,1.014,0,0,1-.3.744.979.979,0,0,1-.72.3.961.961,0,0,1-.72-.3,1.014,1.014,0,0,1-.3-.744Zm0-18.6V1.032a.979.979,0,0,1,.3-.72A1,1,0,0,1,12.756,0a.961.961,0,0,1,.72.3.979.979,0,0,1,.3.72V3.48a.909.909,0,0,1-.3.7,1,1,0,0,1-.72.276,1.037,1.037,0,0,1-.72-.276.944.944,0,0,1-.312-.7ZM18.348,19.3a.942.942,0,0,1,.948-.948,1.016,1.016,0,0,1,.72.276l1.752,1.716a1.044,1.044,0,0,1,.288.732.969.969,0,0,1-.288.708,1.069,1.069,0,0,1-1.44,0l-1.7-1.7A1.168,1.168,0,0,1,18.348,19.3Zm0-13.1a.93.93,0,0,1,.276-.708l1.7-1.764a1.009,1.009,0,0,1,.708-.288.943.943,0,0,1,.72.3.979.979,0,0,1,.3.72,1.013,1.013,0,0,1-.288.744L20.016,6.912a1.058,1.058,0,0,1-.72.288.872.872,0,0,1-.672-.288,1.016,1.016,0,0,1-.276-.72Zm2.708,6.544A1.073,1.073,0,0,1,21.344,12a.934.934,0,0,1,.684-.288h2.428a1.018,1.018,0,0,1,.72,1.752.979.979,0,0,1-.72.3H22.032a.892.892,0,0,1-.7-.3A1.037,1.037,0,0,1,21.056,12.744Z" transform="translate(0 0)"/></svg>