<svg width="80" height="70" viewBox="0 0 80 70" fill="none" xmlns="http://www.w3.org/2000/svg">
<path d="M52.7175 54.1282C57.2817 48.49 56.4183 40.189 50.7864 35.6121C48.2779 33.5735 45.24 32.6146 42.2364 32.6715L60.8191 9.80579C62.902 7.24278 66.6817 6.85222 69.2449 8.93523C71.8079 11.0182 72.1984 14.7978 70.1155 17.3608L68.2116 19.7035C65.0291 18.4124 61.2409 19.2756 58.9648 22.0762C57.2985 24.1266 56.4852 27.0032 56.6127 30.3953C56.7033 32.8055 57.7141 36.3366 57.7141 36.3366C57.7141 36.3366 61.3772 36.604 63.755 36.1998C67.1015 35.6309 69.7511 34.2466 71.4174 32.1963C73.6934 29.3956 73.7637 25.5109 71.8491 22.6596L73.753 20.317C77.4662 15.7483 76.77 9.01057 72.2012 5.29754C67.6322 1.5844 60.8945 2.28064 57.1814 6.84947L55.4678 8.958C54.9634 7.92894 54.2388 7.01204 53.3228 6.26764C51.6598 4.91611 49.5698 4.29302 47.438 4.51331C44.8101 4.78487 42.0332 6.09835 39.8922 8.73277C37.9022 11.1814 36.4701 13.7127 36.4701 13.7127C36.4701 13.7127 37.8817 15.4849 40.8383 17.8877C42.5411 19.2715 44.452 19.9771 46.2285 20.3269L38.5987 29.7152C38.0403 26.7634 36.4804 23.9858 33.9721 21.9473C28.3402 17.3703 20.038 18.2227 15.4522 23.8434C12.2694 22.5518 8.48081 23.4149 6.20465 26.2157C4.53837 28.266 3.72511 31.1427 3.8526 34.5348C3.94336 36.9449 4.95414 40.476 4.95414 40.476C4.95414 40.476 8.61732 40.7434 10.995 40.3393C14.3415 39.7705 16.9912 38.3861 18.6573 36.3358C20.9332 33.5354 21.0038 29.6509 19.0896 26.7998C22.0454 23.1848 27.3896 22.638 31.0158 25.585C34.6485 28.5373 35.2021 33.8947 32.2498 37.5274L28.3829 42.2856C25.2004 40.9945 21.412 41.8578 19.136 44.6583C17.4697 46.7087 16.6565 49.5853 16.784 52.9774C16.8307 54.2196 16.9958 55.3219 17.148 56.1098L3.31622 73.3141L6.95392 76.2704L20.7857 59.0661C21.5882 59.054 22.7006 58.9903 23.9262 58.7819C27.2728 58.213 29.9224 56.8286 31.5886 54.7784C33.8646 51.9779 33.935 48.093 32.0203 45.2418L35.8873 40.4835C38.8398 36.851 44.1972 36.2974 47.8301 39.2498C51.4563 42.1967 52.0138 47.5398 49.0795 51.1723C45.8971 49.8814 42.1092 50.7449 39.8334 53.5453C38.1671 55.5957 37.3538 58.4723 37.4813 61.8644C37.572 64.2745 38.5827 67.8056 38.5827 67.8056C38.5827 67.8056 42.2459 68.073 44.6236 67.6689C47.9701 67.1 50.6198 65.7156 52.2859 63.6654C54.5622 60.8647 54.6325 56.9795 52.7175 54.1282ZM67.2949 24.5478C68.7222 25.7077 68.9399 27.8129 67.7798 29.2403C66.3305 31.0236 63.4654 31.6205 61.4289 31.7658C61.1549 29.7427 61.1532 26.8159 62.6024 25.0327C63.7624 23.6052 65.8676 23.3878 67.2949 24.5478ZM48.6057 15.8123C46.3197 16.0485 43.8705 14.4437 42.3289 13.1072C43.5657 11.4828 45.6341 9.41213 47.9198 9.17594C48.806 9.08436 49.6751 9.34344 50.3665 9.90534C51.0579 10.4672 51.4891 11.2648 51.5808 12.1512C51.7697 13.9809 50.4351 15.6232 48.6057 15.8123ZM15.0199 33.3797C13.5706 35.163 10.7054 35.76 8.66887 35.9054C8.39484 33.8823 8.39306 30.9553 9.84235 29.172C11.0023 27.7447 13.1074 27.527 14.535 28.6872C15.9623 29.8472 16.1799 31.9523 15.0199 33.3797ZM27.9511 51.8223C26.5019 53.6056 23.6366 54.2026 21.6002 54.3478C21.3261 52.3248 21.3244 49.398 22.7737 47.6147C23.9337 46.1873 26.0388 45.9697 27.4662 47.1298C28.8937 48.2898 29.1111 50.395 27.9511 51.8223ZM42.2974 63.2347C42.0233 61.2117 42.0217 58.2849 43.4709 56.5016C44.6309 55.0742 46.736 54.8566 48.1635 56.0167C49.5909 57.1767 49.8084 59.2817 48.6484 60.7092C47.1991 62.4925 44.3337 63.0894 42.2974 63.2347Z" fill="#F8A800"/>
</svg>
