<svg width="82" height="70" viewBox="0 0 82 70" fill="none" xmlns="http://www.w3.org/2000/svg">
<path d="M62.9447 18.2255C64.459 14.1189 64.0289 10.2952 61.7347 7.46809C59.6121 4.84147 56.0797 3.48709 52.1073 3.71099C49.2423 0.91799 45.6624 -0.391621 42.3359 0.209611C38.7729 0.856358 35.9811 3.46776 34.4727 7.56606C31.2025 16.4464 33.5185 26.3061 40.374 32.6731C40.8647 33.1317 41.5272 33.3796 42.1993 33.3577C51.5278 33.0578 59.6706 27.1156 62.9447 18.2255ZM44.9535 27.8643C45.2298 24.9384 45.6617 22.3681 46.2636 20.0757C46.6249 18.7054 45.8069 17.3106 44.4402 16.9487C43.0713 16.5853 41.6729 17.4039 41.3131 18.7721C40.8716 20.4498 40.5125 22.2457 40.2323 24.1826C37.8651 19.7079 37.4402 14.3299 39.2765 9.33703C40.1331 7.0089 41.544 5.55836 43.249 5.24975C44.5807 5.00247 46.1727 5.48051 47.5164 6.5202C46.3819 7.8028 45.3472 9.21909 44.4524 10.7788C43.7437 12.0059 44.191 13.5865 45.4031 14.272C46.629 14.9736 48.1933 14.5492 48.8963 13.3213C49.8795 11.6107 51.0623 10.1363 52.3796 8.87054C54.6961 8.73577 56.6781 9.35901 57.7573 10.6913C58.8688 12.0623 59.0059 14.1103 58.143 16.456C55.9415 22.427 50.9275 26.6537 44.9535 27.8643Z" fill="#4E9D2D"/>
<path d="M67.1307 43.3544C67.0502 42.6721 66.6987 42.0485 66.1571 41.626C58.8886 36.0303 48.816 35.3838 40.5501 40.1422C36.7471 42.3334 34.5398 45.6648 34.4979 49.2819C34.4578 52.6489 36.2162 55.8145 39.3729 58.1395C39.7427 62.1056 41.4643 65.2169 44.4613 66.9666C47.5638 68.7536 51.5135 68.5262 55.3056 66.346C63.5507 61.5948 68.192 52.5707 67.1307 43.3544ZM52.7441 61.9061C50.5487 63.1698 48.5116 63.3932 47.0157 62.528C45.5606 61.7201 44.6972 59.8721 44.5041 57.5801C45.8184 55.6997 47.4063 54.0797 49.3632 52.6653C50.5124 51.8392 50.7684 50.237 49.943 49.0913C49.1136 47.9334 47.5126 47.6846 46.369 48.5115C44.495 49.8623 42.8522 51.4181 41.4381 53.1428C40.2721 51.9812 39.5971 50.6503 39.6121 49.3386C39.6349 47.5518 40.874 45.8567 43.1048 44.5741C47.7427 41.902 53.0865 41.3837 57.8203 42.926C56.6358 43.3155 55.4977 43.7192 54.4391 44.1479C53.1266 44.6821 52.4995 46.1745 53.0316 47.4855C53.2271 47.9574 53.5376 48.3382 53.9216 48.6111C54.6124 49.1021 55.5298 49.2388 56.3719 48.8981C58.0742 48.2043 59.9764 47.5741 62.0998 46.9817C61.7466 53.0569 58.3028 58.7073 52.7441 61.9061Z" fill="#4E9D2D"/>
<path d="M29.9529 43.0952C33.2231 34.2149 30.9071 24.3552 24.0516 17.9882C23.5451 17.512 22.8984 17.2817 22.2263 17.3036C12.8978 17.6035 4.75645 23.5436 1.48095 32.4358C-0.0333596 36.5424 0.39674 40.3661 2.69094 43.1932C5.02255 45.9809 8.40475 47.1312 12.3183 46.9503C15.1851 49.754 18.7603 51.0571 22.0876 50.4502C25.6527 49.8049 28.4445 47.1935 29.9529 43.0952ZM21.1751 45.4136C19.4828 45.7219 17.5532 44.8658 15.8661 43.1956C15.6549 41.0353 15.8124 38.829 16.3766 36.4659C16.707 35.0861 15.8494 33.7071 14.4845 33.378C13.1083 33.047 11.726 33.896 11.3966 35.2701C10.8555 37.521 10.6229 39.6738 10.6542 41.7911C8.95164 41.6366 7.52417 41.0242 6.6668 39.9721C5.55537 38.6011 5.41827 36.5531 6.28112 34.2074C8.1266 29.1927 11.9561 25.3995 16.6721 23.5901C15.8884 24.8299 15.1333 26.0648 14.4903 27.279C13.882 28.4267 14.2351 29.8304 15.2682 30.5646C15.358 30.6283 15.4522 30.6858 15.5529 30.7386C16.8019 31.4032 18.3506 30.9301 19.0131 29.6796C19.9998 27.827 21.2325 25.92 22.5765 23.9979C26.2947 28.861 27.3426 35.3602 25.1491 41.3243C24.2925 43.6524 22.8816 45.1029 21.1751 45.4136Z" fill="#4E9D2D"/>
</svg>
