<svg width="80" height="70" viewBox="0 0 80 70" fill="none" xmlns="http://www.w3.org/2000/svg">
<path d="M79.9999 5.53594V2.59375C79.9999 1.29937 78.9505 0.25 77.6562 0.25H74.7138C67.4749 0.25 61.6254 4.10734 58.3504 9.14656C57.4929 7.26641 56.2971 5.53547 54.7923 4.03125C53.1588 2.39672 51.6988 0.936563 51.6988 0.936563C50.7837 0.02125 49.2996 0.02125 48.3843 0.936563L45.2905 4.03031C41.9863 7.33313 40.1666 11.7264 40.1666 16.4011C40.1666 17.6048 40.2882 18.7897 40.5238 19.9423C40.2693 19.6523 40.0052 19.3689 39.7298 19.0936L36.6365 15.9991C35.7212 15.0836 34.2363 15.0845 33.3218 15.9991L30.228 19.0928C26.9238 22.3956 25.1041 26.7891 25.1041 31.4636C25.1041 32.6673 25.2257 33.8523 25.4613 35.005C25.2068 34.715 24.9427 34.4316 24.6673 34.1562L21.574 31.0616C21.1345 30.622 20.5384 30.375 19.9168 30.375C19.2952 30.375 18.6991 30.622 18.2596 31.0616L15.1657 34.1553C8.40351 40.9145 8.26023 51.9942 15.1654 58.8966L16.6023 60.3334L0.686484 76.2491C-0.228828 77.1644 -0.228828 78.6483 0.686484 79.5636C1.60164 80.4789 3.0857 80.4789 4.00102 79.5636L19.9163 63.6483L21.3527 65.0852C24.6579 68.3889 29.0512 70.2084 33.7227 70.2084C35.6587 70.2084 41.2665 69.9108 46.0945 65.0848L49.1887 61.9906C49.6282 61.5511 49.8752 60.955 49.8752 60.3334C49.8752 59.7117 49.6282 59.1156 49.1887 58.6761L46.0941 55.5817C45.8191 55.3067 45.5359 55.0431 45.2462 54.7889C46.3982 55.0244 47.5824 55.1459 48.7852 55.1459H48.7865C53.4582 55.1459 57.8513 53.3264 61.157 50.0222L64.251 46.9281C65.1663 46.0128 65.1656 44.528 64.251 43.6134L61.1566 40.5191C60.8816 40.2441 60.5982 39.9805 60.3087 39.7262C61.4607 39.9617 62.6449 40.0833 63.8477 40.0833H63.849C68.5207 40.0833 72.914 38.2637 76.2195 34.9597L79.3135 31.8656C80.2288 30.9505 80.2288 29.4664 79.3135 28.5511L76.219 25.4566C74.7135 23.9517 72.982 22.7561 71.1015 21.8989C76.1366 18.6262 79.9999 12.7858 79.9999 5.53594ZM48.6048 7.34516L50.0413 5.90859C50.4774 6.34484 50.969 6.83672 51.4774 7.34562C56.4791 12.3452 56.4885 20.4478 51.4765 25.4577L50.0412 26.8934L48.6045 25.4566C43.6466 20.5011 43.556 12.3919 48.6048 7.34516ZM44.4971 27.9239C44.7515 28.2134 45.0152 28.4967 45.2902 28.7716L51.4774 34.96C51.7526 35.235 52.0359 35.4987 52.3256 35.753C48.7629 35.0247 45.8316 35.5675 44.2668 35.9831C44.6835 34.4139 45.2246 31.4831 44.4971 27.9239ZM33.5423 22.4077L34.9787 20.9711L36.4149 22.408C41.4166 27.4075 41.426 35.5102 36.414 40.52L34.9787 41.9558L33.542 40.5189C28.5852 35.5644 28.4924 27.4555 33.5423 22.4077ZM29.4345 42.9861C29.6888 43.2758 29.9526 43.5589 30.2277 43.8339L36.4149 50.0225C36.6901 50.2975 36.9734 50.5612 37.263 50.8155C33.7004 50.0872 30.7691 50.63 29.204 51.0456C29.6209 49.4764 30.1621 46.5456 29.4345 42.9861ZM21.3515 55.5827L19.9162 57.0184L18.4793 55.5816C13.523 50.6273 13.4293 42.5184 18.4796 37.4702L19.9162 36.0336L21.3524 37.4705C26.3541 42.4698 26.3635 50.5727 21.3515 55.5827ZM42.7801 61.7698C40.3602 64.1887 37.144 65.5208 33.724 65.5208C32.2929 65.5208 28.1951 65.2967 24.6674 61.7708L23.2305 60.3333L24.6665 58.8969C29.6698 53.8956 37.769 53.8877 42.7799 58.8966L44.2168 60.3334L42.7801 61.7698ZM57.8426 46.7073C52.8752 51.6725 44.7727 51.7491 39.7298 46.7083L38.293 45.2708L39.7288 43.8344C44.7323 38.833 52.8312 38.8252 57.8423 43.8341L59.2791 45.2709L57.8426 46.7073ZM72.9048 28.7716L74.3415 30.2083L72.9051 31.6447C67.9374 36.6103 59.8345 36.6858 54.7923 31.6456C54.2837 31.1366 53.7916 30.6444 53.3556 30.208L54.7913 28.7717C59.7949 23.7703 67.894 23.763 72.9048 28.7716ZM60.5138 20.3333H59.9166V19.7348C59.9166 11.5472 66.5445 4.9375 74.714 4.9375H75.3124V5.53594C75.3124 13.7706 68.6241 20.3333 60.5138 20.3333Z" fill="#F8A800"/>
</svg>
