<svg width="81" height="70" viewBox="0 0 81 70" fill="none" xmlns="http://www.w3.org/2000/svg">
<path fill-rule="evenodd" clip-rule="evenodd" d="M3.14326 79.7753L13.3955 68.6045C14.0299 69.5456 14.7637 70.3992 15.5856 71.1536C16.7462 72.2188 18.0822 73.0868 19.5588 73.7266C20.6119 74.1831 21.8357 73.6991 22.2919 72.646C22.7482 71.5927 22.2637 70.3691 21.2113 69.9129C19.2793 69.0756 17.6854 67.6846 16.5811 65.8748C18.2853 62.4922 21.6411 60.2963 25.4211 60.1164C29.1839 59.9372 32.6769 61.792 34.6274 64.9828C33.2536 67.7095 30.8061 69.6867 27.8623 70.4324C26.7496 70.7141 26.0762 71.845 26.3581 72.9575C26.6397 74.0702 27.7702 74.7436 28.8831 74.4617C33.159 73.3784 36.6828 70.4449 38.5532 66.4103C38.7827 65.9127 38.8928 65.3612 38.8717 64.8186C38.8581 64.4552 38.7814 64.0971 38.6576 63.7586C42.9005 62.7029 46.4911 59.7836 48.3865 55.6956C48.6156 55.1984 48.7257 54.6469 48.7045 54.1065C48.6927 53.7866 48.6314 53.4711 48.5337 53.1686C52.6849 52.0702 56.1902 49.1824 58.0539 45.162C58.2832 44.665 58.3934 44.1139 58.3727 43.568C58.3593 43.2179 58.2866 42.8725 58.1699 42.5435C62.3885 41.4771 65.9568 38.5653 67.8437 34.4951C68.073 33.9981 68.1832 33.447 68.1625 32.9011C68.1416 32.3505 67.9871 31.8062 67.7172 31.3294C66.9686 30.0038 66.0253 28.8141 64.913 27.7933C64.1973 27.1364 63.426 26.5613 62.611 26.0703L72.9342 14.8221C73.7103 13.9765 73.6539 12.6618 72.8083 11.8857C71.9627 11.1096 70.648 11.166 69.8719 12.0116L66.9403 15.2058C66.9128 13.8051 66.683 12.3978 66.2396 11.0249L72.3695 4.34578C73.1456 3.50016 73.0892 2.18543 72.2436 1.40935C71.398 0.63327 70.0833 0.689644 69.3072 1.53526L63.1772 8.21441C61.739 7.88247 60.2837 7.77561 58.8545 7.88004L61.8335 4.63417C62.6095 3.78855 62.5532 2.47382 61.7076 1.69774C60.8619 0.921663 59.5472 0.978033 58.7711 1.82365L48.4571 13.0618C47.908 12.313 47.2829 11.6126 46.5843 10.9714C45.4721 9.95064 44.2061 9.11257 42.823 8.48114C42.3209 8.25124 41.764 8.1441 41.2188 8.17101C40.6694 8.19673 40.1274 8.3549 39.6536 8.62684C35.7616 10.8534 33.1662 14.6578 32.4655 18.9524C32.1263 18.8637 31.776 18.8209 31.429 18.8379C30.8792 18.8637 30.3362 19.0221 29.8637 19.294C26.0196 21.4932 23.4429 25.2323 22.7041 29.4625C22.3937 29.3905 22.0759 29.3565 21.7622 29.3725C21.212 29.3979 20.6692 29.5561 20.1955 29.828C16.2869 32.0639 13.6861 35.8911 12.9981 40.209C12.6483 40.114 12.2864 40.0681 11.9291 40.0862C11.3785 40.1116 10.8355 40.27 10.3622 40.5419C5.6064 43.2625 2.78159 48.3382 2.98978 53.7881C3.13752 57.6638 4.7782 61.2296 7.61004 63.8286C8.43748 64.588 9.3502 65.2458 10.3321 65.7931L0.0793326 76.9645L3.14326 79.7753ZM26.9827 55.9888C30.3836 56.2358 33.5351 57.6661 35.9312 60.0021C39.5822 59.7185 42.8021 57.5573 44.4601 54.2692C43.9562 53.4437 43.3472 52.7024 42.6443 52.0573C40.636 50.2142 38.0113 49.2714 35.2536 49.4026C31.4738 49.5827 28.1178 51.7788 26.4136 55.161C26.5891 55.4485 26.782 55.7218 26.9827 55.9888ZM52.3125 41.5229C50.3044 39.6799 47.6795 38.737 44.9218 38.8681C41.1416 39.0483 37.7854 41.2446 36.0814 44.6274C36.212 44.8413 36.3507 45.0491 36.4957 45.2521C39.8379 45.4181 42.9762 46.7205 45.4546 48.9952C45.6129 49.1404 45.7665 49.2897 45.9178 49.4417C49.4374 49.0611 52.5185 46.9276 54.1281 43.7342C53.6254 42.9106 53.0162 42.1687 52.3125 41.5229ZM63.9179 33.0672C63.4152 32.2441 62.806 31.5018 62.1025 30.8561C60.0942 29.013 57.4695 28.0702 54.7115 28.2012C50.9316 28.3811 47.5756 30.5773 45.8714 33.9599C46.0351 34.2282 46.2143 34.4845 46.4004 34.735C49.6538 34.9497 52.7033 36.2399 55.123 38.4606C55.2416 38.5694 55.357 38.681 55.4719 38.7935C59.0888 38.4847 62.2725 36.3316 63.9179 33.0672ZM10.4212 60.7673C11.1251 61.4133 11.9172 61.9571 12.7797 62.3869C16.0041 60.3998 17.9049 56.8681 17.7604 53.0864C17.655 50.3276 16.491 47.7932 14.483 45.9503C13.779 45.3042 12.9869 44.7604 12.1246 44.3304C8.89836 46.3203 6.99928 49.8506 7.14371 53.6307C7.24887 56.3897 8.41267 58.9239 10.4212 60.7673ZM21.7386 51.1759C22.0219 51.3536 22.3114 51.5226 22.6128 51.6728C25.8372 49.6861 27.7376 46.1545 27.5936 42.3721C27.4883 39.6137 26.3243 37.0793 24.3162 35.2364C23.6123 34.5903 22.82 34.0463 21.9574 33.6165C18.8205 35.5514 16.9436 38.9448 16.9755 42.607C17.0824 42.6995 17.1893 42.792 17.2937 42.8877C19.6925 45.0893 21.2327 47.9859 21.7386 51.1759ZM33.9842 24.7013C33.2803 24.0553 32.4881 23.5115 31.6258 23.0819C28.5802 24.9607 26.7192 28.2126 26.6418 31.7504C26.8062 31.8881 26.9681 32.0284 27.1263 32.1736C29.605 34.4485 31.1709 37.4638 31.6223 40.7791C31.837 40.9062 32.056 41.0266 32.2804 41.1386C35.5048 39.1519 37.4059 35.6198 37.2616 31.8375C37.1563 29.0787 35.9923 26.5443 33.9842 24.7013ZM41.2528 30.0111C41.5185 30.1749 41.789 30.3317 42.0704 30.4719C45.2942 28.4858 47.1956 24.9535 47.0512 21.1712C46.9459 18.4124 45.7819 15.878 43.7736 14.0348C43.0697 13.3888 42.2778 12.8452 41.4152 12.4154C38.3021 14.3353 36.4303 17.6912 36.4331 21.3207C36.5549 21.4253 36.6761 21.5309 36.7945 21.6396C39.2142 23.8603 40.7608 26.788 41.2528 30.0111ZM50.6735 17.624C50.9787 18.7139 51.1603 19.8487 51.2049 21.0123C51.2526 22.266 51.138 23.4994 50.8786 24.6895C52.042 24.3287 53.2609 24.1092 54.5141 24.0494C55.6771 23.994 56.8233 24.0778 57.9353 24.289C58.6922 23.8045 59.3958 23.2185 60.0239 22.5342C62.591 19.7371 63.4381 15.836 62.2753 12.2721C58.6239 11.4184 54.8099 12.5961 52.2429 15.393C51.6149 16.0774 51.0915 16.8288 50.6735 17.624Z" fill="#0AAFFF"/>
</svg>
