<svg width="80" height="70" viewBox="0 0 80 70" fill="none" xmlns="http://www.w3.org/2000/svg">
<path d="M79.3136 0.686484C78.3984 -0.228828 76.9144 -0.228828 75.9991 0.686484C71.8133 4.87227 69.0648 3.90617 63.5597 3.90617C59.357 3.90617 49.7553 3.94883 44.3522 9.35211C41.1003 12.604 39.1947 16.9054 38.9372 21.4371C29.515 21.9727 21.9734 29.5013 21.4372 38.9371C16.9053 39.1948 12.6039 41.1004 9.35219 44.3521C5.73766 47.967 3.90516 54.0526 3.90625 62.4404C3.90625 67.6005 4.89281 71.7924 0.686563 75.999C0.228906 76.4566 0 77.0563 0 77.6562C0 78.9496 1.04813 79.9999 2.34375 79.9999C2.94359 79.9999 3.54344 79.7712 4.00094 79.3134C8.18688 75.1277 10.9353 76.0937 16.4403 76.0937C20.643 76.0937 30.2447 76.051 35.6478 70.6477C38.8997 67.3959 40.8053 63.0945 41.0628 58.5627C50.485 58.0271 58.0266 50.4985 58.5628 41.0627C63.0947 40.8051 67.3961 38.8995 70.6478 35.6477C75.0895 31.2059 76.0938 23.8015 76.0938 17.4999C76.0938 12.4084 75.1092 8.20539 79.3134 4.00086C80.2289 3.08555 80.2288 1.60164 79.3136 0.686484ZM71.3572 15.2924C71.5375 20.738 71.2336 28.4329 67.3333 32.3332C64.4481 35.2184 60.4589 36.6863 56.3837 36.3605C54.947 36.2449 53.7456 37.4459 53.8608 38.8837C54.5434 47.4188 47.4362 54.5432 38.8839 53.8605C37.4497 53.7441 36.2455 54.944 36.3608 56.3837C36.6866 60.4568 35.2186 64.4477 32.3334 67.3331C28.2944 71.3721 20.0502 71.4062 16.4331 71.4062C13.5086 71.4062 11.015 71.0695 8.28563 71.6287C8.96641 68.4184 8.59375 65.3095 8.59375 62.4999C8.59375 57.6279 9.20641 51.1271 12.6667 47.6666C15.5486 44.7848 19.5372 43.3135 23.6162 43.6393C25.0505 43.7546 26.2545 42.5566 26.1392 41.1162C25.4553 32.5657 32.5789 25.4573 41.1161 26.1393C42.5534 26.2543 43.7544 25.0543 43.6392 23.6162C43.3134 19.543 44.7814 15.5521 47.6666 12.6668C51.7056 8.62789 59.9498 8.59367 63.5669 8.59367C66.4911 8.59367 68.9852 8.93039 71.7144 8.37117C71.2075 10.7621 71.2847 13.098 71.3572 15.2924Z" fill="#0AAFFF"/>
<path d="M46.25 37.6562C44.9556 37.6562 43.9062 38.7056 43.9062 40C43.9062 42.1539 42.1539 43.9062 40 43.9062C38.7056 43.9062 37.6562 44.9556 37.6562 46.25C37.6562 47.5444 38.7056 48.5938 40 48.5938C44.7386 48.5938 48.5938 44.7386 48.5938 40C48.5938 38.7056 47.5444 37.6562 46.25 37.6562Z" fill="#0AAFFF"/>
<path d="M63.75 20.1562C62.4556 20.1562 61.4062 21.2056 61.4062 22.5C61.4062 24.6539 59.6539 26.4062 57.5 26.4062C56.2056 26.4062 55.1562 27.4556 55.1562 28.75C55.1562 30.0444 56.2056 31.0938 57.5 31.0938C62.2386 31.0938 66.0938 27.2386 66.0938 22.5C66.0938 21.2056 65.0444 20.1562 63.75 20.1562Z" fill="#0AAFFF"/>
<path d="M28.75 55.1562C27.4556 55.1562 26.4062 56.2056 26.4062 57.5C26.4062 59.6539 24.6539 61.4062 22.5 61.4062C21.2056 61.4062 20.1562 62.4556 20.1562 63.75C20.1562 65.0444 21.2056 66.0938 22.5 66.0938C27.2386 66.0938 31.0938 62.2386 31.0938 57.5C31.0938 56.2056 30.0444 55.1562 28.75 55.1562Z" fill="#0AAFFF"/>
</svg>
