<svg width="80" height="70" viewBox="0 0 80 70" fill="none" xmlns="http://www.w3.org/2000/svg">
<path d="M70.7796 29.7826C70.1096 29.2958 69.8487 28.3898 70.2023 27.6041C71.0138 25.7995 71.0289 23.8356 70.2441 22.0733C69.4632 20.3163 67.9649 18.9678 66.1317 18.3763C65.1915 18.0692 64.6781 17.0638 64.9815 16.1249C65.2858 15.1861 66.2935 14.6709 67.2329 14.9748C70.0281 15.878 72.3158 17.9373 73.5102 20.6197C74.6973 23.2846 74.6795 26.3651 73.4628 29.0707C73.058 29.971 71.9998 30.3726 71.0993 29.9676C70.9848 29.9162 70.8781 29.8542 70.7796 29.7826Z" fill="#F8A800"/>
<path d="M46.4775 33.6314C45.855 33.179 45.5919 32.3794 45.8242 31.6452C45.8483 31.5694 48.2088 23.9995 47.365 17.0827C47.3318 16.8134 47.3607 16.5411 47.4488 16.2847C48.069 14.4808 48.8377 12.8815 49.7325 11.5311C53.1346 6.84723 59.6259 5.82018 64.2469 9.17812C68.8681 12.5362 69.8956 19.0269 66.5375 23.6481C66.5227 23.6685 66.5069 23.689 66.4916 23.7087C65.4842 24.9774 64.2005 26.2024 62.676 27.3501C62.4594 27.5128 62.209 27.6245 61.9428 27.6762C55.0798 29.0148 48.6334 33.5926 48.5692 33.6393C47.9433 34.0872 47.1012 34.0847 46.4781 33.6319L46.4775 33.6314ZM50.9617 17.0734C51.398 21.1994 50.8775 25.3757 50.2951 28.3783C52.971 26.897 56.7822 25.1119 60.8411 24.2524C61.9713 23.3697 62.9205 22.4516 63.6674 21.5168C65.8399 18.4924 65.162 14.2623 62.1455 12.0704C59.119 9.87114 54.8676 10.5443 52.6688 13.5702C52.0413 14.5184 51.4571 15.7123 50.9617 17.0734Z" fill="#F8A800"/>
<path d="M42.6306 9.3281C42.5323 9.25665 42.4403 9.17428 42.356 9.08098C41.6929 8.34968 41.748 7.21916 42.4793 6.55609C44.6766 4.56311 47.6013 3.59587 50.5031 3.90126C53.4225 4.20855 56.0864 5.7487 57.8106 8.12795C58.3895 8.92752 58.211 10.0452 57.4121 10.6245C56.6132 11.2024 55.4958 11.0228 54.9155 10.226C53.7857 8.66621 52.0401 7.65751 50.1291 7.45649C48.21 7.25389 46.3466 7.87476 44.881 9.20406C44.2429 9.78302 43.3005 9.81492 42.6306 9.3281Z" fill="#F8A800"/>
<path d="M41.8992 55.3022C41.0248 54.6669 40.2459 53.893 39.5993 53.0008C39.0204 52.2012 39.1987 51.0838 39.9978 50.5042C40.798 49.9257 41.9149 50.1052 42.4944 50.9027C43.6242 52.4634 45.37 53.4713 47.2808 53.6722C49.1996 53.874 51.0628 53.2529 52.5287 51.9236C53.2604 51.2599 54.3899 51.3151 55.0537 52.0467C55.717 52.7781 55.6617 53.9085 54.9306 54.5717C52.7338 56.565 49.8092 57.5324 46.907 57.2276C45.082 57.0359 43.3571 56.3617 41.8992 55.3022Z" fill="#F8A800"/>
<path d="M51.1293 53.835C49.677 52.7797 48.5205 51.3576 47.7705 49.6732C45.7715 44.6153 46.1318 38.5738 46.8781 34.0881C46.4469 33.6541 46.2095 33.3944 46.2095 33.3944C45.8636 33.0177 45.6959 32.5096 45.7482 32.0001C45.8012 31.4914 46.0705 31.0283 46.4862 30.7307C46.4862 30.7307 46.9509 30.3977 47.7638 29.8801C48.005 28.9471 48.1773 28.4035 48.1773 28.4035C48.332 27.9162 48.6887 27.5178 49.1563 27.3101C49.6233 27.1023 50.159 27.104 50.6238 27.3158C50.6238 27.3158 50.9453 27.4623 51.4919 27.7375C55.5272 25.6431 61.1572 23.4343 66.5146 23.7669C72.274 24.3708 76.4075 29.4791 75.8099 35.1597C75.3298 39.7222 71.8466 43.3529 67.4764 44.2045C68.0156 48.6237 65.6387 53.0586 61.4472 54.9248C58.9195 56.0502 56.1043 56.1235 53.5209 55.1318C52.6589 54.8006 51.8566 54.3635 51.1293 53.835ZM50.3044 32.5077C50.548 32.8865 50.6425 33.349 50.5577 33.8016C49.7961 37.8942 49.2658 43.7304 51.0656 48.2897C52.5607 51.6391 56.5768 53.1811 59.9932 51.6588C63.1893 50.236 64.7683 46.5216 63.5883 43.2026C63.3909 42.6464 63.4802 42.0295 63.8266 41.5527C64.1729 41.0762 64.7322 40.8004 65.3221 40.8166C68.8432 40.9135 71.8881 38.2652 72.2541 34.786C72.4436 32.9833 71.9204 31.2154 70.7796 29.8072C69.6415 28.3992 68.0188 27.5189 66.2169 27.3288C61.3994 27.031 56.0129 29.3384 52.3562 31.3266C51.9518 31.5472 51.4827 31.5998 51.0473 31.4853C50.9325 31.9049 50.6682 32.2687 50.3044 32.5077Z" fill="#F8A800"/>
<path d="M25.8116 35.4349C25.0862 34.9078 24.4274 34.2832 23.8496 33.57C22.1084 31.4191 21.3086 28.719 21.5985 25.9674C22.0789 21.4045 25.5626 17.7742 29.9324 16.922C29.3926 12.5024 31.77 8.06809 35.9611 6.20229C41.18 3.87854 47.3153 6.23346 49.6383 11.4533C51.6369 16.5118 51.2771 22.5537 50.5313 27.0388C50.9626 27.4739 51.2008 27.7344 51.2008 27.7344C51.546 28.1112 51.7128 28.62 51.6594 29.1284C51.6067 29.6372 51.3379 30.0995 50.9221 30.3973C50.9221 30.3973 50.4581 30.7293 49.6454 31.2467C49.4042 32.1797 49.231 32.7245 49.231 32.7245C49.0763 33.2118 48.719 33.611 48.2514 33.8184C47.7833 34.0254 47.2481 34.0231 46.783 33.8105C46.783 33.8105 46.4624 33.6647 45.9171 33.3891C41.8812 35.4843 36.2508 37.6926 30.8943 37.36C29.0043 37.1621 27.2724 36.4964 25.8116 35.4349ZM44.1859 10.1897C43.7063 9.84122 43.176 9.55171 42.6057 9.33321C40.914 8.68313 39.0708 8.73136 37.4148 9.46839C34.2187 10.8911 32.6402 14.6053 33.82 17.9241C34.0176 18.4801 33.9281 19.0973 33.5818 19.5738C33.2354 20.0506 32.6762 20.3261 32.0862 20.3102C28.5651 20.2132 25.5199 22.8623 25.1539 26.3412C24.7625 30.0608 27.4705 33.4063 31.1914 33.798C36.008 34.0957 41.3949 31.7889 45.0521 29.8001C45.4567 29.5797 45.9256 29.5269 46.3612 29.6415C46.4761 29.2218 46.7405 28.858 47.1042 28.619C46.8606 28.2402 46.766 27.7779 46.8507 27.3249C47.6121 23.2328 48.143 17.397 46.3423 12.8364C45.8738 11.7864 45.128 10.8743 44.1859 10.1897Z" fill="#F8A800"/>
<path d="M33.1641 51.95C28.5431 48.5921 27.5154 42.1003 30.8733 37.4793C31.928 36.1491 33.2112 34.9247 34.7349 33.7782C34.9514 33.6155 35.2018 33.5038 35.468 33.4521C42.3309 32.1131 48.7776 27.5355 48.8417 27.4888C49.4674 27.0408 50.3097 27.0435 50.9328 27.4963C51.556 27.9491 51.8188 28.7488 51.5867 29.4829C51.5627 29.5588 49.2018 37.1287 50.0459 44.0454C50.079 44.3146 50.0501 44.5872 49.9622 44.8434C49.342 46.6473 48.5733 48.2466 47.678 49.5964C47.6638 49.6172 47.6492 49.6386 47.6344 49.659C44.2764 54.28 37.7853 55.3081 33.1641 51.95ZM36.57 36.8758C35.4285 37.7674 34.4703 38.6965 33.7193 39.6423C31.5664 42.6075 32.2394 46.8588 35.2659 49.0581C38.2823 51.25 42.5148 50.5885 44.7207 47.5875C45.3794 46.5886 45.9594 45.4018 46.4494 44.0549C46.0132 39.9289 46.5339 35.7527 47.1163 32.7502C44.4404 34.2314 40.6288 36.0162 36.57 36.8758Z" fill="#F8A800"/>
<path d="M27.2796 44.6774C25.8219 43.6181 24.6479 42.1858 23.9015 40.5093C22.7145 37.8428 22.7317 34.7619 23.9487 32.0572C24.3536 31.1566 25.4117 30.7553 26.3121 31.1601C27.2114 31.5641 27.6138 32.6233 27.209 33.5236C26.3977 35.3277 26.3824 37.2921 27.1674 39.0555C27.9482 40.8105 29.4466 42.1594 31.2798 42.7524C32.2203 43.057 32.7338 44.0644 32.43 45.0039C32.1257 45.9427 31.118 46.4578 30.1785 46.154C29.1309 45.8145 28.1541 45.3129 27.2796 44.6774Z" fill="#F8A800"/>
<path d="M64.2239 44.0501L31.0847 19.969C30.2861 19.3887 30.109 18.2711 30.6895 17.4723C31.2698 16.6737 32.3876 16.4968 33.1862 17.0771L66.3253 41.1582C67.1239 41.7385 67.3009 42.8563 66.7206 43.6549C66.1401 44.4537 65.0225 44.6304 64.2239 44.0501Z" fill="#F8A800"/>
<path d="M7.76387 86.9032C6.96527 86.3229 6.78833 85.2051 7.36864 84.4065L32.7675 49.454C33.3478 48.6554 34.4657 48.4782 35.2643 49.0585C36.0631 49.639 36.2401 50.7568 35.6596 51.5556L10.2607 86.5081C9.68043 87.3067 8.56267 87.4837 7.76387 86.9032Z" fill="#F8A800"/>
<path d="M11.4025 81.8976C10.8128 81.469 10.5227 80.7017 10.7347 79.9596C10.7904 79.7652 16.1429 60.4349 5.07355 49.5306C4.46743 48.9337 4.36608 47.9919 4.83122 47.2795C5.29698 46.5674 6.19932 46.2816 6.98949 46.5969C7.16114 46.6672 24.1006 53.6139 22.2688 69.5912C22.1559 70.5717 21.2701 71.2753 20.289 71.1633C19.3089 71.0536 18.6047 70.1661 18.717 69.1836C19.487 62.4689 16.2726 57.6714 12.8397 54.5422C18.2368 66.3652 14.3755 80.2325 14.1714 80.9445C13.8992 81.8931 12.91 82.4402 11.9614 82.1687C11.7545 82.1104 11.567 82.0171 11.4025 81.8976Z" fill="#F8A800"/>
</svg>
