<svg width="100" height="73" viewBox="0 0 100 73" fill="none" xmlns="http://www.w3.org/2000/svg">
<path fill-rule="evenodd" clip-rule="evenodd" d="M4.42211 101.302L30.5034 72.9866C32.6197 74.0566 35.0196 74.2606 37.2771 73.5552L52.1902 68.8954C54.4906 68.1765 56.3766 66.5989 57.5005 64.4532C58.5264 62.4951 58.7991 60.2848 58.2934 58.1649L63.6035 56.506C68.1643 55.0804 70.7979 50.3559 69.7065 45.7752L75.0157 44.1163C79.221 42.8019 81.7877 38.6832 81.3073 34.459L94.5115 20.1239C95.4839 19.0682 95.4163 17.4239 94.3607 16.4515C93.305 15.4791 91.6607 15.5467 90.6883 16.6023L78.961 29.3342C78.2675 28.5876 77.4438 27.9561 76.5124 27.4679C75.5046 26.9398 74.4293 26.6131 73.3343 26.487L90.9137 7.4018C91.8861 6.34613 91.8186 4.70184 90.7629 3.72946C89.7073 2.75708 88.063 2.82461 87.0906 3.88028L69.5107 22.966C69.0882 20.841 67.9118 18.9271 66.2113 17.5917L77.9393 4.85916C78.9117 3.80349 78.8441 2.1592 77.7885 1.18682C76.7328 0.214438 75.0885 0.281967 74.1161 1.33764L60.912 15.6728C56.6624 15.5411 52.7686 18.4369 51.8038 22.7354L50.5861 28.1625C45.9311 27.4501 41.4385 30.4623 40.3917 35.125L39.1735 40.5531C37.0031 40.2252 34.7422 40.7013 32.8813 41.8987C30.8488 43.2067 29.4598 45.2143 28.9707 47.5516L25.7776 62.8155C25.3969 64.3883 25.4464 66.0368 25.9398 67.6153C26.1378 68.2496 26.4046 68.8495 26.7268 69.4136L0.598472 97.78L4.42211 101.302ZM46.5965 51.682L46.7944 51.6201C49.0948 50.9012 51.5432 51.1243 53.6896 52.2485C54.3837 52.6122 55.0172 53.0566 55.5824 53.5679L62.0554 51.5456C64.0822 50.9121 65.2164 48.7472 64.583 46.7194C64.2788 45.7445 63.6063 44.943 62.6904 44.4634C61.7745 43.9832 60.733 43.8869 59.7576 44.1916L46.7743 48.2484C46.9237 49.3118 46.8837 50.4029 46.6419 51.4797L46.5965 51.682ZM50.0674 33.3496C47.9953 32.8847 45.9304 34.1924 45.4651 36.2651L43.9803 42.8816C44.186 43.0746 44.3828 43.278 44.5709 43.491L52.2801 41.0822L52.9829 37.9519C53.4478 35.8797 52.1399 33.8151 50.0674 33.3496ZM75.9949 34.33C75.6902 33.3542 75.0177 32.5527 74.1021 32.0733C73.1862 31.5936 72.1446 31.4973 71.1695 31.8017L58.1862 35.8585C58.3339 36.9066 58.2998 37.9975 58.0548 39.0897L58.0093 39.2921L58.207 39.2304C60.5074 38.5115 62.9559 38.7346 65.1018 39.8588C65.7959 40.2225 66.4294 40.6669 66.9945 41.1782L73.4671 39.1559C75.4944 38.5225 76.6283 36.3573 75.9949 34.33ZM63.6957 28.6913L64.3947 25.5641C64.8601 23.4894 63.5525 21.4249 61.4796 20.9599C59.4072 20.4948 57.3425 21.8023 56.8772 23.8749L55.3925 30.492C55.5998 30.686 55.7971 30.889 55.9847 31.1006L63.6957 28.6913ZM38.6548 45.7392C37.6354 45.5105 36.5847 45.6994 35.6964 46.2711C34.843 46.8202 34.2622 47.6536 34.0608 48.6174L32.4984 56.0864L40.8682 53.4717L41.5703 50.3416C41.794 49.344 41.6126 48.3144 41.0594 47.4409C40.506 46.5672 39.6524 45.9634 38.6548 45.7392ZM30.8101 64.1554L30.7937 64.234C30.6814 64.8403 30.7158 65.4661 30.9038 66.0672C31.0938 66.6755 31.4271 67.2162 31.8729 67.6533L31.8805 67.6594C31.8805 67.6594 31.8848 67.6643 31.8875 67.6667C32.153 67.9246 32.458 68.1463 32.7964 68.3237C33.7123 68.8034 34.7538 68.8997 35.7292 68.595L50.6423 63.9353C51.6175 63.6304 52.4189 62.9583 52.8986 62.0424C53.3785 61.1263 53.4748 60.0848 53.1702 59.1094C52.9679 58.4624 52.604 57.8918 52.1147 57.441C51.8662 57.2121 51.5854 57.0144 51.2771 56.8528C50.361 56.3729 49.3199 56.2766 48.3445 56.5813L33.4309 61.2406C32.4555 61.5453 31.6542 62.2176 31.1746 63.1335C31.0032 63.461 30.8828 63.8046 30.8101 64.1554Z" fill="#4E9D2D"/>
</svg>
