<svg width="80" height="70" viewBox="0 0 80 70" fill="none" xmlns="http://www.w3.org/2000/svg">
<path d="M44.608 41.356L44.6211 41.3691C47.1754 43.9234 50.5867 45.3292 54.2291 45.3279C57.8681 45.3267 61.2768 43.9156 63.8272 41.3549L65.4782 39.6972L60.8372 35.0562C60.8321 35.051 60.8274 35.0463 60.8222 35.0412C58.4997 32.7187 55.4653 31.3501 52.193 31.1224L54.838 28.4774L56.1614 29.8008L56.179 29.8185C58.7291 32.3686 62.1403 33.7718 65.787 33.7703C69.4294 33.7687 72.8371 32.3584 75.3823 29.7994L77.0311 28.1417L72.3911 23.5018C72.3861 23.4968 72.3814 23.4921 72.3764 23.4871C70.0536 21.1643 67.0193 19.7959 63.7471 19.5683L64.8424 18.473C65.7051 18.5692 66.9312 18.656 68.2968 18.5999C71.9883 18.448 74.8544 17.3766 76.8153 15.4157C78.7762 13.4549 79.8475 10.5888 79.9994 6.8972C80.0379 2.94136 79.7217 2.61597 79.3834 0.616798C77.2195 0.241562 77.1215 -0.0155245 73.103 0.000728986C69.4114 0.152636 66.5453 1.22396 64.5844 3.18485C62.6235 5.14573 61.5522 8.01181 61.4003 11.7034C61.3442 13.0688 61.4309 14.2949 61.5272 15.1577L60.4299 16.255C60.21 13.0999 58.8971 10.0076 56.4905 7.60095L51.8473 2.95777L50.1896 4.60781C47.6291 7.15663 46.2185 10.5649 46.2169 14.2052C46.2155 17.8489 47.6203 21.2601 50.1712 23.8107L50.1859 23.8253L51.5213 25.1608L51.5227 25.1622L48.8758 27.8092C48.6559 24.6541 47.3429 21.5617 44.9363 19.1551L40.2931 14.512L38.6354 16.162C36.0749 18.7108 34.6643 22.119 34.6627 25.7594C34.6613 29.4031 36.0661 32.8143 38.617 35.3648L38.6317 35.3795L39.9671 36.715L39.9685 36.7164L37.3216 39.3633C37.1017 36.2083 35.7887 33.1159 33.3821 30.7093L28.739 26.0661L27.0813 27.7162C24.5207 30.265 23.1101 33.6732 23.1085 37.3135C23.1071 40.9573 24.512 44.3685 27.0627 46.919L27.0773 46.9337L28.4128 48.2692L28.4142 48.2706L25.7672 50.9175C25.5473 47.7625 24.2344 44.6701 21.8278 42.2635L17.1846 37.6203L15.5269 39.2704C12.9664 41.8192 11.5558 45.2274 11.5542 48.8677C11.5528 52.5115 12.9576 55.9227 15.5085 58.4732L15.5232 58.4879L16.8586 59.8233L16.86 59.8247L14.213 62.4717C13.9931 59.3167 12.6802 56.2243 10.2736 53.8177L5.63042 49.1745L3.97272 50.8247C1.41233 53.3735 0.00140761 56.7819 1.05518e-06 60.4221C-0.0014055 64.0658 1.40343 67.477 3.95428 70.0276L3.96897 70.0422L5.30442 71.3777L5.30582 71.3791L0.000157339 76.6848L3.3154 80L8.62106 74.6943L9.94759 76.0209C15.2448 81.3181 23.864 81.3181 29.1614 76.0207L30.8191 74.363L26.1747 69.7186C26.1697 69.7136 26.165 69.7089 26.1598 69.7037C23.837 67.3811 20.8027 66.0125 17.5303 65.7849L20.1752 63.14L21.501 64.4657C21.5026 64.4673 21.5038 64.4686 21.5054 64.4701C24.0675 67.0322 27.4793 68.443 31.1127 68.4425C34.7451 68.4421 38.1558 67.0297 40.7165 64.4654L42.3719 62.8077L37.7285 58.1644C37.7234 58.1592 37.7187 58.1546 37.7135 58.1494C35.391 55.8269 32.3566 54.4583 29.0843 54.2307L31.7293 51.5858L33.0542 52.9108L33.063 52.9195C35.621 55.4776 39.0329 56.886 42.6705 56.8851C46.3063 56.8841 49.7159 55.4724 52.2716 52.91L53.9248 51.2525L49.2826 46.6102C49.2776 46.6052 49.2726 46.6002 49.2676 46.5952C46.9447 44.2724 43.9106 42.904 40.6384 42.6764L43.2833 40.0315L44.608 41.356ZM51.2162 35.7732C53.6068 35.7723 55.84 36.6895 57.5096 38.3591C57.5128 38.3622 57.5162 38.3656 57.5193 38.3688L58.6321 39.4815C57.3101 40.2365 55.8025 40.6388 54.2275 40.6393C51.8383 40.6399 49.6047 39.7219 47.934 38.0513C47.9312 38.0485 47.9282 38.0456 47.9254 38.0428L46.8125 36.9299C48.1337 36.1756 49.6411 35.7738 51.2162 35.7732ZM62.7703 24.219C65.1608 24.2181 67.3944 25.1355 69.064 26.805C69.0671 26.8082 69.0704 26.8115 69.0735 26.8146L70.1864 27.9275C68.8671 28.6801 67.3605 29.0812 65.7851 29.0818C63.3917 29.0829 61.1584 28.1672 59.4913 26.5001C59.4875 26.4964 59.4836 26.4925 59.4797 26.4886L58.3668 25.3757C59.6879 24.6216 61.1953 24.2196 62.7703 24.219ZM16.5535 70.4359C18.944 70.435 21.1776 71.3524 22.8472 73.0219L22.8568 73.0315L23.9668 74.1416C20.5699 76.0801 16.1586 75.6014 13.2628 72.7056L12.1499 71.5927C13.471 70.8385 14.9785 70.4365 16.5535 70.4359ZM28.1077 58.8817C30.4982 58.8808 32.7315 59.798 34.4011 61.4676C34.4042 61.4707 34.4077 61.4742 34.4108 61.4773L35.5232 62.5897C34.1962 63.3494 32.6862 63.754 31.112 63.7543C28.7311 63.7547 26.4971 62.8315 24.8198 61.1543C24.8189 61.1533 24.818 61.1524 24.817 61.1514L23.7041 60.0385C25.0253 59.2842 26.5325 58.8824 28.1077 58.8817ZM39.6621 47.3274C42.0526 47.3265 44.2859 48.2437 45.9554 49.9133L45.9651 49.923L47.0777 51.0355C45.7534 51.7929 44.2444 52.1962 42.6701 52.1966C40.2849 52.197 38.0509 51.2765 36.3771 49.6027C36.3753 49.6009 36.3732 49.5988 36.3714 49.5969L35.2585 48.4841C36.5795 47.7298 38.0867 47.328 39.6621 47.3274ZM75.2884 4.71142C75.4471 6.96659 75.2587 10.3418 73.5001 12.1005C71.7409 13.8596 68.3641 14.0476 66.1113 13.8892C65.9527 11.634 66.141 8.25874 67.8997 6.50008C69.6588 4.74112 73.0356 4.55295 75.2884 4.71142ZM53.4986 20.5076C53.4953 20.5043 53.4924 20.5014 53.4891 20.4981C51.822 18.831 50.9046 16.5972 50.9054 14.207C50.906 12.6319 51.308 11.1245 52.0622 9.80345L53.1751 10.9163C56.0709 13.8121 56.5497 18.2235 54.6112 21.6203L53.4986 20.5076ZM41.9444 32.0618C41.9411 32.0585 41.9382 32.0555 41.9349 32.0523C40.2678 30.3852 39.3504 28.1514 39.3512 25.7612C39.3518 24.186 39.7538 22.6787 40.508 21.3576L41.6209 22.4705C44.5167 25.3663 44.9955 29.7777 43.057 33.1745L41.9444 32.0618ZM30.3901 43.616C30.3868 43.6127 30.3838 43.6097 30.3806 43.6064C28.7135 41.9394 27.7961 39.7056 27.7969 37.3154C27.7975 35.7402 28.1995 34.2329 28.9537 32.9118L30.0666 34.0247C32.9624 36.9205 33.4412 41.3319 31.5027 44.7287L30.3901 43.616ZM18.8359 55.1703C18.8326 55.167 18.8296 55.1641 18.8264 55.1608C17.1593 53.4937 16.2419 51.26 16.2427 48.8698C16.2433 47.2946 16.6453 45.7872 17.3995 44.4662L18.5124 45.5791C21.4082 48.4748 21.887 52.8862 19.9485 56.2831L18.8359 55.1703ZM7.28171 66.7245C7.27843 66.7212 7.27546 66.7183 7.27218 66.715C5.6051 65.0479 4.68772 62.8141 4.6885 60.4238C4.68913 58.8486 5.09093 57.3414 5.84547 56.02L6.95836 57.1329C9.85414 60.0287 10.333 64.4401 8.39429 67.8369L7.28171 66.7245Z" fill="#4E9D2D"/>
</svg>
