<svg width="68" height="17" viewBox="0 0 68 17" fill="none" xmlns="http://www.w3.org/2000/svg">
<path d="M32.7679 11.209C32.3015 11.6651 31.7482 11.8929 31.1082 11.8929C30.4682 11.8929 29.9134 11.6651 29.4442 11.209C28.9754 10.7532 28.7414 10.1953 28.7414 9.53517C28.7414 8.87501 28.9754 8.31745 29.4442 7.86162C29.9134 7.40551 30.4676 7.17745 31.1082 7.17745C31.7488 7.17745 32.3015 7.40551 32.7679 7.86162C33.234 8.31745 33.4671 8.87529 33.4671 9.53517C33.4671 10.195 33.234 10.7532 32.7679 11.209ZM35.0423 9.53517C35.0423 9.48887 35.0383 9.44886 35.0346 9.40885V5.8457H33.4671V6.88024C33.0241 6.28067 32.2741 5.8457 31.1082 5.8457C30.0476 5.8457 29.127 6.21294 28.3455 6.94711C27.5643 7.68158 27.1738 8.54407 27.1738 9.53517C27.1738 10.5263 27.5643 11.3876 28.3455 12.1198C29.127 12.8517 30.0476 13.2175 31.1082 13.2175C31.9885 13.2175 32.8484 12.9308 33.4671 12.2638V13.0735H35.0346V9.71493C35.0395 9.66034 35.0423 9.60118 35.0423 9.53517Z" fill="#141414"/>
<path d="M32.7679 11.209C32.3015 11.6651 31.7482 11.8929 31.1082 11.8929C30.4682 11.8929 29.9134 11.6651 29.4442 11.209C28.9754 10.7532 28.7414 10.1953 28.7414 9.53517C28.7414 8.87501 28.9754 8.31745 29.4442 7.86162C29.9134 7.40551 30.4676 7.17745 31.1082 7.17745C31.7488 7.17745 32.3015 7.40551 32.7679 7.86162C33.234 8.31745 33.4671 8.87529 33.4671 9.53517C33.4671 10.195 33.234 10.7532 32.7679 11.209ZM35.0423 9.53517C35.0423 9.48887 35.0383 9.44886 35.0346 9.40885V5.8457H33.4671V6.88024C33.0241 6.28067 32.2741 5.8457 31.1082 5.8457C30.0476 5.8457 29.127 6.21294 28.3455 6.94711C27.5643 7.68158 27.1738 8.54407 27.1738 9.53517C27.1738 10.5263 27.5643 11.3876 28.3455 12.1198C29.127 12.8517 30.0476 13.2175 31.1082 13.2175C31.9885 13.2175 32.8484 12.9308 33.4671 12.2638V13.0735H35.0346V9.71493C35.0395 9.66034 35.0423 9.60118 35.0423 9.53517Z" stroke="#141414" stroke-width="0.327" stroke-miterlimit="10"/>
<path d="M2.08992 6.94711C2.87143 6.21294 3.79203 5.8457 4.85234 5.8457C5.44137 5.8457 5.98952 5.96459 6.4968 6.20208C7.00408 6.43956 7.36768 6.6759 7.58822 6.9111L7.91827 7.24976L6.89609 8.20685C6.84515 8.13026 6.76706 8.03538 6.66213 7.92249C6.5572 7.80989 6.32903 7.65729 5.97824 7.46552C5.62714 7.27348 5.25194 7.17745 4.85234 7.17745C4.21207 7.17745 3.65751 7.40551 3.18867 7.86134C2.71982 8.31745 2.48586 8.87529 2.48586 9.53517C2.48586 10.195 2.71982 10.7529 3.18867 11.209C3.65751 11.6648 4.21207 11.8926 4.85234 11.8926C5.25194 11.8926 5.62714 11.7994 5.97824 11.612C6.32903 11.4248 6.58129 11.2424 6.73503 11.065L6.97327 10.7915L7.99514 11.7488C7.96433 11.7874 7.91827 11.8412 7.85666 11.9109C7.79565 11.9806 7.66235 12.0978 7.45736 12.2635C7.25238 12.4293 7.03702 12.5756 6.8119 12.7028C6.58648 12.83 6.29456 12.9474 5.93583 13.0557C5.57711 13.1635 5.21625 13.2175 4.85234 13.2175C3.79203 13.2175 2.87143 12.8517 2.08992 12.1198C1.30811 11.3876 0.917969 10.5263 0.917969 9.53517C0.917969 8.54407 1.30842 7.68129 2.08992 6.94711Z" fill="#141414"/>
<path d="M2.08992 6.94711C2.87143 6.21294 3.79203 5.8457 4.85234 5.8457C5.44137 5.8457 5.98952 5.96459 6.4968 6.20208C7.00408 6.43956 7.36768 6.6759 7.58822 6.9111L7.91827 7.24976L6.89609 8.20685C6.84515 8.13026 6.76706 8.03538 6.66213 7.92249C6.5572 7.80989 6.32903 7.65729 5.97824 7.46552C5.62714 7.27348 5.25194 7.17745 4.85234 7.17745C4.21207 7.17745 3.65751 7.40551 3.18867 7.86133C2.71982 8.31745 2.48586 8.87529 2.48586 9.53517C2.48586 10.195 2.71982 10.7529 3.18867 11.209C3.65751 11.6648 4.21207 11.8926 4.85234 11.8926C5.25194 11.8926 5.62714 11.7994 5.97824 11.612C6.32903 11.4248 6.58129 11.2424 6.73503 11.065L6.97327 10.7915L7.99514 11.7488C7.96433 11.7874 7.91827 11.8412 7.85666 11.9109C7.79565 11.9806 7.66235 12.0978 7.45736 12.2635C7.25238 12.4293 7.03702 12.5756 6.8119 12.7028C6.58648 12.83 6.29456 12.9474 5.93583 13.0557C5.57711 13.1635 5.21625 13.2175 4.85234 13.2175C3.79203 13.2175 2.87143 12.8517 2.08992 12.1198C1.30811 11.3876 0.917969 10.5263 0.917969 9.53517C0.917969 8.54407 1.30842 7.68129 2.08992 6.94711Z" stroke="#141414" stroke-width="0.327" stroke-miterlimit="10"/>
<path d="M23.7997 11.2016C24.2609 10.7406 24.4912 10.1853 24.4912 9.53516C24.4912 8.885 24.2609 8.32915 23.7997 7.86847C23.3388 7.40779 22.8099 7.17745 22.2132 7.17745C21.6166 7.17745 21.0861 7.40779 20.6224 7.86847C20.1588 8.32915 19.927 8.88472 19.927 9.53516C19.927 10.1856 20.1588 10.7406 20.6224 11.2016C21.0861 11.6622 21.6163 11.8926 22.2132 11.8926C22.8102 11.8926 23.3388 11.6622 23.7997 11.2016ZM24.9677 6.92196C25.7001 7.63956 26.0665 8.5092 26.0665 9.53144C26.0665 10.5537 25.6989 11.4236 24.964 12.1409C24.2289 12.8585 23.3644 13.2172 22.3706 13.2172C22.0888 13.2172 21.8136 13.1858 21.5446 13.1237C21.2755 13.0614 21.0464 12.9831 20.857 12.8897C20.6673 12.7959 20.4995 12.6999 20.3537 12.6019C20.2076 12.5033 20.1039 12.4253 20.0423 12.3678L19.927 12.2598V13.0732H18.3594V0.539551H19.927V6.81021C19.9986 6.74334 20.1011 6.65418 20.2344 6.54386C20.3677 6.43355 20.6469 6.28952 21.0721 6.11204C21.497 5.93457 21.9301 5.84569 22.3706 5.84569C23.3696 5.84569 24.2353 6.20435 24.9677 6.92196Z" fill="#141414"/>
<path d="M23.7997 11.2016C24.2609 10.7406 24.4912 10.1853 24.4912 9.53516C24.4912 8.885 24.2609 8.32915 23.7997 7.86847C23.3388 7.40779 22.8099 7.17745 22.2132 7.17745C21.6166 7.17745 21.0861 7.40779 20.6224 7.86847C20.1588 8.32915 19.927 8.88472 19.927 9.53516C19.927 10.1856 20.1588 10.7406 20.6224 11.2016C21.0861 11.6622 21.6163 11.8926 22.2132 11.8926C22.8102 11.8926 23.3388 11.6622 23.7997 11.2016ZM24.9677 6.92196C25.7001 7.63956 26.0665 8.5092 26.0665 9.53144C26.0665 10.5537 25.6989 11.4236 24.964 12.1409C24.2289 12.8585 23.3644 13.2172 22.3706 13.2172C22.0888 13.2172 21.8136 13.1858 21.5446 13.1237C21.2755 13.0614 21.0464 12.9831 20.857 12.8897C20.6673 12.796 20.4995 12.6999 20.3537 12.6019C20.2076 12.5033 20.1039 12.4253 20.0423 12.3678L19.927 12.2598V13.0732H18.3594V0.539551H19.927V6.81021C19.9986 6.74334 20.1011 6.65418 20.2344 6.54386C20.3677 6.43355 20.6469 6.28952 21.0721 6.11204C21.497 5.93457 21.9301 5.84569 22.3706 5.84569C23.3696 5.84569 24.2353 6.20435 24.9677 6.92196Z" stroke="#141414" stroke-width="0.327" stroke-miterlimit="10"/>
<path d="M14.3128 11.209C13.8464 11.6651 13.2931 11.8929 12.6531 11.8929C12.0132 11.8929 11.458 11.6651 10.9891 11.209C10.5206 10.7532 10.2863 10.1953 10.2863 9.53517C10.2863 8.87501 10.5206 8.31745 10.9891 7.86162C11.458 7.40551 12.0125 7.17745 12.6531 7.17745C13.2937 7.17745 13.8464 7.40551 14.3128 7.86162C14.7789 8.31745 15.012 8.87529 15.012 9.53517C15.012 10.195 14.7789 10.7532 14.3128 11.209ZM16.5872 9.53517C16.5872 9.48373 16.5841 9.43743 16.5796 9.39313V5.8457H15.012V6.88024C14.5688 6.28067 13.819 5.8457 12.6531 5.8457C11.5925 5.8457 10.6719 6.21294 9.8904 6.94711C9.1092 7.68158 8.71875 8.54407 8.71875 9.53517C8.71875 10.5263 9.1092 11.3876 9.8904 12.1198C10.6719 12.8517 11.5925 13.2175 12.6531 13.2175C13.5335 13.2175 14.3931 12.9308 15.012 12.2638V13.0735H16.5796V9.7175C16.5844 9.66206 16.5872 9.60204 16.5872 9.53517Z" fill="#141414"/>
<path d="M14.3128 11.209C13.8464 11.6651 13.2931 11.8929 12.6531 11.8929C12.0132 11.8929 11.458 11.6651 10.9891 11.209C10.5206 10.7532 10.2863 10.1953 10.2863 9.53517C10.2863 8.87501 10.5206 8.31745 10.9891 7.86162C11.458 7.40551 12.0125 7.17745 12.6531 7.17745C13.2937 7.17745 13.8464 7.40551 14.3128 7.86162C14.7789 8.31745 15.012 8.87529 15.012 9.53517C15.012 10.195 14.7789 10.7532 14.3128 11.209ZM16.5872 9.53517C16.5872 9.48373 16.5841 9.43743 16.5796 9.39313V5.8457H15.012V6.88024C14.5688 6.28067 13.819 5.8457 12.6531 5.8457C11.5925 5.8457 10.6719 6.21294 9.8904 6.94711C9.1092 7.68158 8.71875 8.54407 8.71875 9.53517C8.71875 10.5263 9.1092 11.3876 9.8904 12.1198C10.6719 12.8517 11.5925 13.2175 12.6531 13.2175C13.5335 13.2175 14.3931 12.9308 15.012 12.2638V13.0735H16.5796V9.7175C16.5844 9.66206 16.5872 9.60204 16.5872 9.53517Z" stroke="#141414" stroke-width="0.327" stroke-miterlimit="10"/>
<path d="M47.2271 7.57698C46.8403 7.89134 46.5804 8.2983 46.4471 8.79728H50.8195C50.7271 8.2983 50.4888 7.89134 50.1045 7.57698C49.7204 7.26262 49.2391 7.10544 48.6601 7.10544C48.0915 7.10544 47.6138 7.26262 47.2271 7.57698ZM46.3778 10.0499C46.4602 10.5488 46.7225 10.9809 47.1657 11.3459C47.6087 11.7106 48.1352 11.8926 48.7446 11.8926C49.1851 11.8926 49.5963 11.7994 49.9779 11.612C50.3595 11.4251 50.6297 11.2424 50.7884 11.065L51.0269 10.7912L52.0488 11.7488C52.018 11.7874 51.9704 11.8414 51.9066 11.9109C51.8426 11.9806 51.7056 12.0981 51.4957 12.2635C51.2853 12.4293 51.0626 12.5756 50.8268 12.7028C50.5913 12.83 50.2854 12.9474 49.9089 13.0557C49.5322 13.1635 49.1442 13.2175 48.7446 13.2175C47.6739 13.2175 46.7509 12.8491 45.9746 12.1124C45.1986 11.3756 44.8105 10.4914 44.8105 9.45972C44.8105 8.46634 45.1885 7.61528 45.9438 6.90739C46.6996 6.1995 47.6062 5.8457 48.6641 5.8457C49.722 5.8457 50.6029 6.17578 51.3072 6.83566C52.0116 7.49553 52.3639 8.32202 52.3639 9.31569L52.2794 10.0499H46.3778Z" fill="#141414"/>
<path d="M47.2271 7.57698C46.8403 7.89134 46.5804 8.2983 46.4471 8.79728H50.8195C50.7271 8.2983 50.4888 7.89134 50.1045 7.57698C49.7204 7.26262 49.2391 7.10544 48.6601 7.10544C48.0915 7.10544 47.6138 7.26262 47.2271 7.57698ZM46.3778 10.0499C46.4602 10.5488 46.7225 10.9809 47.1657 11.3459C47.6087 11.7106 48.1352 11.8926 48.7446 11.8926C49.1851 11.8926 49.5963 11.7994 49.9779 11.612C50.3595 11.4251 50.6297 11.2424 50.7884 11.065L51.0269 10.7912L52.0488 11.7488C52.018 11.7874 51.9704 11.8414 51.9066 11.9109C51.8426 11.9806 51.7056 12.0981 51.4957 12.2635C51.2853 12.4293 51.0626 12.5756 50.8268 12.7028C50.5913 12.83 50.2854 12.9474 49.9089 13.0557C49.5322 13.1635 49.1442 13.2175 48.7446 13.2175C47.6739 13.2175 46.7509 12.8491 45.9746 12.1124C45.1986 11.3756 44.8105 10.4914 44.8105 9.45972C44.8105 8.46634 45.1885 7.61527 45.9438 6.90739C46.6996 6.1995 47.6062 5.8457 48.6641 5.8457C49.722 5.8457 50.6029 6.17578 51.3072 6.83566C52.0116 7.49553 52.3639 8.32202 52.3639 9.31569L52.2794 10.0499H46.3778Z" stroke="#141414" stroke-width="0.327" stroke-miterlimit="10"/>
<path d="M64.6781 7.86134C64.2117 7.40551 63.6583 7.17745 63.0181 7.17745C62.3778 7.17745 61.8232 7.40551 61.3547 7.86134C60.8855 8.31745 60.6516 8.87529 60.6516 9.53517C60.6516 10.195 60.8855 10.7529 61.3547 11.209C61.8232 11.6648 62.3778 11.8926 63.0181 11.8926C63.6583 11.8926 64.2117 11.6648 64.6781 11.209C65.1439 10.7529 65.3772 10.195 65.3772 9.53517C65.3772 8.87529 65.1439 8.31745 64.6781 7.86134ZM60.2556 6.94711C61.0371 6.21294 61.9577 5.8457 63.0181 5.8457C64.0784 5.8457 64.9993 6.21294 65.7805 6.94711C66.5617 7.68129 66.9524 8.54379 66.9524 9.53517C66.9524 10.5266 66.5617 11.3876 65.7805 12.1198C64.9993 12.8517 64.0784 13.2175 63.0181 13.2175C61.9577 13.2175 61.0371 12.8517 60.2556 12.1198C59.4744 11.3876 59.084 10.5263 59.084 9.53517C59.084 8.54407 59.4744 7.68129 60.2556 6.94711Z" fill="#141414"/>
<path d="M64.6781 7.86133C64.2117 7.40551 63.6583 7.17745 63.0181 7.17745C62.3778 7.17745 61.8232 7.40551 61.3547 7.86133C60.8855 8.31745 60.6516 8.87529 60.6516 9.53517C60.6516 10.195 60.8855 10.7529 61.3547 11.209C61.8232 11.6648 62.3778 11.8926 63.0181 11.8926C63.6583 11.8926 64.2117 11.6648 64.6781 11.209C65.1439 10.7529 65.3772 10.195 65.3772 9.53517C65.3772 8.87529 65.1439 8.31745 64.6781 7.86133ZM60.2556 6.94711C61.0371 6.21294 61.9577 5.8457 63.0181 5.8457C64.0784 5.8457 64.9993 6.21294 65.7805 6.94711C66.5617 7.68129 66.9524 8.54379 66.9524 9.53517C66.9524 10.5266 66.5617 11.3876 65.7805 12.1198C64.9993 12.8517 64.0784 13.2175 63.0181 13.2175C61.9577 13.2175 61.0371 12.8517 60.2556 12.1198C59.4744 11.3876 59.084 10.5263 59.084 9.53517C59.084 8.54407 59.4744 7.68129 60.2556 6.94711Z" stroke="#141414" stroke-width="0.327" stroke-miterlimit="10"/>
<path d="M57.5603 5.86243C56.8566 5.86243 56.1526 6.13764 55.5855 6.69035V5.84814H54.0664V13.0739H55.5855V9.32642C55.5855 8.34103 56.3792 7.28564 57.5603 7.28564H58.3485V5.86243H57.5603Z" fill="#141414"/>
<path d="M57.5603 5.86243C56.8566 5.86243 56.1526 6.13764 55.5855 6.69035V5.84814H54.0664V13.0739H55.5855V9.32642C55.5855 8.34103 56.3792 7.28564 57.5603 7.28564H58.3485V5.86243H57.5603Z" stroke="#141414" stroke-width="0.327" stroke-miterlimit="10"/>
<path d="M37.9621 15.7271H36.3945L39.6606 0.5H41.2285L37.9621 15.7271Z" fill="#00D9E0"/>
<path d="M41.5422 15.7271H39.9746L43.2406 0.5H44.8085L41.5422 15.7271Z" fill="#00D9E0"/>
</svg>
