<svg width="116" height="69" viewBox="0 0 116 69" fill="none" xmlns="http://www.w3.org/2000/svg">
<g clip-path="url(#clip0_6901_89701)">
<path d="M35.1823 34.4971C35.1823 21.8977 29.7327 10.5348 21.0529 2.59583C20.1381 1.76221 19.195 0.962164 18.2124 0.206873C17.8509 -0.072864 17.337 -0.072864 16.97 0.206873C15.9873 0.962164 15.0443 1.76221 14.1294 2.59583C5.44959 10.5348 0 21.8977 0 34.4971C0 47.0964 5.44959 58.4594 14.1294 66.3983C15.0386 67.2319 15.9873 68.032 16.97 68.7873C17.337 69.067 17.8509 69.067 18.2124 68.7873C19.195 68.032 20.1381 67.2319 21.0529 66.3983C29.7327 58.4594 35.1823 47.0964 35.1823 34.4971Z" fill="#F8A800"/>
<path d="M35.1823 34.4971C35.1823 21.8977 29.7327 10.5348 21.0529 2.59583C20.1381 1.76221 19.195 0.962164 18.2124 0.206873C17.8509 -0.072864 17.3314 -0.072864 16.97 0.206873C15.9873 0.962164 15.0443 1.76221 14.1294 2.59583C5.44959 10.5348 0 21.8977 0 34.4971C0 47.0964 5.44959 58.4594 14.1294 66.3983C15.0443 67.2319 15.9873 68.032 16.97 68.7873C17.337 69.067 17.8509 69.067 18.2124 68.7873C19.195 68.032 20.1381 67.2319 21.0529 66.3983C29.7327 58.4594 35.1823 47.0964 35.1823 34.4971ZM14.3327 8.56542C15.3097 7.47445 16.3488 6.43942 17.4443 5.46034C17.529 5.38761 17.6533 5.38761 17.738 5.46034C21.3466 8.68291 24.3509 12.5489 26.5703 16.8792C26.7058 17.1366 26.655 17.4499 26.463 17.6681C24.2436 20.113 22.3066 22.7985 20.6915 25.6742C20.5955 25.8532 20.3301 25.8028 20.3018 25.607C19.3926 19.7046 17.2919 14.2329 14.2706 9.40463C14.1068 9.14168 14.1294 8.8004 14.3383 8.56542M6.05949 23.2013C7.18329 19.5199 8.84358 16.068 10.9444 12.9349C11.0347 12.8006 11.2324 12.8118 11.3114 12.9461C14.0729 17.7576 15.8405 23.2237 16.3149 29.0925C16.4674 31.0059 16.473 32.897 16.3431 34.76C16.3318 34.967 16.0551 35.0286 15.9478 34.8551C13.3614 30.7038 10.086 27.0169 6.29103 23.9454C6.06514 23.7663 5.97478 23.4698 6.05384 23.1957M17.6815 63.0918C17.6476 63.3324 17.3483 63.4387 17.1676 63.2708C9.3123 56.1208 4.37661 45.8656 4.37661 34.4859C4.37661 32.5557 4.52344 30.6591 4.79451 28.8016C4.8171 28.6338 5.02605 28.561 5.15593 28.6729C12.9265 35.6776 17.8905 45.7145 18.0768 56.9208C18.1107 59.0132 17.9695 61.0721 17.6815 63.0862M20.1776 39.7393C21.3805 33.1767 24.2606 27.1064 28.4113 22.0544C28.5186 21.9257 28.7332 21.9648 28.784 22.1215C30.0942 26.0098 30.8114 30.1667 30.8114 34.4859C30.8114 43.32 27.8353 51.4715 22.8318 58.023C22.7076 58.1852 22.4478 58.0957 22.4478 57.8887C22.4478 57.5418 22.4478 57.1949 22.4478 56.8481C22.3744 52.6632 21.7024 48.6182 20.5164 44.8082C20.0082 43.1689 19.867 41.4346 20.1776 39.7449" fill="#222720"/>
<path d="M61.9898 26.5581H57.5849L52.6549 37.8987C52.5815 38.0721 52.3386 38.0721 52.2652 37.8987L47.3634 26.5581H42.9586C42.8569 26.5581 42.7835 26.6644 42.8287 26.7595L52.2709 46.5258C52.3443 46.6824 52.5758 46.6824 52.6492 46.5258L62.1197 26.7595C62.1648 26.6644 62.0971 26.5581 61.9898 26.5581ZM69.0884 27.0001C68.9359 26.6812 68.4728 26.6812 68.3203 27.0001L58.9629 46.4139C58.9177 46.509 58.9854 46.6153 59.0927 46.6153H63.4976L64.819 43.5046H72.5896L73.9111 46.6153H78.3159C78.4176 46.6153 78.491 46.509 78.4458 46.4139L69.094 27.0001H69.0884ZM66.1405 40.2597L68.5067 34.7153C68.5801 34.5418 68.8286 34.5418 68.8964 34.7153L71.2626 40.2597H66.1405ZM91.0053 36.1923L96.8502 26.7707C96.9067 26.6756 96.8389 26.5581 96.7316 26.5581H92.0557L85.3355 38.1672V26.5581H81.1226V46.6209H84.319L88.6448 39.9072L93.3263 46.6209H98.0926C98.2055 46.6209 98.2733 46.4922 98.2112 46.3971L91.011 36.1923H91.0053ZM109.105 34.374C106.072 33.8033 105.304 33.2271 105.304 32.0801C105.304 30.6087 106.405 29.9933 108.196 29.9933C110.274 29.9933 111.787 30.7094 113.007 31.6437C113.075 31.6941 113.165 31.6773 113.21 31.6102L115.305 28.3037C113.623 27.0225 111.115 26.2001 108.224 26.2001C103.87 26.2001 101.086 28.6673 101.086 32.2704C101.086 35.2188 102.656 37.2944 107.891 38.4134C110.895 38.9841 111.804 39.7393 111.804 40.9142C111.804 42.3857 110.59 43.1801 108.472 43.1801C106.467 43.1801 104.254 42.3073 102.887 40.9534C102.825 40.8919 102.723 40.8975 102.673 40.9758L100.481 44.2991C102.492 46.0166 105.248 46.9733 108.331 46.9733C113.097 46.9733 115.989 44.383 115.989 40.5338C115.989 37.4511 114.334 35.465 109.099 34.374" fill="#222720"/>
</g>
<defs>
<clipPath id="clip0_6901_89701">
<rect width="116" height="69" fill="white"/>
</clipPath>
</defs>
</svg>
