<svg xmlns="http://www.w3.org/2000/svg" xmlns:xlink="http://www.w3.org/1999/xlink" width="768" height="345" viewBox="0 0 768 345" fill="#fff">
<path d="M0 281.046V218.555L135.828 4.533H191.357V89.3648H159.141L79.6513 215.317V217.908H276.351V281.046H0ZM160.112 336.089V261.943L161.731 234.583V4.533H236.687V336.089H160.112Z" fill="#fff"/>
<path d="M0 281.046V218.555L135.828 4.533H191.357V89.3648H159.141L79.6513 215.317V217.908H276.351V281.046H0ZM160.112 336.089V261.943L161.731 234.583V4.533H236.687V336.089H160.112Z" fill="#fff" fill-opacity="0.2"/>
<path d="M382.543 344.184C353.618 344.184 328.687 337.331 307.748 323.624C286.81 309.809 270.675 290.004 259.343 264.209C248.01 238.306 242.398 207.169 242.506 170.797C242.614 134.425 248.28 103.557 259.504 78.1942C270.837 52.7231 286.918 33.3499 307.748 20.0747C328.687 6.69157 353.618 0 382.543 0C411.468 0 436.399 6.69157 457.337 20.0747C478.383 33.3499 494.573 52.7231 505.905 78.1942C517.238 103.665 522.85 134.533 522.742 170.797C522.742 207.277 517.076 238.468 505.743 264.371C494.411 290.274 478.276 310.079 457.337 323.786C436.507 337.385 411.576 344.184 382.543 344.184ZM382.543 278.617C399.811 278.617 413.788 269.821 424.473 252.229C435.158 234.529 440.447 207.385 440.339 170.797C440.339 146.837 437.91 127.086 433.053 111.544C428.197 95.8945 421.451 84.2382 412.817 76.5753C404.183 68.9124 394.091 65.0809 382.543 65.0809C365.382 65.0809 351.513 73.7692 340.936 91.1457C330.359 108.414 325.017 134.965 324.909 170.797C324.801 195.081 327.122 215.209 331.871 231.183C336.727 247.156 343.527 259.082 352.269 266.961C361.011 274.732 371.103 278.617 382.543 278.617Z" fill="#fff"/>
<path d="M382.543 344.184C353.618 344.184 328.687 337.331 307.748 323.624C286.81 309.809 270.675 290.004 259.343 264.209C248.01 238.306 242.398 207.169 242.506 170.797C242.614 134.425 248.28 103.557 259.504 78.1942C270.837 52.7231 286.918 33.3499 307.748 20.0747C328.687 6.69157 353.618 0 382.543 0C411.468 0 436.399 6.69157 457.337 20.0747C478.383 33.3499 494.573 52.7231 505.905 78.1942C517.238 103.665 522.85 134.533 522.742 170.797C522.742 207.277 517.076 238.468 505.743 264.371C494.411 290.274 478.276 310.079 457.337 323.786C436.507 337.385 411.576 344.184 382.543 344.184ZM382.543 278.617C399.811 278.617 413.788 269.821 424.473 252.229C435.158 234.529 440.447 207.385 440.339 170.797C440.339 146.837 437.91 127.086 433.053 111.544C428.197 95.8945 421.451 84.2382 412.817 76.5753C404.183 68.9124 394.091 65.0809 382.543 65.0809C365.382 65.0809 351.513 73.7692 340.936 91.1457C330.359 108.414 325.017 134.965 324.909 170.797C324.801 195.081 327.122 215.209 331.871 231.183C336.727 247.156 343.527 259.082 352.269 266.961C361.011 274.732 371.103 278.617 382.543 278.617Z" fill="#fff" fill-opacity="0.2"/>
<path d="M491.649 281.046V218.555L627.477 4.533H683.006V89.3648H650.79L571.3 215.317V217.908H768V281.046H491.649ZM651.761 336.089V261.943L653.38 234.583V4.533H728.336V336.089H651.761Z" fill="#fff"/>
<path d="M491.649 281.046V218.555L627.477 4.533H683.006V89.3648H650.79L571.3 215.317V217.908H768V281.046H491.649ZM651.761 336.089V261.943L653.38 234.583V4.533H728.336V336.089H651.761Z" fill="#fff" fill-opacity="0.2"/>
<defs>
<!-- <pattern id="pattern0" patternContentUnits="objectBoundingBox" width="1" height="1">
<use xlink:href="#image0_387_1386" transform="matrix(0.0005 0 0 0.00111568 0 -0.243602)"/>
</pattern>
<pattern id="pattern1" patternContentUnits="objectBoundingBox" width="1" height="1">
<use xlink:href="#image0_387_1386" transform="matrix(0.0005 0 0 0.00111568 0 -0.243602)"/>
</pattern>
<pattern id="pattern2" patternContentUnits="objectBoundingBox" width="1" height="1">
<use xlink:href="#image0_387_1386" transform="matrix(0.0005 0 0 0.00111568 0 -0.243602)"/>
</pattern> -->
  </defs>
</svg>