<svg xmlns="http://www.w3.org/2000/svg" width="20" height="18" viewBox="0 0 20 18" fill="none">
<path d="M9.46492 17.1352C9.30492 17.1352 9.15492 17.0752 9.04492 16.9652L1.47492 9.42523C1.36492 9.31524 1.29492 9.16523 1.29492 8.99523C1.29492 8.82523 1.35492 8.68523 1.47492 8.57523L9.04492 1.03523C9.15492 0.925234 9.30492 0.865234 9.46492 0.865234C9.62492 0.865234 9.77492 0.925234 9.89492 1.04523C10.1249 1.27523 10.1249 1.65523 9.89492 1.89523L3.34492 8.40523H18.1049C18.4349 8.40523 18.7049 8.67523 18.7049 9.00523C18.7049 9.33523 18.4349 9.60523 18.1049 9.60523H3.34492L9.88492 16.1152C9.99492 16.2252 10.0649 16.3752 10.0649 16.5352C10.0649 16.6952 10.0049 16.8452 9.89492 16.9552C9.78492 17.0652 9.63492 17.1352 9.47492 17.1352H9.46492Z" fill="#9ECC4A" stroke="#9ECC4A"/>
</svg>