<svg width="24" height="25" viewBox="0 0 24 25" fill="none" xmlns="http://www.w3.org/2000/svg">
<g id="heroicons-mini/arrow-down-right">
<path id="Union" d="M6.2636 16.9636C5.91213 17.3151 5.91213 17.8849 6.2636 18.2364C6.61508 18.5879 7.18492 18.5879 7.5364 18.2364L16.2 9.57279L16.2 16.4C16.2 16.8971 16.6029 17.3 17.1 17.3C17.5971 17.3 18 16.8971 18 16.4L18 7.4C18 7.27797 17.9757 7.16161 17.9317 7.05549C17.8888 6.95176 17.8256 6.85441 17.7422 6.7695C17.7384 6.76555 17.7344 6.76164 17.7305 6.75776C17.6456 6.67437 17.5482 6.61121 17.4445 6.56829C17.3384 6.52429 17.222 6.5 17.1 6.5L8.1 6.5C7.60294 6.5 7.2 6.90294 7.2 7.4C7.2 7.89706 7.60294 8.3 8.1 8.3L14.9272 8.3L6.2636 16.9636Z" fill="white"/>
</g>
</svg>
