<svg xmlns="http://www.w3.org/2000/svg" width="20" height="18" viewBox="0 0 20 18" fill="none">
<path d="M10.5351 0.864766C10.6951 0.864766 10.8451 0.924765 10.9551 1.03477L18.5251 8.57477C18.6351 8.68476 18.7051 8.83477 18.7051 9.00477C18.7051 9.17477 18.6451 9.31477 18.5251 9.42477L10.9551 16.9648C10.8451 17.0748 10.6951 17.1348 10.5351 17.1348C10.3751 17.1348 10.2251 17.0748 10.1051 16.9548C9.87508 16.7248 9.87508 16.3448 10.1051 16.1048L16.6551 9.59477L1.89508 9.59477C1.56508 9.59477 1.29508 9.32477 1.29508 8.99477C1.29508 8.66477 1.56508 8.39477 1.89508 8.39477L16.6551 8.39477L10.1151 1.88477C10.0051 1.77477 9.93508 1.62477 9.93508 1.46477C9.93508 1.30477 9.99508 1.15477 10.1051 1.04477C10.2151 0.934766 10.3651 0.864766 10.5251 0.864766L10.5351 0.864766Z" fill="#9ECC4A" stroke="#9ECC4A"/>
</svg>