<svg xmlns="http://www.w3.org/2000/svg" width="14" height="15" viewBox="0 0 14 15" fill="none">
  <g clip-path="url(#clip0_2920_5243)">
    <path d="M0.77658 6.6327C0.347687 6.6327 -5.45507e-08 7.02101 0 7.5C-5.45507e-08 7.97899 0.347687 8.3673 0.77658 8.3673L11.3486 8.36729L7.18304 13.0194C6.87977 13.3581 6.87977 13.9073 7.18304 14.246C7.48631 14.5847 7.97802 14.5847 8.28129 14.246L13.7725 8.11327C13.847 8.03012 13.9032 7.93428 13.9411 7.83199C13.9782 7.73205 13.999 7.62269 14 7.50801C14 7.50267 14 7.49733 14 7.49199C13.999 7.37731 13.9782 7.26795 13.9411 7.16801C13.9032 7.06572 13.847 6.96988 13.7725 6.88673L8.28129 0.754025C7.97802 0.415325 7.48631 0.415325 7.18304 0.754025C6.87977 1.09272 6.87977 1.64187 7.18304 1.98057L11.3486 6.6327L0.77658 6.6327Z" fill="#191710"/>
  </g>
  <defs>
    <clipPath id="clip0_2920_5243">
      <rect width="14" height="14" fill="white" transform="translate(0 0.5)"/>
    </clipPath>
  </defs>
</svg>