<svg xmlns="http://www.w3.org/2000/svg" width="85.206" height="36.516" viewBox="0 0 85.206 36.516"><path d="M85.2,42.554a4.475,4.475,0,0,0,3.82-1.8l-1.079-.987a3.151,3.151,0,0,1-2.655,1.35c-2.2,0-3.6-1.714-3.6-4.008s1.4-3.986,3.6-3.986a3.079,3.079,0,0,1,2.655,1.328l1.079-.964a4.473,4.473,0,0,0-3.82-1.8A5.13,5.13,0,0,0,80,37.109,5.148,5.148,0,0,0,85.2,42.554ZM99.445,42.3V35.181c0-2.508-1.813-3.494-4.036-3.494A5.476,5.476,0,0,0,91.244,33.4L92,34.516a4.083,4.083,0,0,1,3.194-1.436c1.511,0,2.633.793,2.633,2.165v1.866a4.427,4.427,0,0,0-3.453-1.393,3.374,3.374,0,0,0-3.625,3.407,3.455,3.455,0,0,0,3.625,3.43,4.491,4.491,0,0,0,3.453-1.436V42.3h1.619Zm-4.467-.9a2.282,2.282,0,1,1,0-4.521,3.534,3.534,0,0,1,2.849,1.264v1.972A3.489,3.489,0,0,1,94.978,41.4Zm9.345-1.907v-4.7a3.887,3.887,0,0,1,3.129-1.672c2.093,0,3.345,1.715,3.345,4.008s-1.252,3.986-3.345,3.986a3.853,3.853,0,0,1-3.129-1.629Zm0,2.808V40.756a4.4,4.4,0,0,0,3.517,1.8c2.718,0,4.64-2.057,4.64-5.423,0-3.322-1.9-5.444-4.64-5.444a4.366,4.366,0,0,0-3.517,1.822V28H102.7V42.3h1.619Zm18.927,0V35.182c0-2.508-1.813-3.494-4.036-3.494a5.475,5.475,0,0,0-4.165,1.715l.755,1.114A4.085,4.085,0,0,1,119,33.081c1.51,0,2.632.794,2.632,2.165v1.866a4.426,4.426,0,0,0-3.453-1.393,3.374,3.374,0,0,0-3.625,3.408,3.455,3.455,0,0,0,3.625,3.43,4.491,4.491,0,0,0,3.453-1.436V42.3h1.619Zm-4.466-.9a2.282,2.282,0,1,1,0-4.521,3.532,3.532,0,0,1,2.847,1.264v1.972a3.487,3.487,0,0,1-2.847,1.285Zm9.345.9V28h-1.618V42.3Zm4.856,0V28h-1.619V42.3Zm7.963.258a5.771,5.771,0,0,0,4.144-1.607l-.777-1.051a4.548,4.548,0,0,1-3.237,1.329,3.639,3.639,0,0,1-3.732-3.579h8.414v-.406c0-3.108-1.856-5.551-5.007-5.551a5.192,5.192,0,0,0-5.136,5.422,5.154,5.154,0,0,0,5.33,5.443Zm3.216-6.109h-6.841a3.459,3.459,0,0,1,3.407-3.429,3.362,3.362,0,0,1,3.433,3.429Zm5.827,5.851v-7.33a3.822,3.822,0,0,1,2.849-1.651,5.275,5.275,0,0,1,.626.043V31.708a4.5,4.5,0,0,0-3.475,1.886V31.943h-1.618V42.3Zm10.057.258a5.113,5.113,0,0,0,5.158-5.444,5.165,5.165,0,1,0-10.318,0,5.114,5.114,0,0,0,5.159,5.444Zm0-1.437c-2.223,0-3.453-1.886-3.453-4.008,0-2.1,1.23-3.986,3.453-3.986s3.453,1.886,3.453,3.986c0,2.122-1.23,4.008-3.454,4.008Zm-42.789,8.83h11.333v.845H117.259ZM98.391,62.689V56.5h-.7v2.386a1.893,1.893,0,0,0-1.524-.789,2.383,2.383,0,0,0,0,4.707,1.9,1.9,0,0,0,1.524-.78v.669h.7Zm-2.047-.51c-.916,0-1.46-.733-1.46-1.727s.542-1.736,1.46-1.736a1.679,1.679,0,0,1,1.346.724v2.024A1.672,1.672,0,0,1,96.344,62.179Zm3.8-4.614a.469.469,0,0,0,.332-.8.468.468,0,0,0-.332-.139.476.476,0,0,0-.477.473.469.469,0,0,0,.477.464Zm.346,5.124V58.206h-.7v4.484Zm3.215,1.82c1.1,0,2.159-.465,2.159-1.885V58.206h-.7v.678a1.894,1.894,0,0,0-1.524-.789,2.351,2.351,0,0,0,0,4.651,1.918,1.918,0,0,0,1.524-.8v.678a1.288,1.288,0,0,1-1.46,1.309,1.749,1.749,0,0,1-1.468-.6l-.355.5a2.312,2.312,0,0,0,1.825.679Zm.112-2.387a1.5,1.5,0,0,1-1.46-1.7c0-.993.542-1.708,1.46-1.708a1.711,1.711,0,0,1,1.346.715V61.4a1.694,1.694,0,0,1-1.346.724Zm3.8-4.558a.461.461,0,0,0,.467-.464.472.472,0,1,0-.944,0,.469.469,0,0,0,.477.464Zm.345,5.124V58.206h-.7v4.484Zm2.552.112a1.146,1.146,0,0,0,.832-.288l-.206-.529a.665.665,0,0,1-.477.2.483.483,0,0,1-.449-.576V58.818h.917v-.613h-.917V56.98h-.71v1.226h-.746v.613h.748v2.934A.923.923,0,0,0,110.52,62.8Zm5.121-.112V59.606c0-1.086-.785-1.514-1.748-1.514a2.37,2.37,0,0,0-1.8.743l.327.483A1.771,1.771,0,0,1,113.8,58.7c.654,0,1.14.343,1.14.938v.807a1.92,1.92,0,0,0-1.5-.6,1.46,1.46,0,0,0-1.57,1.476,1.5,1.5,0,0,0,1.57,1.485,1.944,1.944,0,0,0,1.5-.622v.51h.7Zm-1.935-.389a.988.988,0,1,1,0-1.958,1.528,1.528,0,0,1,1.234.547v.854a1.511,1.511,0,0,1-1.234.557Zm4.046.389V56.5h-.7v6.192Zm7.346,0V59.606c0-1.086-.786-1.514-1.748-1.514a2.371,2.371,0,0,0-1.805.743l.328.483a1.766,1.766,0,0,1,1.383-.622c.654,0,1.141.343,1.141.938v.807a1.92,1.92,0,0,0-1.5-.6,1.46,1.46,0,0,0-1.57,1.476A1.5,1.5,0,0,0,122.9,62.8a1.949,1.949,0,0,0,1.5-.622v.51h.7Zm-1.936-.389a.988.988,0,1,1,0-1.958,1.531,1.531,0,0,1,1.235.547v.854a1.512,1.512,0,0,1-1.235.557Zm5.159,2.21c1.1,0,2.159-.465,2.159-1.885V58.206h-.7v.678a1.89,1.89,0,0,0-1.523-.789,2.35,2.35,0,0,0,0,4.651,1.918,1.918,0,0,0,1.523-.8v.678a1.288,1.288,0,0,1-1.458,1.309,1.748,1.748,0,0,1-1.467-.6l-.355.5a2.311,2.311,0,0,0,1.824.679Zm.112-2.387a1.5,1.5,0,0,1-1.458-1.7c0-.993.542-1.708,1.458-1.708a1.712,1.712,0,0,1,1.346.715V61.4a1.694,1.694,0,0,1-1.346.724Zm5.495.678a2.5,2.5,0,0,0,1.794-.7l-.336-.455a1.974,1.974,0,0,1-1.4.576,1.577,1.577,0,0,1-1.617-1.55h3.645V60.5a2.184,2.184,0,0,0-2.168-2.4,2.356,2.356,0,0,0,.084,4.707Zm1.393-2.646h-2.964a1.5,1.5,0,0,1,1.477-1.485,1.456,1.456,0,0,1,1.487,1.485Zm5.569,2.534V59.542a1.277,1.277,0,0,0-1.43-1.449,2.215,2.215,0,0,0-1.617.762v-.649h-.7V62.69h.7V59.414a1.763,1.763,0,0,1,1.336-.7c.608,0,1.019.243,1.019,1.04V62.69h.692Zm3.4.112a1.935,1.935,0,0,0,1.654-.78l-.467-.426a1.366,1.366,0,0,1-1.15.585,1.741,1.741,0,0,1,0-3.463,1.334,1.334,0,0,1,1.15.576l.467-.418a1.937,1.937,0,0,0-1.654-.78,2.356,2.356,0,0,0,0,4.707Zm2.4,1.643a2.116,2.116,0,0,0,.505.066,1.345,1.345,0,0,0,1.328-.91l2.262-5.4h-.758l-1.5,3.676-1.5-3.676h-.767l1.889,4.53-.3.677a.65.65,0,0,1-.673.473,1.074,1.074,0,0,1-.384-.074Z" transform="translate(-80 -28)" fill="#25262a" fill-rule="evenodd"/></svg>