<svg xmlns="http://www.w3.org/2000/svg" width="24" height="24" viewBox="0 0 24 24" fill="none">
<path fill-rule="evenodd" clip-rule="evenodd" d="M17 21.7C15.6 21.7 14.5 20.6 14.4 19.2C14.4 17.8 15.5 16.6 16.9 16.6C17.6 16.6 18.2 16.9 18.7 17.3C19.2 17.8 19.5 18.4 19.5 19.1C19.5 20.6 18.4 21.7 17 21.7ZM16.9 18C16.2 18 15.7 18.5 15.7 19.2C15.7 19.9 16.2 20.4 16.9 20.4C17.2 20.4 17.5 20.3 17.8 20.1C18 19.9 18.2 19.6 18.2 19.3C18.1 18.5 17.6 18 16.9 18ZM8.5 21.7C7.1 21.7 6 20.6 5.9 19.2C5.9 17.8 7 16.6 8.4 16.6C9.1 16.6 9.8 16.9 10.2 17.3C10.7 17.8 11 18.4 11 19.1C11 20.6 9.9 21.7 8.5 21.7ZM8.4 18C7.7 18 7.2 18.5 7.2 19.2C7.2 19.9 7.7 20.4 8.4 20.4C8.7 20.4 9 20.3 9.3 20.1C9.5 19.9 9.7 19.6 9.7 19.3C9.6 18.5 9.1 18 8.4 18ZM19.9 15.3C19.8 15.7 19.5 15.9 19.2 15.9H7.6V15.8C7.2 15.8 6.9 15.6 6.9 15.2L4.6 4.4H2.7C2.3 4.4 2 4.1 2 3.7C2 3.3 2.3 3 2.7 3H5.2C5.6 3 5.9 3.2 6 3.6L8.3 14.4H19.9" fill="#1A1A1A"/>
</svg>
