<svg xmlns="http://www.w3.org/2000/svg" width="42" height="42" viewBox="0 0 42 42"><g transform="translate(-1122 -1170)"><path d="M37,15.048V33l-5.76-1.044L28.7,28.972,18,17.322,27.085,11c4.551,5.883,4.694,4.449,4.694,4.449s2.248-3.287,5.132-.462Z" transform="translate(1122 1175)" fill="#ccc"/><path d="M15.846,13,34,36.984c-.106.011-.213.016-.32.016H4Z" transform="translate(1122 1175)" fill="#518ef8"/><path d="M27,10.75,0,34V3.374A3.337,3.337,0,0,1,3.3,0H22.987c-.845,1.487,2.289,2.441,2.289,4.285A16.382,16.382,0,0,0,27,10.75Z" transform="translate(1122 1175)" fill="#28b446"/><path d="M37,32.514v1.154A3.317,3.317,0,0,1,34.05,37L19,21.783,22.643,18l8.408,8.5.464.47Z" transform="translate(1122 1175)" fill="#f2f2f2"/><path d="M26.832,13.851l-4.146,4.141L18.9,21.773,3.656,37H3.4A3.372,3.372,0,0,1,0,33.654L23.682,10c.443.748,3.493-.009,4.113.6l1.139,1.443C29.49,12.624,26.354,13.231,26.832,13.851Z" transform="translate(1122 1175)" fill="#ffd837"/><path d="M8.5,14a5.5,5.5,0,1,1,3.888-9.388L11.113,5.887A3.7,3.7,0,1,0,12.085,9.4H8.5V7.6H14v.9A5.506,5.506,0,0,1,8.5,14Z" transform="translate(1122 1175)" fill="#fff"/><path d="M23.349,5.008a10.016,10.016,0,1,1,15.7,12.173,22.952,22.952,0,0,0-2.048,2.54A32.736,32.736,0,0,0,32,32a32.418,32.418,0,0,0-5.528-13,22.9,22.9,0,0,0-1.527-1.822h0a10.1,10.1,0,0,1-1.6-12.173Z" transform="translate(1122 1170)" fill="#f14336"/><path d="M32,5a5,5,0,1,1-5,5A5,5,0,0,1,32,5Z" transform="translate(1122 1170)" fill="#7e2d25"/></g></svg>