<svg xmlns="http://www.w3.org/2000/svg" width="34" height="26" viewBox="0 0 34 26"><path d="M29.849,0A4.167,4.167,0,0,1,34,4.185V21.822A4.171,4.171,0,0,1,29.842,26H4.158A4.171,4.171,0,0,1,0,21.822V4.178A4.171,4.171,0,0,1,4.158,0Zm2.258,21.822H32.1V4.185a2.266,2.266,0,0,0-2.258-2.269H4.158A2.266,2.266,0,0,0,1.9,4.185V21.822a2.266,2.266,0,0,0,2.258,2.269H29.849A2.266,2.266,0,0,0,32.108,21.822ZM21.443,12.781l8.351,7.967a.961.961,0,0,1,.035,1.35.949.949,0,0,1-1.344.035L20.028,14.06,17.658,16.2a.944.944,0,0,1-1.266.007l-2.308-2.071-8.505,8a.949.949,0,0,1-.647.254.958.958,0,0,1-.654-1.654l8.379-7.882L4.242,5.288a.956.956,0,0,1-.077-1.35A.945.945,0,0,1,5.508,3.86l9.1,8.186a1.409,1.409,0,0,1,.155.134c0,.007.007.014.014.021l2.237,2.008L28.485,3.867a.951.951,0,0,1,1.344.071.962.962,0,0,1-.07,1.35Z" fill="#131242" fill-rule="evenodd"/></svg>