<svg xmlns="http://www.w3.org/2000/svg" width="23.925" height="25.05" viewBox="0 0 23.925 25.05"><g transform="translate(-1611 -1170)"><path d="M21,10a2.016,2.016,0,0,0-1.1.3A2.1,2.1,0,0,0,18,9a2.016,2.016,0,0,0-1.1.3A2.1,2.1,0,0,0,15,8a1.689,1.689,0,0,0-1,.3V4a2,2,0,0,0-4,0v9.8L9,12a1.9,1.9,0,0,0-2.7-.7A1.994,1.994,0,0,0,5.5,14a12.749,12.749,0,0,0,.7,1.2c.8,1.4,1,3.7,1.8,5a53.881,53.881,0,0,0,3,4.5.5.5,0,1,0,.8-.6c-.1-.1-2.1-2.9-3-4.4-.6-1.1-1-3.5-1.8-5-.1-.2-.6-1-.7-1.2a1.03,1.03,0,1,1,1.8-1L10,15.8a.548.548,0,0,0,1-.3V4a1,1,0,0,1,2,0v8.5a.5.5,0,0,0,1,0V10a1,1,0,0,1,2,0v2.5a.5.5,0,0,0,1,0V11a1,1,0,0,1,2,0v2.5a.5.5,0,0,0,1,0V12a1,1,0,0,1,2,0v3.5c0,3.3-2,6.4-2,9a.5.5,0,0,0,1,0c0-2.2,2-5.7,2-9V12A2.006,2.006,0,0,0,21,10Z" transform="translate(1610.975 1170.05)" fill="#ddd"/><path d="M1.7,3H8.5A.472.472,0,0,0,9,2.5.472.472,0,0,0,8.5,2H1.7L2.9.9a1.1,1.1,0,0,0,0-.8,1.1,1.1,0,0,0-.8,0l-2,2a1.1,1.1,0,0,0,0,.8l2,2a1.1,1.1,0,0,0,.8,0,1.1,1.1,0,0,0,0-.8Z" transform="translate(1610.975 1170.05)" fill="#ddd"/><path d="M23.8,2.1l-2-2a.483.483,0,0,0-.7,0,.483.483,0,0,0,0,.7L22.3,2H15.5a.472.472,0,0,0-.5.5.472.472,0,0,0,.5.5h6.8L21.1,4.1a.495.495,0,0,0,.7.7l2-2A.483.483,0,0,0,23.8,2.1Z" transform="translate(1610.975 1170.05)" fill="#ddd"/></g></svg>