<svg xmlns="http://www.w3.org/2000/svg" width="16" height="16" viewBox="0 0 16 16"><path d="M9.619,12.006H6.38a.453.453,0,0,1,0-.9L7,11V8l-.62-.116a.453.453,0,0,1,0-.9H8.894c.077,0,.1-.032.113-.058A.275.275,0,0,0,9,7v4l.619.11a.453.453,0,0,1,0,.9ZM7,4h.98C7.987,4,7.993,4,8,4s.013,0,.02,0H9v.94c0,.022.012.04.012.061S9,5.041,9,5.062V6H8.033c-.012,0-.022.007-.033.007A.32.32,0,0,1,7.967,6H7V5.061A.58.58,0,0,1,6.987,5c0-.021.011-.039.013-.06ZM8,0a8,8,0,1,0,8,8A8,8,0,0,0,8,0Z" fill="#fff" opacity="0.752"/></svg>