<svg xmlns="http://www.w3.org/2000/svg" width="33" height="33" viewBox="0 0 33 33"><path d="M26.094,20.442l3.829,3.838A3.345,3.345,0,0,1,31,26.669a3.472,3.472,0,0,1-1.053,2.41c-.3.313-.607.613-.907.9a15.853,15.853,0,0,0-1.221,1.261c-.007.014-.021.021-.028.035A5.259,5.259,0,0,1,23.765,33c-.139,0-.293-.007-.44-.014a17.049,17.049,0,0,1-6.138-1.811,32.818,32.818,0,0,1-10.93-8.546A29.98,29.98,0,0,1,.922,13.742,12.194,12.194,0,0,1,.029,8.574,5.092,5.092,0,0,1,1.542,5.335L3.914,2.947l.014-.014A3.419,3.419,0,0,1,6.3,1.909,3.3,3.3,0,0,1,8.636,2.933c.453.418.893.864,1.311,1.3.209.223.432.446.649.662l1.9,1.9a3.192,3.192,0,0,1,0,4.82c-.2.195-.391.4-.586.592-.516.522-1.046,1.066-1.618,1.588a14.11,14.11,0,0,0,1.883,2.967,23.942,23.942,0,0,0,5.74,5.224c.2.125.439.244.691.369.174.09.356.181.537.279l2.2-2.194a3.363,3.363,0,0,1,2.385-1.073A3.252,3.252,0,0,1,26.094,20.442Zm2.5,7.334a1.376,1.376,0,0,0-.007-2.18l-3.857-3.851a1.421,1.421,0,0,0-1-.509,1.579,1.579,0,0,0-1.053.522l-2.385,2.382a1.492,1.492,0,0,1-1.06.481,1.514,1.514,0,0,1-.691-.174c-.028-.014-.056-.035-.084-.049-.2-.125-.439-.244-.691-.369a9.514,9.514,0,0,1-.858-.467,25.591,25.591,0,0,1-6.194-5.628l-.007-.007a15.259,15.259,0,0,1-2.253-3.67l-.021-.063a1.419,1.419,0,0,1,.363-1.581c.007-.014.021-.021.035-.035.607-.543,1.165-1.1,1.751-1.7.2-.2.4-.4.6-.6a1.328,1.328,0,0,0,0-2.159l-1.9-1.9c-.223-.23-.446-.453-.663-.676-.425-.439-.83-.85-1.256-1.247l-.021-.021a1.493,1.493,0,0,0-1.018-.488,1.587,1.587,0,0,0-1.06.495L2.875,6.659a3.2,3.2,0,0,0-.963,2.069,9.932,9.932,0,0,0,.781,4.36,28.267,28.267,0,0,0,5.022,8.351,30.976,30.976,0,0,0,10.3,8.051,15.144,15.144,0,0,0,5.441,1.63c.1.007.216.007.321.007a3.365,3.365,0,0,0,2.623-1.107,18.331,18.331,0,0,1,1.346-1.393c.3-.293.579-.557.851-.85ZM17.836,7.85a.93.93,0,0,1-.76-1.087A.946.946,0,0,1,18.164,6a10.847,10.847,0,0,1,8.844,8.831.941.941,0,0,1-.774,1.087,1.258,1.258,0,0,1-.16.014.936.936,0,0,1-.928-.78,8.97,8.97,0,0,0-7.31-7.3Zm15.15,6.707a.923.923,0,0,1-.767,1.073,1.24,1.24,0,0,1-.16.014.935.935,0,0,1-.928-.78,15.953,15.953,0,0,0-13.015-13A.939.939,0,1,1,18.422.014,17.86,17.86,0,0,1,32.986,14.557Z" fill="#131242" fill-rule="evenodd"/></svg>