<svg xmlns="http://www.w3.org/2000/svg" width="99.897" height="100" viewBox="0 0 99.897 100"><g transform="translate(-1293 -1170)"><path d="M50,0A50,50,0,1,0,99.948,50,49.974,49.974,0,0,0,50,0Zm0,96.774A46.774,46.774,0,1,1,96.723,50,46.8,46.8,0,0,1,50,96.774Z" transform="translate(1292.948 1170)" fill="#ea2f2f"/><path d="M67.781,34.516,65.5,32.236,50.035,47.719,34.571,32.236,32.29,34.516,47.758,50,32.29,65.484l2.281,2.281L50.035,52.281,65.5,67.765l2.281-2.281L52.316,50Z" transform="translate(1292.948 1170)" fill="#ea2f2f"/></g></svg>