<svg width="63" height="60" viewBox="0 0 63 60" fill="none" xmlns="http://www.w3.org/2000/svg">
<g id="Frame 13">
<path id="Union" fill-rule="evenodd" clip-rule="evenodd" d="M20.1099 3.24536C21.9832 2.13089 24.4328 2.7817 25.5724 4.69131L25.897 5.25194L25.8982 5.25404C27.354 7.79249 29.4163 9.28512 31.6856 9.28512C33.9539 9.28512 36.0235 7.7935 37.4942 5.25608L37.4944 5.25565L37.821 4.69153C38.9606 2.78175 41.4103 2.13084 43.2837 3.24536L43.2983 3.25389L48.4854 6.22221L48.4859 6.22252C50.7306 7.5052 51.4981 10.3979 50.2155 12.6188C48.7447 15.1565 48.4822 17.6917 49.6148 19.657C50.7473 21.6223 53.0716 22.6651 55.9981 22.6651C58.5675 22.6651 60.6949 24.7693 60.6949 27.3619V32.6389C60.6949 35.2083 58.5906 37.3357 55.9981 37.3357C53.0716 37.3357 50.7473 38.3784 49.6148 40.3437C48.4826 42.3083 48.7445 44.8424 50.2139 47.3793C51.5002 49.6331 50.7289 52.4965 48.4859 53.7782L48.4854 53.7785L43.2983 56.7468L43.2837 56.7554C41.4104 57.8699 38.9607 57.219 37.8211 55.3093L37.4966 54.7488L37.4959 54.7476C36.04 52.2086 33.9776 50.7156 31.708 50.7156C29.4397 50.7156 27.3701 52.2072 25.8994 54.7447L25.8992 54.7451L25.5725 55.3093C24.4329 57.219 21.9832 57.8699 20.1099 56.7554L20.0953 56.7468L14.9105 53.7798L14.9093 53.7791C13.8325 53.1587 13.0457 52.1365 12.7215 50.9368C12.3973 49.7374 12.5619 48.4584 13.1791 47.3802C14.649 44.8431 14.9111 42.3086 13.7788 40.3437C12.6463 38.3784 10.322 37.3357 7.39552 37.3357C4.803 37.3357 2.69873 35.2083 2.69873 32.6389V27.3619C2.69873 24.7925 4.803 22.6651 7.39552 22.6651C10.322 22.6651 12.6463 21.6223 13.7788 19.657C14.9114 17.6918 14.6489 15.1567 13.1783 12.619C11.8955 10.3981 12.6629 7.50524 14.9077 6.22252L14.9082 6.22221L20.0953 3.25389L20.1099 3.24536ZM27.2942 3.67364C25.6156 0.852222 21.9563 -0.174623 19.0949 1.52204L13.9154 4.48603L13.9149 4.48634C10.7033 6.3219 9.61199 10.4444 11.4469 13.6202L11.4476 13.6214C12.705 15.7909 12.6973 17.5281 12.046 18.6584C11.3945 19.7889 9.89593 20.6651 7.39552 20.6651C3.69159 20.6651 0.69873 23.6948 0.69873 27.3619V32.6389C0.69873 36.306 3.69159 39.3357 7.39552 39.3357C9.89593 39.3357 11.3945 40.2118 12.046 41.3423C12.6973 42.4726 12.705 44.2099 11.4476 46.3794L11.4451 46.3836C10.5635 47.9218 10.3281 49.747 10.7907 51.4586C11.2533 53.1702 12.3761 54.6284 13.9126 55.5131L13.9149 55.5144L19.0948 58.4786C21.9562 60.1754 25.6156 59.1485 27.2942 56.3271L27.2942 56.3271L27.3002 56.3168L27.6298 55.7476C28.8875 53.5777 30.4009 52.7156 31.708 52.7156C33.0136 52.7156 34.5189 53.5758 35.7615 55.7435L35.7636 55.7472L36.0934 56.3168L36.0933 56.3169L36.0994 56.3271C37.778 59.1485 41.4374 60.1754 44.2988 58.4786L49.4782 55.5147C52.6913 53.6786 53.7793 49.5875 51.9491 46.3847L51.946 46.3794C50.6886 44.2099 50.6963 42.4726 51.3476 41.3423C51.9991 40.2118 53.4977 39.3357 55.9981 39.3357C59.702 39.3357 62.6949 36.306 62.6949 32.6389V27.3619C62.6949 23.6579 59.6652 20.6651 55.9981 20.6651C53.4977 20.6651 51.9991 19.7889 51.3476 18.6584C50.6963 17.5281 50.6886 15.7909 51.946 13.6214L51.9467 13.6202C53.7816 10.4444 52.6903 6.3219 49.4787 4.48634L49.4782 4.48603L44.2987 1.52204C41.4373 -0.174624 37.778 0.852221 36.0994 3.67364L36.0994 3.67361L36.0934 3.6839L35.7638 4.25314L35.7636 4.25358C34.5059 6.42319 32.9926 7.28512 31.6856 7.28512C30.38 7.28512 28.8747 6.4249 27.6321 4.25729L27.63 4.25358L27.3002 3.6839L27.3003 3.68387L27.2942 3.67364ZM31.6818 20.0054C29.031 20.0054 26.4887 21.0585 24.6143 22.9329C22.7399 24.8073 21.6869 27.3495 21.6869 30.0004C21.6869 32.6512 22.7399 35.1934 24.6143 37.0678C26.4887 38.9423 29.031 39.9953 31.6818 39.9953C34.3326 39.9953 36.8749 38.9423 38.7493 37.0678C40.6237 35.1934 41.6767 32.6512 41.6767 30.0004C41.6767 27.3495 40.6237 24.8073 38.7493 22.9329C36.8749 21.0585 34.3326 20.0054 31.6818 20.0054ZM26.0285 24.3471C27.5279 22.8478 29.5614 22.0054 31.6818 22.0054C33.8022 22.0054 35.8357 22.8478 37.3351 24.3471C38.8344 25.8464 39.6767 27.88 39.6767 30.0004C39.6767 32.1208 38.8344 34.1543 37.3351 35.6536C35.8357 37.153 33.8022 37.9953 31.6818 37.9953C29.5614 37.9953 27.5279 37.153 26.0285 35.6536C24.5292 34.1543 23.6869 32.1208 23.6869 30.0004C23.6869 27.88 24.5292 25.8464 26.0285 24.3471Z" fill="#F3901D"/>
</g>
</svg>
