<svg width="20" height="21" viewBox="0 0 20 21" fill="none" xmlns="http://www.w3.org/2000/svg">
<g id="language">
<path id="Vector" d="M10 19.5C14.9707 19.5 19 15.4707 19 10.5C19 5.5293 14.9707 1.5 10 1.5C5.0293 1.5 1 5.5293 1 10.5C1 15.4707 5.0293 19.5 10 19.5Z" stroke="black" stroke-width="1.5" stroke-linecap="round" stroke-linejoin="round"/>
<path id="Vector_2" d="M6.41455 2.5H7.31091C5.56303 7.6925 5.56303 13.3075 7.31091 18.5H6.41455M12.6891 2.5C14.437 7.6925 14.437 13.3075 12.6891 18.5" stroke="black" stroke-width="1.5" stroke-linecap="round" stroke-linejoin="round"/>
<path id="Vector_3" d="M2 14.0855V13.1891C7.1925 14.937 12.8075 14.937 18 13.1891V14.0855M2 7.81091C7.1925 6.06303 12.8075 6.06303 18 7.81091" stroke="black" stroke-width="1.5" stroke-linecap="round" stroke-linejoin="round"/>
</g>
</svg>
