<svg xmlns="http://www.w3.org/2000/svg" width="20" height="20" viewBox="0 0 20 20" fill="none">
<path d="M8.15085 11.4083C8.56276 11.8002 8.56276 12.4432 8.15085 12.835C7.75902 13.2268 7.11604 13.2268 6.72421 12.835C4.76509 10.8759 4.76509 7.69105 6.72421 5.73194L10.2808 2.17539C12.2399 0.216276 15.4247 0.216276 17.3838 2.17539C19.343 4.13451 19.343 7.31932 17.3838 9.27844L15.8868 10.7754C15.8969 9.95157 15.7662 9.12773 15.485 8.34409L15.9572 7.86185C17.1427 6.68638 17.1427 4.7775 15.9572 3.60203C14.7817 2.41652 12.8728 2.41652 11.6973 3.60203L8.15085 7.14853C6.96533 8.324 6.96533 10.2329 8.15085 11.4083ZM10.984 7.14853C11.3759 6.75671 12.0189 6.75671 12.4107 7.14853C14.3698 9.10764 14.3698 12.2925 12.4107 14.2516L8.85412 17.8081C6.895 19.7673 3.71019 19.7673 1.75107 17.8081C-0.20804 15.8491 -0.20804 12.6642 1.75107 10.7051L3.24804 9.20811C3.23799 10.0319 3.3686 10.8558 3.64991 11.6495L3.17772 12.1217C1.9922 13.2971 1.9922 15.206 3.17772 16.3815C4.35318 17.567 6.26207 17.567 7.43753 16.3815L10.984 12.835C12.1695 11.6595 12.1695 9.75063 10.984 8.57516C10.5721 8.18334 10.5721 7.54035 10.984 7.14853Z" fill="#9ECC4A"/>
</svg>