<svg width="24" height="30" viewBox="0 0 24 30" fill="none" xmlns="http://www.w3.org/2000/svg">
<g clip-path="url(#clip0_4019_32819)">
<path d="M19.8104 14.8885C19.8104 9.45086 17.45 4.54687 13.6907 1.12059C13.2944 0.760821 12.886 0.415537 12.4604 0.0895698C12.3038 -0.0311587 12.0812 -0.0311587 11.9223 0.0895698C11.4967 0.415537 11.0882 0.760821 10.692 1.12059C6.93258 4.54687 4.57227 9.45086 4.57227 14.8885C4.57227 20.3261 6.93258 25.2301 10.692 28.6564C11.0858 29.0161 11.4967 29.3614 11.9223 29.6874C12.0812 29.8081 12.3038 29.8081 12.4604 29.6874C12.886 29.3614 13.2944 29.0161 13.6907 28.6564C17.45 25.2301 19.8104 20.3261 19.8104 14.8885Z" fill="#0AAFFF"/>
<path d="M19.8104 14.8885C19.8104 9.45086 17.45 4.54687 13.6907 1.12059C13.2944 0.760821 12.886 0.415537 12.4604 0.0895698C12.3038 -0.0311587 12.0788 -0.0311587 11.9223 0.0895698C11.4967 0.415537 11.0882 0.760821 10.692 1.12059C6.93258 4.54687 4.57227 9.45086 4.57227 14.8885C4.57227 20.3261 6.93258 25.2301 10.692 28.6564C11.0882 29.0161 11.4967 29.3614 11.9223 29.6874C12.0812 29.8081 12.3038 29.8081 12.4604 29.6874C12.886 29.3614 13.2944 29.0161 13.6907 28.6564C17.45 25.2301 19.8104 20.3261 19.8104 14.8885ZM10.78 3.69694C11.2032 3.2261 11.6532 2.7794 12.1277 2.35685C12.1644 2.32546 12.2182 2.32546 12.2549 2.35685C13.8179 3.74764 15.1191 5.41611 16.0803 7.28499C16.139 7.39606 16.117 7.53128 16.0339 7.62544C15.0726 8.68061 14.2337 9.83961 13.5341 11.0807C13.4925 11.158 13.3776 11.1362 13.3654 11.0517C12.9716 8.50435 12.0617 6.1429 10.7531 4.05912C10.6822 3.94564 10.692 3.79835 10.7825 3.69694M7.19674 10.0135C7.68348 8.42467 8.40258 6.93488 9.31246 5.58272C9.3516 5.52477 9.43721 5.5296 9.47145 5.58755C10.6675 7.66408 11.4331 10.0231 11.6385 12.556C11.7046 13.3818 11.707 14.1979 11.6508 15.002C11.6459 15.0913 11.526 15.1179 11.4796 15.043C10.3593 13.2514 8.94068 11.6602 7.29702 10.3346C7.19919 10.2573 7.16005 10.1294 7.19429 10.011M12.2304 27.2293C12.2158 27.3332 12.0861 27.379 12.0079 27.3066C8.60559 24.2208 6.46786 19.7949 6.46786 14.8836C6.46786 14.0506 6.53145 13.2321 6.64885 12.4304C6.65864 12.358 6.74914 12.3266 6.80539 12.3749C10.171 15.3979 12.3209 19.7297 12.4017 24.5661C12.4163 25.4691 12.3552 26.3577 12.2304 27.2269M13.3115 17.1509C13.8325 14.3186 15.0799 11.6988 16.8777 9.51847C16.9242 9.46293 17.0171 9.47984 17.0391 9.54744C17.6066 11.2256 17.9172 13.0196 17.9172 14.8836C17.9172 18.6963 16.6282 22.2143 14.4611 25.0417C14.4073 25.1118 14.2948 25.0731 14.2948 24.9838C14.2948 24.8341 14.2948 24.6844 14.2948 24.5347C14.263 22.7286 13.9719 20.9828 13.4583 19.3385C13.2382 18.6311 13.177 17.8825 13.3115 17.1533" fill="#222720"/>
</g>
<defs>
<clipPath id="clip0_4019_32819">
<rect width="24" height="30" fill="white"/>
</clipPath>
</defs>
</svg>
