<svg xmlns="http://www.w3.org/2000/svg" width="129.995" height="40.003" viewBox="0 0 129.995 40.003"><g transform="translate(-886 -1170)"><path d="M17.5,40,0,30V10L17.5,0l17.5,10V30Z" transform="translate(885.998 1170.001)" fill="#4f4f90" fill-rule="evenodd"/><path d="M23.44,26.591V19.87H28v6.721Zm2.333-.29a.23.23,0,1,0-.237-.23A.233.233,0,0,0,25.773,26.3Zm.039-6.153a.1.1,0,1,0,.1.1A.1.1,0,0,0,25.812,20.148Zm.591.323H25.22v.092H26.4Zm.938.422H24.1v4.621c.529.005,2.173,0,3.241,0ZM24.9,13.816H10.266v2.59H9.012V12.6H26.155V19.5H24.9ZM12.535,26.335H5.989V16.788h6.546ZM9.4,25.856a.307.307,0,1,0-.315-.306A.31.31,0,0,0,9.4,25.856ZM6.935,17.708v7.044h4.654V17.708ZM23,23.275h-3.98v.688h3.579v.567H12.939v-.567h3.07v-.688h-3.07V21.7H23Z" transform="translate(885.998 1170.001)" fill="#fff" fill-rule="evenodd"/><path d="M130,24.979h-3.326l-2.951-3.76-.994,1.019v2.741h-2.348V15.242h2.348v3.91l4.035-3.91h2.981l-4.4,4.255Zm-14.451-9.737h2.349v9.737h-2.349Zm-5.177,9.737H108.02V17.34H104.3v-2.1h9.785v2.1h-3.718Zm-7.06,0-.662-1.333H97.9l-.662,1.333h-2.65l4.863-9.737h1.776l4.682,9.737Zm-3.041-6.366-1.384,3.131h2.845Zm-9.693,1.393-2.3,4.973H87.248L84.99,20.051v4.928H82.626V15.242H84.99v.045l2.77,5.468,2.815-5.513h2.348v9.737H90.575ZM76.531,25.219a5.131,5.131,0,1,1,0-10.261,4.837,4.837,0,0,1,4.034,1.977l-1.791,1.139a3.069,3.069,0,0,0-2.243-.869,2.884,2.884,0,1,0,2.092,4.883V21.07H75.658V19.2h5.028v3.955h-.015A5.135,5.135,0,0,1,76.531,25.219Zm-7.436-.24-.662-1.333H63.691l-.663,1.333H60.379l4.862-9.737h1.777L71.7,24.979Zm-3.041-6.366-1.385,3.131h2.845Zm-9.543,6.366L54.9,22.553H53.184v2.426H50.79V15.242h4.757a3.635,3.635,0,0,1,3.508,3.835,3.218,3.218,0,0,1-1.746,2.966l2.152,2.936Zm-1.325-7.34h-2v2.772h1.987a1.361,1.361,0,0,0,1.46-1.334A1.442,1.442,0,0,0,55.186,17.639ZM45.161,22.912H43.144v2.067H40.75V15.242h4.757a3.638,3.638,0,0,1,3.508,3.611V19.3A3.863,3.863,0,0,1,45.161,22.912Zm0-5.288H43.144V20.53h1.987a1.453,1.453,0,0,0,.03-2.906Z" transform="translate(885.998 1170.001)" fill="#4f4f90" fill-rule="evenodd"/></g></svg>