<svg width="18" height="18" viewBox="0 0 18 18" fill="none" xmlns="http://www.w3.org/2000/svg">
<g id="icons" clip-path="url(#clip0_487_2701)">
<path id="Vector" d="M17.1004 17.1004L15.4804 15.4804M8.59539 16.2904C9.60591 16.2904 10.6065 16.0914 11.5401 15.7046C12.4737 15.3179 13.322 14.7511 14.0366 14.0366C14.7511 13.322 15.3179 12.4737 15.7046 11.5401C16.0914 10.6065 16.2904 9.60591 16.2904 8.59539C16.2904 7.58487 16.0914 6.58424 15.7046 5.65064C15.3179 4.71704 14.7511 3.86875 14.0366 3.1542C13.322 2.43966 12.4737 1.87285 11.5401 1.48614C10.6065 1.09943 9.60591 0.900391 8.59539 0.900391C6.55455 0.900391 4.5973 1.71111 3.1542 3.1542C1.71111 4.5973 0.900391 6.55455 0.900391 8.59539C0.900391 10.6362 1.71111 12.5935 3.1542 14.0366C4.5973 15.4797 6.55455 16.2904 8.59539 16.2904Z" stroke="white" stroke-width="1.5" stroke-linecap="round" stroke-linejoin="round"/>
</g>
<defs>
<clipPath id="clip0_487_2701">
<rect width="18" height="18" fill="white"/>
</clipPath>
</defs>
</svg>
