<svg width="18" height="19" viewBox="0 0 18 19" fill="none" xmlns="http://www.w3.org/2000/svg">
<g id="icons" clip-path="url(#clip0_602_113)">
<path id="Vector" d="M17.0999 17.6004L15.4799 15.9804M8.5949 16.7904C9.60542 16.7904 10.6061 16.5914 11.5397 16.2046C12.4733 15.8179 13.3215 15.2511 14.0361 14.5366C14.7506 13.822 15.3174 12.9737 15.7042 12.0401C16.0909 11.1065 16.2899 10.1059 16.2899 9.09539C16.2899 8.08487 16.0909 7.08424 15.7042 6.15064C15.3174 5.21704 14.7506 4.36875 14.0361 3.6542C13.3215 2.93966 12.4733 2.37285 11.5397 1.98614C10.6061 1.59943 9.60542 1.40039 8.5949 1.40039C6.55406 1.40039 4.59681 2.21111 3.15372 3.6542C1.71062 5.0973 0.899902 7.05455 0.899902 9.09539C0.899902 11.1362 1.71062 13.0935 3.15372 14.5366C4.59681 15.9797 6.55406 16.7904 8.5949 16.7904Z" stroke="black" stroke-width="1.5" stroke-linecap="round" stroke-linejoin="round"/>
</g>
<defs>
<clipPath id="clip0_602_113">
<rect width="18" height="18" fill="white" transform="translate(0 0.5)"/>
</clipPath>
</defs>
</svg>
