<svg xmlns="http://www.w3.org/2000/svg" width="22" height="22" viewBox="0 0 22 22" fill="none">
  <path fill-rule="evenodd" clip-rule="evenodd" d="M9.5431 1.1926C9.38754 1.1926 9.23905 1.25624 9.12591 1.36938L9.11884 1.37645C9.0057 1.48959 8.94914 1.64515 8.94914 1.80071C8.94914 1.95628 9.01277 2.10477 9.12591 2.21791C9.23905 2.33104 9.39461 2.38761 9.55018 2.38761L18.7779 2.3664L8.34102 12.8033C8.31452 12.8298 8.29103 12.8582 8.27055 12.8881L2.37332 18.7853L2.40161 9.55052C2.39454 9.21818 2.12584 8.94948 1.80057 8.94948C1.63086 8.94948 1.48237 9.01312 1.36923 9.12626C1.25609 9.23939 1.19245 9.38789 1.19245 9.54345L1.17124 20.2278C1.16417 20.3905 1.22074 20.5319 1.34095 20.6521C1.46116 20.7723 1.61672 20.8289 1.77228 20.8289L12.4567 20.8077C12.6122 20.8077 12.7607 20.744 12.8739 20.6309L12.8809 20.6238C12.9941 20.5107 13.0506 20.3551 13.0506 20.1995C13.0506 20.044 12.987 19.8955 12.8739 19.7824C12.7607 19.6692 12.6052 19.6126 12.4496 19.6126L3.22185 19.6339L13.6587 9.19697C13.6852 9.17047 13.7087 9.14205 13.7292 9.11215L19.6264 3.21493L19.5982 12.4497C19.6052 12.7821 19.8739 13.0508 20.1992 13.0508C20.3689 13.0508 20.5174 12.9871 20.6305 12.874C20.7437 12.7609 20.8073 12.6124 20.8073 12.4568L20.8285 1.77243C20.8356 1.60979 20.779 1.46837 20.6588 1.34816C20.5386 1.22796 20.3831 1.17139 20.2275 1.17139L9.5431 1.1926Z" fill="#9ECC4A"/>
  <path d="M9.12591 1.36938L9.47946 1.72294L9.47947 1.72293L9.12591 1.36938ZM9.5431 1.1926V1.6926L9.5441 1.6926L9.5431 1.1926ZM9.11884 1.37645L8.76529 1.02289L8.76529 1.0229L9.11884 1.37645ZM9.12591 2.21791L9.47947 1.86435V1.86435L9.12591 2.21791ZM9.55018 2.38761V2.88761L9.55133 2.88761L9.55018 2.38761ZM18.7779 2.3664L19.1315 2.71995L19.9878 1.86362L18.7768 1.8664L18.7779 2.3664ZM8.34102 12.8033L7.98747 12.4497L7.98747 12.4497L8.34102 12.8033ZM8.27055 12.8881L8.6241 13.2417L8.65686 13.2089L8.68304 13.1707L8.27055 12.8881ZM2.37332 18.7853L1.87333 18.7838L1.86961 19.9962L2.72688 19.1389L2.37332 18.7853ZM2.40161 9.55052L2.90175 9.55205L2.90149 9.53988L2.40161 9.55052ZM1.36923 9.12626L1.72279 9.47981L1.36923 9.12626ZM1.19245 9.54345L1.69245 9.54444V9.54345H1.19245ZM1.17124 20.2278L1.67077 20.2496L1.67122 20.2392L1.67124 20.2288L1.17124 20.2278ZM1.34095 20.6521L1.6945 20.2985L1.34095 20.6521ZM1.77228 20.8289V21.3289L1.77328 21.3289L1.77228 20.8289ZM12.4567 20.8077V20.3077L12.4557 20.3077L12.4567 20.8077ZM12.8739 20.6309L12.5203 20.2773L12.5203 20.2773L12.8739 20.6309ZM12.8809 20.6238L13.2345 20.9774L13.2345 20.9774L12.8809 20.6238ZM12.8739 19.7824L12.5203 20.1359L12.5203 20.1359L12.8739 19.7824ZM12.4496 19.6126V19.1126L12.4484 19.1126L12.4496 19.6126ZM3.22185 19.6339L2.8683 19.2803L2.01196 20.1366L3.223 20.1339L3.22185 19.6339ZM13.6587 9.19697L13.3052 8.84341L13.3052 8.84341L13.6587 9.19697ZM13.7292 9.11215L13.3757 8.7586L13.3429 8.79135L13.3167 8.82956L13.7292 9.11215ZM19.6264 3.21493L20.1264 3.21646L20.1302 2.00411L19.2729 2.86137L19.6264 3.21493ZM19.5982 12.4497L19.098 12.4482L19.0983 12.4604L19.5982 12.4497ZM20.6305 12.874L20.9841 13.2276L20.9841 13.2276L20.6305 12.874ZM20.8073 12.4568L20.3073 12.4558V12.4568H20.8073ZM20.8285 1.77243L20.329 1.75071L20.3286 1.76107L20.3285 1.77144L20.8285 1.77243ZM20.6588 1.34816L21.0124 0.994612L21.0124 0.99461L20.6588 1.34816ZM20.2275 1.17139V0.671386L20.2265 0.671388L20.2275 1.17139ZM9.47947 1.72293C9.50357 1.69883 9.5267 1.6926 9.5431 1.6926V0.6926C9.24839 0.6926 8.97453 0.81365 8.77236 1.01582L9.47947 1.72293ZM9.47239 1.73001L9.47946 1.72294L8.77237 1.01582L8.76529 1.02289L9.47239 1.73001ZM9.44913 1.80071C9.44913 1.7625 9.46329 1.73911 9.47239 1.73L8.76529 1.0229C8.54812 1.24006 8.44914 1.5278 8.44914 1.80071H9.44913ZM9.47947 1.86435C9.45537 1.84025 9.44913 1.81712 9.44913 1.80071H8.44914C8.44914 2.09543 8.57018 2.36929 8.77236 2.57146L9.47947 1.86435ZM9.55018 1.88761C9.51196 1.88761 9.48857 1.87346 9.47947 1.86435L8.77236 2.57146C8.98953 2.78863 9.27726 2.88761 9.55018 2.88761V1.88761ZM18.7768 1.8664L9.54903 1.88761L9.55133 2.88761L18.7791 2.8664L18.7768 1.8664ZM8.69458 13.1568L19.1315 2.71995L18.4244 2.01284L7.98747 12.4497L8.69458 13.1568ZM8.68304 13.1707C8.68623 13.166 8.69002 13.1614 8.69458 13.1568L7.98747 12.4497C7.93902 12.4982 7.89583 12.5504 7.85806 12.6055L8.68304 13.1707ZM2.72688 19.1389L8.6241 13.2417L7.917 12.5346L2.01977 18.4318L2.72688 19.1389ZM1.90161 9.54899L1.87333 18.7838L2.87332 18.7869L2.90161 9.55205L1.90161 9.54899ZM1.80057 9.44948C1.84397 9.44948 1.90022 9.49078 1.90172 9.56116L2.90149 9.53988C2.88885 8.94558 2.4077 8.44948 1.80057 8.44948V9.44948ZM1.72279 9.47981C1.74234 9.46026 1.76373 9.44948 1.80057 9.44948V8.44948C1.49799 8.44948 1.2224 8.56598 1.01568 8.7727L1.72279 9.47981ZM1.69245 9.54345C1.69245 9.52704 1.69868 9.50391 1.72279 9.47981L1.01568 8.7727C0.813504 8.97488 0.692455 9.24873 0.692455 9.54345H1.69245ZM1.67124 20.2288L1.69245 9.54444L0.692456 9.54246L0.671245 20.2268L1.67124 20.2288ZM1.6945 20.2985C1.67671 20.2808 1.67297 20.2711 1.6726 20.2702C1.67219 20.2691 1.67176 20.2678 1.67138 20.2655C1.67098 20.2631 1.6704 20.258 1.67077 20.2496L0.671715 20.2061C0.658258 20.5156 0.773047 20.7913 0.987395 21.0056L1.6945 20.2985ZM1.77228 20.3289C1.75499 20.3289 1.74014 20.3257 1.72809 20.3209C1.71656 20.3164 1.70541 20.3095 1.6945 20.2985L0.987395 21.0056C1.20853 21.2268 1.49459 21.3289 1.77228 21.3289V20.3289ZM12.4557 20.3077L1.77129 20.3289L1.77328 21.3289L12.4577 21.3077L12.4557 20.3077ZM12.5203 20.2773C12.4962 20.3014 12.4731 20.3077 12.4567 20.3077V21.3077C12.7514 21.3077 13.0252 21.1866 13.2274 20.9844L12.5203 20.2773ZM12.5274 20.2702L12.5203 20.2773L13.2274 20.9845L13.2345 20.9774L12.5274 20.2702ZM12.5506 20.1995C12.5506 20.2378 12.5365 20.2612 12.5274 20.2703L13.2345 20.9774C13.4517 20.7602 13.5506 20.4725 13.5506 20.1995H12.5506ZM12.5203 20.1359C12.5444 20.16 12.5506 20.1831 12.5506 20.1995H13.5506C13.5506 19.9048 13.4296 19.631 13.2274 19.4288L12.5203 20.1359ZM12.4496 20.1126C12.4878 20.1126 12.5112 20.1268 12.5203 20.1359L13.2274 19.4288C13.0102 19.2116 12.7225 19.1126 12.4496 19.1126V20.1126ZM3.223 20.1339L12.4507 20.1126L12.4484 19.1126L3.2207 19.1339L3.223 20.1339ZM13.3052 8.84341L2.8683 19.2803L3.57541 19.9874L14.0123 9.55052L13.3052 8.84341ZM13.3167 8.82956C13.3135 8.83423 13.3097 8.83886 13.3052 8.84341L14.0123 9.55052C14.0608 9.50207 14.1039 9.44987 14.1417 9.39474L13.3167 8.82956ZM19.2729 2.86137L13.3757 8.7586L14.0828 9.46571L19.98 3.56848L19.2729 2.86137ZM20.0982 12.4513L20.1264 3.21646L19.1264 3.21339L19.0982 12.4482L20.0982 12.4513ZM20.1992 12.5508C20.1558 12.5508 20.0995 12.5095 20.098 12.4391L19.0983 12.4604C19.1109 13.0547 19.5921 13.5508 20.1992 13.5508V12.5508ZM20.277 12.5204C20.2574 12.54 20.236 12.5508 20.1992 12.5508V13.5508C20.5018 13.5508 20.7774 13.4343 20.9841 13.2276L20.277 12.5204ZM20.3073 12.4568C20.3073 12.4732 20.3011 12.4964 20.277 12.5205L20.9841 13.2276C21.1863 13.0254 21.3073 12.7515 21.3073 12.4568H20.3073ZM20.3285 1.77144L20.3073 12.4558L21.3073 12.4578L21.3285 1.77342L20.3285 1.77144ZM20.3053 1.70172C20.3231 1.71951 20.3268 1.72916 20.3272 1.73008C20.3276 1.73111 20.328 1.73244 20.3284 1.73477C20.3288 1.7372 20.3294 1.74225 20.329 1.75071L21.3281 1.79415C21.3415 1.48463 21.2267 1.20896 21.0124 0.994612L20.3053 1.70172ZM20.2275 1.67139C20.2448 1.67139 20.2596 1.67453 20.2717 1.67932C20.2832 1.6839 20.2944 1.69081 20.3053 1.70172L21.0124 0.99461C20.7912 0.773479 20.5052 0.671387 20.2275 0.671387V1.67139ZM9.5441 1.6926L20.2285 1.67139L20.2265 0.671388L9.54211 0.692601L9.5441 1.6926Z" fill="#9ECC4A"/>
</svg>