<svg xmlns="http://www.w3.org/2000/svg" width="32" height="44" viewBox="0 0 32 44" fill="none">
<path d="M4.46935 2.68835C3.11489 5.88446 2.33515 9.29455 2.16602 12.7617C2.20163 17.0895 3.48771 21.3147 5.86935 24.9284C7.7605 27.7516 8.79006 31.0638 8.83268 34.4617C8.78862 36.0841 8.47023 37.6873 7.89102 39.2034C7.67102 39.88 7.44935 40.57 7.25102 41.3117" stroke="#222720" stroke-width="4" stroke-linecap="square"/>
<path d="M14.9693 2.68835C13.6149 5.88446 12.8351 9.29455 12.666 12.7617C12.7016 17.0895 13.9877 21.3147 16.3693 24.9284C18.2605 27.7516 19.2901 31.0638 19.3327 34.4617C19.2886 36.0841 18.9702 37.6873 18.391 39.2034C18.171 39.88 17.9493 40.57 17.751 41.3117" stroke="#222720" stroke-width="4" stroke-linecap="square"/>
<path d="M25.4693 2.68835C24.1149 5.88446 23.3351 9.29455 23.166 12.7617C23.2016 17.0895 24.4877 21.3147 26.8693 24.9284C28.7605 27.7516 29.7901 31.0638 29.8327 34.4617C29.7886 36.0841 29.4702 37.6873 28.891 39.2034C28.671 39.88 28.4493 40.57 28.251 41.3117" stroke="#222720" stroke-width="4" stroke-linecap="square"/>
</svg>