<svg xmlns="http://www.w3.org/2000/svg" width="83" height="50" viewBox="0 0 83 50" fill="none">
  <path d="M25.1051 25.0002C25.1051 15.8686 21.2211 7.63946 15.0207 1.88335C14.371 1.27931 13.6931 0.703701 12.9939 0.156515C12.7326 -0.0495676 12.3654 -0.0495676 12.1041 0.156515C11.405 0.703701 10.7271 1.27931 10.0774 1.88335C3.88406 7.63235 0 15.8686 0 25.0002C0 34.1318 3.88406 42.368 10.0844 48.117C10.7341 48.721 11.4121 49.2966 12.1112 49.8438C12.3725 50.0499 12.7397 50.0499 13.001 49.8438C13.7001 49.2966 14.3781 48.721 15.0278 48.117C21.2211 42.3609 25.1122 34.1318 25.1122 25.0002" fill="#007DBA"/>
  <path d="M33.7699 40.2219L33.3532 41.1386H31.7148L35.2105 34.0181L38.7061 41.1386H36.9901L36.5876 40.2219H33.7699ZM35.1752 37.088L34.3631 38.8859H35.9802L35.1681 37.088H35.1752Z" fill="#222720"/>
  <path d="M39.9985 43.3913V42.1122C40.514 42.2614 41.1001 42.3182 41.4956 42.3182C42.5973 42.3182 43.254 41.899 43.254 40.6625V40.4493C42.8797 41.032 42.3077 41.2807 41.6439 41.2807C40.2033 41.2807 38.9886 40.1224 38.9886 38.4808C38.9886 36.8393 40.2033 35.7094 41.6439 35.7094C42.3077 35.7094 42.8727 35.9581 43.254 36.5337V35.8515H44.6593V40.4777C44.6593 42.4817 43.5718 43.6045 41.6157 43.6045C41.2202 43.6045 40.514 43.5476 39.9985 43.3984M43.1905 38.4879C43.1905 37.6565 42.5831 37.0454 41.8487 37.0454C41.1143 37.0454 40.4999 37.6565 40.4999 38.4879C40.4999 39.3194 41.086 39.9589 41.8487 39.9589C42.6114 39.9589 43.1905 39.3478 43.1905 38.4879Z" fill="#222720"/>
  <path d="M47.3287 41.1386H45.8599V35.8373H47.2652V36.3987C47.6536 35.9368 48.2044 35.6952 48.8612 35.6952V37.1733C48.7129 37.1448 48.5222 37.1164 48.3386 37.1164C47.7807 37.1164 47.3287 37.4291 47.3287 38.2108V41.1386Z" fill="#222720"/>
  <path d="M49.3202 38.4737C49.3202 36.9459 50.6055 35.7023 52.1803 35.7023C53.7551 35.7023 55.0262 36.953 55.0262 38.4737C55.0262 39.9945 53.741 41.2736 52.1803 41.2736C50.6196 41.2736 49.3202 40.0158 49.3202 38.4737ZM53.522 38.4737C53.522 37.6352 52.9147 37.0311 52.1803 37.0311C51.4458 37.0311 50.8315 37.6352 50.8315 38.4737C50.8315 39.3123 51.4176 39.9447 52.1803 39.9447C52.943 39.9447 53.522 39.3336 53.522 38.4737Z" fill="#222720"/>
  <path d="M25.1051 25.0002C25.1051 15.8686 21.2211 7.63235 15.0278 1.88335C14.3781 1.27931 13.7001 0.703701 13.001 0.156515C12.7397 -0.0495676 12.3725 -0.0495676 12.1112 0.156515C11.4121 0.703701 10.7341 1.27931 10.0844 1.88335C3.88406 7.63235 0 15.8686 0 25.0002C0 34.1318 3.88406 42.3609 10.0844 48.117C10.7341 48.721 11.4121 49.2966 12.1112 49.8438C12.3725 50.0499 12.7397 50.0499 13.001 49.8438C13.7001 49.2966 14.3781 48.721 15.0278 48.117C21.2211 42.3609 25.1051 34.1318 25.1051 25.0002ZM10.2257 6.20399C10.9248 5.41518 11.6663 4.66192 12.4431 3.95839C12.4996 3.90865 12.5914 3.90865 12.6479 3.95839C15.2255 6.28926 17.3653 9.09625 18.9471 12.2372C19.046 12.422 19.0107 12.6494 18.8694 12.8057C17.2876 14.5752 15.9034 16.5223 14.7523 18.6116C14.6817 18.7395 14.4981 18.704 14.4769 18.5619C13.8272 14.2839 12.3301 10.3185 10.1762 6.81513C10.0562 6.62326 10.0774 6.37454 10.2257 6.21109M4.31483 16.8208C5.11989 14.1559 6.29923 11.6545 7.79636 9.38051C7.85992 9.28812 8.00115 9.28812 8.05765 9.38761C10.0279 12.8768 11.292 16.835 11.6239 21.0917C11.7369 22.4774 11.7369 23.849 11.6451 25.1992C11.638 25.3484 11.4403 25.391 11.3626 25.2702C9.51947 22.2571 7.18197 19.5923 4.47019 17.368C4.30777 17.2401 4.24421 17.0269 4.30071 16.8279M12.5914 45.7435C12.5632 45.9212 12.3513 45.9922 12.2242 45.8714C6.61702 40.6909 3.10018 33.2577 3.10018 25.0144C3.10018 23.6144 3.20611 22.2429 3.39678 20.8927C3.41091 20.7719 3.55921 20.7151 3.65101 20.8003C9.19462 25.8743 12.7326 33.1511 12.8739 41.2665C12.9021 42.7873 12.8033 44.2796 12.5914 45.7364M14.371 28.8163C15.2326 24.0621 17.2876 19.6633 20.2465 16.0036C20.3242 15.9112 20.4725 15.9396 20.5149 16.0533C21.447 18.8674 21.9626 21.8805 21.9626 25.0144C21.9626 31.4172 19.844 37.3225 16.2707 42.0695C16.1859 42.1832 15.9952 42.1193 15.9952 41.97C15.9952 41.7213 15.9952 41.4655 15.9952 41.2168C15.9458 38.1824 15.4656 35.2546 14.6182 32.4902C14.251 31.3035 14.1521 30.0457 14.3781 28.8163" fill="#222720"/>
  <path d="M44.2288 16.6076H41.0862L37.5694 24.8225C37.5129 24.9433 37.3434 24.9433 37.2869 24.8225L33.7913 16.6076H30.6487C30.5781 16.6076 30.5287 16.6858 30.5569 16.7569L37.294 31.0832C37.3505 31.1969 37.5129 31.1969 37.5623 31.0832L44.3206 16.7569C44.3489 16.6858 44.3065 16.6076 44.2288 16.6076ZM49.2922 16.9274C49.1792 16.6929 48.8544 16.6929 48.7414 16.9274L42.0679 30.9979C42.0325 31.069 42.082 31.1471 42.1597 31.1471H45.3022L46.2485 28.8944H51.7921L52.7384 31.1471H55.881C55.9516 31.1471 56.001 31.069 55.9728 30.9979L49.2993 16.9274H49.2922ZM47.1877 26.5351L48.8755 22.5201C48.932 22.3922 49.1015 22.3922 49.158 22.5201L50.8458 26.5351H47.1877ZM64.9273 23.586L69.1009 16.7569C69.1432 16.6858 69.0938 16.6005 69.0161 16.6005H65.6829L60.8879 25.0144V16.6005H57.8795V31.14H60.1605L63.2465 26.2722L66.5868 31.14H69.9907C70.0754 31.14 70.1178 31.0476 70.0754 30.9766L64.9414 23.5789L64.9273 23.586ZM77.8435 22.2642C75.6826 21.8521 75.1318 21.4328 75.1318 20.6014C75.1318 19.5354 75.9156 19.0948 77.1938 19.0948C78.6768 19.0948 79.7573 19.6136 80.6259 20.2887C80.6754 20.3242 80.7389 20.3171 80.7742 20.2603L82.2714 17.8654C81.0708 16.9345 79.2842 16.3447 77.2221 16.3447C74.1148 16.3447 72.1304 18.1284 72.1304 20.7435C72.1304 22.8825 73.2533 24.3819 76.989 25.192C79.1359 25.6042 79.7785 26.1514 79.7785 27.0042C79.7785 28.0701 78.917 28.6457 77.3986 28.6457C75.9651 28.6457 74.3903 28.0133 73.4157 27.0326C73.3733 26.9899 73.2957 26.9971 73.2603 27.0468L71.6926 29.4558C73.1262 30.6994 75.0964 31.3959 77.2927 31.3959C80.6965 31.3959 82.7586 29.5127 82.7586 26.727C82.7586 24.4885 81.5793 23.053 77.8435 22.2642Z" fill="#222720"/>
</svg>