<svg width="300" height="181" viewBox="0 0 300 181" fill="none" xmlns="http://www.w3.org/2000/svg">
<g clip-path="url(#clip0_4796_93966)">
<path d="M122.314 133.572V146.044H116.836V120.252L129.687 133.984L142.487 120.252V146.044H136.983V133.546L129.661 141.286L122.314 133.572Z" fill="#FBFBFB"/>
<path d="M161.789 143.524C160.432 145.632 158.358 146.532 155.952 146.532C150.73 146.532 146.326 142.341 146.326 136.401C146.326 130.461 150.73 126.372 155.952 126.372C158.358 126.372 160.406 127.272 161.789 129.355V126.886H166.883V146.069H161.789V143.524ZM161.558 136.401C161.558 133.392 159.357 131.181 156.694 131.181C154.032 131.181 151.805 133.392 151.805 136.401C151.805 139.409 153.929 141.724 156.694 141.724C159.459 141.724 161.558 139.512 161.558 136.401Z" fill="#FBFBFB"/>
<path d="M170.39 136.401C170.39 130.564 175.049 126.372 180.579 126.372C183.036 126.372 184.777 126.783 186.39 127.683V132.929C184.649 131.721 182.831 131.181 181.09 131.181C177.788 131.181 175.868 133.392 175.868 136.401C175.868 139.821 178.172 141.724 181.09 141.724C183.113 141.724 184.393 141.261 186.159 140.386V145.427C185.084 145.967 182.959 146.532 180.271 146.532C174.947 146.532 170.416 142.341 170.416 136.401" fill="#FBFBFB"/>
<path d="M195.554 146.044H190.23V120.946H195.554V128.686C196.911 127.143 198.857 126.372 201.109 126.372C205.205 126.372 207.97 129.072 207.97 134.781V146.069H202.568V135.501C202.568 132.492 201.109 131.206 199.215 131.206C197.193 131.206 195.554 132.441 195.554 135.501V146.069V146.044Z" fill="#FBFBFB"/>
<path d="M212.168 120.921H217.467V125.009H212.168V120.921ZM217.493 146.018H212.168V126.835H217.493V146.018Z" fill="#FBFBFB"/>
<path d="M221.845 146.044V126.861H226.939V128.866C228.296 127.221 230.267 126.346 232.648 126.346C236.744 126.346 239.534 129.046 239.534 134.755V146.044H234.209V135.475C234.209 132.466 232.75 131.181 230.856 131.181C228.833 131.181 227.195 132.415 227.195 135.475V146.044H221.845Z" fill="#FBFBFB"/>
<path d="M253.87 146.532C247.009 146.532 242.862 142.624 242.862 136.555C242.862 130.975 247.035 126.346 252.795 126.346C258.222 126.346 261.754 130.486 261.063 136.684L260.884 138.149H248.494C249.057 140.438 250.926 141.724 253.819 141.724C256.02 141.724 258.119 141.389 259.911 140.644V145.195C258.785 145.761 256.66 146.507 253.844 146.507M248.545 134.318H255.995C255.892 132.132 254.407 131.078 252.539 131.078C250.516 131.078 249.083 132.184 248.545 134.318Z" fill="#FBFBFB"/>
<path d="M270.177 146.044H264.852V126.861H269.946V128.892C271.354 127.221 273.351 126.346 275.732 126.346V131.695C275.194 131.592 274.503 131.489 273.837 131.489C271.815 131.489 270.177 132.621 270.177 135.449V146.044Z" fill="#FBFBFB"/>
<path d="M284.768 154.401V146.429L277.396 126.861H283.104L287.61 139.744L292.423 126.861H297.722L290.042 146.404V154.401H284.768Z" fill="#FBFBFB"/>
<path d="M91.0061 90.5005C91.0061 57.4572 76.9264 27.6797 54.4756 6.85091C52.1205 4.66517 49.6629 2.58228 47.1286 0.602261C46.1814 -0.143462 44.8502 -0.143462 43.9031 0.602261C41.3687 2.58228 38.9112 4.66517 36.556 6.85091C14.0797 27.6797 0 57.4572 0 90.5005C0 123.544 14.0797 153.347 36.556 174.15C38.9112 176.336 41.3687 178.419 43.9031 180.399C44.8502 181.144 46.1814 181.144 47.1286 180.399C49.6629 178.419 52.1205 176.336 54.4756 174.15C76.9264 153.321 91.0061 123.544 91.0061 90.5005ZM37.068 22.4854C39.6024 19.6311 42.2903 16.9053 45.1062 14.3596C45.311 14.1796 45.6438 14.1796 45.8486 14.3596C55.1924 22.7939 62.9491 32.9512 68.6833 44.3171C69.0417 44.9856 68.9137 45.8085 68.4017 46.3742C62.6675 52.7772 57.65 59.823 53.4773 67.383C53.2213 67.8459 52.5557 67.7173 52.4789 67.203C50.1237 51.7229 44.6966 37.3741 36.8888 24.6968C36.4536 24.0025 36.5304 23.1025 37.068 22.5111M15.6413 60.903C18.5596 51.26 22.8347 42.2085 28.2618 33.9798C28.4922 33.6455 29.0042 33.6455 29.209 34.0055C36.3512 46.6314 40.9335 60.9544 42.1367 76.3574C42.5463 81.3718 42.5463 86.3347 42.2135 91.2205C42.1879 91.7605 41.4711 91.9148 41.1895 91.4519C34.5081 80.5746 26.0346 70.9059 16.2045 62.8573C15.6157 62.3944 15.3853 61.623 15.5901 60.903M45.6438 165.536C45.5414 166.178 44.7734 166.436 44.3127 166.024C23.9867 147.278 11.2382 120.381 11.2382 90.5519C11.2382 85.4861 11.6222 80.5232 12.3133 75.6631C12.3645 75.226 12.9021 75.0203 13.2349 75.3288C33.3305 93.6891 46.1558 120.021 46.6678 149.413C46.7702 154.915 46.4118 160.29 45.6438 165.587M52.0949 104.361C55.218 87.1576 62.6675 71.2402 73.3936 57.9972C73.6752 57.6629 74.2128 57.7658 74.3664 58.1772C77.7455 68.3602 79.6143 79.2632 79.6143 90.6033C79.6143 113.772 71.9345 135.141 58.9811 152.318C58.674 152.755 57.9828 152.498 57.9828 151.958C57.9828 151.058 57.9828 150.133 57.9828 149.233C57.8036 138.252 56.0628 127.658 52.9909 117.655C51.6597 113.361 51.3013 108.809 52.1205 104.361" fill="#FBFBFB"/>
<path d="M160.329 59.6944H148.938L136.189 89.4204C135.984 89.8576 135.37 89.8576 135.165 89.4204L122.493 59.6944H111.102C110.846 59.6944 110.666 59.9772 110.769 60.2087L135.191 112.049C135.396 112.461 135.984 112.461 136.163 112.049L160.662 60.2087C160.765 59.9515 160.611 59.6944 160.329 59.6944ZM178.684 60.8515C178.275 60.003 177.097 60.003 176.687 60.8515L152.496 111.766C152.368 112.024 152.547 112.306 152.829 112.306H164.221L167.651 104.155H187.746L191.177 112.306H202.568C202.824 112.306 203.004 112.024 202.901 111.766L178.71 60.8515H178.684ZM171.056 95.6177L177.174 81.0889C177.379 80.6261 177.993 80.6261 178.198 81.0889L184.316 95.6177H171.056ZM235.361 84.9461L250.491 60.2344C250.644 59.9772 250.465 59.6687 250.183 59.6687H238.101L220.718 90.1147V59.6687H209.813V112.281H218.082L229.269 94.6662L241.377 112.281H253.716C254.023 112.281 254.177 111.946 254.023 111.689L235.413 84.9204L235.361 84.9461ZM282.183 80.1632C274.349 78.6717 272.353 77.1546 272.353 74.146C272.353 70.2888 275.194 68.6945 279.828 68.6945C285.203 68.6945 289.12 70.5716 292.269 73.0145C292.448 73.1431 292.679 73.1174 292.807 72.9117L298.234 64.2459C293.882 60.8772 287.405 58.7429 279.93 58.7429C268.666 58.7429 261.473 65.1973 261.473 74.6603C261.473 82.4004 265.543 87.8261 279.085 90.7576C286.867 92.249 289.197 94.2291 289.197 97.3148C289.197 101.172 286.074 103.255 280.57 103.255C275.373 103.255 269.665 100.966 266.132 97.4177C265.978 97.2634 265.697 97.2891 265.569 97.4691L259.886 106.186C265.082 110.686 272.225 113.206 280.186 113.206C292.525 113.206 300 106.418 300 96.312C300 88.2376 295.725 83.0175 282.183 80.1632Z" fill="#FBFBFB"/>
</g>
<defs>
<clipPath id="clip0_4796_93966">
<rect width="300" height="180.928" fill="white" transform="translate(0 0.0361328)"/>
</clipPath>
</defs>
</svg>
