<svg xmlns="http://www.w3.org/2000/svg" width="84" height="50" viewBox="0 0 84 50" fill="none">
<path d="M25.3666 25.0002C25.3666 15.8686 21.4421 7.63235 15.1772 1.88335C14.5207 1.27931 13.8357 0.703701 13.1293 0.156515C12.8653 -0.0495676 12.4942 -0.0495676 12.2302 0.156515C11.5238 0.703701 10.8388 1.27931 10.1823 1.88335C3.92451 7.63235 0 15.8686 0 25.0002C0 34.1318 3.92451 42.368 10.1895 48.117C10.8459 48.721 11.5309 49.2966 12.2373 49.8438C12.5014 50.0499 12.8724 50.0499 13.1364 49.8438C13.8428 49.2966 14.5278 48.721 15.1843 48.117C21.4421 42.3609 25.3738 34.1318 25.3738 25.0002" fill="#F8A800"/>
<path d="M35.7124 34.2026V35.5102H34.7135V41.1384H33.1865V35.5102H32.1875V34.2026H35.7124Z" fill="#222720"/>
<path d="M37.9387 41.1384H36.4545V35.8371H37.8745V36.3985C38.2669 35.9366 38.8235 35.6949 39.4871 35.6949V37.1731C39.3372 37.1446 39.1446 37.1162 38.9591 37.1162C38.3954 37.1162 37.9387 37.4289 37.9387 38.2106V41.1384Z" fill="#222720"/>
<path fill-rule="evenodd" clip-rule="evenodd" d="M42.641 41.2805C43.3117 41.2805 43.8897 41.0318 44.2679 40.4491V41.1526H45.6878V35.8513H44.2679V36.5335C43.8826 35.9579 43.3117 35.7092 42.641 35.7092C41.1853 35.7092 39.958 36.8391 39.958 38.4806C39.958 40.1222 41.1853 41.2805 42.641 41.2805ZM42.8479 37.0381C43.59 37.0381 44.2037 37.6492 44.2037 38.4806C44.2037 39.3405 43.6185 39.9516 42.8479 39.9516C42.0773 39.9516 41.485 39.3121 41.485 38.4806C41.485 37.6492 42.1058 37.0381 42.8479 37.0381Z" fill="#222720"/>
<path fill-rule="evenodd" clip-rule="evenodd" d="M50.9752 40.4491C50.5971 41.0318 50.0191 41.2805 49.3484 41.2805C47.8927 41.2805 46.6654 40.1222 46.6654 38.4806C46.6654 36.8391 47.8927 35.7092 49.3484 35.7092C49.9834 35.7092 50.5257 35.9295 50.911 36.4411V34.2097H52.3952V41.1455H50.9752V40.4491ZM50.911 38.4806C50.911 37.6492 50.2974 37.0381 49.5553 37.0381C48.8132 37.0381 48.1924 37.6492 48.1924 38.4806C48.1924 39.3121 48.7846 39.9516 49.5553 39.9516C50.3259 39.9516 50.911 39.3405 50.911 38.4806Z" fill="#222720"/>
<path fill-rule="evenodd" clip-rule="evenodd" d="M53.3728 38.5233C53.3728 40.2004 54.5287 41.2805 56.441 41.2805L56.4339 41.2734C57.2188 41.2734 57.811 41.0673 58.125 40.911V39.6532C57.6255 39.8592 57.0404 39.9516 56.4268 39.9516C55.6205 39.9516 55.0996 39.5963 54.9426 38.9639H58.3962L58.4461 38.5588C58.6388 36.8462 57.6541 35.7021 56.1413 35.7021C54.5359 35.7021 53.3728 36.9812 53.3728 38.5233ZM57.0333 37.905H54.9569C55.1067 37.3152 55.5063 37.0096 56.07 37.0096C56.5909 37.0096 57.0047 37.301 57.0333 37.905Z" fill="#222720"/>
<path d="M25.3666 25.0002C25.3666 15.8686 21.4421 7.63946 15.1843 1.88335C14.5278 1.27931 13.8428 0.703701 13.1364 0.156515C12.8724 -0.0495676 12.5014 -0.0495676 12.2373 0.156515C11.5309 0.703701 10.8459 1.27931 10.1895 1.88335C3.92451 7.63946 0 15.8686 0 25.0002C0 34.1318 3.92451 42.368 10.1895 48.117C10.8459 48.721 11.5309 49.2966 12.2373 49.8438C12.5014 50.0499 12.8724 50.0499 13.1364 49.8438C13.8428 49.2966 14.5278 48.721 15.1843 48.117C21.4421 42.3609 25.3666 34.1318 25.3666 25.0002ZM10.3322 6.20399C11.0386 5.41518 11.7878 4.66192 12.5727 3.95839C12.6298 3.90865 12.7226 3.90865 12.7796 3.95839C15.3841 6.28926 17.5461 9.09625 19.1445 12.2372C19.2444 12.422 19.2087 12.6494 19.066 12.8057C17.4677 14.5752 16.0691 16.5223 14.906 18.6116C14.8347 18.7395 14.6491 18.704 14.6277 18.5619C13.9713 14.2839 12.4585 10.3185 10.2822 6.81513C10.1609 6.62326 10.1823 6.37454 10.3322 6.21109M4.35978 16.8208C5.17322 14.1559 6.36485 11.6545 7.87757 9.38051C7.94179 9.28812 8.0845 9.28812 8.14158 9.38761C10.1324 12.8768 11.4096 16.835 11.745 21.0917C11.8592 22.4774 11.8592 23.849 11.7664 25.1992C11.7593 25.3484 11.5595 25.391 11.481 25.2631C9.61863 22.2571 7.25678 19.5852 4.51676 17.3609C4.35264 17.233 4.28842 17.0198 4.34551 16.8208M12.7226 45.7364C12.694 45.914 12.48 45.9851 12.3515 45.8643C6.68594 40.6838 3.13248 33.2506 3.13248 25.0073C3.13248 23.6073 3.23951 22.2358 3.43217 20.8927C3.44644 20.7719 3.59628 20.7151 3.68904 20.8003C9.29039 25.8743 12.8653 33.1511 13.008 41.2665C13.0365 42.7873 12.9366 44.2725 12.7226 45.7364ZM14.5207 28.8163C15.3912 24.0621 17.4677 19.6633 20.4574 16.0036C20.5359 15.9112 20.6858 15.9396 20.7286 16.0533C21.6705 18.8674 22.1913 21.8805 22.1913 25.0144C22.1913 31.4172 20.0507 37.3225 16.4401 42.0695C16.3545 42.1903 16.1619 42.1193 16.1619 41.97C16.1619 41.7213 16.1619 41.4655 16.1619 41.2168C16.1119 38.1824 15.6267 35.2546 14.7704 32.4902C14.3994 31.3035 14.2995 30.0457 14.5278 28.8163" fill="#222720"/>
<path d="M44.6895 16.6076H41.5142L37.9608 24.8225C37.9037 24.9433 37.7324 24.9433 37.6753 24.8225L34.1433 16.6076H30.968C30.8966 16.6076 30.8467 16.6858 30.8752 16.7497L37.6825 31.0761C37.7396 31.1898 37.9037 31.1898 37.9536 31.0761L44.7823 16.7497C44.8108 16.6787 44.768 16.6076 44.6895 16.6076ZM49.8057 16.9274C49.6915 16.6929 49.3632 16.6929 49.2491 16.9274L42.5061 30.9979C42.4704 31.069 42.5203 31.14 42.5988 31.14H45.7741L46.7303 28.8873H52.3316L53.2878 31.14H56.4631C56.5344 31.14 56.5844 31.0619 56.5558 30.9979L49.8128 16.9274H49.8057ZM47.6793 26.5351L49.3847 22.5201C49.4417 22.3922 49.613 22.3922 49.6701 22.5201L51.3755 26.5351H47.6793ZM65.6036 23.586L69.8207 16.7569C69.8635 16.6858 69.8135 16.6005 69.735 16.6005H66.3671L61.5221 25.0144V16.6005H58.4824V31.14H60.7872L63.9054 26.2722L67.2804 31.14H70.7197C70.8054 31.14 70.8482 31.0476 70.8054 30.9766L65.6179 23.5789L65.6036 23.586ZM78.6544 22.2642C76.4709 21.8521 75.9144 21.4328 75.9144 20.6014C75.9144 19.5354 76.7064 19.0877 77.9979 19.0877C79.4964 19.0877 80.5881 19.6065 81.4658 20.2816C81.5157 20.3171 81.5799 20.31 81.6156 20.2532L83.1283 17.8583C81.9153 16.9274 80.11 16.3376 78.0265 16.3376C74.8869 16.3376 72.8818 18.1213 72.8818 20.7364C72.8818 22.8754 74.0163 24.3748 77.791 25.1849C79.9602 25.5971 80.6095 26.1443 80.6095 26.997C80.6095 28.063 79.739 28.6386 78.2049 28.6386C76.7564 28.6386 75.1651 28.0061 74.1805 27.0255C74.1376 26.9828 74.0591 26.9899 74.0235 27.0397L72.4394 29.4487C73.8879 30.6923 75.8787 31.3887 78.0978 31.3887C81.5371 31.3887 83.6207 29.5127 83.6207 26.7199C83.6207 24.4885 82.4291 23.0459 78.6544 22.2571" fill="#222720"/>
</svg>