<svg xmlns="http://www.w3.org/2000/svg" width="16" height="16" viewBox="0 0 16 16" fill="none">
<path fill-rule="evenodd" clip-rule="evenodd" d="M5.10686 1.44329C6.41635 0.871524 7.86112 0.682495 9.27368 0.898111C10.6862 1.11373 12.0088 1.72516 13.0879 2.66153C12.4264 3.32194 11.746 3.96705 11.0666 4.60946C10.5269 4.1399 9.88281 3.80608 9.18795 3.63582C8.49309 3.46557 7.76759 3.46381 7.07191 3.63069C6.37623 3.79758 5.73052 4.12827 5.1886 4.59521C4.64668 5.06215 4.22424 5.65182 3.95648 6.31507C3.68873 6.97832 3.58341 7.69594 3.64932 8.40813C3.71522 9.12032 3.95044 9.80644 4.33536 10.4093C4.72028 11.0122 5.24376 11.5144 5.86217 11.874C6.48059 12.2336 7.17602 12.4403 7.89051 12.4768C8.86773 12.5944 9.85435 12.3522 10.6659 11.7955C11.4776 11.2388 12.0586 10.4057 12.3004 9.45184C10.9064 9.45184 9.51048 9.44195 8.12361 9.46174C8.08401 8.62228 8.07861 7.78013 8.09751 6.93798C10.4249 6.99736 12.8107 6.80752 15.1048 7.02795C15.3725 8.71033 15.0696 10.4339 14.2444 11.9243C12.8044 14.5399 9.41779 15.6816 6.54864 15.0212C4.80439 14.6477 3.25809 13.6468 2.2034 12.2085C1.1487 10.7703 0.659049 8.99496 0.827436 7.21959C0.980516 5.96912 1.45523 4.77966 2.20525 3.76729C2.95527 2.75492 3.95499 1.95421 5.10686 1.44329Z" fill="#222720"/>
</svg>