<svg width="20" height="20" viewBox="0 0 20 20" fill="none" xmlns="http://www.w3.org/2000/svg">
<path d="M18 18.25L15.3463 15.5705M8.67317 14.7262C9.5495 14.7262 10.4173 14.5519 11.2269 14.2133C12.0365 13.8746 12.7722 13.3783 13.3918 12.7526C14.0115 12.1269 14.503 11.3841 14.8384 10.5666C15.1737 9.74913 15.3463 8.87294 15.3463 7.98808C15.3463 7.10322 15.1737 6.22703 14.8384 5.40953C14.503 4.59203 14.0115 3.84923 13.3918 3.22354C12.7722 2.59785 12.0365 2.10153 11.2269 1.76291C10.4173 1.42429 9.5495 1.25 8.67317 1.25C6.90334 1.25 5.20599 1.9599 3.95453 3.22354C2.70306 4.48717 2 6.20103 2 7.98808C2 9.77513 2.70306 11.489 3.95453 12.7526C5.20599 14.0163 6.90334 14.7262 8.67317 14.7262Z" stroke="#222720" stroke-width="2" stroke-linecap="square" stroke-linejoin="round"/>
<path d="M11 8H8.75021H6.5" stroke="#222720" stroke-width="2" stroke-miterlimit="10" stroke-linecap="square"/>
<path d="M8.75 10.25L8.75 8.00021L8.75 5.75" stroke="#222720" stroke-width="2" stroke-miterlimit="10" stroke-linecap="square"/>
</svg>
