<svg xmlns="http://www.w3.org/2000/svg" width="68" height="17" viewBox="0 0 68 17" fill="none">
  <path d="M32.7679 11.2091C32.3015 11.6652 31.7482 11.893 31.1082 11.893C30.4682 11.893 29.9134 11.6652 29.4442 11.2091C28.9754 10.7533 28.7414 10.1955 28.7414 9.53529C28.7414 8.87513 28.9754 8.31757 29.4442 7.86174C29.9134 7.40563 30.4676 7.17758 31.1082 7.17758C31.7488 7.17758 32.3015 7.40563 32.7679 7.86174C33.234 8.31757 33.4671 8.87542 33.4671 9.53529C33.4671 10.1952 33.234 10.7533 32.7679 11.2091ZM35.0423 9.53529C35.0423 9.48899 35.0383 9.44898 35.0346 9.40897V5.84583H33.4671V6.88036C33.0241 6.28079 32.2741 5.84583 31.1082 5.84583C30.0476 5.84583 29.127 6.21306 28.3455 6.94724C27.5643 7.6817 27.1738 8.54419 27.1738 9.53529C27.1738 10.5264 27.5643 11.3877 28.3455 12.1199C29.127 12.8518 30.0476 13.2176 31.1082 13.2176C31.9885 13.2176 32.8484 12.931 33.4671 12.264V13.0736H35.0346V9.71505C35.0395 9.66046 35.0423 9.60131 35.0423 9.53529Z" fill="#141414"/>
  <path d="M32.7679 11.2091C32.3015 11.6652 31.7482 11.893 31.1082 11.893C30.4682 11.893 29.9134 11.6652 29.4442 11.2091C28.9754 10.7533 28.7414 10.1955 28.7414 9.53529C28.7414 8.87513 28.9754 8.31757 29.4442 7.86174C29.9134 7.40563 30.4676 7.17758 31.1082 7.17758C31.7488 7.17758 32.3015 7.40563 32.7679 7.86174C33.234 8.31757 33.4671 8.87542 33.4671 9.53529C33.4671 10.1952 33.234 10.7533 32.7679 11.2091ZM35.0423 9.53529C35.0423 9.48899 35.0383 9.44898 35.0346 9.40897V5.84583H33.4671V6.88036C33.0241 6.28079 32.2741 5.84583 31.1082 5.84583C30.0476 5.84583 29.127 6.21306 28.3455 6.94724C27.5643 7.6817 27.1738 8.54419 27.1738 9.53529C27.1738 10.5264 27.5643 11.3877 28.3455 12.1199C29.127 12.8518 30.0476 13.2176 31.1082 13.2176C31.9885 13.2176 32.8484 12.931 33.4671 12.264V13.0736H35.0346V9.71505C35.0395 9.66046 35.0423 9.60131 35.0423 9.53529Z" stroke="#141414" stroke-width="0.327" stroke-miterlimit="10"/>
  <path d="M2.08992 6.94724C2.87143 6.21306 3.79203 5.84583 4.85234 5.84583C5.44137 5.84583 5.98952 5.96471 6.4968 6.2022C7.00408 6.43968 7.36768 6.67603 7.58822 6.91123L7.91827 7.24988L6.89609 8.20697C6.84515 8.13038 6.76706 8.0355 6.66213 7.92261C6.5572 7.81002 6.32903 7.65741 5.97824 7.46565C5.62714 7.2736 5.25194 7.17758 4.85234 7.17758C4.21207 7.17758 3.65751 7.40563 3.18867 7.86146C2.71982 8.31757 2.48586 8.87542 2.48586 9.53529C2.48586 10.1952 2.71982 10.753 3.18867 11.2091C3.65751 11.665 4.21207 11.8927 4.85234 11.8927C5.25194 11.8927 5.62714 11.7996 5.97824 11.6121C6.32903 11.4249 6.58129 11.2426 6.73503 11.0651L6.97327 10.7916L7.99514 11.749C7.96433 11.7876 7.91827 11.8413 7.85666 11.911C7.79565 11.9807 7.66235 12.0979 7.45736 12.2637C7.25238 12.4294 7.03702 12.5757 6.8119 12.7029C6.58648 12.8301 6.29456 12.9475 5.93583 13.0559C5.57711 13.1636 5.21625 13.2176 4.85234 13.2176C3.79203 13.2176 2.87143 12.8518 2.08992 12.1199C1.30811 11.3877 0.917969 10.5264 0.917969 9.53529C0.917969 8.54419 1.30842 7.68141 2.08992 6.94724Z" fill="#141414"/>
  <path d="M2.08992 6.94724C2.87143 6.21306 3.79203 5.84583 4.85234 5.84583C5.44137 5.84583 5.98952 5.96471 6.4968 6.2022C7.00408 6.43968 7.36768 6.67603 7.58822 6.91123L7.91827 7.24988L6.89609 8.20697C6.84515 8.13038 6.76706 8.0355 6.66213 7.92261C6.5572 7.81002 6.32903 7.65741 5.97824 7.46565C5.62714 7.2736 5.25194 7.17758 4.85234 7.17758C4.21207 7.17758 3.65751 7.40563 3.18867 7.86146C2.71982 8.31757 2.48586 8.87542 2.48586 9.53529C2.48586 10.1952 2.71982 10.753 3.18867 11.2091C3.65751 11.665 4.21207 11.8927 4.85234 11.8927C5.25194 11.8927 5.62714 11.7996 5.97824 11.6121C6.32903 11.4249 6.58129 11.2426 6.73503 11.0651L6.97327 10.7916L7.99514 11.749C7.96433 11.7876 7.91827 11.8413 7.85666 11.911C7.79565 11.9807 7.66235 12.0979 7.45736 12.2637C7.25238 12.4294 7.03702 12.5757 6.8119 12.7029C6.58648 12.8301 6.29456 12.9475 5.93583 13.0559C5.57711 13.1636 5.21625 13.2176 4.85234 13.2176C3.79203 13.2176 2.87143 12.8518 2.08992 12.1199C1.30811 11.3877 0.917969 10.5264 0.917969 9.53529C0.917969 8.54419 1.30842 7.68141 2.08992 6.94724Z" stroke="#141414" stroke-width="0.327" stroke-miterlimit="10"/>
  <path d="M23.7997 11.2016C24.2609 10.7406 24.4912 10.1853 24.4912 9.53519C24.4912 8.88503 24.2609 8.32918 23.7997 7.8685C23.3388 7.40782 22.8099 7.17748 22.2132 7.17748C21.6166 7.17748 21.0861 7.40782 20.6224 7.8685C20.1588 8.32918 19.927 8.88475 19.927 9.53519C19.927 10.1856 20.1588 10.7406 20.6224 11.2016C21.0861 11.6623 21.6163 11.8926 22.2132 11.8926C22.8102 11.8926 23.3388 11.6623 23.7997 11.2016ZM24.9677 6.92199C25.7001 7.63959 26.0665 8.50923 26.0665 9.53148C26.0665 10.5537 25.6989 11.4236 24.964 12.141C24.2289 12.8586 23.3644 13.2172 22.3706 13.2172C22.0888 13.2172 21.8136 13.1858 21.5446 13.1238C21.2755 13.0615 21.0464 12.9832 20.857 12.8897C20.6673 12.796 20.4995 12.7 20.3537 12.6019C20.2076 12.5033 20.1039 12.4253 20.0423 12.3679L19.927 12.2599V13.0732H18.3594V0.539581H19.927V6.81024C19.9986 6.74337 20.1011 6.65421 20.2344 6.54389C20.3677 6.43358 20.6469 6.28955 21.0721 6.11207C21.497 5.9346 21.9301 5.84572 22.3706 5.84572C23.3696 5.84572 24.2353 6.20438 24.9677 6.92199Z" fill="#141414"/>
  <path d="M23.7997 11.2016C24.2609 10.7406 24.4912 10.1853 24.4912 9.53519C24.4912 8.88503 24.2609 8.32918 23.7997 7.8685C23.3388 7.40782 22.8099 7.17748 22.2132 7.17748C21.6166 7.17748 21.0861 7.40782 20.6224 7.8685C20.1588 8.32918 19.927 8.88475 19.927 9.53519C19.927 10.1856 20.1588 10.7406 20.6224 11.2016C21.0861 11.6623 21.6163 11.8926 22.2132 11.8926C22.8102 11.8926 23.3388 11.6623 23.7997 11.2016ZM24.9677 6.92199C25.7001 7.63959 26.0665 8.50923 26.0665 9.53148C26.0665 10.5537 25.6989 11.4236 24.964 12.141C24.2289 12.8586 23.3644 13.2172 22.3706 13.2172C22.0888 13.2172 21.8136 13.1858 21.5446 13.1238C21.2755 13.0615 21.0464 12.9832 20.857 12.8897C20.6673 12.796 20.4995 12.7 20.3537 12.6019C20.2076 12.5033 20.1039 12.4253 20.0423 12.3679L19.927 12.2599V13.0732H18.3594V0.539581H19.927V6.81024C19.9986 6.74337 20.1011 6.65421 20.2344 6.54389C20.3677 6.43358 20.6469 6.28955 21.0721 6.11208C21.497 5.9346 21.9301 5.84572 22.3706 5.84572C23.3696 5.84572 24.2353 6.20438 24.9677 6.92199Z" stroke="#141414" stroke-width="0.327" stroke-miterlimit="10"/>
  <path d="M14.3128 11.2091C13.8464 11.6652 13.2931 11.893 12.6531 11.893C12.0132 11.893 11.458 11.6652 10.9891 11.2091C10.5206 10.7533 10.2863 10.1955 10.2863 9.53529C10.2863 8.87513 10.5206 8.31757 10.9891 7.86174C11.458 7.40563 12.0125 7.17758 12.6531 7.17758C13.2937 7.17758 13.8464 7.40563 14.3128 7.86174C14.7789 8.31757 15.012 8.87542 15.012 9.53529C15.012 10.1952 14.7789 10.7533 14.3128 11.2091ZM16.5872 9.53529C16.5872 9.48385 16.5841 9.43755 16.5796 9.39326V5.84583H15.012V6.88036C14.5688 6.28079 13.819 5.84583 12.6531 5.84583C11.5925 5.84583 10.6719 6.21306 9.8904 6.94724C9.1092 7.6817 8.71875 8.54419 8.71875 9.53529C8.71875 10.5264 9.1092 11.3877 9.8904 12.1199C10.6719 12.8518 11.5925 13.2176 12.6531 13.2176C13.5335 13.2176 14.3931 12.931 15.012 12.264V13.0736H16.5796V9.71762C16.5844 9.66218 16.5872 9.60216 16.5872 9.53529Z" fill="#141414"/>
  <path d="M14.3128 11.2091C13.8464 11.6652 13.2931 11.893 12.6531 11.893C12.0132 11.893 11.458 11.6652 10.9891 11.2091C10.5206 10.7533 10.2863 10.1955 10.2863 9.53529C10.2863 8.87513 10.5206 8.31757 10.9891 7.86174C11.458 7.40563 12.0125 7.17758 12.6531 7.17758C13.2937 7.17758 13.8464 7.40563 14.3128 7.86174C14.7789 8.31757 15.012 8.87542 15.012 9.53529C15.012 10.1952 14.7789 10.7533 14.3128 11.2091ZM16.5872 9.53529C16.5872 9.48385 16.5841 9.43755 16.5796 9.39326V5.84583H15.012V6.88036C14.5688 6.28079 13.819 5.84583 12.6531 5.84583C11.5925 5.84583 10.6719 6.21306 9.8904 6.94724C9.1092 7.6817 8.71875 8.54419 8.71875 9.53529C8.71875 10.5264 9.1092 11.3877 9.8904 12.1199C10.6719 12.8518 11.5925 13.2176 12.6531 13.2176C13.5335 13.2176 14.3931 12.931 15.012 12.264V13.0736H16.5796V9.71762C16.5844 9.66218 16.5872 9.60216 16.5872 9.53529Z" stroke="#141414" stroke-width="0.327" stroke-miterlimit="10"/>
  <path d="M47.2271 7.5771C46.8403 7.89146 46.5804 8.29842 46.4471 8.7974H50.8195C50.7271 8.29842 50.4888 7.89146 50.1045 7.5771C49.7204 7.26274 49.2391 7.10556 48.6601 7.10556C48.0915 7.10556 47.6138 7.26274 47.2271 7.5771ZM46.3778 10.05C46.4602 10.549 46.7225 10.9811 47.1657 11.346C47.6087 11.7107 48.1352 11.8927 48.7446 11.8927C49.1851 11.8927 49.5963 11.7996 49.9779 11.6121C50.3595 11.4252 50.6297 11.2426 50.7884 11.0651L51.0269 10.7913L52.0488 11.749C52.018 11.7876 51.9704 11.8416 51.9066 11.911C51.8426 11.9807 51.7056 12.0982 51.4957 12.2637C51.2853 12.4294 51.0626 12.5757 50.8268 12.7029C50.5913 12.8301 50.2854 12.9475 49.9089 13.0559C49.5322 13.1636 49.1442 13.2176 48.7446 13.2176C47.6739 13.2176 46.7509 12.8492 45.9746 12.1125C45.1986 11.3757 44.8105 10.4915 44.8105 9.45984C44.8105 8.46646 45.1885 7.6154 45.9438 6.90751C46.6996 6.19963 47.6062 5.84583 48.6641 5.84583C49.722 5.84583 50.6029 6.17591 51.3072 6.83578C52.0116 7.49565 52.3639 8.32214 52.3639 9.31581L52.2794 10.05H46.3778Z" fill="#141414"/>
  <path d="M47.2271 7.5771C46.8403 7.89146 46.5804 8.29842 46.4471 8.7974H50.8195C50.7271 8.29842 50.4888 7.89146 50.1045 7.5771C49.7204 7.26274 49.2391 7.10556 48.6601 7.10556C48.0915 7.10556 47.6138 7.26274 47.2271 7.5771ZM46.3778 10.05C46.4602 10.549 46.7225 10.9811 47.1657 11.346C47.6087 11.7107 48.1352 11.8927 48.7446 11.8927C49.1851 11.8927 49.5963 11.7996 49.9779 11.6121C50.3595 11.4252 50.6297 11.2426 50.7884 11.0651L51.0269 10.7913L52.0488 11.749C52.018 11.7876 51.9704 11.8416 51.9066 11.911C51.8426 11.9807 51.7056 12.0982 51.4957 12.2637C51.2853 12.4294 51.0626 12.5757 50.8268 12.7029C50.5913 12.8301 50.2854 12.9475 49.9089 13.0559C49.5322 13.1636 49.1442 13.2176 48.7446 13.2176C47.6739 13.2176 46.7509 12.8492 45.9746 12.1125C45.1986 11.3757 44.8105 10.4915 44.8105 9.45984C44.8105 8.46646 45.1885 7.6154 45.9438 6.90751C46.6996 6.19963 47.6062 5.84583 48.6641 5.84583C49.722 5.84583 50.6029 6.17591 51.3072 6.83578C52.0116 7.49565 52.3639 8.32214 52.3639 9.31581L52.2794 10.05H46.3778Z" stroke="#141414" stroke-width="0.327" stroke-miterlimit="10"/>
  <path d="M64.6781 7.86146C64.2117 7.40563 63.6583 7.17758 63.0181 7.17758C62.3778 7.17758 61.8232 7.40563 61.3547 7.86146C60.8855 8.31757 60.6516 8.87542 60.6516 9.53529C60.6516 10.1952 60.8855 10.753 61.3547 11.2091C61.8232 11.665 62.3778 11.8927 63.0181 11.8927C63.6583 11.8927 64.2117 11.665 64.6781 11.2091C65.1439 10.753 65.3772 10.1952 65.3772 9.53529C65.3772 8.87542 65.1439 8.31757 64.6781 7.86146ZM60.2556 6.94724C61.0371 6.21306 61.9577 5.84583 63.0181 5.84583C64.0784 5.84583 64.9993 6.21306 65.7805 6.94724C66.5617 7.68141 66.9524 8.54391 66.9524 9.53529C66.9524 10.5267 66.5617 11.3877 65.7805 12.1199C64.9993 12.8518 64.0784 13.2176 63.0181 13.2176C61.9577 13.2176 61.0371 12.8518 60.2556 12.1199C59.4744 11.3877 59.084 10.5264 59.084 9.53529C59.084 8.54419 59.4744 7.68141 60.2556 6.94724Z" fill="#141414"/>
  <path d="M64.6781 7.86146C64.2117 7.40563 63.6583 7.17758 63.0181 7.17758C62.3778 7.17758 61.8232 7.40563 61.3547 7.86146C60.8855 8.31757 60.6516 8.87542 60.6516 9.53529C60.6516 10.1952 60.8855 10.753 61.3547 11.2091C61.8232 11.665 62.3778 11.8927 63.0181 11.8927C63.6583 11.8927 64.2117 11.665 64.6781 11.2091C65.1439 10.753 65.3772 10.1952 65.3772 9.53529C65.3772 8.87542 65.1439 8.31757 64.6781 7.86146ZM60.2556 6.94724C61.0371 6.21306 61.9577 5.84583 63.0181 5.84583C64.0784 5.84583 64.9993 6.21306 65.7805 6.94724C66.5617 7.68141 66.9524 8.54391 66.9524 9.53529C66.9524 10.5267 66.5617 11.3877 65.7805 12.1199C64.9993 12.8518 64.0784 13.2176 63.0181 13.2176C61.9577 13.2176 61.0371 12.8518 60.2556 12.1199C59.4744 11.3877 59.084 10.5264 59.084 9.53529C59.084 8.54419 59.4744 7.68141 60.2556 6.94724Z" stroke="#141414" stroke-width="0.327" stroke-miterlimit="10"/>
  <path d="M57.5603 5.86222C56.8566 5.86222 56.1526 6.13743 55.5855 6.69014V5.84793H54.0664V13.0737H55.5855V9.3262C55.5855 8.34082 56.3792 7.28542 57.5603 7.28542H58.3485V5.86222H57.5603Z" fill="#141414"/>
  <path d="M57.5603 5.86222C56.8566 5.86222 56.1526 6.13743 55.5855 6.69014V5.84793H54.0664V13.0737H55.5855V9.3262C55.5855 8.34082 56.3792 7.28542 57.5603 7.28542H58.3485V5.86222H57.5603Z" stroke="#141414" stroke-width="0.327" stroke-miterlimit="10"/>
  <path d="M37.9621 15.7271H36.3945L39.6606 0.5H41.2285L37.9621 15.7271Z" fill="#00D9E0"/>
  <path d="M41.5422 15.7271H39.9746L43.2406 0.5H44.8085L41.5422 15.7271Z" fill="#00D9E0"/>
</svg>