<svg width="74" height="44" viewBox="0 0 74 44" fill="none" xmlns="http://www.w3.org/2000/svg">
<g clip-path="url(#clip0_6901_89194)">
<path d="M22.4439 21.998C22.4439 13.9637 18.9674 6.71774 13.4303 1.65523C12.8467 1.12364 12.2451 0.613469 11.6182 0.131834C11.3877 -0.0465489 11.0598 -0.0465489 10.8257 0.131834C10.1988 0.613469 9.5972 1.12364 9.01358 1.65523C3.47646 6.71774 0 13.9637 0 21.998C0 30.0324 3.47646 37.2783 9.01358 42.3409C9.59359 42.8724 10.1988 43.3826 10.8257 43.8643C11.0598 44.0426 11.3877 44.0426 11.6182 43.8643C12.2451 43.3826 12.8467 42.8724 13.4303 42.3409C18.9674 37.2783 22.4439 30.0324 22.4439 21.998Z" fill="#F8A800"/>
<path d="M22.4439 21.998C22.4439 13.9637 18.9674 6.71774 13.4303 1.65523C12.8467 1.12364 12.2451 0.613469 11.6182 0.131834C11.3877 -0.0465489 11.0562 -0.0465489 10.8257 0.131834C10.1988 0.613469 9.5972 1.12364 9.01358 1.65523C3.47646 6.71774 0 13.9637 0 21.998C0 30.0324 3.47646 37.2783 9.01358 42.3409C9.5972 42.8724 10.1988 43.3826 10.8257 43.8643C11.0598 44.0426 11.3877 44.0426 11.6182 43.8643C12.2451 43.3826 12.8467 42.8724 13.4303 42.3409C18.9674 37.2783 22.4439 30.0324 22.4439 21.998ZM9.14327 5.46192C9.76652 4.76623 10.4294 4.10621 11.1283 3.48187C11.1823 3.43549 11.2616 3.43549 11.3156 3.48187C13.6176 5.53685 15.5342 8.0021 16.95 10.7635C17.0365 10.9276 17.004 11.1274 16.8816 11.2665C15.4658 12.8256 14.2301 14.5381 13.1997 16.3718C13.1385 16.486 12.9692 16.4539 12.9512 16.329C12.3712 12.5651 11.031 9.07597 9.10365 5.99707C8.99917 5.82939 9.01358 5.61177 9.14688 5.46192M3.86554 14.7949C4.58244 12.4474 5.64159 10.2462 6.98174 8.24827C7.03938 8.16265 7.16547 8.16978 7.21591 8.2554C8.97756 11.3236 10.1052 14.8092 10.4078 18.5517C10.505 19.7718 10.5086 20.9777 10.4258 22.1657C10.4186 22.2977 10.2421 22.337 10.1736 22.2264C8.52364 19.5792 6.43416 17.2281 4.01324 15.2694C3.86914 15.1553 3.8115 14.9662 3.86193 14.7914M11.2796 40.2324C11.258 40.3858 11.067 40.4536 10.9518 40.3465C5.94061 35.7871 2.79198 29.2475 2.79198 21.9909C2.79198 20.7601 2.88564 19.5506 3.05857 18.3662C3.07298 18.2591 3.20627 18.2128 3.28913 18.2841C8.24624 22.7508 11.4129 29.1512 11.5318 36.2972C11.5534 37.6315 11.4633 38.9444 11.2796 40.2288M12.8719 25.3409C13.6393 21.1561 15.4766 17.2852 18.1244 14.0636C18.1929 13.9815 18.3298 14.0065 18.3622 14.1064C19.198 16.5859 19.6555 19.2367 19.6555 21.9909C19.6555 27.6243 17.757 32.8223 14.5651 37.0001C14.4859 37.1035 14.3201 37.0465 14.3201 36.9144C14.3201 36.6933 14.3201 36.4721 14.3201 36.2509C14.2733 33.5822 13.8446 31.0028 13.0881 28.5732C12.7638 27.5279 12.6738 26.4219 12.8719 25.3445" fill="#222720"/>
<path d="M39.5452 16.9355H36.7352L33.5902 24.1672C33.5434 24.2778 33.3884 24.2778 33.3416 24.1672L30.2146 16.9355H27.4046C27.3398 16.9355 27.2929 17.0033 27.3217 17.064L33.3452 29.6685C33.392 29.7684 33.5397 29.7684 33.5866 29.6685L39.6281 17.064C39.6569 17.0033 39.6137 16.9355 39.5452 16.9355ZM44.0736 17.2174C43.9763 17.014 43.6809 17.014 43.5837 17.2174L37.6142 29.5972C37.5854 29.6578 37.6286 29.7256 37.6971 29.7256H40.5071L41.3501 27.742H46.3072L47.1502 29.7256H49.9602C50.025 29.7256 50.0719 29.6578 50.043 29.5972L44.0772 17.2174H44.0736ZM42.1931 25.6727L43.7025 22.1372C43.7494 22.0266 43.9079 22.0266 43.9511 22.1372L45.4606 25.6727H42.1931ZM58.0551 23.079L61.7837 17.0711C61.8198 17.0105 61.7765 16.9355 61.7081 16.9355H58.7252L54.4381 24.3384V16.9355H51.7506V29.7292H53.7897L56.5492 25.448L59.5358 29.7292H62.5763C62.6484 29.7292 62.6916 29.6471 62.652 29.5865L58.0587 23.079H58.0551ZM69.6013 21.9196C67.6667 21.5557 67.1768 21.1882 67.1768 20.4568C67.1768 19.5185 67.8793 19.1261 69.0213 19.1261C70.347 19.1261 71.3125 19.5827 72.0906 20.1785C72.1339 20.2106 72.1915 20.1999 72.2203 20.1571L73.5569 18.0486C72.4833 17.2316 70.8838 16.7072 69.0393 16.7072C66.2617 16.7072 64.4857 18.2805 64.4857 20.5781C64.4857 22.4583 65.4872 23.7819 68.8267 24.4954C70.7433 24.8593 71.3233 25.3409 71.3233 26.0902C71.3233 27.0285 70.5488 27.5351 69.1978 27.5351C67.9189 27.5351 66.5067 26.9785 65.6349 26.1151C65.5952 26.0759 65.5304 26.0795 65.498 26.1294L64.1002 28.2486C65.3827 29.3439 67.1407 29.9539 69.1077 29.9539C72.1483 29.9539 73.9928 28.3021 73.9928 25.8476C73.9928 23.8818 72.9372 22.6153 69.5977 21.9196" fill="#222720"/>
</g>
<defs>
<clipPath id="clip0_6901_89194">
<rect width="74" height="44" fill="white"/>
</clipPath>
</defs>
</svg>
