<svg xmlns="http://www.w3.org/2000/svg" width="337" height="221" viewBox="0 0 337 221" fill="none">
<path d="M290.375 310.837C340.881 223.359 348.782 122.811 320.644 33.0426C317.693 23.6237 314.311 14.3192 310.568 5.1685C309.177 1.73342 305.621 -0.319687 301.951 0.193665C292.154 1.52674 282.406 3.25057 272.773 5.40464C180.894 25.8806 97.7677 82.9974 47.2622 170.475C-3.24326 257.954 -11.184 358.569 17.0623 448.309C20.013 457.728 23.3944 467.033 27.1383 476.183C28.5288 479.618 32.0848 481.671 35.7549 481.158C45.5516 479.825 55.3003 478.101 64.9326 475.947C156.743 455.432 239.87 398.315 290.375 310.837ZM250.244 47.5847C261.377 43.937 272.724 40.8666 284.138 38.4702C284.96 38.3095 285.849 38.8228 286.121 39.6152C298.19 76.3554 303.386 115.209 301.332 154.143C301.268 156.465 299.668 158.447 297.436 159.155C272.33 167.261 248.158 178.176 225.455 191.754C224.064 192.585 222.482 191.218 223.063 189.738C240.433 145.124 247.866 98.7668 246.385 53.1629C246.284 50.6536 247.865 48.3894 250.205 47.6528M134.285 116.244C156.82 95.216 182.075 77.8468 209.151 64.4327C210.277 63.9031 211.645 64.6927 211.642 65.9617C211.423 110.403 201.772 155.389 181.443 198.022C174.873 211.929 167.287 225.068 158.931 237.489C158.037 238.879 155.886 238.182 155.841 236.522C154.618 197.421 146.761 158.755 132.802 122.286C131.937 120.153 132.501 117.755 134.148 116.165M54.5062 439.52C53.25 441.064 50.8054 440.56 50.2426 438.692C24.5965 357.715 31.652 266.845 77.2445 187.876C84.9873 174.465 93.5988 161.919 102.874 150.119C103.679 149.04 105.429 149.325 105.846 150.655C131.467 230.255 125.481 319.746 81.9637 398.279C73.8262 413.006 64.6544 426.681 54.5062 439.52ZM165.322 287.38C199.959 246.654 244.189 216.004 293.084 197.488C294.347 197.037 295.626 198.139 295.408 199.465C288.87 231.635 277.198 263.381 259.865 293.403C224.452 354.74 171.275 399.466 110.416 424.963C108.927 425.647 107.474 423.9 108.299 422.47C109.675 420.088 111.09 417.637 112.466 415.254C128.77 385.909 140.313 355.177 147.395 323.957C150.403 310.535 156.402 297.933 165.39 287.419" fill="#F8A800"/>
</svg>