<svg width="201" height="120" viewBox="0 0 201 120" fill="none" xmlns="http://www.w3.org/2000/svg">
<g clip-path="url(#clip0_1708_5315)">
<path d="M61.2333 60C61.2333 38.0841 51.853 18.3343 36.8786 4.51962C35.3095 3.06993 33.6722 1.68847 31.9838 0.375222C31.3527 -0.119377 30.4659 -0.119377 29.8348 0.375222C28.1464 1.68847 26.5091 3.06993 24.94 4.51962C9.98263 18.3172 0.602295 38.0841 0.602295 60C0.602295 81.9159 9.98263 101.683 24.957 115.48C26.5261 116.93 28.1634 118.312 29.8519 119.625C30.4829 120.119 31.3698 120.119 32.0008 119.625C33.6893 118.312 35.3266 116.93 36.8956 115.48C51.853 101.666 61.2504 81.9159 61.2504 60" fill="#007DBA"/>
<path d="M82.16 96.5321L81.1538 98.7322H77.197L85.6393 81.6429L94.0816 98.7322H89.9372L88.965 96.5321H82.16ZM85.554 89.0108L83.5926 93.3257H87.4983L85.5369 89.0108H85.554Z" fill="#222720"/>
<path d="M97.2026 104.139V101.069C98.4477 101.427 99.8632 101.563 100.818 101.563C103.479 101.563 105.065 100.557 105.065 97.5895V97.0778C104.161 98.4764 102.78 99.0733 101.176 99.0733C97.6972 99.0733 94.7638 96.2933 94.7638 92.3536C94.7638 88.4138 97.6972 85.7021 101.176 85.7021C102.78 85.7021 104.144 86.299 105.065 87.6805V86.0432H108.459V97.1461C108.459 101.956 105.833 104.65 101.108 104.65C100.153 104.65 98.4477 104.514 97.2026 104.156M104.912 92.3706C104.912 90.3752 103.445 88.9084 101.671 88.9084C99.8974 88.9084 98.4136 90.3752 98.4136 92.3706C98.4136 94.3661 99.8291 95.901 101.671 95.901C103.513 95.901 104.912 94.4343 104.912 92.3706Z" fill="#222720"/>
<path d="M114.906 98.7322H111.358V86.0091H114.752V87.3564C115.69 86.2478 117.021 85.668 118.607 85.668V89.2154C118.249 89.1472 117.788 89.079 117.345 89.079C115.997 89.079 114.906 89.8294 114.906 91.7055V98.7322Z" fill="#222720"/>
<path d="M119.715 92.3365C119.715 88.6697 122.819 85.685 126.623 85.685C130.426 85.685 133.496 88.6867 133.496 92.3365C133.496 95.9863 130.392 99.0563 126.623 99.0563C122.854 99.0563 119.715 96.0375 119.715 92.3365ZM129.863 92.3365C129.863 90.324 128.397 88.8743 126.623 88.8743C124.849 88.8743 123.365 90.324 123.365 92.3365C123.365 94.349 124.781 95.8669 126.623 95.8669C128.465 95.8669 129.863 94.4002 129.863 92.3365Z" fill="#222720"/>
<path d="M61.2333 60C61.2333 38.0841 51.853 18.3172 36.8956 4.51962C35.3266 3.06993 33.6893 1.68847 32.0008 0.375222C31.3698 -0.119377 30.4829 -0.119377 29.8519 0.375222C28.1634 1.68847 26.5261 3.06993 24.957 4.51962C9.98263 18.3172 0.602295 38.0841 0.602295 60C0.602295 81.9159 9.98263 101.666 24.957 115.48C26.5261 116.93 28.1634 118.312 29.8519 119.625C30.4829 120.119 31.3698 120.119 32.0008 119.625C33.6893 118.312 35.3266 116.93 36.8956 115.48C51.853 101.666 61.2333 81.9159 61.2333 60ZM25.2981 14.8891C26.9866 12.996 28.7774 11.1882 30.6535 9.49972C30.7899 9.38034 31.0116 9.38034 31.1481 9.49972C37.3732 15.0938 42.5409 21.8306 46.3613 29.369C46.6 29.8124 46.5147 30.3582 46.1736 30.7334C42.3533 34.9801 39.0105 39.6532 36.2305 44.6674C36.0599 44.9744 35.6165 44.8891 35.5653 44.548C33.9963 34.2808 30.3806 24.7641 25.1788 16.3559C24.8888 15.8954 24.94 15.2985 25.2981 14.9062M11.023 40.3695C12.9673 33.9739 15.8155 27.9704 19.4312 22.5128C19.5847 22.2911 19.9258 22.2911 20.0622 22.5299C24.8206 30.9039 27.8735 40.4036 28.6751 50.6197C28.9479 53.9454 28.9479 57.2371 28.7262 60.4776C28.7092 60.8357 28.2316 60.938 28.044 60.6481C23.5926 53.4167 17.9474 47.021 11.3982 41.6828C11.0059 41.3758 10.8524 40.8641 10.9889 40.3866M31.0116 109.784C30.9434 110.21 30.4317 110.381 30.1248 110.091C16.583 97.6578 8.0895 79.8181 8.0895 60.0341C8.0895 56.6743 8.34533 53.3826 8.80582 50.1421C8.83993 49.8522 9.19809 49.7158 9.41981 49.9204C22.8081 62.0978 31.3527 79.5623 31.6938 99.0392C31.762 102.689 31.5233 106.271 31.0116 109.767M35.3095 69.1586C37.3902 57.7487 42.3533 47.1916 49.4994 38.4082C49.687 38.1865 50.0452 38.2547 50.1475 38.5276C52.3988 45.2814 53.6438 52.5128 53.6438 60.0341C53.6438 75.4008 48.5273 89.5736 39.8974 100.966C39.6927 101.239 39.2322 101.086 39.2322 100.728C39.2322 100.131 39.2322 99.5168 39.2322 98.9198C39.1128 91.6373 37.9531 84.6106 35.9064 77.9761C35.0196 75.1279 34.7808 72.1092 35.3266 69.1586" fill="#222720"/>
<path d="M107.419 39.8579H99.8291L91.3357 59.5736C91.1992 59.8636 90.7899 59.8636 90.6535 59.5736L82.2112 39.8579H74.6216C74.4511 39.8579 74.3317 40.0455 74.3999 40.216L90.6705 74.5992C90.807 74.8721 91.1992 74.8721 91.3186 74.5992L107.64 40.216C107.709 40.0455 107.606 39.8579 107.419 39.8579ZM119.647 40.6254C119.374 40.0625 118.59 40.0625 118.317 40.6254L102.2 74.3945C102.115 74.5651 102.234 74.7527 102.422 74.7527H110.011L112.296 69.3462H125.685L127.97 74.7527H135.56C135.73 74.7527 135.85 74.5651 135.781 74.3945L119.664 40.6254H119.647ZM114.565 63.6839L118.641 54.0478C118.777 53.7408 119.187 53.7408 119.323 54.0478L123.399 63.6839H114.565ZM157.407 56.606L167.487 40.216C167.589 40.0455 167.47 39.8408 167.282 39.8408H159.232L147.652 60.0341V39.8408H140.386V74.7356H145.895L153.348 63.0529L161.415 74.7356H169.636C169.841 74.7356 169.943 74.5139 169.841 74.3434L157.441 56.589L157.407 56.606ZM188.601 53.4338C183.382 52.4446 182.052 51.4383 182.052 49.4429C182.052 46.8846 183.945 45.8272 187.032 45.8272C190.614 45.8272 193.223 47.0722 195.321 48.6924C195.44 48.7777 195.594 48.7607 195.679 48.6242L199.295 42.8766C196.395 40.6424 192.08 39.2268 187.1 39.2268C179.596 39.2268 174.804 43.5077 174.804 49.784C174.804 54.9176 177.515 58.5162 186.537 60.4605C191.722 61.4497 193.274 62.7629 193.274 64.8096C193.274 67.3678 191.194 68.7493 187.527 68.7493C184.065 68.7493 180.261 67.2314 177.908 64.8778C177.805 64.7755 177.618 64.7925 177.532 64.9119L173.746 70.6936C177.208 73.6782 181.967 75.3496 187.271 75.3496C195.491 75.3496 200.472 70.83 200.472 64.1444C200.472 58.772 197.623 55.3269 188.601 53.4338Z" fill="#222720"/>
</g>
<defs>
<clipPath id="clip0_1708_5315">
<rect width="199.869" height="120" fill="white" transform="translate(0.602295)"/>
</clipPath>
</defs>
</svg>
