<svg width="18" height="19" viewBox="0 0 18 19" fill="none" xmlns="http://www.w3.org/2000/svg">
<g id="icons" clip-path="url(#clip0_865_1447)">
<path id="Vector" d="M17.1004 17.6004L15.4804 15.9804M8.59539 16.7904C9.60591 16.7904 10.6065 16.5914 11.5401 16.2046C12.4737 15.8179 13.322 15.2511 14.0366 14.5366C14.7511 13.822 15.3179 12.9737 15.7046 12.0401C16.0914 11.1065 16.2904 10.1059 16.2904 9.09539C16.2904 8.08487 16.0914 7.08424 15.7046 6.15064C15.3179 5.21704 14.7511 4.36875 14.0366 3.6542C13.322 2.93966 12.4737 2.37285 11.5401 1.98614C10.6065 1.59943 9.60591 1.40039 8.59539 1.40039C6.55455 1.40039 4.5973 2.21111 3.1542 3.6542C1.71111 5.0973 0.900391 7.05455 0.900391 9.09539C0.900391 11.1362 1.71111 13.0935 3.1542 14.5366C4.5973 15.9797 6.55455 16.7904 8.59539 16.7904Z" stroke="black" stroke-opacity="0.5" stroke-width="1.5" stroke-linecap="round" stroke-linejoin="round"/>
</g>
<defs>
<clipPath id="clip0_865_1447">
<rect width="18" height="18" fill="white" transform="translate(0 0.5)"/>
</clipPath>
</defs>
</svg>
