<svg xmlns="http://www.w3.org/2000/svg" width="150" height="150" viewBox="0 0 150 150" fill="none">
<path d="M23.3354 28.1802C22.12 28.1802 21.1335 29.1655 21.1335 30.382V35.8477L15.661 29.0064C15.0739 28.2717 14.0542 27.9913 13.173 28.3186C12.3216 28.6368 11.7402 29.4722 11.7402 30.382V42.1237C11.7402 43.339 12.7256 44.3255 13.9421 44.3255C15.1574 44.3255 16.1439 43.339 16.1439 42.1237V36.658L21.6165 43.4992C22.2322 44.2694 23.3182 44.5361 24.2212 44.139C25.0119 43.7922 25.5372 42.9877 25.5372 42.1237V30.382C25.5372 29.1655 24.5507 28.1802 23.3354 28.1802Z" fill="black"/>
<path d="M126.664 27.8872C127.88 27.8872 128.865 26.9007 128.865 25.6854V20.8365C128.915 20.8399 128.963 20.8422 129.012 20.8422H132.534C135.691 20.8422 138.259 18.2742 138.259 15.1179C138.259 11.9616 135.691 9.39355 132.534 9.39355H126.664C125.448 9.39355 124.463 10.3789 124.463 11.5954V25.6854C124.463 26.9007 125.448 27.8872 126.664 27.8872ZM128.865 13.7972H132.534C133.263 13.7972 133.856 14.3889 133.856 15.1179C133.856 15.8457 133.263 16.4385 132.534 16.4385H129.012C128.963 16.4385 128.915 16.4397 128.865 16.4431V13.7972Z" fill="black"/>
<path d="M126.663 112.72C117.13 112.72 109.251 119.915 108.158 129.158H99.3954L92.6617 122.425C104.525 114.965 112.427 101.76 112.427 86.7416C112.427 73.0808 98.2601 51.2375 86.681 35.6644L97.2679 20.842H112.855C113.948 30.0854 121.827 37.2803 131.36 37.2803C141.638 37.2803 150 28.9181 150 18.6401C150 8.3622 141.638 0 131.36 0C121.827 0 113.948 7.1949 112.855 16.4383H96.1349C95.4243 16.4383 94.7571 16.7816 94.3439 17.3607L83.9024 31.9782C77.5703 23.695 72.5395 17.8585 71.9673 17.1982C71.1033 16.2003 69.5045 16.2003 68.6405 17.1982C68.0477 17.8814 62.6713 24.1173 56.02 32.8766H37.1452C36.0523 23.6332 28.1731 16.4383 18.6401 16.4383C8.3622 16.4383 0 24.8005 0 35.0784C0 45.3564 8.3622 53.7186 18.6401 53.7186C28.1731 53.7186 36.0523 46.5237 37.1452 37.2803H52.7332C41.3967 52.7184 28.1799 73.5466 28.1799 86.7416C28.1799 98.0415 32.5939 108.651 40.6082 116.618C41.47 117.475 42.8638 117.47 43.721 116.607C44.5782 115.746 44.5747 114.352 43.7119 113.494C36.5353 106.361 32.5836 96.8594 32.5836 86.7416C32.5836 68.2732 62.8075 31.0043 70.3033 22.047C77.8004 31.0032 108.023 68.2663 108.023 86.7416C108.023 106.802 92.2829 123.252 72.5052 124.396V109.285L101.754 95.7859C102.858 95.2755 103.34 93.9686 102.831 92.8642C102.322 91.7599 101.014 91.2781 99.9092 91.7873L72.5052 104.435V85.754L94.7708 74.6212C95.8591 74.0776 96.2997 72.7547 95.7561 71.6675C95.2126 70.5791 93.8896 70.1385 92.8024 70.6821L72.5052 80.8308V64.6191L85.3775 58.1829C86.4658 57.6393 86.9064 56.3164 86.3628 55.2292C85.8192 54.1409 84.4963 53.7003 83.4091 54.2439L72.5052 59.6958V46.8201C72.5052 45.6036 71.5199 44.6182 70.3033 44.6182C69.088 44.6182 68.1015 45.6036 68.1015 46.8201V59.6958L57.1976 54.2439C56.1115 53.7003 54.7886 54.1409 54.2439 55.2292C53.7003 56.3164 54.1409 57.6393 55.2292 58.1829L68.1015 64.6191V80.8308L47.8043 70.6821C46.7182 70.1385 45.3953 70.5791 44.8505 71.6675C44.3069 72.7547 44.7475 74.0776 45.8359 74.6212L68.1015 85.754V104.435L40.6975 91.7873C39.5931 91.2781 38.2862 91.7599 37.7758 92.8642C37.2665 93.9686 37.7483 95.2766 38.8527 95.7859L68.1015 109.285V124.395C62.3302 124.057 56.6963 122.404 51.6872 119.556C50.6298 118.954 49.2863 119.324 48.6855 120.382C48.0846 121.438 48.4531 122.783 49.5106 123.383C55.8174 126.969 63.0077 128.865 70.3033 128.865C76.8803 128.865 83.1081 127.349 88.6597 124.65L96.9269 132.917C97.34 133.331 97.8996 133.562 98.4833 133.562H108.158C109.251 142.805 117.13 150 126.663 150C136.941 150 145.303 141.639 145.303 131.36C145.303 121.082 136.941 112.72 126.663 112.72ZM131.36 4.40369C139.211 4.40369 145.597 10.7895 145.597 18.6401C145.597 26.4896 139.211 32.8766 131.36 32.8766C123.51 32.8766 117.123 26.4896 117.123 18.6401C117.123 10.7895 123.51 4.40369 131.36 4.40369ZM18.6401 49.3149C10.7895 49.3149 4.40369 42.9279 4.40369 35.0784C4.40369 27.2278 10.7895 20.842 18.6401 20.842C26.4908 20.842 32.8766 27.2278 32.8766 35.0784C32.8766 42.9279 26.4908 49.3149 18.6401 49.3149ZM126.663 145.596C118.814 145.596 112.427 139.211 112.427 131.36C112.427 123.51 118.814 117.123 126.663 117.123C134.514 117.123 140.901 123.51 140.901 131.36C140.901 139.211 134.514 145.596 126.663 145.596Z" fill="black"/>
<path d="M133.121 122.994C132.392 122.022 131.012 121.825 130.039 122.554L124.168 126.958V124.315C124.168 123.1 123.183 122.113 121.966 122.113C120.751 122.113 119.766 123.1 119.766 124.315V138.405C119.766 139.622 120.751 140.607 121.966 140.607C123.183 140.607 124.168 139.622 124.168 138.405V135.764L130.039 140.166C130.999 140.886 132.402 140.686 133.121 139.726C133.851 138.754 133.653 137.374 132.681 136.644L125.636 131.36L132.681 126.076C133.653 125.347 133.851 123.967 133.121 122.994Z" fill="black"/>
</svg>