<svg xmlns="http://www.w3.org/2000/svg" width="20" height="20" viewBox="0 0 20 20" fill="none">
<path fill-rule="evenodd" clip-rule="evenodd" d="M19.8962 8.05625H19.8999L19.8974 8.05875C20.1012 9.3025 19.9949 10.5775 19.5874 11.7725C19.1849 12.9375 18.5037 13.9875 17.5999 14.8337C17.0799 15.3325 16.4849 15.745 15.8587 16.105C15.4412 15.185 14.5199 14.5425 13.4437 14.5425C11.9762 14.5425 10.7862 15.7325 10.7862 17.2C10.7862 17.2106 10.7878 17.2209 10.7893 17.2312C10.7909 17.2416 10.7924 17.2519 10.7924 17.2625C10.7537 17.2625 10.7143 17.2631 10.6749 17.2637C10.6356 17.2644 10.5962 17.265 10.5574 17.265H9.65745C9.45386 17.265 9.23626 17.2577 9.01782 17.2503C8.93717 17.2476 8.85641 17.2449 8.7762 17.2425C8.7762 17.235 8.77713 17.2278 8.77807 17.2206C8.77901 17.2134 8.77995 17.2062 8.77995 17.1987C8.77995 15.7312 7.58995 14.5412 6.12245 14.5412C4.98745 14.5412 4.0262 15.2562 3.64495 16.2575C2.29245 15.6962 1.09995 14.8125 0.208698 13.6512C0.0911976 13.495 0.0199476 13.3087 0.00369765 13.115C-0.0125524 12.9212 0.0249477 12.7262 0.112448 12.5525C0.198698 12.3787 0.332448 12.2312 0.498698 12.13C0.664948 12.0287 0.857448 11.9737 1.05245 11.9737C1.28995 12.0125 1.53495 11.9712 1.7462 11.8575C1.95745 11.7437 2.12495 11.5637 2.2212 11.345C2.46995 10.6262 2.6012 9.87375 2.60995 9.115C2.6387 8.59125 2.6987 8.07 2.7862 7.55375C3.1437 5.84625 4.1112 4.3225 5.5137 3.26375C6.8387 2.23 8.4187 1.5625 10.0912 1.33C10.4887 1.27625 10.8899 1.25 11.2912 1.25C12.7224 1.2525 14.1324 1.58875 15.4074 2.23C16.6524 2.85125 17.7299 3.7575 18.5487 4.87375C19.2399 5.81875 19.7012 6.9075 19.8962 8.05625ZM13.2699 6.58C13.0837 6.655 12.9237 6.78375 12.8112 6.95L12.8099 6.95125C12.6974 7.11625 12.6374 7.31125 12.6374 7.51125C12.6362 7.775 12.7412 8.02875 12.9287 8.21625C13.1162 8.40375 13.3699 8.51125 13.6374 8.51625C13.8399 8.52 14.0374 8.46375 14.2074 8.355C14.3774 8.24625 14.5099 8.09125 14.5899 7.9075C14.6699 7.72375 14.6924 7.52125 14.6549 7.325C14.6187 7.13 14.5224 6.94875 14.3812 6.80625C14.2387 6.66375 14.0574 6.56625 13.8599 6.52625C13.6624 6.485 13.4574 6.505 13.2699 6.58ZM8.5612 6.58C8.3737 6.655 8.21495 6.785 8.10245 6.95C7.98995 7.11625 7.92995 7.31 7.92995 7.50875C7.92995 7.77375 8.03495 8.0275 8.2237 8.21625C8.41245 8.405 8.6687 8.5125 8.9362 8.515C9.1387 8.5175 9.3362 8.46 9.50495 8.35125C9.6737 8.2425 9.8062 8.08625 9.88495 7.9025C9.9637 7.72 9.9862 7.51625 9.94745 7.32125C9.9087 7.12625 9.8137 6.945 9.6712 6.80375C9.5287 6.66125 9.34745 6.565 9.14995 6.525C8.95245 6.485 8.74745 6.50375 8.5612 6.58ZM13.6999 12.1375C14.3049 11.7137 14.7387 11.0912 14.9224 10.3812C14.9399 10.3137 14.9424 10.245 14.9324 10.1762C14.9212 10.1087 14.8974 10.0425 14.8612 9.98375C14.8237 9.925 14.7762 9.87375 14.7199 9.8325C14.6637 9.79125 14.5987 9.7625 14.5312 9.74625C14.4637 9.73125 14.3949 9.72875 14.3262 9.74C14.2574 9.75125 14.1924 9.77625 14.1337 9.8125C14.0749 9.84875 14.0237 9.895 13.9837 9.95125C13.9437 10.0062 13.9149 10.07 13.8999 10.1362C13.7174 10.6587 13.3674 11.1087 12.9037 11.4175C12.4399 11.7262 11.8874 11.8787 11.3287 11.8525C10.7649 11.8937 10.2049 11.745 9.73745 11.4312C9.26995 11.1175 8.92495 10.6562 8.75745 10.1237C8.7312 9.98875 8.6512 9.87 8.53495 9.79375C8.41995 9.71625 8.27745 9.69 8.1412 9.71625C8.00495 9.7425 7.88495 9.8225 7.80745 9.93625C7.7287 10.05 7.7012 10.19 7.7287 10.325C7.9362 11.0862 8.39745 11.7537 9.03745 12.2225C9.6787 12.6912 10.4599 12.9312 11.2562 12.9037H11.3587C12.1999 12.8925 13.0174 12.625 13.6999 12.1375ZM6.12373 19.3162C7.2932 19.3162 8.24123 18.3681 8.24123 17.1987C8.24123 16.0292 7.2932 15.0812 6.12373 15.0812C4.95427 15.0812 4.00623 16.0292 4.00623 17.1987C4.00623 18.3681 4.95427 19.3162 6.12373 19.3162ZM13.4438 19.3162C14.6132 19.3162 15.5613 18.3681 15.5613 17.1987C15.5613 16.0292 14.6132 15.0812 13.4438 15.0812C12.2743 15.0812 11.3263 16.0292 11.3263 17.1987C11.3263 18.3681 12.2743 19.3162 13.4438 19.3162Z" fill="#2D281F"/>
</svg>