<svg xmlns="http://www.w3.org/2000/svg" width="44" height="44" viewBox="0 0 44 44" fill="none">
  <g clip-path="url(#clip0_4584_4728)">
    <path d="M22 38.801V19.123" stroke="#22271F" stroke-width="4" stroke-miterlimit="10"/>
    <path d="M8.76953 21.896V12.822C8.76953 10.321 10.7965 8.29401 13.2975 8.29401H29.8245C32.3255 8.29401 34.3525 10.321 34.3525 12.822V21.896" stroke="#22271F" stroke-width="4" stroke-miterlimit="10"/>
    <path d="M16.8203 8.294V4.178C16.8203 3.251 17.5713 2.5 18.4983 2.5H24.6233C25.5503 2.5 26.3013 3.251 26.3013 4.178V8.294" stroke="#22271F" stroke-width="4" stroke-miterlimit="10"/>
    <path d="M22.0001 36.498C22.0001 39.26 19.7611 41.5 16.9981 41.5C14.2351 41.5 11.9961 39.261 11.9961 36.498" stroke="#22271F" stroke-width="4" stroke-miterlimit="10"/>
    <path d="M32.002 36.498C32.002 39.26 29.763 41.5 27 41.5C24.237 41.5 21.998 39.261 21.998 36.498" stroke="#22271F" stroke-width="4" stroke-miterlimit="10"/>
    <path d="M42.0052 36.498C42.0052 39.26 39.7662 41.5 37.0032 41.5C34.2402 41.5 32.0012 39.261 32.0012 36.498C39.4522 33.1 40.4032 24.698 40.4032 24.698L21.9972 19.122L3.59223 24.698C3.59223 24.698 5.31223 32.758 11.9942 36.498C11.9942 39.26 9.75523 41.5 6.99223 41.5C4.22923 41.5 1.99023 39.261 1.99023 36.498" stroke="#22271F" stroke-width="4" stroke-miterlimit="10"/>
  </g>
  <defs>
    <clipPath id="clip0_4584_4728">
      <rect width="44.014" height="43" fill="white" transform="translate(-0.0078125 0.5)"/>
    </clipPath>
  </defs>
</svg>