<svg xmlns="http://www.w3.org/2000/svg" width="146" height="146" viewBox="0 0 146 146" fill="none">
  <path d="M138.417 117.742L137.584 114.412C136.691 110.826 133.484 108.323 129.787 108.323H129.516C127.802 108.323 126.17 108.857 124.807 109.844C122.085 107.866 118.114 107.866 115.387 109.844C114.026 108.857 112.392 108.323 110.678 108.323H110.407C109.686 108.323 108.994 108.443 108.323 108.624V99.4591L108.57 98.9623C110.876 94.3562 112.248 89.4324 112.764 84.3247L126.14 80.981C129.514 80.138 131.871 77.1214 131.871 73.641C131.871 73.0239 131.796 72.4072 131.643 71.8066L123.366 38.6977C122.574 35.5282 119.857 33.284 116.65 33.0202L116.264 31.473C115.444 28.1928 112.512 25.9039 109.133 25.9039C108.34 25.9039 107.558 26.0311 106.812 26.2806L103.929 27.2413C100.922 28.2422 98.9039 31.0444 98.9039 34.2116V37.1105C96.1276 38.2409 94.2555 40.9137 94.2059 43.9725C93.7773 43.9138 93.3487 43.8548 92.9179 43.8288C90.7892 38.8742 89.6799 33.637 89.5411 28.2587H94.1942C96.7917 28.2587 98.9039 26.1465 98.9039 23.5491V18.8388C98.9039 16.2414 96.7917 14.1292 94.1942 14.1292H91.479L90.1085 5.90388C89.5379 2.48428 86.6085 0 83.1399 0H67.5721C64.1011 0 61.1717 2.48428 60.604 5.90359L59.2312 14.1289H56.516C53.9185 14.1289 51.8063 16.2411 51.8063 18.8386V23.5482C51.8063 26.1457 53.9185 28.2578 56.516 28.2578H61.2256V36.415C61.2256 42.3044 66.0154 47.0967 71.9047 47.0967C72.5666 47.0967 73.2187 47.0237 73.8569 46.9059L75.1544 53.3864L67.3151 61.2256H51.806C50.7724 61.2256 49.7926 61.4352 48.8624 61.7437L48.0617 59.2053C47.1078 56.1886 44.3435 54.1612 41.1786 54.1612C40.0625 54.1612 38.9486 54.4249 37.9523 54.9217L34.2692 56.7632L36.3768 60.9761L40.0599 59.1346C41.3856 58.4659 43.121 59.2027 43.5687 60.6205L44.7744 64.4376C43.3073 66.1024 42.3865 68.2596 42.3865 70.6449C42.3865 75.0836 45.4807 78.7904 49.6206 79.7816L51.0264 84.2369C53.9889 93.6114 61.5054 100.492 70.7011 102.781C70.6751 103.429 70.6446 104.076 70.6446 104.724V108.706C69.804 108.953 69.0033 109.327 68.2898 109.846C66.9287 108.857 65.2945 108.322 63.5802 108.322H63.3093C59.6145 108.322 56.4048 110.825 55.5099 114.412L54.6787 117.741H51.8058H47.0961H44.2232L43.3897 114.412C42.4971 110.825 39.29 108.322 35.5929 108.322H35.322C33.6077 108.322 31.9757 108.857 30.6124 109.843C27.8903 107.865 23.92 107.865 21.1931 109.843C19.832 108.857 18.1978 108.322 16.4835 108.322H16.2126C12.5178 108.322 9.30807 110.825 8.41325 114.412L7.58202 117.741H0V127.161C0 137.549 8.45146 146 18.8388 146H23.5485H28.2581H32.9678C40.0559 146 46.2372 142.06 49.4515 136.26C52.6658 142.061 58.8474 146 65.9353 146H70.6449H75.3545H80.0642C87.1523 146 93.3336 142.06 96.5479 136.26C99.7628 142.06 105.944 146 113.032 146H117.742H122.452H127.161C137.549 146 146 137.549 146 127.161V117.742H138.417ZM110.407 113.032H110.677C111.568 113.032 112.401 113.378 113.032 114.007L115.387 116.362L117.742 114.007C119.002 112.747 121.192 112.747 122.452 114.007L124.806 116.362L127.161 114.007C127.792 113.378 128.626 113.032 129.516 113.032H129.787C131.318 113.032 132.646 114.068 133.018 115.554L133.628 117.996C127.804 118.919 122.854 122.503 120.097 127.482C117.339 122.506 112.389 118.922 106.563 117.999L107.173 115.557C107.548 114.068 108.874 113.032 110.407 113.032ZM91.3207 117.742L90.4872 114.412C90.2753 113.567 89.9269 112.787 89.4818 112.078V100.869C95.4019 98.0225 100.246 93.1078 102.947 86.8087L104.751 82.5984C105.655 83.4861 106.774 84.1314 108.015 84.4753C107.506 88.7894 106.307 92.9504 104.355 96.857L103.614 98.3475V112.079C103.168 112.785 102.82 113.565 102.608 114.41L101.777 117.742H98.9039H94.1942L91.3207 117.742ZM83.4721 87.3762L81.3645 91.5891C83.4672 92.6416 84.7744 94.754 84.7744 97.104V97.6737C82.4549 98.453 80.0012 98.903 77.465 98.903C76.9021 98.903 76.344 98.8748 75.7908 98.8372C76.382 94.6713 77.5899 90.5953 79.3727 86.7873L100.053 81.6186L98.6233 84.9555C96.6854 89.4743 93.3978 93.1009 89.3734 95.5382C88.8692 92.0365 86.7052 88.9941 83.4721 87.3762ZM89.9243 59.8577L83.0811 69.4395C80.432 73.1437 76.1344 75.3548 71.5802 75.3548H61.2259V65.9355H67.3154L71.3353 69.9554L74.665 66.6256L71.6201 63.5807L83.0435 52.1574C83.6275 51.5734 84.2702 51.0481 84.9486 50.5938C87.977 48.5735 91.6812 47.9964 95.1803 48.9596L102.007 76.2733L79.424 81.918L78.6116 78.6755C81.8966 77.3498 84.8023 75.129 86.9099 72.1762L93.7531 62.5944L89.9243 59.8577ZM105.968 68.2904C105.968 66.9929 107.023 65.9355 108.323 65.9355C109.622 65.9355 110.677 66.9929 110.677 68.2904C110.677 69.5878 109.622 70.6452 108.323 70.6452C107.023 70.6452 105.968 69.5878 105.968 68.2904ZM125 76.4122L110.729 79.9798C109.243 80.3542 107.64 79.4029 107.263 77.9027L107.079 77.1678L107.875 75.3123C108.028 75.3195 108.169 75.3548 108.323 75.3548C111.923 75.3548 114.869 72.6373 115.3 69.1521L125.558 66.8726L127.076 72.9504C127.131 73.1765 127.161 73.4095 127.161 73.6405C127.161 74.9545 126.271 76.0919 125 76.4122ZM105.419 31.7079L108.304 30.7473C109.71 30.2762 111.332 31.157 111.695 32.6122L111.977 33.7471L103.613 35.8382V34.2111C103.613 33.0738 104.338 32.0681 105.419 31.7079ZM101.065 41.3297L115.335 37.7621C115.559 37.7056 115.795 37.6774 116.028 37.6774C117.342 37.6774 118.479 38.5651 118.8 39.8392L124.413 62.3021L114.292 64.5508C113.042 62.561 110.843 61.2259 108.323 61.2259C106.484 61.2259 104.824 61.9488 103.566 63.1028L98.9883 44.7915C98.9341 44.5654 98.9036 44.3324 98.9036 44.1014C98.9033 42.7874 99.7933 41.6499 101.065 41.3297ZM65.2477 6.67608C65.4362 5.53631 66.4135 4.70993 67.5695 4.70993H83.1373C84.2936 4.70993 85.2708 5.53659 85.459 6.67864L86.7046 14.1295H64.0039L65.2477 6.67608ZM56.5163 18.8388H94.1937L94.1959 23.5485H56.5163V18.8388ZM70.6452 28.2581V30.6129C70.6452 31.9104 69.5901 32.9678 68.2904 32.9678H65.9355V28.2581H70.6452ZM78.2677 44.9469C78.6775 44.6406 79.0895 44.337 79.4568 43.9697L81.7292 41.6995L78.3994 38.3675L76.127 40.6399C74.9989 41.7654 73.499 42.3871 71.9047 42.3871C69.046 42.3871 66.6558 40.3642 66.0741 37.6774H68.2901C72.185 37.6774 75.3545 34.5079 75.3545 30.6129V28.2581H84.8303C84.9597 33.7636 86.0476 39.1186 88.054 44.2357C86.043 44.6948 84.1003 45.5004 82.3317 46.6778C81.397 47.3043 80.5161 48.0249 79.7154 48.8253L79.1551 49.3856L78.2677 44.9469ZM47.0967 70.6452C47.0967 68.0477 49.2088 65.9355 51.8063 65.9355H56.516V75.3548H51.8063C49.2091 75.3548 47.0967 73.2427 47.0967 70.6452ZM55.5154 82.8174L54.6465 80.0645H71.5825C72.4186 80.0645 73.2449 79.9963 74.0622 79.8879L75.2254 84.5388C73.2025 88.7894 71.8297 93.3507 71.1539 98.0133C63.8396 95.9457 57.8984 90.3597 55.5154 82.8174ZM77.4647 103.613C79.9772 103.613 82.4287 103.26 84.7741 102.619V108.624C84.1028 108.443 83.4108 108.323 82.6902 108.323H82.4193C80.7049 108.323 79.073 108.857 77.7096 109.844C76.9962 109.326 76.1955 108.951 75.3548 108.704V104.724C75.3548 104.326 75.3785 103.929 75.3902 103.531C76.0754 103.58 76.7655 103.613 77.4647 103.613ZM63.3098 113.032H63.5807C64.471 113.032 65.3045 113.378 65.9355 114.007L68.2904 116.362L70.6452 114.007C71.905 112.747 74.095 112.747 75.3548 114.007L77.7096 116.362L80.0645 114.007C80.6955 113.378 81.5293 113.032 82.4193 113.032H82.6902C84.2209 113.032 85.5489 114.068 85.921 115.554L86.5309 117.996C80.7075 118.919 75.7575 122.503 73 127.482C70.2425 122.506 65.2925 118.922 59.4668 117.999L60.0767 115.557C60.4511 114.068 61.7768 113.032 63.3098 113.032ZM16.2131 113.032H16.484C17.3743 113.032 18.2078 113.378 18.8388 114.007L21.1937 116.362L23.5485 114.007C24.8083 112.747 26.9983 112.747 28.2581 114.007L30.6129 116.362L32.9678 114.007C33.5988 113.378 34.4326 113.032 35.3226 113.032H35.5935C37.1242 113.032 38.4522 114.068 38.8243 115.554L39.4343 117.996C33.6108 118.919 28.6608 122.503 25.9033 127.482C23.1458 122.506 18.1958 118.922 12.3701 117.999L12.98 115.557C13.3542 114.068 14.6801 113.032 16.2131 113.032ZM4.70964 127.161V122.452H9.41928C17.2115 122.452 23.5482 128.788 23.5482 136.58V137.96L13.4388 127.851L10.1091 131.181L20.2184 141.29H18.8386C11.0467 141.29 4.70964 134.953 4.70964 127.161ZM32.9678 141.29H31.5879L41.6973 131.181L38.3675 127.851L28.2581 137.961V136.581C28.2581 128.789 34.5949 122.452 42.3871 122.452H47.0967V127.161C47.0967 134.953 40.7599 141.29 32.9678 141.29ZM51.8063 127.161V122.452H56.516C64.3082 122.452 70.6449 128.788 70.6449 136.58V137.96L60.5355 127.851L57.2058 131.181L67.3151 141.29H65.9353C58.1434 141.29 51.8063 134.953 51.8063 127.161ZM80.0645 141.29H78.6846L88.7939 131.181L85.4642 127.851L75.3548 137.961V136.581C75.3548 128.789 81.6916 122.452 89.4837 122.452H94.1934V127.161C94.1937 134.953 87.8566 141.29 80.0645 141.29ZM98.9033 127.161V122.452H103.613C111.405 122.452 117.742 128.788 117.742 136.58V137.96L107.633 127.851L104.303 131.181L114.412 141.29H113.032C105.24 141.29 98.9033 134.953 98.9033 127.161ZM141.29 127.161C141.29 134.953 134.954 141.29 127.161 141.29H125.782L135.891 131.181L132.561 127.851L122.452 137.96V136.58C122.452 128.788 128.789 122.452 136.581 122.452H141.29V127.161Z" fill="black"/>
  <path d="M8.5625 66.0781L27.3941 59.0163L29.048 63.4266L10.2164 70.4885L8.5625 66.0781Z" fill="black"/>
  <path d="M19.1309 85.9956L30.914 64.8054L35.0302 67.0943L23.2471 88.2845L19.1309 85.9956Z" fill="black"/>
  <path d="M6.61719 51.749L7.54028 47.1289L31.099 51.8358L30.1759 56.456L6.61719 51.749Z" fill="black"/>
</svg>