<svg width="31" height="61" viewBox="0 0 31 61" fill="none" xmlns="http://www.w3.org/2000/svg">
  <path d="M30.9891 30.2774C30.9891 19.4022 26.2834 9.59422 18.7885 2.74167C17.9985 2.02213 17.1841 1.33156 16.3356 0.679628C16.0236 0.438171 15.5798 0.438171 15.2628 0.679628C14.4144 1.33156 13.6 2.02213 12.81 2.74167C5.31507 9.59422 0.609375 19.4022 0.609375 30.2774C0.609375 41.1527 5.31507 50.9606 12.81 57.8132C13.5951 58.5327 14.4144 59.2233 15.2628 59.8752C15.5798 60.1167 16.0236 60.1167 16.3356 59.8752C17.1841 59.2233 17.9985 58.5327 18.7885 57.8132C26.2834 50.9606 30.9891 41.1527 30.9891 30.2774Z" fill="#F7A500"/>
  <path d="M30.9891 30.2774C30.9891 19.4022 26.2834 9.59422 18.7885 2.74167C17.9985 2.02213 17.1841 1.33156 16.3356 0.679628C16.0236 0.438171 15.5749 0.438171 15.2628 0.679628C14.4144 1.33156 13.6 2.02213 12.81 2.74167C5.31507 9.59422 0.609375 19.4022 0.609375 30.2774C0.609375 41.1527 5.31507 50.9606 12.81 57.8132C13.6 58.5327 14.4144 59.2233 15.2628 59.8752C15.5798 60.1167 16.0236 60.1167 16.3356 59.8752C17.1841 59.2233 17.9985 58.5327 18.7885 57.8132C26.2834 50.9606 30.9891 41.1527 30.9891 30.2774ZM12.9856 7.89437C13.8292 6.95268 14.7264 6.05929 15.6725 5.21419C15.7456 5.15141 15.8529 5.15141 15.926 5.21419C19.042 7.99578 21.6363 11.3327 23.5527 15.0705C23.6697 15.2926 23.6258 15.563 23.46 15.7514C21.5436 17.8617 19.871 20.1797 18.4764 22.6619C18.3935 22.8164 18.1643 22.773 18.1399 22.6039C17.3548 17.5092 15.5408 12.7863 12.9319 8.61874C12.7905 8.39177 12.81 8.09719 12.9905 7.89437M5.84171 20.5274C6.81211 17.3498 8.24576 14.3702 10.0598 11.6659C10.1378 11.55 10.3085 11.5597 10.3767 11.6756C12.7613 15.8286 14.2876 20.5467 14.6972 25.6125C14.8289 27.2641 14.8337 28.8963 14.7216 30.5044C14.7118 30.6831 14.4729 30.7362 14.3802 30.5865C12.1469 27.0033 9.31856 23.8209 6.04164 21.1697C5.84659 21.0151 5.76857 20.7592 5.83684 20.5226M15.8773 54.9592C15.848 55.1668 15.5896 55.2586 15.4335 55.1137C8.6505 48.9421 4.38856 40.0902 4.38856 30.2678C4.38856 28.6017 4.51534 26.9646 4.74941 25.3614C4.76891 25.2165 4.94934 25.1537 5.0615 25.2503C11.7714 31.2964 16.0577 39.9599 16.2186 49.6326C16.2479 51.4387 16.126 53.2159 15.8773 54.9543M18.0326 34.8023C19.0713 29.1378 21.5582 23.8981 25.1424 19.5374C25.235 19.4264 25.4203 19.4602 25.4642 19.5954C26.5955 22.9516 27.2148 26.5397 27.2148 30.2678C27.2148 37.893 24.645 44.929 20.3245 50.584C20.2172 50.724 19.9929 50.6468 19.9929 50.4681C19.9929 50.1687 19.9929 49.8693 19.9929 49.5699C19.9295 45.9577 19.3492 42.4662 18.3252 39.1775C17.8863 37.7626 17.7644 36.2656 18.0326 34.8072" fill="#222720"/>
</svg>
