<svg width="300" height="181" viewBox="0 0 300 181" fill="none" xmlns="http://www.w3.org/2000/svg">
<g clip-path="url(#clip0_4277_56019)">
<path d="M122.416 145.581L120.906 148.898H114.967L127.639 123.132L140.31 148.898H134.09L132.63 145.581H122.416ZM127.511 134.241L124.567 140.746H130.429L127.485 134.241H127.511Z" fill="#FBFBFB"/>
<path d="M144.995 157.049V152.421C146.864 152.961 148.988 153.166 150.422 153.166C154.416 153.166 156.796 151.649 156.796 147.175V146.404C155.44 148.512 153.366 149.412 150.96 149.412C145.737 149.412 141.334 145.221 141.334 139.281C141.334 133.341 145.737 129.252 150.96 129.252C153.366 129.252 155.414 130.152 156.796 132.235V129.766H161.891V146.506C161.891 153.758 157.948 157.821 150.857 157.821C149.424 157.821 146.864 157.615 144.995 157.075M156.566 139.306C156.566 136.298 154.364 134.086 151.702 134.086C149.04 134.086 146.813 136.298 146.813 139.306C146.813 142.315 148.937 144.629 151.702 144.629C154.467 144.629 156.566 142.418 156.566 139.306Z" fill="#FBFBFB"/>
<path d="M171.567 148.898H166.243V129.715H171.337V131.746C172.745 130.075 174.742 129.2 177.122 129.2V134.549C176.585 134.446 175.893 134.343 175.228 134.343C173.206 134.343 171.567 135.475 171.567 138.303V148.898Z" fill="#FBFBFB"/>
<path d="M178.786 139.255C178.786 133.726 183.445 129.226 189.154 129.226C194.863 129.226 199.471 133.752 199.471 139.255C199.471 144.758 194.811 149.386 189.154 149.386C183.497 149.386 178.786 144.835 178.786 139.255ZM194.018 139.255C194.018 136.221 191.816 134.035 189.154 134.035C186.492 134.035 184.265 136.221 184.265 139.255C184.265 142.289 186.389 144.578 189.154 144.578C191.919 144.578 194.018 142.366 194.018 139.255Z" fill="#FBFBFB"/>
<path d="M91.0061 90.5001C91.0061 57.4568 76.9264 27.6536 54.4756 6.85054C52.1205 4.6648 49.6629 2.58192 47.1286 0.601895C46.1814 -0.143828 44.8502 -0.143828 43.9031 0.601895C41.3687 2.58192 38.9112 4.6648 36.556 6.85054C14.0797 27.6536 0 57.4568 0 90.5001C0 123.543 14.0797 153.321 36.556 174.15C38.9112 176.335 41.3687 178.418 43.9031 180.398C44.8502 181.144 46.1814 181.144 47.1286 180.398C49.6629 178.418 52.1205 176.335 54.4756 174.15C76.9264 153.321 91.0061 123.543 91.0061 90.5001ZM37.068 22.485C39.6024 19.6307 42.2903 16.9049 45.1062 14.3592C45.311 14.1792 45.6438 14.1792 45.8486 14.3592C55.1924 22.7936 62.9491 32.9508 68.6833 44.3167C69.0417 44.9853 68.9137 45.8081 68.4017 46.3739C62.6675 52.7768 57.65 59.8226 53.4773 67.3827C53.2213 67.8455 52.5557 67.717 52.4789 67.2027C50.1237 51.7225 44.6966 37.3738 36.8888 24.6965C36.4536 24.0022 36.5304 23.1022 37.068 22.5107M15.6413 60.9026C18.5596 51.2596 22.8347 42.2081 28.2618 33.9794C28.4922 33.6451 29.0042 33.6451 29.209 34.0051C36.3512 46.631 40.9335 60.954 42.1367 76.3571C42.5463 81.3714 42.5463 86.3343 42.2135 91.2201C42.1879 91.7601 41.4711 91.9144 41.1895 91.4772C34.5081 80.5743 26.0346 70.9313 16.2045 62.8826C15.6157 62.4198 15.3853 61.6483 15.5901 60.9283M45.6438 165.561C45.5414 166.204 44.7734 166.461 44.3127 166.024C23.9867 147.278 11.2382 120.38 11.2382 90.5515C11.2382 85.4857 11.6222 80.5228 12.3133 75.6371C12.3645 75.1999 12.9021 74.9942 13.2349 75.3028C33.3305 93.663 46.1558 119.995 46.6678 149.361C46.7702 154.864 46.4118 160.264 45.6438 165.535M52.0949 104.309C55.218 87.1058 62.6675 71.1884 73.3936 57.9454C73.6752 57.6111 74.2128 57.714 74.3664 58.1254C77.7455 68.3084 79.6143 79.2114 79.6143 90.5515C79.6143 113.72 71.9345 135.089 58.9811 152.267C58.674 152.678 57.9828 152.447 57.9828 151.907C57.9828 151.007 57.9828 150.081 57.9828 149.181C57.8036 138.201 56.0628 127.606 52.9909 117.603C51.6597 113.309 51.3013 108.757 52.1205 104.309" fill="#FBFBFB"/>
<path d="M160.329 60.1312H148.938L136.189 89.8572C135.984 90.2944 135.37 90.2944 135.165 89.8572L122.493 60.1312H111.102C110.846 60.1312 110.666 60.414 110.769 60.6712L135.191 112.512C135.396 112.923 135.984 112.923 136.163 112.512L160.662 60.6712C160.765 60.414 160.611 60.1312 160.329 60.1312ZM178.684 61.2883C178.275 60.4397 177.097 60.4397 176.687 61.2883L152.496 112.203C152.368 112.46 152.547 112.743 152.829 112.743H164.221L167.651 104.592H187.746L191.177 112.743H202.568C202.824 112.743 203.004 112.46 202.901 112.203L178.71 61.2883H178.684ZM171.056 96.0544L177.174 81.5257C177.379 81.0628 177.993 81.0628 178.198 81.5257L184.316 96.0544H171.056ZM235.361 85.3829L250.491 60.6712C250.644 60.414 250.465 60.1054 250.183 60.1054H238.101L220.719 90.5515V60.1054H209.813V112.717H218.082L229.269 95.103L241.377 112.717H253.716C254.023 112.717 254.177 112.383 254.023 112.126L235.413 85.3572L235.361 85.3829ZM282.183 80.6C274.349 79.1085 272.353 77.5914 272.353 74.5828C272.353 70.7256 275.194 69.1313 279.828 69.1313C285.204 69.1313 289.12 71.0084 292.269 73.4513C292.448 73.5799 292.679 73.5542 292.807 73.3485L298.234 64.6826C293.882 61.314 287.405 59.1797 279.93 59.1797C268.666 59.1797 261.473 65.6341 261.473 75.097C261.473 82.8371 265.543 88.2629 279.085 91.1944C286.867 92.6858 289.197 94.6659 289.197 97.7516C289.197 101.609 286.074 103.692 280.57 103.692C275.373 103.692 269.665 101.403 266.132 97.8545C265.978 97.7002 265.697 97.7259 265.569 97.9059L259.886 106.623C265.082 111.123 272.225 113.643 280.186 113.643C292.525 113.643 300 106.829 300 96.7487C300 88.6486 295.725 83.4543 282.183 80.6Z" fill="#FBFBFB"/>
</g>
<defs>
<clipPath id="clip0_4277_56019">
<rect width="300" height="180.928" fill="white" transform="translate(0 0.0361328)"/>
</clipPath>
</defs>
</svg>
