<svg xmlns="http://www.w3.org/2000/svg" width="24" height="46" viewBox="0 0 24 46" fill="none">
<path d="M23.5389 22.8293C23.5389 14.4916 19.9001 6.97214 14.1044 1.71852C13.4935 1.16687 12.8638 0.637433 12.2077 0.137617C11.9664 -0.0475 11.6232 -0.0475 11.3781 0.137617C10.722 0.637433 10.0923 1.16687 9.48141 1.71852C3.68569 6.97214 0.046875 14.4916 0.046875 22.8293C0.046875 31.1669 3.68569 38.6864 9.48141 43.94C10.0885 44.4917 10.722 45.0211 11.3781 45.5209C11.6232 45.706 11.9664 45.706 12.2077 45.5209C12.8638 45.0211 13.4935 44.4917 14.1044 43.94C19.9001 38.6864 23.5389 31.1669 23.5389 22.8293Z" fill="#F7A500"/>
<path d="M23.5389 22.8293C23.5389 14.4916 19.9001 6.97214 14.1044 1.71852C13.4935 1.16687 12.8638 0.637433 12.2077 0.137617C11.9664 -0.0475 11.6195 -0.0475 11.3781 0.137617C10.722 0.637433 10.0923 1.16687 9.48141 1.71852C3.68569 6.97214 0.046875 14.4916 0.046875 22.8293C0.046875 31.1669 3.68569 38.6864 9.48141 43.94C10.0923 44.4917 10.722 45.0211 11.3781 45.5209C11.6232 45.706 11.9664 45.706 12.2077 45.5209C12.8638 45.0211 13.4935 44.4917 14.1044 43.94C19.9001 38.6864 23.5389 31.1669 23.5389 22.8293ZM9.61716 5.66892C10.2695 4.94696 10.9633 4.26203 11.6949 3.61412C11.7514 3.56599 11.8344 3.56599 11.8909 3.61412C14.3005 5.74667 16.3066 8.30498 17.7885 11.1706C17.879 11.3409 17.845 11.5482 17.7168 11.6926C16.2349 13.3105 14.9415 15.0877 13.8631 16.9907C13.799 17.1092 13.6217 17.0758 13.6029 16.9463C12.9958 13.0403 11.5931 9.41939 9.57568 6.22427C9.46633 6.05026 9.48141 5.82441 9.62093 5.66892M4.09294 15.3542C4.84333 12.9181 5.95194 10.6338 7.35468 8.56044C7.41501 8.47159 7.54699 8.47899 7.59978 8.56785C9.4437 11.7519 10.624 15.3691 10.9407 19.2528C11.0425 20.519 11.0463 21.7704 10.9596 23.0033C10.952 23.1403 10.7673 23.181 10.6956 23.0662C8.96858 20.3191 6.78152 17.8792 4.24754 15.8467C4.09671 15.7282 4.03638 15.532 4.08917 15.3505M11.8532 41.7519C11.8306 41.9111 11.6308 41.9815 11.5101 41.8704C6.26492 37.1388 2.96924 30.3524 2.96924 22.8219C2.96924 21.5446 3.06728 20.2895 3.24828 19.0603C3.26336 18.9492 3.40288 18.9011 3.48961 18.9751C8.67823 23.6105 11.9928 30.2525 12.1172 37.6683C12.1398 39.0529 12.0456 40.4154 11.8532 41.7482M13.5199 26.2984C14.3231 21.9555 16.2462 17.9385 19.0178 14.5953C19.0894 14.5101 19.2327 14.536 19.2666 14.6397C20.1415 17.2128 20.6203 19.9637 20.6203 22.8219C20.6203 28.6679 18.6331 34.0622 15.2922 38.3976C15.2092 38.505 15.0358 38.4457 15.0358 38.3088C15.0358 38.0792 15.0358 37.8497 15.0358 37.6201C14.9868 34.8508 14.538 32.174 13.7462 29.6527C13.4068 28.5679 13.3125 27.4202 13.5199 26.3021" fill="#222720"/>
</svg>