<svg width="17" height="16" viewBox="0 0 17 16" fill="none" xmlns="http://www.w3.org/2000/svg">
<path id="Union" d="M1.30209 7.1C0.805033 7.1 0.402089 7.50294 0.402089 8C0.402089 8.49706 0.805033 8.9 1.30209 8.9L13.5543 8.9L8.72671 13.7276C8.37524 14.079 8.37524 14.6489 8.72671 15.0004C9.07818 15.3518 9.64803 15.3518 9.9995 15.0004L16.3635 8.63639C16.4498 8.55011 16.5149 8.45065 16.5588 8.3445C16.6018 8.2408 16.626 8.12731 16.627 8.00831C16.6271 8.00277 16.6271 7.99723 16.627 7.99169C16.626 7.87269 16.6018 7.7592 16.5588 7.65549C16.5149 7.54934 16.4498 7.44989 16.3635 7.3636L9.9995 0.999642C9.64803 0.64817 9.07818 0.64817 8.72671 0.999642C8.37524 1.35111 8.37524 1.92096 8.72671 2.27243L13.5543 7.1L1.30209 7.1Z" fill="black"/>
</svg>
