<svg width="201" height="120" viewBox="0 0 201 120" fill="none" xmlns="http://www.w3.org/2000/svg">
<g clip-path="url(#clip0_1708_5314)">
<path d="M61.3641 60C61.3641 38.0841 51.9837 18.3172 37.0093 4.51962C35.4403 3.06993 33.803 1.68847 32.1145 0.375222C31.4835 -0.119377 30.5966 -0.119377 29.9656 0.375222C28.2771 1.68847 26.6398 3.06993 25.0707 4.51962C10.1134 18.3172 0.733032 38.0841 0.733032 60C0.733032 81.9159 10.1134 101.683 25.0878 115.48C26.6569 116.93 28.2941 118.312 29.9826 119.625C30.6136 120.119 31.5005 120.119 32.1316 119.625C33.82 118.312 35.4573 116.93 37.0264 115.48C51.9837 101.666 61.3811 81.9159 61.3811 60" fill="#4E9D2D"/>
<path d="M82.2225 88.5674V96.8391H78.5727V79.7328L87.1344 88.8402L95.6619 79.7328V96.8391H91.9951V88.5503L87.1173 93.6839L82.2225 88.5674Z" fill="#222720"/>
<path d="M108.522 95.1677C107.618 96.5662 106.236 97.1631 104.633 97.1631C101.154 97.1631 98.2202 94.3832 98.2202 90.4434C98.2202 86.5037 101.154 83.7919 104.633 83.7919C106.236 83.7919 107.601 84.3888 108.522 85.7703V84.133H111.916V96.8562H108.522V95.1677ZM108.368 90.4434C108.368 88.448 106.901 86.9812 105.128 86.9812C103.354 86.9812 101.87 88.448 101.87 90.4434C101.87 92.4389 103.286 93.9738 105.128 93.9738C106.97 93.9738 108.368 92.5071 108.368 90.4434Z" fill="#222720"/>
<path d="M114.252 90.4434C114.252 86.5719 117.356 83.7919 121.04 83.7919C122.677 83.7919 123.837 84.0648 124.912 84.6617V88.141C123.752 87.3394 122.541 86.9812 121.381 86.9812C119.181 86.9812 117.902 88.448 117.902 90.4434C117.902 92.7118 119.437 93.9738 121.381 93.9738C122.728 93.9738 123.581 93.6668 124.758 93.087V96.4298C124.042 96.7879 122.626 97.1631 120.835 97.1631C117.288 97.1631 114.269 94.3832 114.269 90.4434" fill="#222720"/>
<path d="M131.017 96.8391H127.47V80.1933H131.017V85.3269C131.921 84.3036 133.217 83.7919 134.718 83.7919C137.447 83.7919 139.289 85.5827 139.289 89.3689V96.8562H135.69V89.8465C135.69 87.851 134.718 86.9983 133.456 86.9983C132.109 86.9983 131.017 87.8169 131.017 89.8465V96.8562V96.8391Z" fill="#222720"/>
<path d="M142.086 80.1762H145.616V82.888H142.086V80.1762ZM145.634 96.822H142.086V84.0989H145.634V96.822Z" fill="#222720"/>
<path d="M148.533 96.8391V84.116H151.927V85.4463C152.831 84.3547 154.144 83.7749 155.73 83.7749C158.459 83.7749 160.318 85.5656 160.318 89.3519V96.8391H156.771V89.8294C156.771 87.834 155.798 86.9812 154.536 86.9812C153.189 86.9812 152.097 87.7999 152.097 89.8294V96.8391H148.533Z" fill="#222720"/>
<path d="M169.869 97.1631C165.298 97.1631 162.535 94.5708 162.535 90.5458C162.535 86.8448 165.315 83.7749 169.153 83.7749C172.768 83.7749 175.122 86.5207 174.661 90.631L174.542 91.6032H166.287C166.663 93.1211 167.908 93.9738 169.835 93.9738C171.302 93.9738 172.7 93.7521 173.894 93.2575V96.2763C173.143 96.6515 171.728 97.1461 169.852 97.1461M166.321 89.062H171.284C171.216 87.6123 170.227 86.913 168.982 86.913C167.635 86.913 166.68 87.6464 166.321 89.062Z" fill="#222720"/>
<path d="M180.733 96.8391H177.186V84.116H180.58V85.4633C181.518 84.3547 182.848 83.7749 184.434 83.7749V87.3223C184.076 87.2541 183.615 87.1859 183.172 87.1859C181.825 87.1859 180.733 87.9363 180.733 89.8124V96.8391Z" fill="#222720"/>
<path d="M190.454 102.382V97.0949L185.543 84.116H189.346L192.348 92.6606L195.554 84.116H199.084L193.968 97.0779V102.382H190.454Z" fill="#222720"/>
<path d="M61.3641 60C61.3641 38.0841 51.9837 18.3343 37.0264 4.51962C35.4573 3.06993 33.82 1.68847 32.1316 0.375222C31.5005 -0.119377 30.6136 -0.119377 29.9826 0.375222C28.2941 1.68847 26.6569 3.06993 25.0878 4.51962C10.1134 18.3343 0.733032 38.0841 0.733032 60C0.733032 81.9159 10.1134 101.683 25.0878 115.48C26.6569 116.93 28.2941 118.312 29.9826 119.625C30.6136 120.119 31.5005 120.119 32.1316 119.625C33.82 118.312 35.4573 116.93 37.0264 115.48C51.9837 101.666 61.3641 81.9159 61.3641 60ZM25.4289 14.8891C27.1173 12.996 28.9081 11.1882 30.7842 9.49972C30.9206 9.38034 31.1424 9.38034 31.2788 9.49972C37.5039 15.0938 42.6716 21.8306 46.492 29.369C46.7308 29.8124 46.6455 30.3582 46.3044 30.7334C42.484 34.9801 39.1412 39.6532 36.3612 44.6674C36.1907 44.9744 35.7472 44.8891 35.6961 44.548C34.127 34.2808 30.5113 24.7641 25.3095 16.3559C25.0196 15.8954 25.0707 15.2985 25.4289 14.9062M11.1537 40.3695C13.098 33.9739 15.9462 27.9704 19.5619 22.5128C19.7154 22.2911 20.0565 22.2911 20.193 22.5299C24.9513 30.9039 28.0042 40.4036 28.8058 50.6197C29.0787 53.9454 29.0787 57.2371 28.857 60.4776C28.8399 60.8357 28.3624 60.938 28.1748 60.631C23.7234 53.4167 18.0781 47.004 11.5289 41.6657C11.1367 41.3587 10.9832 40.8471 11.1196 40.3695M31.1424 109.767C31.0741 110.193 30.5625 110.364 30.2555 110.091C16.7137 97.6578 8.22024 79.8181 8.22024 60.0341C8.22024 56.6743 8.47607 53.3826 8.93656 50.1592C8.97067 49.8693 9.32883 49.7328 9.55054 49.9375C22.9388 62.1148 31.4835 79.5793 31.8246 99.0733C31.8928 102.723 31.654 106.288 31.1424 109.801M35.4403 69.1927C37.521 57.7828 42.484 47.2257 49.6301 38.4423C49.8177 38.2206 50.1759 38.2888 50.2782 38.5617C52.5295 45.3155 53.7745 52.5469 53.7745 60.0682C53.7745 75.4349 48.658 89.6077 40.0281 101.001C39.8234 101.291 39.3629 101.12 39.3629 100.762C39.3629 100.165 39.3629 99.5509 39.3629 98.954C39.2435 91.6714 38.0838 84.6447 36.0372 78.0102C35.1503 75.162 34.9115 72.1433 35.4573 69.1927" fill="#222720"/>
<path d="M107.549 39.5679H99.9599L91.4664 59.2837C91.33 59.5736 90.9206 59.5736 90.7842 59.2837L82.3419 39.5679H74.7524C74.5818 39.5679 74.4624 39.7556 74.5306 39.909L90.8013 74.2922C90.9377 74.5651 91.33 74.5651 91.4493 74.2922L107.771 39.909C107.839 39.7385 107.737 39.5679 107.549 39.5679ZM119.778 40.3354C119.505 39.7726 118.721 39.7726 118.448 40.3354L102.331 74.1046C102.245 74.2752 102.365 74.4628 102.552 74.4628H110.142L112.427 69.0563H125.815L128.101 74.4628H135.69C135.861 74.4628 135.98 74.2752 135.912 74.1046L119.795 40.3354H119.778ZM114.696 63.394L118.772 53.7578C118.908 53.4508 119.317 53.4508 119.454 53.7578L123.53 63.394H114.696ZM157.538 56.3161L167.618 39.9261C167.72 39.7556 167.601 39.5509 167.413 39.5509H159.363L147.783 59.7442V39.5509H140.517V74.4457H146.026L153.479 62.7629L161.546 74.4457H169.767C169.971 74.4457 170.074 74.224 169.971 74.0534L157.572 56.299L157.538 56.3161ZM188.732 53.1438C183.513 52.1546 182.183 51.1484 182.183 49.1529C182.183 46.5947 184.076 45.5372 187.163 45.5372C190.744 45.5372 193.354 46.7823 195.452 48.4025C195.571 48.4878 195.725 48.4707 195.81 48.3343L199.425 42.5867C196.526 40.3525 192.211 38.9369 187.231 38.9369C179.727 38.9369 174.934 43.2177 174.934 49.494C174.934 54.6276 177.646 58.2263 186.668 60.1706C191.853 61.1598 193.405 62.473 193.405 64.5196C193.405 67.0779 191.324 68.4594 187.657 68.4594C184.195 68.4594 180.392 66.9415 178.038 64.5878C177.936 64.4855 177.748 64.5026 177.663 64.6219L173.877 70.4036C177.339 73.3883 182.097 75.0597 187.402 75.0597C195.622 75.0597 200.602 70.5571 200.602 63.8545C200.602 58.4992 197.754 55.037 188.732 53.1438Z" fill="#222720"/>
</g>
<defs>
<clipPath id="clip0_1708_5314">
<rect width="199.869" height="120" fill="white" transform="translate(0.733032)"/>
</clipPath>
</defs>
</svg>
