<svg xmlns="http://www.w3.org/2000/svg" width="84" height="50" viewBox="0 0 84 50" fill="none">
  <path d="M25.3666 25.0002C25.3666 15.8686 21.4421 7.63235 15.1772 1.88335C14.5207 1.27931 13.8357 0.703701 13.1293 0.156515C12.8653 -0.0495676 12.4942 -0.0495676 12.2302 0.156515C11.5238 0.703701 10.8388 1.27931 10.1823 1.88335C3.92451 7.63235 0 15.8686 0 25.0002C0 34.1318 3.92451 42.368 10.1895 48.117C10.8459 48.721 11.5309 49.2966 12.2373 49.8438C12.5014 50.0499 12.8724 50.0499 13.1364 49.8438C13.8428 49.2966 14.5278 48.721 15.1843 48.117C21.4421 42.3609 25.3738 34.1318 25.3738 25.0002" fill="#4E9D2D"/>
  <path d="M34.0934 36.9032V40.3498H32.5664V33.2222L36.1484 37.0169L39.7162 33.2222V40.3498H38.182V36.8961L36.1413 39.0351L34.0934 36.9032Z" fill="#222720"/>
  <path d="M45.0963 39.6534C44.7181 40.2361 44.1402 40.4848 43.4694 40.4848C42.0138 40.4848 40.7865 39.3265 40.7865 37.6849C40.7865 36.0434 42.0138 34.9135 43.4694 34.9135C44.1402 34.9135 44.711 35.1622 45.0963 35.7378V35.0556H46.5163V40.3569H45.0963V39.6534ZM45.0321 37.6849C45.0321 36.8535 44.4184 36.2424 43.6763 36.2424C42.9343 36.2424 42.3135 36.8535 42.3135 37.6849C42.3135 38.5164 42.9057 39.1559 43.6763 39.1559C44.447 39.1559 45.0321 38.5448 45.0321 37.6849Z" fill="#222720"/>
  <path d="M47.4938 37.6849C47.4938 36.0718 48.7925 34.9135 50.3338 34.9135C51.0188 34.9135 51.504 35.0272 51.9535 35.2759V36.7256C51.4683 36.3916 50.9617 36.2424 50.4765 36.2424C49.556 36.2424 49.0208 36.8535 49.0208 37.6849C49.0208 38.6301 49.663 39.1559 50.4765 39.1559C51.0402 39.1559 51.3969 39.028 51.8893 38.7864V40.1792C51.5896 40.3285 50.9974 40.4848 50.2481 40.4848C48.7639 40.4848 47.501 39.3265 47.501 37.6849" fill="#222720"/>
  <path d="M54.508 40.3498H53.0238V33.414H54.508V35.553C54.8862 35.1267 55.4285 34.9135 56.0564 34.9135C57.1981 34.9135 57.9687 35.6596 57.9687 37.2372V40.3569H56.4631V37.4362C56.4631 36.6048 56.0564 36.2495 55.5284 36.2495C54.9647 36.2495 54.508 36.5906 54.508 37.4362V40.3569V40.3498Z" fill="#222720"/>
  <path d="M59.1389 33.4069H60.616V34.5368H59.1389V33.4069ZM60.6231 40.3427H59.1389V35.0414H60.6231V40.3427Z" fill="#222720"/>
  <path d="M61.8361 40.3498V35.0485H63.2561V35.6028C63.6343 35.148 64.1837 34.9064 64.8473 34.9064C65.989 34.9064 66.7668 35.6525 66.7668 37.2301V40.3498H65.2826V37.4291C65.2826 36.5977 64.8759 36.2424 64.3478 36.2424C63.7841 36.2424 63.3275 36.5835 63.3275 37.4291V40.3498H61.8361Z" fill="#222720"/>
  <path d="M70.7626 40.4848C68.8503 40.4848 67.6944 39.4047 67.6944 37.7276C67.6944 36.1855 68.8575 34.9064 70.4629 34.9064C71.9757 34.9064 72.9604 36.0505 72.7677 37.7631L72.7178 38.1682H69.2642C69.4212 38.8006 69.9421 39.1559 70.7484 39.1559C71.362 39.1559 71.9471 39.0636 72.4466 38.8575V40.1153C72.1326 40.2716 71.5404 40.4777 70.7555 40.4777M69.2784 37.1093H71.3549C71.3263 36.5053 70.9125 36.2139 70.3916 36.2139C69.8279 36.2139 69.4283 36.5195 69.2784 37.1093Z" fill="#222720"/>
  <path d="M75.3079 40.3498H73.8238V35.0485H75.2437V35.6099C75.6362 35.148 76.1927 34.9064 76.8563 34.9064V36.3845C76.7065 36.3561 76.5138 36.3276 76.3283 36.3276C75.7646 36.3276 75.3079 36.6403 75.3079 37.422V40.3498Z" fill="#222720"/>
  <path d="M79.3752 42.6593V40.4564L77.3201 35.0485H78.9113L80.1672 38.6088L81.5087 35.0485H82.9857L80.8451 40.4493V42.6593H79.3752Z" fill="#222720"/>
  <path d="M25.3666 25.0002C25.3666 15.8686 21.4421 7.63946 15.1843 1.88335C14.5278 1.27931 13.8428 0.703701 13.1364 0.156515C12.8724 -0.0495676 12.5014 -0.0495676 12.2373 0.156515C11.5309 0.703701 10.8459 1.27931 10.1895 1.88335C3.92451 7.63946 0 15.8686 0 25.0002C0 34.1318 3.92451 42.368 10.1895 48.117C10.8459 48.721 11.5309 49.2966 12.2373 49.8438C12.5014 50.0499 12.8724 50.0499 13.1364 49.8438C13.8428 49.2966 14.5278 48.721 15.1843 48.117C21.4421 42.3609 25.3666 34.1318 25.3666 25.0002ZM10.3322 6.20399C11.0386 5.41518 11.7878 4.66192 12.5727 3.95839C12.6298 3.90865 12.7226 3.90865 12.7796 3.95839C15.3841 6.28926 17.5461 9.09625 19.1445 12.2372C19.2444 12.422 19.2087 12.6494 19.066 12.8057C17.4677 14.5752 16.0691 16.5223 14.906 18.6116C14.8347 18.7395 14.6491 18.704 14.6277 18.5619C13.9713 14.2839 12.4585 10.3185 10.2822 6.81513C10.1609 6.62326 10.1823 6.37454 10.3322 6.21109M4.35978 16.8208C5.17322 14.1559 6.36485 11.6545 7.87757 9.38051C7.94179 9.28812 8.0845 9.28812 8.14158 9.38761C10.1324 12.8768 11.4096 16.835 11.745 21.0917C11.8592 22.4774 11.8592 23.849 11.7664 25.1992C11.7593 25.3484 11.5595 25.391 11.481 25.2631C9.61863 22.2571 7.25678 19.5852 4.51676 17.3609C4.35264 17.233 4.28842 17.0198 4.34551 16.8208M12.7226 45.7364C12.694 45.914 12.48 45.9851 12.3515 45.8714C6.68594 40.6909 3.13248 33.2577 3.13248 25.0144C3.13248 23.6144 3.23951 22.2429 3.43217 20.8998C3.44644 20.779 3.59628 20.7222 3.68904 20.8075C9.2904 25.8814 12.8653 33.1582 13.008 41.2807C13.0365 42.8015 12.9366 44.2867 12.7226 45.7506M14.5207 28.8305C15.3912 24.0764 17.4677 19.6775 20.4574 16.0178C20.5359 15.9254 20.6858 15.9538 20.7286 16.0675C21.6705 18.8816 22.1913 21.8947 22.1913 25.0286C22.1913 31.4314 20.0507 37.3367 16.4401 42.0837C16.3545 42.2046 16.1619 42.1335 16.1619 41.9843C16.1619 41.7355 16.1619 41.4797 16.1619 41.231C16.1119 38.1966 15.6267 35.2688 14.7704 32.5044C14.3994 31.3177 14.2995 30.0599 14.5278 28.8305" fill="#222720"/>
  <path d="M44.6895 16.4868H41.5142L37.9608 24.7017C37.9037 24.8225 37.7324 24.8225 37.6753 24.7017L34.1433 16.4868H30.968C30.8966 16.4868 30.8467 16.565 30.8752 16.6289L37.6825 30.9553C37.7396 31.069 37.9037 31.069 37.9536 30.9553L44.7823 16.6289C44.8108 16.5579 44.768 16.4868 44.6895 16.4868ZM49.8057 16.8066C49.6915 16.5721 49.3632 16.5721 49.2491 16.8066L42.5061 30.8771C42.4704 30.9482 42.5203 31.0263 42.5988 31.0263H45.7741L46.7303 28.7736H52.3316L53.2878 31.0263H56.4631C56.5344 31.0263 56.5844 30.9482 56.5558 30.8771L49.8128 16.8066H49.8057ZM47.6793 26.4143L49.3847 22.3993C49.4417 22.2714 49.613 22.2714 49.6701 22.3993L51.3755 26.4143H47.6793ZM65.6036 23.4652L69.8207 16.636C69.8635 16.565 69.8135 16.4797 69.735 16.4797H66.3671L61.5221 24.8936V16.4797H58.4824V31.0192H60.7872L63.9054 26.1514L67.2804 31.0192H70.7197C70.8054 31.0192 70.8482 30.9268 70.8054 30.8558L65.6179 23.4581L65.6036 23.4652ZM78.6544 22.1434C76.4709 21.7313 75.9144 21.312 75.9144 20.4806C75.9144 19.4146 76.7064 18.974 77.9979 18.974C79.4964 18.974 80.5881 19.4928 81.4658 20.1679C81.5157 20.2034 81.5799 20.1963 81.6156 20.1395L83.1283 17.7446C81.9153 16.8137 80.11 16.2239 78.0265 16.2239C74.8869 16.2239 72.8818 18.0076 72.8818 20.6227C72.8818 22.7617 74.0163 24.2611 77.791 25.0712C79.9602 25.4834 80.6095 26.0306 80.6095 26.8834C80.6095 27.9493 79.739 28.5249 78.2049 28.5249C76.7564 28.5249 75.1651 27.8924 74.1804 26.9118C74.1376 26.8691 74.0591 26.8762 74.0235 26.926L72.4394 29.335C73.8879 30.5786 75.8787 31.275 78.0978 31.275C81.5371 31.275 83.6207 29.399 83.6207 26.6062C83.6207 24.3748 82.4291 22.9322 78.6544 22.1434Z" fill="#222720"/>
</svg>